<svg xmlns="http://www.w3.org/2000/svg" width="273" height="248" viewBox="0 0 273 248" fill="none"><g clip-path="url(#clip0_1625_5743)"><path d="M220.746 192.398H194.303V193.142H220.746V192.398Z" fill="#EE2E20"></path><path d="M221.368 191.773H193.68V193.765H221.368V191.773Z" fill="#EE2E20"></path><path d="M193.545 193.142V192.398H179.516V193.142" fill="#EE2E20"></path><path d="M194.167 193.141H192.922V193.021H180.138V193.141H178.893V191.773H194.167V193.141Z" fill="#EE2E20"></path><path d="M194.302 145.742H193.545V146.486H194.302V145.742Z" fill="#EE2E20"></path><path d="M194.924 145.117H192.922V147.109H194.924V145.117Z" fill="#EE2E20"></path><path d="M194.302 192.398H193.545V193.142H194.302V192.398Z" fill="#EE2E20"></path><path d="M194.924 191.773H192.922V193.765H194.924V191.773Z" fill="#EE2E20"></path><path d="M221.503 145.742H220.746V146.486H221.503V145.742Z" fill="#EE2E20"></path><path d="M222.125 145.117H220.123V147.109H222.125V145.117Z" fill="#EE2E20"></path><path d="M194.167 161.916H178.893V145.859H194.167V161.916ZM180.138 160.668H192.922V147.107H180.138V160.668Z" fill="#EE2E20"></path><path d="M194.167 177.47H178.893V161.414H194.167V177.47ZM180.138 176.222H192.922V162.662H180.138V176.222Z" fill="#EE2E20"></path><path d="M239.664 177.47H220.879V161.414H239.664V177.47ZM222.124 176.222H238.419V162.662H222.124V176.222Z" fill="#EE2E20"></path><path d="M222.063 129.839H193.68V114.754L222.063 129.839ZM194.925 128.591H217.057L194.925 116.828V128.591Z" fill="#EE2E20"></path><path d="M221.368 193.021H193.68V176.965H221.368V193.021ZM194.925 191.773H220.123V178.213H194.925V191.773Z" fill="#EE2E20"></path><path d="M194.167 129.838H178.893V106.895L194.167 115.012V129.838ZM180.138 128.59H192.922V115.763L180.138 108.969V128.59Z" fill="#EE2E20"></path><path d="M221.368 177.47H193.68V161.414H221.368V177.47ZM194.925 176.222H220.123V162.662H194.925V176.222Z" fill="#EE2E20"></path><path d="M194.303 129.959H220.746V129.845L219.56 129.215H194.303V129.959Z" fill="#EE2E20"></path><path d="M221.368 130.582H193.68V128.59H219.715L221.368 129.468V130.582Z" fill="#EE2E20"></path><path d="M193.545 129.215H179.516V129.959H193.545V129.215Z" fill="#EE2E20"></path><path d="M194.167 128.59H178.893V130.582H194.167V128.59Z" fill="#EE2E20"></path><path d="M193.545 145.742H179.516V146.486H193.545V145.742Z" fill="#EE2E20"></path><path d="M194.167 145.117H178.893V147.109H194.167V145.117Z" fill="#EE2E20"></path><path d="M239.042 145.742H221.502V146.486H239.042V145.742Z" fill="#EE2E20"></path><path d="M239.664 145.117H220.879V147.109H239.664V145.117Z" fill="#EE2E20"></path><path d="M220.746 145.742H194.303V146.486H220.746V145.742Z" fill="#EE2E20"></path><path d="M221.368 145.117H193.68V147.109H221.368V145.117Z" fill="#EE2E20"></path><path d="M220.746 161.293H194.303V162.037H220.746V161.293Z" fill="#EE2E20"></path><path d="M221.368 160.668H193.68V162.66H221.368V160.668Z" fill="#EE2E20"></path><path d="M239.042 161.293H221.502V162.037H239.042V161.293Z" fill="#EE2E20"></path><path d="M239.664 160.668H220.879V162.66H239.664V160.668Z" fill="#EE2E20"></path><path d="M193.545 161.293H179.516V162.037H193.545V161.293Z" fill="#EE2E20"></path><path d="M194.167 160.668H178.893V162.66H194.167V160.668Z" fill="#EE2E20"></path><path d="M239.042 176.844H221.502V177.588H239.042V176.844Z" fill="#EE2E20"></path><path d="M239.664 176.219H220.879V178.211H239.664V176.219Z" fill="#EE2E20"></path><path d="M220.746 176.844H194.303V177.588H220.746V176.844Z" fill="#EE2E20"></path><path d="M221.368 176.219H193.68V178.211H221.368V176.219Z" fill="#EE2E20"></path><path d="M193.545 176.844H179.516V177.588H193.545V176.844Z" fill="#EE2E20"></path><path d="M194.167 176.219H178.893V178.211H194.167V176.219Z" fill="#EE2E20"></path><path d="M239.042 192.398H221.502V193.142H239.042V192.398Z" fill="#EE2E20"></path><path d="M239.664 191.773H220.879V193.765H239.664V191.773Z" fill="#EE2E20"></path><path d="M239.042 207.949H221.502V208.693H239.042V207.949Z" fill="#EE2E20"></path><path d="M239.664 207.324H220.879V209.316H239.664V207.324Z" fill="#EE2E20"></path><path d="M204.776 207.949C204.656 207.949 204.561 208.115 204.561 208.321C204.561 208.527 204.658 208.693 204.776 208.693H220.746V207.949H204.776Z" fill="#EE2E20"></path><path d="M221.368 209.316H204.775C204.297 209.316 203.938 208.888 203.938 208.32C203.938 207.752 204.299 207.324 204.775 207.324H221.368V209.316Z" fill="#EE2E20"></path><path d="M239.042 223.5H221.502V224.244H239.042V223.5Z" fill="#EE2E20"></path><path d="M239.664 222.875H220.879V224.867H239.664V222.875Z" fill="#EE2E20"></path><path d="M204.219 223.5C204.098 223.5 204 223.666 204 223.872C204 224.078 204.098 224.244 204.219 224.244H220.746V223.5H204.219Z" fill="#EE2E20"></path><path d="M221.368 224.867H204.219C203.738 224.867 203.377 224.439 203.377 223.871C203.377 223.303 203.739 222.875 204.219 222.875H221.368V224.867Z" fill="#EE2E20"></path><path d="M194.302 129.957H193.545V145.74H194.302V129.957Z" fill="#EE2E20"></path><path d="M194.924 129.332H192.922V146.363H194.924V129.332Z" fill="#EE2E20"></path><path d="M193.545 197.34C193.545 197.489 193.714 197.61 193.923 197.61C194.133 197.61 194.302 197.49 194.302 197.34V193.141H193.545V197.34Z" fill="#EE2E20"></path><path d="M193.923 198.233C193.361 198.233 192.922 197.841 192.922 197.339V192.516H194.924V197.339C194.924 197.84 194.484 198.233 193.923 198.233Z" fill="#EE2E20"></path><path d="M194.302 115.792L193.545 115.391V129.217H194.302V115.792Z" fill="#EE2E20"></path><path d="M194.924 129.839H192.922V114.352L194.924 115.415V129.839Z" fill="#EE2E20"></path><path d="M194.302 162.039H193.545V176.847H194.302V162.039Z" fill="#EE2E20"></path><path d="M194.924 161.414H192.922V177.47H194.924V161.414Z" fill="#EE2E20"></path><path d="M194.302 177.59H193.545V192.398H194.302V177.59Z" fill="#EE2E20"></path><path d="M194.924 176.965H192.922V193.021H194.924V176.965Z" fill="#EE2E20"></path><path d="M194.302 146.484H193.545V161.293H194.302V146.484Z" fill="#EE2E20"></path><path d="M194.924 145.859H192.922V161.916H194.924V145.859Z" fill="#EE2E20"></path><path d="M194.302 129.215H193.545V129.959H194.302V129.215Z" fill="#EE2E20"></path><path d="M194.924 128.59H192.922V130.582H194.924V128.59Z" fill="#EE2E20"></path><path d="M194.302 161.293H193.545V162.037H194.302V161.293Z" fill="#EE2E20"></path><path d="M194.924 160.668H192.922V162.66H194.924V160.668Z" fill="#EE2E20"></path><path d="M194.302 176.844H193.545V177.588H194.302V176.844Z" fill="#EE2E20"></path><path d="M194.924 176.219H192.922V178.211H194.924V176.219Z" fill="#EE2E20"></path><path d="M221.503 177.59H220.746V192.398H221.503V177.59Z" fill="#EE2E20"></path><path d="M222.125 176.965H220.123V193.021H222.125V176.965Z" fill="#EE2E20"></path><path d="M221.503 146.484H220.746V161.293H221.503V146.484Z" fill="#EE2E20"></path><path d="M222.125 145.859H220.123V161.916H222.125V145.859Z" fill="#EE2E20"></path><path d="M221.503 162.039H220.746V176.847H221.503V162.039Z" fill="#EE2E20"></path><path d="M222.125 161.414H220.123V177.47H222.125V161.414Z" fill="#EE2E20"></path><path d="M221.503 208.695H220.746V223.504H221.503V208.695Z" fill="#EE2E20"></path><path d="M222.125 208.07H220.123V224.127H222.125V208.07Z" fill="#EE2E20"></path><path d="M220.746 129.957V145.74H221.503V130.245L220.959 129.957H220.746Z" fill="#EE2E20"></path><path d="M222.125 146.363H220.123V129.332H221.114L222.125 129.869V146.363Z" fill="#EE2E20"></path><path d="M221.503 224.246H220.746V228.018H221.503V224.246Z" fill="#EE2E20"></path><path d="M222.125 223.621H220.123V228.641H222.125V223.621Z" fill="#EE2E20"></path><path d="M221.503 193.141H220.746V207.949H221.503V193.141Z" fill="#EE2E20"></path><path d="M222.125 192.516H220.123V208.572H222.125V192.516Z" fill="#EE2E20"></path><path d="M221.503 161.293H220.746V162.037H221.503V161.293Z" fill="#EE2E20"></path><path d="M222.125 160.668H220.123V162.66H222.125V160.668Z" fill="#EE2E20"></path><path d="M221.503 176.844H220.746V177.588H221.503V176.844Z" fill="#EE2E20"></path><path d="M222.125 176.219H220.123V178.211H222.125V176.219Z" fill="#EE2E20"></path><path d="M221.503 192.398H220.746V193.142H221.503V192.398Z" fill="#EE2E20"></path><path d="M222.125 191.773H220.123V193.765H222.125V191.773Z" fill="#EE2E20"></path><path d="M221.503 207.949H220.746V208.693H221.503V207.949Z" fill="#EE2E20"></path><path d="M222.125 207.324H220.123V209.316H222.125V207.324Z" fill="#EE2E20"></path><path d="M221.503 223.5H220.746V224.244H221.503V223.5Z" fill="#EE2E20"></path><path d="M222.125 222.875H220.123V224.867H222.125V222.875Z" fill="#EE2E20"></path><path d="M141.417 45.2656H140.68V46.0045H141.417V45.2656Z" fill="#EE2E20"></path><path d="M100.629 46.0045H140.681V45.2656H100.983L100.629 45.4578V46.0045Z" fill="#EE2E20"></path><path d="M141.303 46.6275H100.006V45.0849L100.825 44.6406H141.303V46.6275Z" fill="#EE2E20"></path><path d="M100.628 45.457L99.8906 45.8564V46.0037H100.628V45.457Z" fill="#EE2E20"></path><path d="M100.276 166.359H71.5781V142.055H100.276V166.359ZM72.8232 165.111H99.0314V143.303H72.8232V165.111Z" fill="#EE2E20"></path><path d="M100.276 190.152H71.5781V165.848H100.276V190.152ZM72.8232 188.904H99.0314V167.096H72.8232V188.904Z" fill="#EE2E20"></path><path d="M100.276 142.563H71.5781V118.258H100.276V142.563ZM72.8232 141.314H99.0314V119.506H72.8232V141.314Z" fill="#EE2E20"></path><path d="M100.276 71.1751H71.5781V60.5503H72.8232V69.927H99.0314V46.0029H99.3788V45.3789H100.276V71.1751Z" fill="#EE2E20"></path><path d="M100.276 118.766H71.5781V94.4609H100.276V118.766ZM72.8232 117.518H99.0314V95.709H72.8232V117.518Z" fill="#EE2E20"></path><path d="M164.464 190.152H141.1V165.848H164.464V190.152ZM142.345 188.904H163.219V167.096H142.345V188.904Z" fill="#EE2E20"></path><path d="M100.276 94.9727H71.5781V70.668H100.276V94.9727ZM72.8232 93.7246H99.0314V71.916H72.8232V93.7246Z" fill="#EE2E20"></path><path d="M100.276 197.462H71.5781V189.645H100.276V197.462ZM72.8232 196.214H99.0314V190.893H72.8232V196.214Z" fill="#EE2E20"></path><path d="M164.464 166.359H141.1V142.055H164.464V166.359ZM142.345 165.111H163.219V143.303H142.345V165.111Z" fill="#EE2E20"></path><path d="M141.598 142.563H99.7773V118.258H141.598V142.563ZM101.022 141.314H140.353V119.506H101.022V141.314Z" fill="#EE2E20"></path><path d="M141.598 94.9727H99.7773V70.668H141.598V94.9727ZM101.022 93.7246H140.353V71.916H101.022V93.7246Z" fill="#EE2E20"></path><path d="M141.598 166.359H99.7773V142.055H141.598V166.359ZM101.022 165.111H140.353V143.303H101.022V165.111Z" fill="#EE2E20"></path><path d="M141.598 118.766H99.7773V94.4609H141.598V118.766ZM101.022 117.518H140.353V95.709H101.022V117.518Z" fill="#EE2E20"></path><path d="M164.464 94.9727H141.1V70.668H164.464V94.9727ZM142.345 93.7246H163.219V71.916H142.345V93.7246Z" fill="#EE2E20"></path><path d="M141.598 190.152H99.7773V165.848H141.598V190.152ZM101.022 188.904H140.353V167.096H101.022V188.904Z" fill="#EE2E20"></path><path d="M164.464 118.766H141.1V94.4609H164.464V118.766ZM142.345 117.518H163.219V95.709H142.345V117.518Z" fill="#EE2E20"></path><path d="M164.464 142.563H141.1V118.258H164.464V142.563ZM142.345 141.314H163.219V119.506H142.345V141.314Z" fill="#EE2E20"></path><path d="M164.464 197.462H141.1V189.645H164.464V197.462ZM142.345 196.214H163.219V190.893H142.345V196.214Z" fill="#EE2E20"></path><path d="M141.598 197.462H99.7773V189.645H141.598V197.462ZM101.022 196.214H140.353V190.893H101.022V196.214Z" fill="#EE2E20"></path><path d="M163.842 45.2656H141.723V46.0045H163.842V45.2656Z" fill="#EE2E20"></path><path d="M164.464 44.6406H141.1V46.6275H164.464V44.6406Z" fill="#EE2E20"></path><path d="M140.976 70.5547H100.4V71.2935H140.976V70.5547Z" fill="#EE2E20"></path><path d="M141.598 69.9297H99.7773V71.9166H141.598V69.9297Z" fill="#EE2E20"></path><path d="M99.6544 70.5547H72.2012V71.2935H99.6544V70.5547Z" fill="#EE2E20"></path><path d="M100.276 69.9297H71.5781V71.9166H100.276V69.9297Z" fill="#EE2E20"></path><path d="M163.842 70.5547H141.723V71.2935H163.842V70.5547Z" fill="#EE2E20"></path><path d="M164.464 69.9297H141.1V71.9166H164.464V69.9297Z" fill="#EE2E20"></path><path d="M99.6544 94.3477H72.2012V95.0865H99.6544V94.3477Z" fill="#EE2E20"></path><path d="M100.276 93.7227H71.5781V95.7096H100.276V93.7227Z" fill="#EE2E20"></path><path d="M140.976 94.3477H100.4V95.0865H140.976V94.3477Z" fill="#EE2E20"></path><path d="M141.598 93.7227H99.7773V95.7096H141.598V93.7227Z" fill="#EE2E20"></path><path d="M163.842 94.3477H141.723V95.0865H163.842V94.3477Z" fill="#EE2E20"></path><path d="M164.464 93.7227H141.1V95.7096H164.464V93.7227Z" fill="#EE2E20"></path><path d="M140.976 118.145H100.4V118.883H140.976V118.145Z" fill="#EE2E20"></path><path d="M141.598 117.52H99.7773V119.506H141.598V117.52Z" fill="#EE2E20"></path><path d="M163.842 118.145H141.723V118.883H163.842V118.145Z" fill="#EE2E20"></path><path d="M164.464 117.52H141.1V119.506H164.464V117.52Z" fill="#EE2E20"></path><path d="M99.6544 118.145H72.2012V118.883H99.6544V118.145Z" fill="#EE2E20"></path><path d="M100.276 117.52H71.5781V119.506H100.276V117.52Z" fill="#EE2E20"></path><path d="M99.6544 141.938H72.2012V142.676H99.6544V141.938Z" fill="#EE2E20"></path><path d="M100.276 141.312H71.5781V143.299H100.276V141.312Z" fill="#EE2E20"></path><path d="M140.976 141.938H100.4V142.676H140.976V141.938Z" fill="#EE2E20"></path><path d="M141.598 141.312H99.7773V143.299H141.598V141.312Z" fill="#EE2E20"></path><path d="M163.842 141.938H141.723V142.676H163.842V141.938Z" fill="#EE2E20"></path><path d="M164.464 141.312H141.1V143.299H164.464V141.312Z" fill="#EE2E20"></path><path d="M99.6544 165.734H72.2012V166.473H99.6544V165.734Z" fill="#EE2E20"></path><path d="M100.276 165.109H71.5781V167.096H100.276V165.109Z" fill="#EE2E20"></path><path d="M163.842 165.734H141.723V166.473H163.842V165.734Z" fill="#EE2E20"></path><path d="M164.464 165.109H141.1V167.096H164.464V165.109Z" fill="#EE2E20"></path><path d="M140.976 165.734H100.4V166.473H140.976V165.734Z" fill="#EE2E20"></path><path d="M141.598 165.109H99.7773V167.096H141.598V165.109Z" fill="#EE2E20"></path><path d="M99.6544 189.531H72.2012V190.27H99.6544V189.531Z" fill="#EE2E20"></path><path d="M100.276 188.906H71.5781V190.893H100.276V188.906Z" fill="#EE2E20"></path><path d="M163.842 189.531H141.723V190.27H163.842V189.531Z" fill="#EE2E20"></path><path d="M164.464 188.906H141.1V190.893H164.464V188.906Z" fill="#EE2E20"></path><path d="M140.976 189.531H100.4V190.27H140.976V189.531Z" fill="#EE2E20"></path><path d="M141.598 188.906H99.7773V190.893H141.598V188.906Z" fill="#EE2E20"></path><path d="M141.724 46.0039H140.977V70.552H141.724V46.0039Z" fill="#EE2E20"></path><path d="M142.346 45.3789H140.354V71.1751H142.346V45.3789Z" fill="#EE2E20"></path><path d="M141.724 45.2631V23.3359L140.977 23.7353V45.2631H141.724Z" fill="#EE2E20"></path><path d="M142.346 45.889H140.354V23.3627L142.346 22.2969V45.889Z" fill="#EE2E20"></path><path d="M141.724 142.68H140.977V165.736H141.724V142.68Z" fill="#EE2E20"></path><path d="M142.346 142.055H140.354V166.359H142.346V142.055Z" fill="#EE2E20"></path><path d="M141.724 118.883H140.977V141.939H141.724V118.883Z" fill="#EE2E20"></path><path d="M142.346 118.258H140.354V142.563H142.346V118.258Z" fill="#EE2E20"></path><path d="M141.724 95.0859H140.977V118.143H141.724V95.0859Z" fill="#EE2E20"></path><path d="M142.346 94.4609H140.354V118.766H142.346V94.4609Z" fill="#EE2E20"></path><path d="M141.724 190.27H140.977V196.839H141.724V190.27Z" fill="#EE2E20"></path><path d="M142.346 189.645H140.354V197.462H142.346V189.645Z" fill="#EE2E20"></path><path d="M141.724 71.293H140.977V94.3496H141.724V71.293Z" fill="#EE2E20"></path><path d="M142.346 70.668H140.354V94.9727H142.346V70.668Z" fill="#EE2E20"></path><path d="M141.724 166.473H140.977V189.529H141.724V166.473Z" fill="#EE2E20"></path><path d="M142.346 165.848H140.354V190.152H142.346V165.848Z" fill="#EE2E20"></path><path d="M141.724 70.5547H140.977V71.2935H141.724V70.5547Z" fill="#EE2E20"></path><path d="M142.346 69.9297H140.354V71.9166H142.346V69.9297Z" fill="#EE2E20"></path><path d="M141.724 94.3477H140.977V95.0865H141.724V94.3477Z" fill="#EE2E20"></path><path d="M142.346 93.7227H140.354V95.7096H142.346V93.7227Z" fill="#EE2E20"></path><path d="M141.724 118.145H140.977V118.883H141.724V118.145Z" fill="#EE2E20"></path><path d="M142.346 117.52H140.354V119.506H142.346V117.52Z" fill="#EE2E20"></path><path d="M141.724 141.938H140.977V142.676H141.724V141.938Z" fill="#EE2E20"></path><path d="M142.346 141.312H140.354V143.299H142.346V141.312Z" fill="#EE2E20"></path><path d="M141.724 165.734H140.977V166.473H141.724V165.734Z" fill="#EE2E20"></path><path d="M142.346 165.109H140.354V167.096H142.346V165.109Z" fill="#EE2E20"></path><path d="M141.724 189.531H140.977V190.27H141.724V189.531Z" fill="#EE2E20"></path><path d="M142.346 188.906H140.354V190.893H142.346V188.906Z" fill="#EE2E20"></path><path d="M100.401 118.883H99.6543V141.939H100.401V118.883Z" fill="#EE2E20"></path><path d="M101.023 118.258H99.0312V142.563H101.023V118.258Z" fill="#EE2E20"></path><path d="M100.401 142.68H99.6543V165.736H100.401V142.68Z" fill="#EE2E20"></path><path d="M101.023 142.055H99.0312V166.359H101.023V142.055Z" fill="#EE2E20"></path><path d="M100.401 166.473H99.6543V189.529H100.401V166.473Z" fill="#EE2E20"></path><path d="M101.023 165.848H99.0312V190.152H101.023V165.848Z" fill="#EE2E20"></path><path d="M100.401 95.0859H99.6543V118.143H100.401V95.0859Z" fill="#EE2E20"></path><path d="M101.023 94.4609H99.0312V118.766H101.023V94.4609Z" fill="#EE2E20"></path><path d="M100.401 71.293H99.6543V94.3496H100.401V71.293Z" fill="#EE2E20"></path><path d="M101.023 70.668H99.0312V94.9727H101.023V70.668Z" fill="#EE2E20"></path><path d="M100.401 190.27H99.6543V196.839H100.401V190.27Z" fill="#EE2E20"></path><path d="M101.023 189.645H99.0312V197.462H101.023V189.645Z" fill="#EE2E20"></path><path d="M100.401 46.0039H99.6543V70.552H100.401V46.0039Z" fill="#EE2E20"></path><path d="M101.023 45.3789H99.0312V71.1751H101.023V45.3789Z" fill="#EE2E20"></path><path d="M100.401 70.5547H99.6543V71.2935H100.401V70.5547Z" fill="#EE2E20"></path><path d="M101.023 69.9297H99.0312V71.9166H101.023V69.9297Z" fill="#EE2E20"></path><path d="M100.401 94.3477H99.6543V95.0865H100.401V94.3477Z" fill="#EE2E20"></path><path d="M101.023 93.7227H99.0312V95.7096H101.023V93.7227Z" fill="#EE2E20"></path><path d="M100.401 118.145H99.6543V118.883H100.401V118.145Z" fill="#EE2E20"></path><path d="M101.023 117.52H99.0312V119.506H101.023V117.52Z" fill="#EE2E20"></path><path d="M100.401 141.938H99.6543V142.676H100.401V141.938Z" fill="#EE2E20"></path><path d="M101.023 141.312H99.0312V143.299H101.023V141.312Z" fill="#EE2E20"></path><path d="M100.401 165.734H99.6543V166.473H100.401V165.734Z" fill="#EE2E20"></path><path d="M101.023 165.109H99.0312V167.096H101.023V165.109Z" fill="#EE2E20"></path><path d="M100.401 189.531H99.6543V190.27H100.401V189.531Z" fill="#EE2E20"></path><path d="M101.023 188.906H99.0312V190.893H101.023V188.906Z" fill="#EE2E20"></path><path d="M178.602 189.266H164.752V190.006H178.602V189.266Z" fill="#EE2E20"></path><path d="M193.847 70.6283H178.752V44.7734H193.847V70.6283ZM179.997 69.3802H192.602V46.0215H179.997V69.3802Z" fill="#EE2E20"></path><path d="M193.847 45.2833H178.752V17.0234L193.847 24.3046V45.2833ZM179.997 44.0352H192.602V25.0897L179.997 19.0091V44.0352Z" fill="#EE2E20"></path><path d="M179.224 189.887H164.129V165.527H179.224V189.887ZM165.374 188.639H177.979V166.775H165.374V188.639Z" fill="#EE2E20"></path><path d="M193.847 94.4807H178.752V70.1211H193.847V94.4807ZM179.997 93.2327H192.602V71.3692H179.997V93.2327Z" fill="#EE2E20"></path><path d="M179.224 166.035H164.129V141.676H179.224V166.035ZM165.374 164.787H177.979V142.924H165.374V164.787Z" fill="#EE2E20"></path><path d="M179.224 142.184H164.129V117.824H179.224V142.184ZM165.374 140.936H177.979V119.072H165.374V140.936Z" fill="#EE2E20"></path><path d="M179.224 118.332H164.129V93.9727H179.224V118.332ZM165.374 117.084H177.979V95.2207H165.374V117.084Z" fill="#EE2E20"></path><path d="M178.602 44.6602H164.752V45.4003H178.602V44.6602Z" fill="#EE2E20"></path><path d="M179.224 44.0352H164.129V46.0233H179.224V44.0352Z" fill="#EE2E20"></path><path d="M193.225 44.6602H179.375V45.4003H193.225V44.6602Z" fill="#EE2E20"></path><path d="M193.847 44.0352H178.752V46.0233H193.847V44.0352Z" fill="#EE2E20"></path><path d="M178.602 70.0039H164.752V70.744H178.602V70.0039Z" fill="#EE2E20"></path><path d="M179.224 69.3789H164.129V71.3671H179.224V69.3789Z" fill="#EE2E20"></path><path d="M193.225 70.0039H179.375V70.744H193.225V70.0039Z" fill="#EE2E20"></path><path d="M193.847 69.3789H178.752V71.3671H193.847V69.3789Z" fill="#EE2E20"></path><path d="M178.602 93.8555H164.752V94.5956H178.602V93.8555Z" fill="#EE2E20"></path><path d="M179.224 93.2305H164.129V95.2186H179.224V93.2305Z" fill="#EE2E20"></path><path d="M193.225 93.8555H179.375V94.5956H193.225V93.8555Z" fill="#EE2E20"></path><path d="M193.847 93.2305H178.752V95.2186H193.847V93.2305Z" fill="#EE2E20"></path><path d="M178.602 117.711H164.752V118.451H178.602V117.711Z" fill="#EE2E20"></path><path d="M179.224 117.086H164.129V119.074H179.224V117.086Z" fill="#EE2E20"></path><path d="M178.602 141.562H164.752V142.303H178.602V141.562Z" fill="#EE2E20"></path><path d="M179.224 140.938H164.129V142.926H179.224V140.938Z" fill="#EE2E20"></path><path d="M178.602 165.414H164.752V166.154H178.602V165.414Z" fill="#EE2E20"></path><path d="M179.224 164.789H164.129V166.777H179.224V164.789Z" fill="#EE2E20"></path><path d="M179.161 118.45H178.6V141.561H178.871C179.059 141.561 179.211 141.727 179.211 141.932C179.211 142.137 179.059 142.303 178.871 142.303H178.6V165.414H178.907C179.095 165.414 179.247 165.58 179.247 165.785C179.247 165.99 179.095 166.156 178.907 166.156H178.6V189.267H178.732C178.92 189.267 179.07 189.433 179.07 189.638C179.07 189.843 178.918 190.009 178.732 190.009H178.6V196.595H179.373V118.371C179.314 118.422 179.241 118.453 179.161 118.453V118.45Z" fill="#EE2E20"></path><path d="M179.997 197.215H177.979V117.826H179.046L179.997 116.996V197.215Z" fill="#EE2E20"></path><path d="M179.375 70.7461H178.602V93.8577H179.375V70.7461Z" fill="#EE2E20"></path><path d="M179.997 70.1211H177.979V94.4807H179.997V70.1211Z" fill="#EE2E20"></path><path d="M179.375 44.6561V18.0138L178.602 17.6406V44.6561H179.375Z" fill="#EE2E20"></path><path d="M179.997 45.2814H177.979V16.6484L179.997 17.6219V45.2814Z" fill="#EE2E20"></path><path d="M179.375 45.3984H178.602V70.0052H179.375V45.3984Z" fill="#EE2E20"></path><path d="M179.997 44.7734H177.979V70.6283H179.997V44.7734Z" fill="#EE2E20"></path><path d="M178.602 117.709H179.163C179.244 117.709 179.317 117.74 179.375 117.792V94.5977H178.602V117.709Z" fill="#EE2E20"></path><path d="M179.997 119.162L179.046 118.332H177.979V93.9727H179.997V119.162Z" fill="#EE2E20"></path><path d="M179.375 44.6602H178.602V45.4003H179.375V44.6602Z" fill="#EE2E20"></path><path d="M179.997 44.0352H177.979V46.0233H179.997V44.0352Z" fill="#EE2E20"></path><path d="M179.375 70.0039H178.602V70.744H179.375V70.0039Z" fill="#EE2E20"></path><path d="M179.997 69.3789H177.979V71.3671H179.997V69.3789Z" fill="#EE2E20"></path><path d="M179.375 93.8555H178.602V94.5956H179.375V93.8555Z" fill="#EE2E20"></path><path d="M179.997 93.2305H177.979V95.2186H179.997V93.2305Z" fill="#EE2E20"></path><path d="M178.602 117.707V118.447H179.163C179.244 118.447 179.317 118.416 179.375 118.365V117.789C179.316 117.738 179.243 117.707 179.163 117.707H178.602Z" fill="#EE2E20"></path><path d="M178.873 142.3C179.061 142.3 179.213 142.134 179.213 141.929C179.213 141.725 179.061 141.559 178.873 141.559H178.602V142.299H178.873V142.3Z" fill="#EE2E20"></path><path d="M178.909 166.155C179.097 166.155 179.249 165.989 179.249 165.785C179.249 165.58 179.097 165.414 178.909 165.414H178.602V166.154H178.909V166.155Z" fill="#EE2E20"></path><path d="M178.732 190.007C178.92 190.007 179.07 189.841 179.07 189.636C179.07 189.432 178.918 189.266 178.732 189.266H178.6V190.006H178.732V190.007Z" fill="#EE2E20"></path><path d="M193.224 23.8811L164.84 9.54959V3.05469L193.224 17.3862V23.8798V23.8811ZM166.085 8.78079L191.979 21.8555V18.1562L166.085 5.08154V8.78079Z" fill="#5533E5"></path><path d="M99.8906 45.8555L99.6191 46.0027H99.8906V45.8555Z" fill="#EE2E20"></path><path d="M100.512 46.627H97.1582L100.512 44.8086V46.627Z" fill="#5533E5"></path><path d="M179.522 118.514C179.522 118.398 179.474 118.294 179.4 118.227V118.801C179.474 118.733 179.522 118.631 179.522 118.514Z" fill="#EE2E20"></path><path d="M178.777 120.213V116.812L179.819 117.765C180.026 117.953 180.144 118.227 180.144 118.512C180.144 118.798 180.026 119.071 179.819 119.26L178.777 120.212V120.213ZM178.98 118.339C178.929 118.386 178.899 118.449 178.899 118.514C178.899 118.579 178.929 118.641 178.98 118.688L179.138 118.514L178.98 118.339Z" fill="#5533E5"></path><path d="M95.2934 40.9844L66.7246 56.4753V196.841H66.7259V56.4766L95.2934 40.9844Z" fill="#5533E5"></path><path d="M67.3479 197.463H66.1028L66.1016 196.839V56.1017L94.9966 40.4336L95.5892 41.5319L67.3479 56.8468V197.463Z" fill="#5533E5"></path><path d="M163.847 1.28733C163.853 1.28358 163.86 1.27984 163.866 1.27734C163.854 1.28358 163.842 1.28733 163.829 1.29482L115.404 27.5553L163.829 1.29606C163.829 1.29606 163.84 1.29107 163.847 1.28858V1.28733Z" fill="#5533E5"></path><path d="M115.7 28.1034L115.107 27.0051L163.532 0.745883C163.555 0.733403 163.58 0.72217 163.604 0.710938L163.588 0.718426L164.144 1.83419L164.104 1.85541L115.7 28.1034Z" fill="#5533E5"></path><path d="M163.25 197.948V196.84H141.416V197.948C141.416 198.153 141.251 198.318 141.047 198.318C140.843 198.318 140.679 198.153 140.679 197.948V196.84H100.627V197.948C100.627 198.153 100.461 198.318 100.258 198.318C100.055 198.318 99.8896 198.153 99.8896 197.948V196.84H72.7911V197.948C72.7911 198.561 72.2956 199.056 71.6855 199.056H164.356C163.745 199.056 163.25 198.561 163.25 197.948Z" fill="#5533E5"></path><path d="M164.356 199.679H71.6855V198.431C71.952 198.431 72.1686 198.214 72.1686 197.947V196.215H163.872V197.947C163.872 198.214 164.089 198.431 164.356 198.431V199.679ZM141.912 198.431H162.696C162.651 198.278 162.627 198.116 162.627 197.947V197.463H142.038V197.947C142.038 198.123 141.992 198.288 141.912 198.431ZM101.123 198.431H140.182C140.102 198.288 140.056 198.123 140.056 197.947V197.463H101.249V197.947C101.249 198.123 101.203 198.288 101.123 198.431ZM73.3452 198.431H99.394C99.3144 198.288 99.2683 198.123 99.2683 197.947V197.463H73.4149V197.947C73.4149 198.116 73.3913 198.278 73.3464 198.431H73.3452Z" fill="#5533E5"></path><path d="M164.512 1.17553C164.503 1.17431 164.494 1.17309 164.484 1.17188C164.492 1.17188 164.498 1.17431 164.505 1.17431C164.507 1.17431 164.51 1.17431 164.512 1.17431V1.17553Z" fill="#5533E5"></path><path d="M164.429 1.79526L164.4 1.79152L164.456 1.38465L164.559 0.554688H164.561C164.573 0.555936 164.586 0.558432 164.598 0.55968L164.428 1.79651L164.429 1.79526Z" fill="#5533E5"></path><path d="M164.669 1.20769C164.669 1.20769 164.682 1.21141 164.688 1.21264C164.667 1.20645 164.646 1.20026 164.625 1.19531C164.632 1.19655 164.639 1.19903 164.646 1.2015C164.655 1.20398 164.662 1.20645 164.671 1.20893L164.669 1.20769Z" fill="#5533E5"></path><path d="M164.518 1.81294L164.463 1.79797L164.473 1.80046L164.775 0.589844C164.809 0.59858 164.843 0.607317 164.875 0.618549L164.683 1.22635L164.516 1.81419L164.518 1.81294Z" fill="#5533E5"></path><path d="M164.249 1.16654C164.256 1.16654 164.263 1.1653 164.27 1.16406C164.249 1.1653 164.228 1.16778 164.207 1.17025C164.213 1.17025 164.221 1.16901 164.227 1.16778C164.234 1.16778 164.243 1.16654 164.25 1.1653L164.249 1.16654Z" fill="#5533E5"></path><path d="M164.276 1.79228H164.29L164.119 0.554201L164.135 0.551705C164.164 0.547961 164.193 0.545465 164.221 0.542969L164.272 1.1957L164.332 1.78604L164.276 1.79228Z" fill="#5533E5"></path><path d="M140.68 197.948C140.68 198.153 140.844 198.318 141.048 198.318C141.252 198.318 141.417 198.153 141.417 197.948V196.84H140.68V197.948Z" fill="#5533E5"></path><path d="M141.048 198.941C140.501 198.941 140.057 198.495 140.057 197.947V196.215H142.039V197.947C142.039 198.495 141.594 198.941 141.048 198.941Z" fill="#5533E5"></path><path d="M99.8906 197.948C99.8906 198.153 100.056 198.318 100.259 198.318C100.462 198.318 100.628 198.153 100.628 197.948V196.84H99.8906V197.948Z" fill="#5533E5"></path><path d="M100.259 198.941C99.7121 198.941 99.2676 198.495 99.2676 197.947V196.215H101.25V197.947C101.25 198.495 100.805 198.941 100.259 198.941Z" fill="#5533E5"></path><path d="M64.5149 197.949V55.8159C64.5149 55.4091 64.7378 55.0346 65.0939 54.8412L115.404 27.5586L65.0926 54.84C64.7353 55.0334 64.5137 55.4078 64.5137 55.8147V197.949H64.5149Z" fill="#5533E5"></path><path d="M65.62 199.68C64.6663 199.68 63.8906 198.902 63.8906 197.947V55.8131C63.8906 55.1765 64.238 54.5925 64.7958 54.2892L115.107 27.0078L115.699 28.1061L65.3897 55.3887C65.234 55.4736 65.1369 55.6371 65.1369 55.8143V197.947C65.1369 198.214 65.3536 198.431 65.62 198.431V199.68Z" fill="#5533E5"></path><path d="M100.627 45.2639H100.981L140.679 23.7361V22.4968C140.679 22.2934 140.843 22.1274 141.047 22.1274C141.252 22.1274 141.416 22.2934 141.416 22.4968V23.3367L163.25 11.4964V8.97656L100.627 42.9363V45.2639Z" fill="#5533E5"></path><path d="M101.138 45.8882H100.004V42.5646L163.872 7.92969V11.8686L101.138 45.8882ZM101.249 43.3085V44.4093L140.056 23.3657V22.4983C140.056 22.4122 140.067 22.3286 140.088 22.2474L101.25 43.3085H101.249ZM141.362 21.556C141.694 21.6683 141.947 21.9516 142.018 22.3011L162.626 11.126V10.0252L141.362 21.556Z" fill="#5533E5"></path><path d="M99.8897 38.4922L95.293 40.9846L99.8897 38.4922Z" fill="#5533E5"></path><path d="M95.5887 41.5321L94.9961 40.4338L95.0023 40.4313L99.5928 37.9414L100.185 39.0397L95.5887 41.5321Z" fill="#5533E5"></path><path d="M72.6967 190.268C72.5186 190.268 72.3729 190.103 72.3729 189.898C72.3729 189.693 72.5174 189.529 72.6967 189.529H72.7913V166.472H72.6979C72.5186 166.472 72.3742 166.307 72.3742 166.103C72.3742 165.898 72.5186 165.733 72.6979 165.733H72.7913V142.677H72.6979C72.5186 142.677 72.3742 142.512 72.3742 142.307C72.3742 142.102 72.5186 141.938 72.6979 141.938H72.7913V118.881H72.6979C72.5186 118.881 72.3729 118.715 72.3729 118.512C72.3729 118.308 72.5186 118.142 72.6979 118.142H72.7913V95.0855H72.7427C72.5398 95.0855 72.3742 94.9195 72.3742 94.7161C72.3742 94.5127 72.5398 94.3467 72.7427 94.3467H72.7913V71.29H72.7427C72.5398 71.29 72.3742 71.124 72.3742 70.9206C72.3742 70.7171 72.5398 70.5511 72.7427 70.5511H72.7913V60.5504L99.6183 46.003H97.6685C97.4656 46.003 97.3 45.8371 97.3 45.6336C97.3 45.4302 97.4656 45.2642 97.6685 45.2642H99.8897V43.3359L71.159 58.9155C70.8017 59.1089 70.5801 59.4833 70.5801 59.8902V196.837H72.7913V190.268H72.6967Z" fill="#5533E5"></path><path d="M73.4133 197.463H69.957V59.8917C69.957 59.2552 70.3044 58.6711 70.8622 58.3678L100.512 42.2891V45.3793H102.077L73.4133 60.9226V197.462V197.463ZM71.2021 196.215H72.1682V190.723C71.9167 190.545 71.7511 190.242 71.7511 189.9C71.7511 189.558 71.9167 189.254 72.1682 189.076V166.928C71.9167 166.749 71.7511 166.447 71.7511 166.104C71.7511 165.761 71.9167 165.459 72.1682 165.28V143.131C71.9167 142.953 71.7511 142.649 71.7511 142.307C71.7511 141.965 71.9167 141.662 72.1682 141.484V119.334C71.9167 119.156 71.7511 118.854 71.7511 118.511C71.7511 118.167 71.9167 117.867 72.1682 117.687V95.5238C71.9155 95.3441 71.7511 95.0483 71.7511 94.7138C71.7511 94.3794 71.9167 94.0848 72.1682 93.9039V71.7271C71.9155 71.5473 71.7511 71.2516 71.7511 70.9171C71.7511 70.5826 71.9167 70.2881 72.1682 70.1071V60.175L97.2945 46.5499C96.977 46.4201 96.7405 46.1281 96.6882 45.7774L71.4548 59.4611C71.2992 59.546 71.2021 59.7095 71.2021 59.8867V196.21V196.215ZM98.7923 44.6417H99.2667V44.3846L98.7923 44.6417Z" fill="#5533E5"></path><path d="M102.805 36.9092L163.25 4.1314V4.12891L100.627 38.0899L102.805 36.9092Z" fill="#5533E5"></path><path d="M100.004 39.1373V37.7182L100.33 37.541L163.872 3.08203V4.50108L163.546 4.67955L100.004 39.1373Z" fill="#5533E5"></path><path d="M100.981 45.2656H100.627V45.4578L100.981 45.2656Z" fill="#5533E5"></path><path d="M100.004 46.5027V44.6406H103.439L100.004 46.5027Z" fill="#5533E5"></path><path d="M99.8885 45.2656H97.6674C97.4644 45.2656 97.2988 45.4316 97.2988 45.6351C97.2988 45.8385 97.4644 46.0045 97.6674 46.0045H99.6171L99.8885 45.8572V45.2656Z" fill="#5533E5"></path><path d="M99.7747 46.6275H97.6668C97.1203 46.6275 96.6758 46.182 96.6758 45.6341C96.6758 45.0862 97.1203 44.6406 97.6668 44.6406H100.511V46.2282L99.7735 46.6275H99.7747Z" fill="#5533E5"></path><path d="M72.7416 70.5508C72.5386 70.5508 72.373 70.7168 72.373 70.9202C72.373 71.1236 72.5386 71.2896 72.7416 71.2896H72.7901V70.5508H72.7416Z" fill="#5533E5"></path><path d="M73.4141 71.9127H72.743C72.1964 71.9127 71.752 71.4671 71.752 70.9192C71.752 70.3713 72.1964 69.9258 72.743 69.9258H73.4141V71.9127ZM72.7916 70.6696V71.1689C72.9086 71.1464 72.997 71.0428 72.997 70.9192C72.997 70.7957 72.9086 70.6921 72.7916 70.6696Z" fill="#5533E5"></path><path d="M72.7416 94.3477C72.5386 94.3477 72.373 94.5137 72.373 94.7171C72.373 94.9205 72.5386 95.0865 72.7416 95.0865H72.7901V94.3477H72.7416Z" fill="#5533E5"></path><path d="M73.4141 95.7096H72.743C72.1964 95.7096 71.752 95.264 71.752 94.7161C71.752 94.1682 72.1964 93.7227 72.743 93.7227H73.4141V95.7096ZM72.7916 94.4665V94.9657C72.9086 94.9433 72.997 94.8397 72.997 94.7161C72.997 94.5926 72.9086 94.489 72.7916 94.4665Z" fill="#5533E5"></path><path d="M72.698 118.145C72.5187 118.145 72.373 118.311 72.373 118.514C72.373 118.717 72.5187 118.883 72.698 118.883H72.7914V118.145H72.698Z" fill="#5533E5"></path><path d="M73.4134 119.506H72.6975C72.1758 119.506 71.75 119.061 71.75 118.513C71.75 117.965 72.1746 117.52 72.6975 117.52H73.4134V119.506ZM72.7909 118.272V118.755C72.9091 118.721 72.9963 118.624 72.9963 118.514C72.9963 118.404 72.9091 118.307 72.7909 118.273V118.272Z" fill="#5533E5"></path><path d="M72.6968 141.938C72.5175 141.938 72.373 142.102 72.373 142.307C72.373 142.512 72.5175 142.676 72.6968 142.676H72.7901V141.938H72.6968Z" fill="#5533E5"></path><path d="M73.4141 143.299H72.6982C72.1765 143.299 71.752 142.854 71.752 142.306C71.752 141.758 72.1765 141.312 72.6982 141.312H73.4141V143.299ZM72.7916 142.065V142.548C72.9099 142.513 72.997 142.417 72.997 142.307C72.997 142.197 72.9099 142.1 72.7916 142.066V142.065Z" fill="#5533E5"></path><path d="M72.6987 165.734C72.5194 165.734 72.375 165.899 72.375 166.104C72.375 166.308 72.5194 166.473 72.6987 166.473H72.7921V165.734H72.6987Z" fill="#5533E5"></path><path d="M73.4141 167.096H72.6982C72.1765 167.096 71.752 166.651 71.752 166.103C71.752 165.555 72.1765 165.109 72.6982 165.109H73.4141V167.096ZM72.7916 165.862V166.345C72.9099 166.31 72.997 166.214 72.997 166.104C72.997 165.994 72.9099 165.897 72.7916 165.863V165.862Z" fill="#5533E5"></path><path d="M72.6968 189.531C72.5187 189.531 72.373 189.696 72.373 189.901C72.373 190.105 72.5175 190.27 72.6968 190.27H72.7914V189.531H72.6968Z" fill="#5533E5"></path><path d="M73.4134 190.893H72.6962C72.1746 190.893 71.75 190.448 71.75 189.9C71.75 189.352 72.1746 188.906 72.6962 188.906H73.4134V190.893ZM72.7909 189.659V190.141C72.9091 190.106 72.9963 190.01 72.9963 189.9C72.9963 189.79 72.9091 189.693 72.7909 189.659Z" fill="#5533E5"></path><path d="M141.417 22.4983C141.417 22.2949 141.252 22.1289 141.048 22.1289C140.844 22.1289 140.68 22.2949 140.68 22.4983V23.7377L141.417 23.3383V22.4983Z" fill="#5533E5"></path><path d="M140.057 24.7838V22.4974C140.057 21.9495 140.501 21.5039 141.048 21.5039C141.594 21.5039 142.039 21.9495 142.039 22.4974V23.7092L140.057 24.7838Z" fill="#5533E5"></path><path d="M100.628 42.9336L99.8906 43.3342V45.2625H100.628V42.9336Z" fill="#5533E5"></path><path d="M101.25 45.8868H99.2676V42.9625L101.25 41.8867V45.8868Z" fill="#5533E5"></path><path d="M100.186 39.0399L99.5938 37.9416L101.25 37.043V38.4633L100.186 39.0399Z" fill="#5533E5"></path><path d="M100.628 45.4578V45.2656H99.8906V45.8572L100.628 45.4578Z" fill="#5533E5"></path><path d="M99.2676 46.9034V44.6406H101.25V45.8288L99.2676 46.9034Z" fill="#5533E5"></path><path d="M72.7914 197.943V196.835H66.7256V56.4694L95.2944 40.9785L99.8911 38.4861V36.4068C99.8911 36.2034 100.057 36.0374 100.26 36.0374C100.463 36.0374 100.628 36.2034 100.628 36.4068V38.0867L163.25 4.12574V2.26613C163.25 1.88173 163.449 1.52478 163.776 1.3226C163.798 1.30887 163.823 1.29764 163.847 1.28516C163.842 1.28765 163.835 1.29015 163.829 1.29264L115.404 27.5518L65.0946 54.8344C64.7372 55.0279 64.5156 55.4023 64.5156 55.8092V197.942C64.5156 198.555 65.0112 199.05 65.6212 199.05H71.6871C72.2972 199.05 72.7927 198.555 72.7927 197.942L72.7914 197.943Z" fill="#5533E5"></path><path d="M71.6866 199.677H65.6207C64.6682 199.677 63.8926 198.9 63.8926 197.945V55.8119C63.8926 55.1754 64.2399 54.5913 64.799 54.288L115.109 27.0054L163.56 0.732479L163.59 0.71875C163.58 0.722494 163.571 0.727486 163.561 0.732479L164.135 1.84076L164.093 1.86322C163.959 1.94684 163.874 2.10035 163.874 2.26884V4.50037L67.3488 56.844V196.214H73.4147V197.946C73.4147 198.901 72.639 199.678 71.6866 199.678V199.677ZM99.2681 37.0148L65.3916 55.3863C65.236 55.4712 65.1389 55.6347 65.1389 55.8119V197.945C65.1389 198.212 65.3555 198.429 65.6219 198.429H71.6878C71.9543 198.429 72.1709 198.212 72.1709 197.945V197.461H66.105V196.837V56.0989L99.2706 38.1156V37.0148H99.2681ZM101.158 35.9902C101.217 36.1175 101.25 36.2585 101.25 36.4083V37.0411L162.628 3.75528V2.65574L115.701 28.1024L101.158 35.9889V35.9902Z" fill="#5533E5"></path><path d="M100.628 36.4124C100.628 36.209 100.462 36.043 100.259 36.043C100.056 36.043 99.8906 36.209 99.8906 36.4124V38.4917L100.628 38.0923V36.4124Z" fill="#5533E5"></path><path d="M99.2676 39.5378V36.4114C99.2676 35.8635 99.7121 35.418 100.259 35.418C100.805 35.418 101.25 35.8635 101.25 36.4114V38.4632L99.2676 39.5378Z" fill="#5533E5"></path><path d="M194.286 25.6076C194.109 25.7174 193.908 25.7723 193.706 25.7723C193.535 25.7723 193.366 25.7324 193.209 25.6538L192.602 25.3467V45.2621H193.707C193.911 45.2621 194.076 45.428 194.076 45.6315C194.076 45.8349 193.911 46.0009 193.707 46.0009H192.602V70.549H193.707C193.911 70.549 194.076 70.715 194.076 70.9184C194.076 71.1219 193.911 71.2879 193.707 71.2879H192.602V94.3445H193.707C193.911 94.3445 194.076 94.5105 194.076 94.714C194.076 94.9174 193.911 95.0834 193.707 95.0834H192.602V109.626L194.813 110.758V24.6641C194.813 25.0485 194.614 25.4054 194.287 25.6076H194.286Z" fill="#5533E5"></path><path d="M195.435 111.778L191.979 110.008V24.3359L193.489 25.0985C193.637 25.1734 193.819 25.1659 193.959 25.0785C194.101 24.9912 194.188 24.8327 194.188 24.6667H195.434V111.779L195.435 111.778ZM193.224 109.244L194.19 109.738V95.5815C194.047 95.6614 193.882 95.7075 193.707 95.7075H193.224V109.244ZM193.224 93.7206H193.707C193.882 93.7206 194.047 93.7668 194.19 93.8467V71.786C194.047 71.8658 193.882 71.912 193.707 71.912H193.224V93.7206ZM193.224 69.9251H193.707C193.882 69.9251 194.047 69.9713 194.19 70.0511V46.499C194.047 46.5789 193.882 46.6251 193.707 46.6251H193.224V69.9251ZM193.224 44.6381H193.707C193.882 44.6381 194.047 44.6843 194.19 44.7642V26.3278C193.878 26.419 193.539 26.419 193.224 26.3278V44.6381Z" fill="#5533E5"></path><path d="M192.098 196.84H179.399V197.948C179.399 198.153 179.235 198.318 179.031 198.318C178.827 198.318 178.662 198.153 178.662 197.948V196.84H165.461V197.948C165.461 198.561 164.967 199.056 164.355 199.056H193.706C193.964 199.056 194.202 198.967 194.39 198.818L192.098 196.84Z" fill="#5533E5"></path><path d="M193.706 199.679H164.355V198.431C164.622 198.431 164.839 198.214 164.839 197.947V196.215H192.329L195.368 198.838L194.776 199.308C194.472 199.547 194.092 199.679 193.706 199.679ZM179.896 198.431H192.989L191.867 197.463H180.022V197.947C180.022 198.123 179.976 198.288 179.896 198.431ZM166.015 198.431H178.166C178.086 198.288 178.04 198.123 178.04 197.947V197.463H166.084V197.947C166.084 198.116 166.06 198.278 166.015 198.431Z" fill="#5533E5"></path><path d="M193.707 46.0045C193.911 46.0045 194.076 45.8385 194.076 45.6351C194.076 45.4316 193.911 45.2656 193.707 45.2656H192.602V46.0045H193.707Z" fill="#5533E5"></path><path d="M193.707 46.6275H191.979V44.6406H193.707C194.253 44.6406 194.698 45.0862 194.698 45.6341C194.698 46.182 194.253 46.6275 193.707 46.6275Z" fill="#5533E5"></path><path d="M193.707 71.2896C193.911 71.2896 194.076 71.1236 194.076 70.9202C194.076 70.7168 193.911 70.5508 193.707 70.5508H192.602V71.2896H193.707Z" fill="#5533E5"></path><path d="M193.707 71.9127H191.979V69.9258H193.707C194.253 69.9258 194.698 70.3713 194.698 70.9192C194.698 71.4671 194.253 71.9127 193.707 71.9127Z" fill="#5533E5"></path><path d="M193.707 95.0865C193.911 95.0865 194.076 94.9205 194.076 94.7171C194.076 94.5137 193.911 94.3477 193.707 94.3477H192.602V95.0865H193.707Z" fill="#5533E5"></path><path d="M193.707 95.7096H191.979V93.7227H193.707C194.253 93.7227 194.698 94.1682 194.698 94.7161C194.698 95.264 194.253 95.7096 193.707 95.7096Z" fill="#5533E5"></path><path d="M178.664 197.948C178.664 198.153 178.828 198.318 179.033 198.318C179.237 198.318 179.401 198.153 179.401 197.948V196.84H178.664V197.948Z" fill="#5533E5"></path><path d="M179.032 198.941C178.485 198.941 178.041 198.495 178.041 197.947V196.215H180.023V197.947C180.023 198.495 179.579 198.941 179.032 198.941Z" fill="#5533E5"></path><path d="M165.461 95.0859H163.25V118.143H165.461V95.0859Z" fill="#5533E5"></path><path d="M166.083 118.766H162.627V94.4609H166.083V118.766ZM163.872 117.518H164.838V95.709H163.872V117.518Z" fill="#5533E5"></path><path d="M165.461 166.473H163.25V189.529H165.461V166.473Z" fill="#5533E5"></path><path d="M166.083 190.152H162.627V165.848H166.083V190.152ZM163.872 188.904H164.838V167.096H163.872V188.904Z" fill="#5533E5"></path><path d="M165.461 118.883H163.25V141.939H165.461V118.883Z" fill="#5533E5"></path><path d="M166.083 142.563H162.627V118.258H166.083V142.563ZM163.872 141.314H164.838V119.506H163.872V141.314Z" fill="#5533E5"></path><path d="M163.25 45.2641H165.46V11.6463L164.173 10.9961L163.25 11.4966V45.2641Z" fill="#5533E5"></path><path d="M166.083 45.8889H162.627V11.1254L164.162 10.293L166.083 11.2627V45.8889ZM163.872 44.6408H164.838V12.0315L164.183 11.7008L163.872 11.8693V44.6408Z" fill="#5533E5"></path><path d="M165.459 197.948V190.27H163.248V197.948C163.248 198.56 163.742 199.056 164.354 199.056C164.965 199.056 165.459 198.56 165.459 197.948Z" fill="#5533E5"></path><path d="M164.355 199.679C163.403 199.679 162.627 198.901 162.627 197.947V189.645H166.083V197.947C166.083 198.901 165.308 199.679 164.355 199.679ZM163.872 190.893V197.947C163.872 198.214 164.089 198.431 164.355 198.431C164.622 198.431 164.838 198.214 164.838 197.947V190.893H163.872Z" fill="#5533E5"></path><path d="M165.461 71.293H163.25V94.3496H165.461V71.293Z" fill="#5533E5"></path><path d="M166.083 94.9727H162.627V70.668H166.083V94.9727ZM163.872 93.7246H164.838V71.916H163.872V93.7246Z" fill="#5533E5"></path><path d="M165.461 46.0039H163.25V70.552H165.461V46.0039Z" fill="#5533E5"></path><path d="M166.083 71.1751H162.627V45.3789H166.083V71.1751ZM163.872 69.927H164.838V46.627H163.872V69.927Z" fill="#5533E5"></path><path d="M165.461 142.68H163.25V165.736H165.461V142.68Z" fill="#5533E5"></path><path d="M166.083 166.359H162.627V142.055H166.083V166.359ZM163.872 165.111H164.838V143.303H163.872V165.111Z" fill="#5533E5"></path><path d="M165.461 45.2656H163.25V46.0045H165.461V45.2656Z" fill="#5533E5"></path><path d="M166.083 44.6406H162.627V46.6275H166.083V44.6406Z" fill="#5533E5"></path><path d="M165.461 70.5508H163.25V71.2896H165.461V70.5508Z" fill="#5533E5"></path><path d="M166.083 69.9258H162.627V71.9127H166.083V69.9258Z" fill="#5533E5"></path><path d="M165.461 94.3477H163.25V95.0865H165.461V94.3477Z" fill="#5533E5"></path><path d="M166.083 93.7227H162.627V95.7096H166.083V93.7227Z" fill="#5533E5"></path><path d="M165.461 118.145H163.25V118.883H165.461V118.145Z" fill="#5533E5"></path><path d="M166.083 117.52H162.627V119.506H166.083V117.52Z" fill="#5533E5"></path><path d="M165.461 141.938H163.25V142.676H165.461V141.938Z" fill="#5533E5"></path><path d="M166.083 141.312H162.627V143.299H166.083V141.312Z" fill="#5533E5"></path><path d="M165.461 165.734H163.25V166.473H165.461V165.734Z" fill="#5533E5"></path><path d="M166.083 165.109H162.627V167.096H166.083V165.109Z" fill="#5533E5"></path><path d="M165.461 189.531H163.25V190.27H165.461V189.531Z" fill="#5533E5"></path><path d="M166.083 188.906H162.627V190.893H166.083V188.906Z" fill="#5533E5"></path><path d="M164.173 10.9959L163.858 10.8374C163.485 10.6489 163.25 10.2658 163.25 9.84766V11.4963L164.173 10.9959Z" fill="#5533E5"></path><path d="M162.627 12.5435V9.84766H163.872C163.872 10.0311 163.974 10.1971 164.137 10.2795L165.517 10.9759L162.627 12.5435Z" fill="#5533E5"></path><path d="M178.664 18.3125V17.384C178.664 17.1805 178.828 17.0145 179.033 17.0145C179.237 17.0145 179.401 17.1805 179.401 17.384V18.6857L192.602 25.3516V22.8704L165.463 9.16797V11.6491L178.664 18.315V18.3125Z" fill="#5533E5"></path><path d="M193.224 26.3628L164.84 12.0313V8.15234L193.224 22.4838V26.3628ZM180.023 18.3003L191.979 24.3372V23.2526L180.007 17.2083C180.017 17.2657 180.022 17.3231 180.022 17.383V18.3003H180.023ZM166.085 11.2625L178.045 17.3006C178.073 16.9462 178.289 16.6441 178.593 16.4931L166.085 10.1779V11.2625Z" fill="#5533E5"></path><path d="M179.401 17.3851C179.401 17.1816 179.237 17.0156 179.033 17.0156C178.828 17.0156 178.664 17.1816 178.664 17.3851V18.3136L179.401 18.6855V17.3838V17.3851Z" fill="#5533E5"></path><path d="M180.023 19.698L178.041 18.697V17.3841C178.041 16.8362 178.485 16.3906 179.032 16.3906C179.579 16.3906 180.023 16.8362 180.023 17.3841V19.698Z" fill="#5533E5"></path><path d="M165.459 2.26782V4.06627L192.599 17.7687V25.347L193.206 25.654C193.363 25.7326 193.534 25.7725 193.703 25.7725C193.905 25.7725 194.105 25.7176 194.283 25.6078C194.609 25.4056 194.809 25.0487 194.809 24.6643V17.086C194.809 16.6679 194.573 16.2848 194.201 16.0963L164.851 1.27811C164.841 1.27311 164.83 1.26937 164.82 1.26562C164.854 1.28185 164.888 1.29683 164.92 1.3168C165.255 1.51649 165.459 1.87842 165.459 2.26907V2.26782Z" fill="#5533E5"></path><path d="M193.706 26.3977C193.437 26.3977 193.168 26.3341 192.929 26.213L191.978 25.7325V18.1543L164.838 4.45181V2.26895C164.838 2.09922 164.747 1.93947 164.603 1.85335C164.592 1.84711 164.578 1.84087 164.566 1.83463C164.564 1.83463 164.563 1.83338 164.562 1.83213C164.562 1.83213 164.562 1.83213 164.561 1.83213L164.824 1.26427L165.065 0.691406C165.09 0.701391 165.112 0.711375 165.135 0.722608L194.484 15.5408C195.07 15.8366 195.435 16.4295 195.435 17.0884V24.6667C195.435 25.2632 195.12 25.8286 194.613 26.1419C194.341 26.3103 194.028 26.399 193.707 26.399L193.706 26.3977ZM193.223 24.9637L193.488 25.0972C193.636 25.1721 193.818 25.1646 193.959 25.0773C194.101 24.9899 194.189 24.8314 194.189 24.6654V17.0872C194.189 16.9037 194.087 16.7377 193.924 16.6553L166.083 2.59969V3.68426L193.223 17.3867V24.9649V24.9637Z" fill="#5533E5"></path><path d="M164.507 1.17276C164.5 1.17276 164.494 1.17028 164.486 1.17028C164.461 1.16779 164.435 1.16531 164.41 1.16406C164.404 1.16406 164.397 1.16406 164.391 1.16406C164.43 1.16406 164.469 1.16903 164.507 1.17401V1.17276Z" fill="#5533E5"></path><path d="M164.422 1.79212C164.405 1.78962 164.389 1.78837 164.371 1.78712L164.41 0.539062C164.41 0.539062 164.43 0.539062 164.442 0.539062C164.482 0.541559 164.522 0.544055 164.562 0.549047C164.573 0.550295 164.585 0.552791 164.598 0.554039L164.423 1.78962L164.422 1.79212Z" fill="#5533E5"></path><path d="M164.393 1.78712H164.369L164.409 0.539062L164.44 0.540311L164.408 1.2255L164.393 1.78712Z" fill="#5533E5"></path><path d="M164.778 1.24947C164.772 1.24698 164.765 1.24326 164.758 1.24077C164.734 1.23207 164.712 1.22337 164.689 1.21591C164.682 1.21342 164.676 1.21218 164.67 1.21094C164.706 1.22212 164.742 1.23455 164.777 1.24947H164.778Z" fill="#5533E5"></path><path d="M164.542 1.82764L164.536 1.82515C164.522 1.81891 164.507 1.81392 164.492 1.81017L164.846 0.613281C164.846 0.613281 164.862 0.618273 164.874 0.622018C164.911 0.63325 164.947 0.646979 164.983 0.660708L165.018 0.675684L164.808 1.17491L164.542 1.82889V1.82764Z" fill="#5533E5"></path><path d="M164.775 1.24659C164.769 1.24422 164.763 1.24066 164.756 1.23828C164.762 1.24066 164.768 1.24422 164.775 1.24659Z" fill="#5533E5"></path><path d="M164.541 1.82319L164.518 1.8132L164.672 1.45875L164.983 0.65625L165.018 0.671227L164.541 1.82319Z" fill="#5533E5"></path><path d="M164.643 1.20455C164.636 1.2033 164.63 1.20082 164.622 1.19833C164.598 1.19212 164.573 1.18715 164.548 1.18217C164.542 1.18217 164.535 1.18093 164.529 1.17969C164.568 1.1859 164.605 1.1946 164.643 1.20455Z" fill="#5533E5"></path><path d="M164.481 1.80557C164.465 1.80058 164.449 1.79683 164.432 1.79434L164.628 0.5625C164.628 0.5625 164.647 0.564996 164.659 0.567492C164.698 0.574981 164.737 0.582469 164.775 0.592453C164.786 0.59495 164.799 0.598694 164.811 0.602438L164.481 1.80557Z" fill="#5533E5"></path><path d="M164.547 1.18206C164.541 1.18206 164.535 1.18087 164.529 1.17969C164.535 1.17969 164.541 1.18087 164.547 1.18206Z" fill="#5533E5"></path><path d="M164.455 1.79808L164.432 1.79434L164.628 0.5625L164.659 0.567492L164.549 1.18154L164.455 1.79808Z" fill="#5533E5"></path><path d="M164.92 1.31772C165.255 1.51741 165.46 1.87935 165.46 2.26999C165.46 1.8781 165.254 1.51616 164.92 1.31647C164.888 1.29775 164.854 1.28153 164.821 1.2653C164.816 1.2628 164.81 1.26031 164.805 1.25781C164.845 1.27529 164.883 1.29401 164.92 1.31647V1.31772Z" fill="#5533E5"></path><path d="M166.082 2.27145H164.837C164.837 2.10171 164.748 1.94196 164.602 1.85585C164.586 1.84586 164.568 1.83837 164.551 1.83089L165.06 0.691406C165.06 0.691406 165.071 0.696398 165.082 0.701391C165.132 0.725104 165.183 0.748817 165.239 0.782515C165.761 1.09453 166.083 1.66489 166.083 2.27145H166.082Z" fill="#5533E5"></path><path d="M164.822 1.26494C164.822 1.26494 164.811 1.26019 164.807 1.25781C164.811 1.26019 164.817 1.26256 164.822 1.26494Z" fill="#5533E5"></path><path d="M164.578 1.8393L164.551 1.82682L164.828 1.20653L165.049 0.683594L165.086 0.699819L164.805 1.30887L164.578 1.8393Z" fill="#5533E5"></path><path d="M163.949 1.24219C163.949 1.24219 163.938 1.24592 163.933 1.2484C163.911 1.2571 163.889 1.26829 163.868 1.27948C163.861 1.28321 163.854 1.28694 163.848 1.28942C163.881 1.27202 163.916 1.25586 163.951 1.24219H163.949Z" fill="#5533E5"></path><path d="M164.134 1.84191L163.559 0.734878L163.588 0.718653C163.626 0.699932 163.661 0.683707 163.696 0.669979L163.732 0.65625L164.179 1.82069C164.164 1.82693 164.149 1.83317 164.135 1.84066L164.134 1.84191Z" fill="#5533E5"></path><path d="M163.947 1.24219C163.947 1.24219 163.936 1.24575 163.932 1.24812C163.936 1.24575 163.942 1.24456 163.947 1.24219Z" fill="#5533E5"></path><path d="M164.153 1.83068L164.003 1.41882L163.693 0.671227L163.731 0.65625L164.176 1.82194L164.153 1.83068Z" fill="#5533E5"></path><path d="M165.459 9.63672C165.459 10.0436 165.236 10.418 164.88 10.6115L164.172 10.9959L165.46 11.6461V9.63672H165.459Z" fill="#5533E5"></path><path d="M166.082 12.6595L162.826 11.0158L164.583 10.0623C164.739 9.97744 164.836 9.81394 164.836 9.63672H166.081V12.6595H166.082Z" fill="#5533E5"></path><path d="M164.368 1.16406C164.36 1.16406 164.354 1.16406 164.347 1.16406C164.322 1.16406 164.296 1.16531 164.271 1.16779C164.264 1.16779 164.257 1.16903 164.25 1.17028C164.288 1.16655 164.328 1.16531 164.367 1.16531L164.368 1.16406Z" fill="#5533E5"></path><path d="M164.309 1.78962L164.189 0.547799C164.197 0.547799 164.209 0.545303 164.221 0.544055C164.262 0.540311 164.302 0.539062 164.34 0.539062H164.353H164.377L164.36 1.78712C164.344 1.78712 164.326 1.78712 164.309 1.78962Z" fill="#5533E5"></path><path d="M164.359 1.78712H164.34L164.344 0.539062H164.354H164.378L164.359 1.78712Z" fill="#5533E5"></path><path d="M164.085 1.19531C164.085 1.19531 164.073 1.1978 164.066 1.19904C164.043 1.20526 164.019 1.21271 163.996 1.22142C163.988 1.2239 163.982 1.22639 163.975 1.22887C164.011 1.2152 164.048 1.20401 164.085 1.19531Z" fill="#5533E5"></path><path d="M164.19 1.81669L163.762 0.644758C163.77 0.641014 163.783 0.63727 163.795 0.632278C163.83 0.619797 163.868 0.608565 163.906 0.59858L163.943 0.589844L164.239 1.80296C164.222 1.8067 164.206 1.8117 164.191 1.81794L164.19 1.81669Z" fill="#5533E5"></path><path d="M164.084 1.19531C164.084 1.19531 164.072 1.19769 164.066 1.20006C164.072 1.19887 164.078 1.19769 164.084 1.1965V1.19531Z" fill="#5533E5"></path><path d="M164.213 1.8067L164.133 1.45725L163.904 0.59858L163.942 0.589844L164.239 1.80171L164.213 1.8067Z" fill="#5533E5"></path><path d="M164.187 1.81847L163.758 0.646541C163.758 0.646541 163.768 0.642797 163.773 0.640301H163.775C163.775 0.640301 163.786 0.635309 163.793 0.632812L163.994 1.22315L164.209 1.80849L164.187 1.81597V1.81847Z" fill="#5533E5"></path><path d="M164.225 1.17188C164.219 1.17188 164.211 1.17187 164.205 1.17436C164.18 1.17809 164.155 1.18182 164.13 1.18679C164.123 1.18803 164.117 1.19052 164.109 1.19176C164.148 1.18306 164.185 1.17685 164.224 1.17188H164.225Z" fill="#5533E5"></path><path d="M164.245 1.80275L163.975 0.584641C163.975 0.584641 163.977 0.584641 163.978 0.584641C163.983 0.583393 163.995 0.580897 164.007 0.578401C164.047 0.570912 164.085 0.563424 164.124 0.558432L164.161 0.554688L164.301 1.79526C164.283 1.79776 164.267 1.80025 164.25 1.804H164.246L164.245 1.80275Z" fill="#5533E5"></path><path d="M164.244 1.79981L163.975 0.580459L164.006 0.574219L164.131 1.18452L164.271 1.79357L164.246 1.79857L164.244 1.79981Z" fill="#5533E5"></path><path d="M164.389 1.16406C164.382 1.16406 164.374 1.16406 164.367 1.16406C164.328 1.16406 164.288 1.16531 164.25 1.16905C164.242 1.16905 164.234 1.1703 164.226 1.17155C164.188 1.17654 164.149 1.18278 164.112 1.19152C164.103 1.19277 164.095 1.19526 164.087 1.19776C164.049 1.20774 164.013 1.21898 163.976 1.23146C163.967 1.2352 163.958 1.2377 163.95 1.24144C163.915 1.25517 163.88 1.2714 163.846 1.28887C163.823 1.30135 163.799 1.31258 163.775 1.32631C163.449 1.5285 163.25 1.88544 163.25 2.26984V4.12945V9.84807C163.25 10.2662 163.485 10.6493 163.858 10.8378L164.173 10.9963L164.881 10.6119C165.238 10.4184 165.46 10.044 165.46 9.63715V2.27109C165.46 1.88045 165.255 1.51851 164.921 1.31882C164.884 1.29636 164.845 1.27764 164.805 1.26016C164.795 1.25642 164.786 1.25143 164.776 1.24768C164.742 1.23271 164.705 1.22023 164.669 1.20899C164.661 1.2065 164.653 1.204 164.644 1.2015C164.607 1.19152 164.569 1.18278 164.53 1.17654C164.525 1.17654 164.52 1.1753 164.514 1.17405C164.511 1.17405 164.509 1.17405 164.506 1.17405C164.468 1.16905 164.428 1.16531 164.389 1.16406Z" fill="#5533E5"></path><path d="M164.183 11.6995L163.578 11.3938C162.992 11.098 162.627 10.5051 162.627 9.84741V2.26919C162.627 1.66263 162.934 1.11223 163.449 0.793979C163.48 0.775258 163.512 0.757785 163.545 0.74156L163.557 0.73532C163.612 0.706615 163.667 0.681653 163.72 0.660436C163.735 0.654196 163.75 0.649204 163.764 0.644212C163.818 0.624243 163.876 0.60677 163.933 0.591793L163.973 0.581809C164.033 0.56808 164.092 0.558095 164.152 0.550607L164.191 0.546863C164.249 0.540623 164.31 0.538126 164.373 0.539375H164.407C164.468 0.541871 164.531 0.546863 164.592 0.555599L164.625 0.560592C164.686 0.570576 164.746 0.583057 164.806 0.599281L164.843 0.609266C164.899 0.625491 164.955 0.64546 165.011 0.669173C165.026 0.675413 165.041 0.681653 165.056 0.687894C165.125 0.719095 165.184 0.749049 165.238 0.781498C165.758 1.09227 166.081 1.66263 166.081 2.26919V9.63524C166.081 10.2718 165.733 10.8558 165.174 11.1591L164.18 11.6983L164.183 11.6995ZM163.949 1.24078L164.177 1.82113C164.162 1.82737 164.147 1.83361 164.133 1.8411L164.092 1.86232C163.958 1.94469 163.873 2.09945 163.873 2.26919V9.84741C163.873 10.0309 163.975 10.1969 164.138 10.2792L164.163 10.2917L164.587 10.0621C164.742 9.97721 164.839 9.81371 164.839 9.63649V2.27043C164.839 2.1007 164.749 1.94095 164.604 1.85483C164.588 1.84485 164.57 1.83736 164.553 1.82987L164.542 1.82488C164.527 1.81864 164.511 1.8124 164.495 1.8074C164.467 1.79992 164.451 1.79617 164.434 1.79368C164.406 1.78993 164.389 1.78868 164.373 1.78744H164.364C164.344 1.78744 164.328 1.78744 164.312 1.78993C164.284 1.79368 164.267 1.79617 164.25 1.79992C164.224 1.80616 164.208 1.81115 164.193 1.81739L163.953 1.24078H163.949Z" fill="#5533E5"></path><path d="M164.236 1.80263L163.936 0.590768L163.97 0.582031H163.975L164.252 1.79889L164.236 1.80263Z" fill="#5533E5"></path><path d="M164.176 1.82145L163.719 0.660756H163.72C163.732 0.655764 163.745 0.650772 163.756 0.645779H163.759C163.76 0.645779 163.761 0.645779 163.764 0.644531L164.187 1.81896L164.176 1.8227V1.82145Z" fill="#5533E5"></path><path d="M164.529 1.17816C164.529 1.17816 164.52 1.17697 164.514 1.17578C164.518 1.17578 164.523 1.17697 164.529 1.17816Z" fill="#5533E5"></path><path d="M164.433 1.79417L164.424 1.79293L164.603 0.558594L164.629 0.562338L164.433 1.79417Z" fill="#5533E5"></path><path d="M164.805 1.26218C164.796 1.25852 164.787 1.25365 164.777 1.25C164.787 1.25365 164.796 1.25731 164.805 1.26218Z" fill="#5533E5"></path><path d="M164.555 1.83257L164.541 1.82633L165.015 0.671875C165.015 0.671875 165.018 0.671875 165.019 0.673123C165.033 0.679363 165.046 0.684356 165.06 0.690596L164.555 1.83132V1.83257Z" fill="#5533E5"></path><path d="M164.369 1.78837L164.361 1.78712L164.371 0.539062L164.409 0.540311L164.369 1.78837Z" fill="#5533E5"></path><path d="M242.644 228.883H239.672V139.745C239.672 139.567 239.575 139.405 239.419 139.32L179.514 106.834V103.152L242.644 137.387V228.883ZM240.917 227.635H241.399V138.13L207.67 119.84L180.759 105.247V106.09L240.012 138.222C240.571 138.525 240.917 139.109 240.917 139.745V227.635Z" fill="#5533E5"></path><path d="M220.271 130.75V130.862H220.479L220.271 130.75Z" fill="#EE2E20"></path><path d="M222.938 131.487H219.648V129.703L222.938 131.487Z" fill="#5533E5"></path><path d="M178.465 101.39C178.13 101.59 177.926 101.952 177.926 102.343C177.926 101.953 178.131 101.591 178.465 101.392V101.39Z" fill="#5533E5"></path><path d="M207.926 117.46L179.26 101.916C179.112 101.836 178.929 101.84 178.783 101.926C178.637 102.013 178.548 102.172 178.548 102.341H177.303C177.303 101.734 177.625 101.163 178.146 100.853C178.667 100.542 179.321 100.528 179.853 100.816L208.519 116.361L207.926 117.459V117.46Z" fill="#5533E5"></path><path d="M238.083 229.37V228.262H221.009V229.389C221.009 229.582 220.844 229.739 220.64 229.739C220.436 229.739 220.272 229.582 220.272 229.389V228.262H181.287L178.906 230.471C178.947 230.476 178.988 230.478 179.031 230.478H239.19C238.58 230.478 238.085 229.983 238.085 229.37H238.083Z" fill="#5533E5"></path><path d="M239.189 231.101H179.029C178.967 231.101 178.904 231.098 178.836 231.09L177.484 230.938L181.043 227.637H238.706V229.369C238.706 229.636 238.922 229.853 239.189 229.853V231.101ZM221.51 229.853H237.529C237.484 229.7 237.461 229.538 237.461 229.369V228.885H221.631V229.388C221.631 229.556 221.588 229.715 221.51 229.853ZM180.487 229.853H219.77C219.693 229.715 219.649 229.556 219.649 229.388V228.885H181.531L180.487 229.853Z" fill="#5533E5"></path><path d="M242.021 228.261H242.023V137.761L207.967 119.293L242.021 137.761V228.261Z" fill="#5533E5"></path><path d="M242.645 228.884H241.399V228.26V138.131L207.67 119.84L208.263 118.742L242.645 137.387V228.884Z" fill="#5533E5"></path><path d="M178.991 130.121C178.808 130.121 178.66 130.286 178.66 130.491C178.66 130.695 178.808 130.86 178.991 130.86H180.134V130.121H178.991Z" fill="#5533E5"></path><path d="M180.758 131.483H178.993C178.467 131.483 178.039 131.037 178.039 130.49C178.039 129.942 178.467 129.496 178.993 129.496H180.758V131.483Z" fill="#5533E5"></path><path d="M179.031 146.539C178.826 146.539 178.662 146.704 178.662 146.908C178.662 147.113 178.826 147.278 179.031 147.278H180.136V146.539H179.031Z" fill="#5533E5"></path><path d="M180.758 147.901H179.03C178.484 147.901 178.039 147.455 178.039 146.908C178.039 146.36 178.484 145.914 179.03 145.914H180.758V147.901Z" fill="#5533E5"></path><path d="M179.031 161.988C178.826 161.988 178.662 162.153 178.662 162.358C178.662 162.562 178.826 162.727 179.031 162.727H180.136V161.988H179.031Z" fill="#5533E5"></path><path d="M180.758 163.35H179.03C178.484 163.35 178.039 162.905 178.039 162.357C178.039 161.809 178.484 161.363 179.03 161.363H180.758V163.35Z" fill="#5533E5"></path><path d="M179.031 177.434C178.826 177.434 178.662 177.598 178.662 177.803C178.662 178.008 178.826 178.172 179.031 178.172H180.136V177.434H179.031Z" fill="#5533E5"></path><path d="M180.758 178.796H179.03C178.484 178.796 178.039 178.35 178.039 177.802C178.039 177.254 178.484 176.809 179.03 176.809H180.758V178.796Z" fill="#5533E5"></path><path d="M179.031 192.883C178.826 192.883 178.662 193.048 178.662 193.252C178.662 193.457 178.826 193.622 179.031 193.622H180.136V192.883H179.031Z" fill="#5533E5"></path><path d="M180.758 194.245H179.03C178.484 194.245 178.039 193.799 178.039 193.251C178.039 192.703 178.484 192.258 179.03 192.258H180.758V194.245Z" fill="#5533E5"></path><path d="M220.271 229.389C220.271 229.582 220.436 229.739 220.64 229.739C220.844 229.739 221.009 229.582 221.009 229.389V228.262H220.271V229.389Z" fill="#5533E5"></path><path d="M220.64 230.362C220.093 230.362 219.648 229.926 219.648 229.388V227.637H221.631V229.388C221.631 229.926 221.186 230.362 220.64 230.362Z" fill="#5533E5"></path><path d="M180.135 104.199L207.965 119.291L180.135 104.199Z" fill="#5533E5"></path><path d="M207.669 119.84L179.514 104.571V103.152L180.431 103.65L208.262 118.742L207.669 119.84Z" fill="#5533E5"></path><path d="M193.792 115.368C193.792 115.221 193.956 115.101 194.16 115.101C194.364 115.101 194.529 115.221 194.529 115.368V116.787L219.116 130.12H220.27V129.766C220.27 129.573 220.434 129.415 220.639 129.415C220.843 129.415 221.007 129.573 221.007 129.766V130.12H221.401C221.584 130.12 221.732 130.285 221.732 130.49C221.732 130.695 221.584 130.859 221.401 130.859H221.007V131.146L238.082 140.406V146.536H238.501C238.705 146.536 238.87 146.701 238.87 146.906C238.87 147.11 238.705 147.275 238.501 147.275H238.082V161.983H238.501C238.705 161.983 238.87 162.148 238.87 162.353C238.87 162.558 238.705 162.722 238.501 162.722H238.082V177.431H238.501C238.705 177.431 238.87 177.595 238.87 177.8C238.87 178.005 238.705 178.17 238.501 178.17H238.082V192.878H238.501C238.705 192.878 238.87 193.043 238.87 193.247C238.87 193.452 238.705 193.617 238.501 193.617H238.082V208.325H238.659C238.775 208.325 238.87 208.49 238.87 208.695C238.87 208.899 238.775 209.064 238.659 209.064H238.082V223.772H238.656C238.774 223.772 238.87 223.937 238.87 224.142C238.87 224.347 238.774 224.511 238.656 224.511H238.082V228.258H240.293V139.744C240.293 139.337 240.07 138.963 239.714 138.769L180.135 106.461V108.981L193.792 116.387V115.367V115.368Z" fill="#5533E5"></path><path d="M240.916 228.883H237.46V140.778L220.385 131.518V130.745H218.959L194.414 117.434L179.512 109.353V105.414L240.01 138.221C240.569 138.524 240.915 139.108 240.915 139.744V228.882L240.916 228.883ZM238.705 227.635H239.671V139.746C239.671 139.567 239.574 139.405 239.418 139.32L222.229 129.998C222.309 130.143 222.355 130.312 222.355 130.49C222.355 130.706 222.288 130.907 222.176 131.069L238.706 140.034V145.934C239.156 146.027 239.494 146.428 239.494 146.906C239.494 147.384 239.156 147.784 238.706 147.878V161.381C239.156 161.474 239.494 161.875 239.494 162.353C239.494 162.831 239.156 163.232 238.706 163.325V176.828C239.156 176.922 239.494 177.322 239.494 177.8C239.494 178.278 239.156 178.679 238.706 178.773V192.275C239.156 192.369 239.494 192.77 239.494 193.248C239.494 193.726 239.156 194.126 238.706 194.22V207.703C239.158 207.729 239.494 208.147 239.494 208.695C239.494 209.243 239.158 209.661 238.706 209.687V223.151C239.158 223.179 239.494 223.595 239.494 224.143C239.494 224.691 239.158 225.108 238.706 225.136V227.635H238.705ZM219.274 129.497H219.687C219.764 129.233 219.951 129.016 220.195 128.895L195.15 115.314C195.15 115.332 195.151 115.35 195.151 115.369V116.416L219.274 129.497ZM180.757 108.61L193.169 115.341C193.18 114.985 193.411 114.69 193.749 114.555L180.757 107.51V108.61Z" fill="#5533E5"></path><path d="M243.652 136.128L208.221 116.914L243.651 136.128C244.008 136.321 244.23 136.696 244.23 137.103V229.372C244.23 229.983 243.736 230.48 243.124 230.48C243.736 230.48 244.23 229.985 244.23 229.372V137.101C244.23 136.695 244.007 136.32 243.651 136.127L243.652 136.128Z" fill="#5533E5"></path><path d="M243.128 231.102V229.854C243.394 229.854 243.611 229.637 243.611 229.37V137.101C243.611 136.923 243.514 136.76 243.358 136.675L207.928 117.462L208.52 116.363L243.952 135.577C244.511 135.88 244.857 136.465 244.857 137.101V229.371C244.857 230.326 244.081 231.104 243.129 231.104L243.128 231.102Z" fill="#5533E5"></path><path d="M220.271 130.121H219.117L220.271 130.748V130.121Z" fill="#5533E5"></path><path d="M220.894 131.794L216.658 129.496H220.894V131.794Z" fill="#5533E5"></path><path d="M221.401 130.86C221.584 130.86 221.732 130.695 221.732 130.491C221.732 130.286 221.584 130.121 221.401 130.121H221.008V130.86H221.401Z" fill="#5533E5"></path><path d="M221.401 131.483H220.385V129.496H221.401C221.926 129.496 222.354 129.942 222.354 130.49C222.354 131.037 221.926 131.483 221.401 131.483Z" fill="#5533E5"></path><path d="M238.504 147.278C238.708 147.278 238.872 147.113 238.872 146.908C238.872 146.704 238.708 146.539 238.504 146.539H238.084V147.278H238.504Z" fill="#5533E5"></path><path d="M238.503 147.901H237.461V145.914H238.503C239.05 145.914 239.494 146.36 239.494 146.908C239.494 147.455 239.05 147.901 238.503 147.901Z" fill="#5533E5"></path><path d="M238.504 162.727C238.708 162.727 238.872 162.562 238.872 162.358C238.872 162.153 238.708 161.988 238.504 161.988H238.084V162.727H238.504Z" fill="#5533E5"></path><path d="M238.503 163.35H237.461V161.363H238.503C239.05 161.363 239.494 161.809 239.494 162.357C239.494 162.905 239.05 163.35 238.503 163.35Z" fill="#5533E5"></path><path d="M238.504 178.172C238.708 178.172 238.872 178.008 238.872 177.803C238.872 177.598 238.708 177.434 238.504 177.434H238.084V178.172H238.504Z" fill="#5533E5"></path><path d="M238.503 178.796H237.461V176.809H238.503C239.05 176.809 239.494 177.254 239.494 177.802C239.494 178.35 239.05 178.796 238.503 178.796Z" fill="#5533E5"></path><path d="M238.504 193.622C238.708 193.622 238.872 193.457 238.872 193.252C238.872 193.048 238.708 192.883 238.504 192.883H238.084V193.622H238.504Z" fill="#5533E5"></path><path d="M238.503 194.245H237.461V192.258H238.503C239.05 192.258 239.494 192.703 239.494 193.251C239.494 193.799 239.05 194.245 238.503 194.245Z" fill="#5533E5"></path><path d="M238.662 209.067C238.777 209.067 238.872 208.902 238.872 208.698C238.872 208.493 238.777 208.328 238.662 208.328H238.084V209.067H238.662Z" fill="#5533E5"></path><path d="M238.661 209.69H237.461V207.703H238.661C239.136 207.703 239.494 208.13 239.494 208.697C239.494 209.263 239.136 209.69 238.661 209.69Z" fill="#5533E5"></path><path d="M238.66 224.516C238.778 224.516 238.874 224.351 238.874 224.147C238.874 223.942 238.778 223.777 238.66 223.777H238.086V224.516H238.66Z" fill="#5533E5"></path><path d="M238.659 225.139H237.463V223.152H238.659C239.136 223.152 239.496 223.579 239.496 224.146C239.496 224.712 239.136 225.139 238.659 225.139Z" fill="#5533E5"></path><path d="M194.53 115.373C194.53 115.225 194.366 115.105 194.161 115.105C193.957 115.105 193.793 115.225 193.793 115.373V116.392L194.53 116.792V115.373Z" fill="#5533E5"></path><path d="M195.152 117.838L193.17 116.763V115.372C193.17 114.872 193.606 114.48 194.161 114.48C194.716 114.48 195.152 114.872 195.152 115.372V117.838Z" fill="#5533E5"></path><path d="M221.01 131.15V130.863H220.48L221.01 131.15Z" fill="#5533E5"></path><path d="M221.632 132.196L218.021 130.238H221.632V132.196Z" fill="#5533E5"></path><path d="M221.009 129.769C221.009 129.575 220.844 129.418 220.64 129.418C220.436 129.418 220.271 129.575 220.271 129.769V130.123H221.009V129.769Z" fill="#5533E5"></path><path d="M221.631 130.746H219.648V129.768C219.648 129.23 220.093 128.793 220.64 128.793C221.186 128.793 221.631 129.23 221.631 129.768V130.746Z" fill="#5533E5"></path><path d="M220.479 130.86H221.009V130.121H220.271V130.748L220.479 130.86Z" fill="#5533E5"></path><path d="M221.631 131.483H220.321L219.648 131.119V129.496H221.631V131.483Z" fill="#5533E5"></path><path d="M244.231 229.366V137.097C244.231 136.69 244.008 136.316 243.652 136.123L208.221 116.909L179.557 101.364C179.214 101.178 178.8 101.187 178.465 101.387C178.13 101.586 177.926 101.948 177.926 102.339V107.121C177.926 107.528 178.149 107.903 178.505 108.096L180.136 108.981V104.198L207.966 119.29L242.022 137.758V228.258H238.084V229.366C238.084 229.978 238.578 230.475 239.19 230.475H243.126C243.736 230.475 244.232 229.979 244.232 229.366H244.231Z" fill="#5533E5"></path><path d="M243.126 231.1H239.189C238.237 231.1 237.461 230.323 237.461 229.368V227.635H241.399V138.131L207.669 119.841L180.758 105.247V110.03L178.208 108.647C177.649 108.343 177.303 107.761 177.303 107.123V102.34C177.303 101.734 177.625 101.163 178.146 100.853C178.666 100.542 179.321 100.528 179.853 100.816L208.519 116.361L243.949 135.575C244.508 135.878 244.854 136.462 244.854 137.099V229.368C244.854 230.323 244.078 231.1 243.126 231.1ZM238.706 228.884V229.368C238.706 229.635 238.923 229.852 239.189 229.852H243.126C243.392 229.852 243.609 229.635 243.609 229.368V137.099C243.609 136.92 243.512 136.758 243.356 136.673L207.926 117.459L179.26 101.915C179.112 101.835 178.928 101.838 178.782 101.925C178.637 102.011 178.547 102.17 178.547 102.34V107.123C178.547 107.301 178.644 107.463 178.799 107.548L179.513 107.935V103.153L180.432 103.649L208.262 118.742L242.644 137.386V228.882H238.706V228.884Z" fill="#5533E5"></path><path d="M180.136 193.619H179.03C178.826 193.619 178.662 193.455 178.662 193.25C178.662 193.045 178.826 192.88 179.03 192.88H180.136V178.172H179.03C178.826 178.172 178.662 178.007 178.662 177.803C178.662 177.598 178.826 177.433 179.03 177.433H180.136V162.725H179.03C178.826 162.725 178.662 162.56 178.662 162.355C178.662 162.151 178.826 161.986 179.03 161.986H180.136V147.278H179.03C178.826 147.278 178.662 147.113 178.662 146.908C178.662 146.703 178.826 146.539 179.03 146.539H180.136V130.862H178.993C178.81 130.862 178.662 130.697 178.662 130.492C178.662 130.288 178.81 130.123 178.993 130.123H180.136V108.985L178.505 108.1C178.147 107.906 177.926 107.532 177.926 107.125V197.805H180.137V193.619H180.136Z" fill="#5533E5"></path><path d="M180.759 198.429H177.303V107.125H178.548C178.548 107.303 178.645 107.466 178.801 107.551L180.759 108.613V198.429ZM178.548 197.181H179.514V194.243H179.031C178.855 194.243 178.691 194.197 178.548 194.117V197.181ZM178.548 178.67V192.383C178.691 192.303 178.855 192.256 179.031 192.256H179.514V178.796H179.031C178.855 178.796 178.691 178.75 178.548 178.67ZM178.548 163.223V176.935C178.691 176.855 178.855 176.809 179.031 176.809H179.514V163.349H179.031C178.855 163.349 178.691 163.303 178.548 163.223ZM178.548 147.776V161.489C178.691 161.409 178.855 161.363 179.031 161.363H179.514V147.903H179.031C178.855 147.903 178.691 147.857 178.548 147.777V147.776ZM178.548 131.371V146.041C178.691 145.961 178.855 145.915 179.031 145.915H179.514V131.486H178.994C178.833 131.486 178.681 131.445 178.548 131.371ZM178.548 108.832V129.614C178.681 129.54 178.833 129.499 178.994 129.499H179.514V109.357L178.548 108.832Z" fill="#5533E5"></path><path d="M208.685 207.703H50.639C50.2281 207.703 49.8509 207.474 49.6604 207.11L45.1272 198.46C44.9466 198.116 44.9591 197.703 45.1595 197.371C45.36 197.039 45.7186 196.836 46.1058 196.836H213.217C213.604 196.836 213.963 197.039 214.163 197.371C214.364 197.703 214.376 198.116 214.196 198.46L209.662 207.11C209.472 207.474 209.095 207.703 208.684 207.703H208.685ZM51.3076 205.486H208.017L211.388 199.052H47.936L51.3076 205.486Z" fill="#5533E5"></path><path d="M208.686 208.329H50.6408C49.9971 208.329 49.4107 207.974 49.1106 207.402L44.5774 198.752C44.2985 198.219 44.3172 197.567 44.6285 197.051C44.9397 196.534 45.5062 196.215 46.1076 196.215H213.219C213.82 196.215 214.387 196.536 214.698 197.051C215.009 197.567 215.029 198.218 214.749 198.752L210.216 207.402C209.916 207.974 209.329 208.329 208.686 208.329ZM46.1076 197.462C45.9395 197.462 45.7814 197.552 45.6942 197.695C45.6071 197.839 45.6021 198.021 45.6805 198.171L50.2137 206.821C50.2972 206.981 50.4615 207.079 50.6408 207.079H208.686C208.866 207.079 209.029 206.981 209.114 206.821L213.647 198.171C213.726 198.022 213.719 197.839 213.632 197.695C213.545 197.55 213.387 197.462 213.219 197.462H46.1063H46.1076ZM208.394 206.112H50.9321L46.9069 198.429H212.42L208.394 206.112ZM51.6854 204.864H207.642L210.36 199.677H48.9662L51.6841 204.864H51.6854Z" fill="#5533E5"></path><path d="M204.12 230.481H55.2072C54.5971 230.481 54.1016 229.985 54.1016 229.372V206.597C54.1016 205.985 54.5971 205.488 55.2072 205.488H204.118C204.728 205.488 205.224 205.984 205.224 206.597V229.372C205.224 229.984 204.73 230.481 204.118 230.481H204.12ZM56.314 228.264H203.014V207.705H56.3128V228.264H56.314Z" fill="#5533E5"></path><path d="M204.12 231.104H55.2086C54.2561 231.104 53.4805 230.326 53.4805 229.371V206.596C53.4805 205.641 54.2561 204.863 55.2086 204.863H204.12C205.072 204.863 205.848 205.641 205.848 206.596V229.371C205.848 230.326 205.072 231.104 204.12 231.104ZM55.2086 206.113C54.9422 206.113 54.7255 206.33 54.7255 206.597V229.373C54.7255 229.64 54.9422 229.857 55.2086 229.857H204.12C204.386 229.857 204.603 229.64 204.603 229.373V206.597C204.603 206.33 204.386 206.113 204.12 206.113H55.2086ZM203.637 228.888H55.6904V207.081H203.636V228.888H203.637ZM56.9367 227.64H202.392V208.329H56.9355V227.64H56.9367Z" fill="#5533E5"></path><path d="M164.626 230.483H94.7013C94.0912 230.483 93.5957 229.987 93.5957 229.374V206.491C93.5957 205.88 94.0912 205.383 94.7013 205.383H164.626C165.236 205.383 165.731 205.878 165.731 206.491V229.374C165.731 229.986 165.237 230.483 164.626 230.483ZM95.8069 228.266H163.52V207.598H95.8069V228.266Z" fill="#5533E5"></path><path d="M164.625 231.106H94.7008C93.7483 231.106 92.9727 230.328 92.9727 229.373V206.49C92.9727 205.535 93.7483 204.758 94.7008 204.758H164.625C165.578 204.758 166.353 205.535 166.353 206.49V229.373C166.353 230.328 165.578 231.106 164.625 231.106ZM94.7008 206.006C94.4343 206.006 94.2177 206.223 94.2177 206.49V229.373C94.2177 229.64 94.4343 229.858 94.7008 229.858H164.625C164.891 229.858 165.108 229.64 165.108 229.373V206.49C165.108 206.223 164.891 206.006 164.625 206.006H94.7008ZM164.142 228.889H95.1839V206.973H164.142V228.889ZM96.4289 227.641H162.897V208.221H96.4289V227.641Z" fill="#5533E5"></path><path d="M129.662 230.483C129.052 230.483 128.557 229.987 128.557 229.374V206.491C128.557 205.88 129.052 205.383 129.662 205.383C130.272 205.383 130.768 205.878 130.768 206.491V229.374C130.768 229.986 130.272 230.483 129.662 230.483Z" fill="#5533E5"></path><path d="M129.662 231.106C128.709 231.106 127.934 230.328 127.934 229.373V206.49C127.934 205.535 128.709 204.758 129.662 204.758C130.614 204.758 131.39 205.535 131.39 206.49V229.373C131.39 230.328 130.614 231.106 129.662 231.106ZM129.662 206.006C129.395 206.006 129.179 206.223 129.179 206.49V229.373C129.179 229.64 129.395 229.858 129.662 229.858C129.928 229.858 130.145 229.64 130.145 229.373V206.49C130.145 206.223 129.928 206.006 129.662 206.006Z" fill="#5533E5"></path><path d="M180.576 230.481C179.966 230.481 179.471 229.985 179.471 229.372V206.597C179.471 205.985 179.965 205.488 180.576 205.488C181.188 205.488 181.682 205.984 181.682 206.597V229.372C181.682 229.984 181.188 230.481 180.576 230.481Z" fill="#5533E5"></path><path d="M180.576 231.104C179.623 231.104 178.848 230.326 178.848 229.371V206.596C178.848 205.641 179.623 204.863 180.576 204.863C181.528 204.863 182.304 205.641 182.304 206.596V229.371C182.304 230.326 181.528 231.104 180.576 231.104ZM180.576 206.113C180.309 206.113 180.093 206.33 180.093 206.597V229.373C180.093 229.64 180.309 229.857 180.576 229.857C180.842 229.857 181.059 229.64 181.059 229.373V206.597C181.059 206.33 180.842 206.113 180.576 206.113Z" fill="#5533E5"></path><path d="M184.818 230.481C184.208 230.481 183.713 229.985 183.713 229.372V206.597C183.713 205.985 184.207 205.488 184.818 205.488C185.43 205.488 185.924 205.984 185.924 206.597V229.372C185.924 229.984 185.43 230.481 184.818 230.481Z" fill="#5533E5"></path><path d="M184.818 231.104C183.866 231.104 183.09 230.326 183.09 229.371V206.596C183.09 205.641 183.866 204.863 184.818 204.863C185.77 204.863 186.546 205.641 186.546 206.596V229.371C186.546 230.326 185.77 231.104 184.818 231.104ZM184.818 206.113C184.552 206.113 184.335 206.33 184.335 206.597V229.373C184.335 229.64 184.552 229.857 184.818 229.857C185.084 229.857 185.301 229.64 185.301 229.373V206.597C185.301 206.33 185.084 206.113 184.818 206.113Z" fill="#5533E5"></path><path d="M189.065 230.481C188.455 230.481 187.959 229.985 187.959 229.372V206.597C187.959 205.985 188.453 205.488 189.065 205.488C189.676 205.488 190.17 205.984 190.17 206.597V229.372C190.17 229.984 189.676 230.481 189.065 230.481Z" fill="#5533E5"></path><path d="M189.064 231.104C188.112 231.104 187.336 230.326 187.336 229.371V206.596C187.336 205.641 188.112 204.863 189.064 204.863C190.017 204.863 190.792 205.641 190.792 206.596V229.371C190.792 230.326 190.017 231.104 189.064 231.104ZM189.064 206.113C188.798 206.113 188.581 206.33 188.581 206.597V229.373C188.581 229.64 188.798 229.857 189.064 229.857C189.331 229.857 189.547 229.64 189.547 229.373V206.597C189.547 206.33 189.331 206.113 189.064 206.113Z" fill="#5533E5"></path><path d="M70.2599 230.481C69.6498 230.481 69.1543 229.985 69.1543 229.372V206.597C69.1543 205.985 69.6498 205.488 70.2599 205.488C70.87 205.488 71.3655 205.984 71.3655 206.597V229.372C71.3655 229.984 70.87 230.481 70.2599 230.481Z" fill="#5533E5"></path><path d="M70.2594 231.104C69.3069 231.104 68.5312 230.326 68.5312 229.371V206.596C68.5312 205.641 69.3069 204.863 70.2594 204.863C71.2118 204.863 71.9875 205.641 71.9875 206.596V229.371C71.9875 230.326 71.2118 231.104 70.2594 231.104ZM70.2594 206.113C69.9929 206.113 69.7763 206.33 69.7763 206.597V229.373C69.7763 229.64 69.9929 229.857 70.2594 229.857C70.5258 229.857 70.7425 229.64 70.7425 229.373V206.597C70.7425 206.33 70.5258 206.113 70.2594 206.113Z" fill="#5533E5"></path><path d="M74.504 230.481C73.894 230.481 73.3984 229.985 73.3984 229.372V206.597C73.3984 205.985 73.894 205.488 74.504 205.488C75.1141 205.488 75.6096 205.984 75.6096 206.597V229.372C75.6096 229.984 75.1141 230.481 74.504 230.481Z" fill="#5533E5"></path><path d="M74.5035 231.104C73.551 231.104 72.7754 230.326 72.7754 229.371V206.596C72.7754 205.641 73.551 204.863 74.5035 204.863C75.456 204.863 76.2316 205.641 76.2316 206.596V229.371C76.2316 230.326 75.456 231.104 74.5035 231.104ZM74.5035 206.113C74.2371 206.113 74.0204 206.33 74.0204 206.597V229.373C74.0204 229.64 74.2371 229.857 74.5035 229.857C74.7699 229.857 74.9866 229.64 74.9866 229.373V206.597C74.9866 206.33 74.7699 206.113 74.5035 206.113Z" fill="#5533E5"></path><path d="M78.7482 230.481C78.1381 230.481 77.6426 229.985 77.6426 229.372V206.597C77.6426 205.985 78.1381 205.488 78.7482 205.488C79.3583 205.488 79.8538 205.984 79.8538 206.597V229.372C79.8538 229.984 79.3583 230.481 78.7482 230.481Z" fill="#5533E5"></path><path d="M78.7477 231.104C77.7952 231.104 77.0195 230.326 77.0195 229.371V206.596C77.0195 205.641 77.7952 204.863 78.7477 204.863C79.7001 204.863 80.4758 205.641 80.4758 206.596V229.371C80.4758 230.326 79.7001 231.104 78.7477 231.104ZM78.7477 206.113C78.4812 206.113 78.2646 206.33 78.2646 206.597V229.373C78.2646 229.64 78.4812 229.857 78.7477 229.857C79.0141 229.857 79.2307 229.64 79.2307 229.373V206.597C79.2307 206.33 79.0141 206.113 78.7477 206.113Z" fill="#5533E5"></path><path d="M124.808 222.336C123.929 222.336 123.217 221.622 123.217 220.741V215.658C123.217 214.776 123.929 214.062 124.808 214.062C125.687 214.062 126.399 214.776 126.399 215.658V220.741C126.399 221.622 125.687 222.336 124.808 222.336Z" fill="#5533E5"></path><path d="M124.807 222.959C123.586 222.959 122.594 221.963 122.594 220.74V215.657C122.594 214.432 123.587 213.438 124.807 213.438C126.028 213.438 127.021 214.433 127.021 215.657V220.74C127.021 221.964 126.028 222.959 124.807 222.959ZM124.807 214.684C124.273 214.684 123.839 215.12 123.839 215.655V220.739C123.839 221.274 124.273 221.71 124.807 221.71C125.342 221.71 125.776 221.274 125.776 220.739V215.655C125.776 215.12 125.342 214.684 124.807 214.684Z" fill="#5533E5"></path><path d="M134.519 222.336C133.64 222.336 132.928 221.622 132.928 220.741V215.658C132.928 214.776 133.64 214.062 134.519 214.062C135.398 214.062 136.11 214.776 136.11 215.658V220.741C136.11 221.622 135.398 222.336 134.519 222.336Z" fill="#5533E5"></path><path d="M134.518 222.959C133.297 222.959 132.305 221.963 132.305 220.74V215.657C132.305 214.432 133.298 213.438 134.518 213.438C135.739 213.438 136.732 214.433 136.732 215.657V220.74C136.732 221.964 135.739 222.959 134.518 222.959ZM134.518 214.684C133.984 214.684 133.55 215.12 133.55 215.655V220.739C133.55 221.274 133.984 221.71 134.518 221.71C135.053 221.71 135.487 221.274 135.487 220.739V215.655C135.487 215.12 135.053 214.684 134.518 214.684Z" fill="#5533E5"></path><path d="M261.086 239.521H10.9098V237.649C10.9098 236.935 10.8799 236.472 10.8538 236.064C10.8351 235.762 10.8164 235.477 10.8164 235.168C10.8164 232.151 12.2158 230.465 13.3912 229.583C14.8641 228.476 16.8935 227.914 19.4222 227.914H253.575C258.723 227.914 262.181 230.83 262.181 235.168C262.181 235.243 262.186 235.316 262.19 235.391C262.23 236.171 262.212 236.989 261.58 238.411L261.087 239.521H261.086ZM14.5789 235.777H258.467C258.467 235.713 258.464 235.65 258.46 235.581C258.454 235.46 258.447 235.324 258.447 235.168C258.447 231.912 254.72 231.658 253.577 231.658H19.4234C14.5528 231.658 14.5528 234.117 14.5528 235.168C14.5528 235.345 14.564 235.537 14.5789 235.777Z" fill="#5533E5"></path><path d="M272.917 247.537H0.107074V245.665C0.107074 244.954 0.0734577 244.498 0.0435766 244.093C0.0211658 243.789 0 243.5 0 243.183C0 238.709 3.29813 235.93 8.60576 235.93H264.394C269.622 235.93 273 238.777 273 243.183C273 243.485 272.984 243.761 272.966 244.053C272.943 244.46 272.915 244.922 272.915 245.665V247.537H272.917ZM3.76626 243.792H269.24C269.254 243.555 269.265 243.366 269.265 243.183C269.265 242.044 268.868 241.205 268.048 240.619C267.198 240.01 265.901 239.674 264.394 239.674H8.60576C7.00712 239.674 5.72223 239.997 4.88805 240.607C4.11239 241.175 3.73514 242.019 3.73514 243.183C3.73514 243.357 3.74883 243.55 3.76626 243.792Z" fill="#5533E5"></path></g><defs><clipPath id="clip0_1625_5743"><rect width="273" height="247" fill="white" transform="translate(0 0.539062)"></rect></clipPath></defs></svg>