<svg xmlns="http://www.w3.org/2000/svg" width="420" height="220" viewBox="0 0 420 220" fill="none"><path d="M209.668 219.415C209.171 219.415 208.682 219.415 208.185 219.415C152.195 219.031 99.6996 196.911 60.3859 157.124C21.0641 117.338 -0.37175 64.6515 0.0048799 8.77443C0.397537 -47.1106 22.5626 -99.4929 62.4213 -138.736C102.288 -177.97 155.048 -199.371 211.07 -198.995C267.06 -198.611 319.555 -176.491 358.869 -136.704C398.183 -96.9177 419.635 -44.2396 419.25 11.6455L395.21 11.4775L419.25 11.6455C418.865 67.5225 396.7 119.913 356.834 159.147C317.32 198.038 265.104 219.407 209.668 219.407V219.415ZM209.595 -151.011C166.868 -151.011 126.633 -134.545 96.1817 -104.571C65.4584 -74.3334 48.3818 -33.9631 48.0853 9.10229C47.7888 52.1677 64.3124 92.762 94.6111 123.424C124.91 154.085 165.361 171.127 208.514 171.423C208.89 171.423 209.275 171.423 209.652 171.423C252.379 171.423 292.614 154.957 323.065 124.983C353.789 94.7453 370.865 54.375 371.162 11.3096C371.771 -77.5883 299.802 -150.404 210.733 -151.011C210.357 -151.011 209.972 -151.011 209.595 -151.011Z" fill="#EE2E20"></path></svg>