<svg xmlns="http://www.w3.org/2000/svg" width="100" height="100" viewBox="0 0 100 100" fill="none"><mask id="mask0_1605_417" style="mask-type:alpha" maskUnits="userSpaceOnUse" x="0" y="0" width="100" height="100"><rect width="100" height="100" fill="#D9D9D9"></rect></mask><g mask="url(#mask0_1605_417)"><path d="M54.1667 95.8333V70.8333L45.4167 62.5L41.25 80.8333L12.5 75L14.1667 66.6667L34.1667 70.8333L40.8333 37.0833L33.3333 40V54.1667H25V34.5833L41.4583 27.5C43.8889 26.4583 45.6771 25.7812 46.8229 25.4688C47.9688 25.1562 49.0278 25 50 25C51.4583 25 52.8125 25.3819 54.0625 26.1458C55.3125 26.9097 56.3194 27.9167 57.0833 29.1667L61.25 35.8333C63.0556 38.75 65.5035 41.1458 68.5938 43.0208C71.684 44.8958 75.2083 45.8333 79.1667 45.8333V54.1667C74.5833 54.1667 70.2951 53.2118 66.3021 51.3021C62.309 49.3924 58.9583 46.875 56.25 43.75L53.75 56.25L62.5 64.5833V95.8333H54.1667ZM56.25 22.9167C53.9583 22.9167 51.9965 22.1007 50.3646 20.4688C48.7326 18.8368 47.9167 16.875 47.9167 14.5833C47.9167 12.2917 48.7326 10.3299 50.3646 8.69792C51.9965 7.06597 53.9583 6.25 56.25 6.25C58.5417 6.25 60.5035 7.06597 62.1354 8.69792C63.7674 10.3299 64.5833 12.2917 64.5833 14.5833C64.5833 16.875 63.7674 18.8368 62.1354 20.4688C60.5035 22.1007 58.5417 22.9167 56.25 22.9167Z" fill="#EE2E20"></path></g></svg>