<svg xmlns="http://www.w3.org/2000/svg" width="39" height="68" viewBox="0 0 39 68" fill="none"><path d="M37.8394 21.1708L36.8645 21.3934L37.8394 21.1708ZM7.29289 66.7579C7.68342 67.1484 8.31658 67.1484 8.70711 66.7579L15.0711 60.3939C15.4616 60.0034 15.4616 59.3702 15.0711 58.9797C14.6805 58.5892 14.0474 58.5892 13.6569 58.9797L8 64.6366L2.34315 58.9797C1.95262 58.5892 1.31946 58.5892 0.928932 58.9797C0.538408 59.3702 0.538408 60.0034 0.928932 60.3939L7.29289 66.7579ZM7.00041 0.0507848C7.00045 11.0525 9.05396 18.7597 12.1898 23.9178C15.3392 29.0981 19.5654 31.675 23.7704 32.3868C27.9441 33.0932 32.0331 31.9501 34.9171 29.8115C37.7898 27.6814 39.6091 24.4289 38.8143 20.9482L36.8645 21.3934C37.426 23.8526 36.1937 26.3751 33.7259 28.205C31.2695 30.0265 27.7292 31.0284 24.1041 30.4148C20.5103 29.8065 16.7681 27.5984 13.8988 22.8788C11.0159 18.1369 9.00045 10.8291 9.00041 0.0507777L7.00041 0.0507848ZM38.8143 20.9482C38.1948 18.2351 37.2096 16.2629 35.8187 15.1145C34.3644 13.9137 32.623 13.7376 30.8548 14.2967C29.1342 14.8407 27.3522 16.0829 25.5984 17.7767C23.8327 19.482 22.0361 21.7033 20.2935 24.297C13.3448 34.6393 7 51.2942 7 66.0508H9C9 51.7673 15.18 35.4941 21.9536 25.4123C23.6415 22.9 25.3503 20.7968 26.9878 19.2153C28.6373 17.6221 30.1564 16.6151 31.4578 16.2036C32.7116 15.8072 33.7129 15.9694 34.5453 16.6567C35.4412 17.3965 36.2866 18.8624 36.8645 21.3934L38.8143 20.9482Z" fill="black"></path></svg>