<svg xmlns="http://www.w3.org/2000/svg" width="328" height="243" viewBox="0 0 328 243" fill="none"><path d="M168 242V1H92V89.5" stroke="#5533E5" stroke-width="2"></path><path d="M167.209 241V2H277.429V241H167.209Z" stroke="#5533E5" stroke-width="2"></path><path d="M196.353 49.9219H180.84V34.4593H196.353V49.9219Z" stroke="#EE2E20"></path><path d="M219.684 49.8867H204.17V34.4242H219.684V49.8867Z" stroke="#EE2E20"></path><path d="M243.016 49.8867H227.502V34.4242H243.016V49.8867Z" stroke="#EE2E20"></path><path d="M266.312 49.9219H250.799V34.4593H266.312V49.9219Z" stroke="#EE2E20"></path><path d="M196.353 73.4766H180.84V58.014H196.353V73.4766Z" stroke="#EE2E20"></path><path d="M219.684 73.4414H204.17V57.9788H219.684V73.4414Z" stroke="#EE2E20"></path><path d="M243.016 73.4414H227.502V57.9788H243.016V73.4414Z" stroke="#EE2E20"></path><path d="M266.312 73.4766H250.799V58.014H266.312V73.4766Z" stroke="#EE2E20"></path><path d="M196.353 97.0312H180.84V81.5687H196.353V97.0312Z" stroke="#EE2E20"></path><path d="M219.684 96.9961H204.17V81.5335H219.684V96.9961Z" stroke="#EE2E20"></path><path d="M243.016 96.9961H227.502V81.5335H243.016V96.9961Z" stroke="#EE2E20"></path><path d="M266.312 97.0312H250.799V81.5687H266.312V97.0312Z" stroke="#EE2E20"></path><path d="M196.353 120.59H180.84V105.127H196.353V120.59Z" stroke="#EE2E20"></path><path d="M219.684 120.555H204.17V105.092H219.684V120.555Z" stroke="#EE2E20"></path><path d="M243.016 120.555H227.502V105.092H243.016V120.555Z" stroke="#EE2E20"></path><path d="M266.312 120.59H250.799V105.127H266.312V120.59Z" stroke="#EE2E20"></path><path d="M196.353 144.145H180.84V128.682H196.353V144.145Z" stroke="#EE2E20"></path><path d="M219.684 144.109H204.17V128.647H219.684V144.109Z" stroke="#EE2E20"></path><path d="M243.016 144.109H227.502V128.647H243.016V144.109Z" stroke="#EE2E20"></path><path d="M266.312 144.145H250.799V128.682H266.312V144.145Z" stroke="#EE2E20"></path><path d="M196.353 167.699H180.84V152.237H196.353V167.699Z" stroke="#EE2E20"></path><path d="M219.684 167.664H204.17V152.201H219.684V167.664Z" stroke="#EE2E20"></path><path d="M243.016 167.664H227.502V152.201H243.016V167.664Z" stroke="#EE2E20"></path><path d="M266.312 167.699H250.799V152.237H266.312V167.699Z" stroke="#EE2E20"></path><path d="M198 241V200H249V241H198Z" stroke="#5533E5" stroke-width="2"></path><path d="M198 241V200H219V241H198Z" stroke="#5533E5" stroke-width="2"></path><path d="M190 199.823V188H257.96V199.823H190Z" stroke="#5533E5" stroke-width="2"></path><path d="M132 241V90H150V241H132Z" stroke="#5533E5" stroke-width="2"></path><path d="M53.0703 241.001V90.2852H131.719V241.001H53.0703Z" stroke="#5533E5" stroke-width="2"></path><path d="M77.2832 120.555H61.7695V105.092H77.2832V120.555Z" stroke="#EE2E20"></path><path d="M100.613 120.555H85.0996V105.092H100.613V120.555Z" stroke="#EE2E20"></path><path d="M123.912 120.59H108.398V105.127H123.912V120.59Z" stroke="#EE2E20"></path><path d="M77.2832 144.109H61.7695V128.647H77.2832V144.109Z" stroke="#EE2E20"></path><path d="M100.613 144.109H85.0996V128.647H100.613V144.109Z" stroke="#EE2E20"></path><path d="M123.912 144.145H108.398V128.682H123.912V144.145Z" stroke="#EE2E20"></path><path d="M77.2832 167.664H61.7695V152.202H77.2832V167.664Z" stroke="#EE2E20"></path><path d="M100.15 167.664H84.6367V152.202H100.15V167.664Z" stroke="#EE2E20"></path><path d="M123.912 167.699H108.398V152.237H123.912V167.699Z" stroke="#EE2E20"></path><path d="M77.2832 191.219H61.7695V175.756H77.2832V191.219Z" stroke="#EE2E20"></path><path d="M100.15 191.219H84.6367V175.756H100.15V191.219Z" stroke="#EE2E20"></path><path d="M123.912 191.254H108.398V175.791H123.912V191.254Z" stroke="#EE2E20"></path><path d="M77.2832 214.777H61.7695V199.315H77.2832V214.777Z" stroke="#EE2E20"></path><path d="M100.613 214.777H85.0996V199.315H100.613V214.777Z" stroke="#EE2E20"></path><path d="M123.912 214.812H108.398V199.35H123.912V214.812Z" stroke="#EE2E20"></path><path d="M323.635 205.757L323.583 205.683C323.566 205.658 323.547 205.632 323.515 205.59L323.189 205.155L323.377 204.645C324.166 202.504 324.504 200.201 324.329 197.915C324.075 194.623 322.767 191.465 320.66 188.94L320.243 188.44L320.532 187.856C321.571 185.755 322.05 183.387 321.868 181.039L321.868 181.037C321.613 177.69 320.027 174.513 317.518 172.282C317.033 171.956 316.547 171.63 316.061 171.304L316.057 171.301C315.573 170.977 315.09 170.652 314.607 170.327C313.361 169.726 312.08 169.336 310.756 169.141L310.766 169.003L310.744 169.135C310.754 169.136 310.757 169.136 310.748 169.135L310.73 169.134L310.702 169.131L310.673 169.129L310.644 169.125C310.566 169.114 310.503 169.107 310.427 169.098C310.377 169.093 310.322 169.087 310.255 169.078C310.126 169.064 309.997 169.053 309.859 169.041L309.829 169.038C309.7 169.028 309.584 169.019 309.471 169.014L309.466 169.013C309.311 169.005 309.147 169.001 308.978 169.001C308.916 169.001 308.872 169.001 308.835 169C308.782 169 308.745 168.999 308.693 169.001L308.683 169.001L308.673 169.001C308.418 169.004 308.167 169.012 307.918 169.028C307.348 169.148 306.777 169.268 306.207 169.388L306.205 169.388L306.201 169.389C305.631 169.509 305.06 169.629 304.491 169.749C302.366 170.518 300.558 171.742 299.058 173.432C296.754 176.049 295.583 179.566 295.852 183.048L295.852 183.048C295.966 184.532 296.341 185.981 296.942 187.333L297.209 187.933L296.765 188.417C296.722 188.463 296.677 188.509 296.643 188.544C296.638 188.55 296.633 188.555 296.628 188.559C296.589 188.599 296.563 188.627 296.542 188.651C293.734 191.842 292.308 196.127 292.635 200.366L292.635 200.366C292.747 201.833 293.073 203.272 293.582 204.646L293.762 205.132L293.469 205.56C292.992 206.255 292.56 206.984 292.175 207.756C292.017 208.081 291.868 208.411 291.728 208.741L291.719 208.764L291.708 208.786C290.455 211.38 289.763 215.258 290.074 217.977L290.076 217.993L290.077 218.009C290.336 221.182 291.349 224.086 293.121 226.731C295.79 230.685 299.971 233.456 304.658 234.366L304.659 234.366C304.911 234.415 305.166 234.456 305.442 234.499L305.443 234.499L305.443 234.499L305.443 234.499L305.444 234.499L305.444 234.5L305.445 234.5L305.445 234.5L305.445 234.5L305.446 234.5L305.446 234.5L305.446 234.5L305.447 234.5L305.447 234.5L305.447 234.5L305.448 234.5L305.448 234.5L305.449 234.5L305.449 234.5L305.449 234.5L305.45 234.5L305.45 234.5L305.451 234.5L305.451 234.501L305.451 234.501L305.452 234.501L305.452 234.501L305.452 234.501L305.453 234.501L305.453 234.501L305.454 234.501L305.454 234.501L305.454 234.501L305.455 234.501L305.455 234.501L305.456 234.501L305.456 234.501L305.456 234.501L305.457 234.501L305.457 234.501L305.458 234.502L305.458 234.502L305.458 234.502L305.459 234.502L305.459 234.502L305.459 234.502L305.46 234.502L305.46 234.502L305.461 234.502L305.461 234.502L305.461 234.502L305.462 234.502L305.462 234.502L305.463 234.502L305.463 234.502L305.463 234.502L305.464 234.502L305.464 234.503L305.465 234.503L305.465 234.503L305.465 234.503L305.466 234.503L305.466 234.503L305.467 234.503L305.467 234.503L305.467 234.503L305.468 234.503L305.468 234.503L305.468 234.503L305.469 234.503L305.469 234.503L305.47 234.503L305.47 234.503L305.47 234.503L305.471 234.504L305.471 234.504L305.472 234.504L305.472 234.504L305.472 234.504L305.473 234.504L305.473 234.504L305.474 234.504L305.474 234.504L305.474 234.504L305.475 234.504L305.475 234.504L305.476 234.504L305.476 234.504L305.476 234.504L305.477 234.504L305.477 234.504L305.477 234.505L305.478 234.505L305.478 234.505L305.479 234.505L305.479 234.505L305.479 234.505L305.48 234.505L305.48 234.505L305.481 234.505L305.481 234.505L305.481 234.505L305.482 234.505L305.482 234.505L305.483 234.505L305.483 234.505L305.483 234.505L305.484 234.505L305.484 234.506L305.484 234.506L305.485 234.506L305.485 234.506L305.486 234.506L305.486 234.506L305.486 234.506L305.487 234.506L305.487 234.506L305.488 234.506L305.488 234.506L305.488 234.506L305.489 234.506L305.489 234.506L305.49 234.506L305.49 234.506L305.49 234.506L305.491 234.507L305.491 234.507L305.492 234.507L305.492 234.507L305.492 234.507L305.493 234.507L305.493 234.507L305.493 234.507L305.494 234.507L305.494 234.507L305.495 234.507L305.495 234.507L305.495 234.507L305.496 234.507L305.496 234.507L305.497 234.507L305.497 234.507L305.497 234.507L305.498 234.508L305.498 234.508L305.499 234.508L305.499 234.508L305.499 234.508L305.5 234.508L305.5 234.508L305.501 234.508L305.501 234.508L305.501 234.508L305.502 234.508L305.502 234.508L305.502 234.508L305.503 234.508L305.503 234.508L305.504 234.508L305.504 234.508L305.504 234.509L305.505 234.509L305.505 234.509L305.506 234.509L305.506 234.509L305.506 234.509L305.507 234.509L305.507 234.509L305.508 234.509L305.508 234.509L305.508 234.509L305.509 234.509L305.509 234.509L305.509 234.509L305.51 234.509L305.51 234.509L305.511 234.509L305.511 234.51L305.511 234.51L305.512 234.51L305.512 234.51L305.513 234.51L305.513 234.51L305.513 234.51L305.514 234.51L305.514 234.51L305.515 234.51L305.515 234.51L305.515 234.51L305.516 234.51L305.516 234.51L305.517 234.51L305.517 234.51L305.517 234.51L305.518 234.511L305.518 234.511L305.518 234.511L305.519 234.511L305.519 234.511L305.52 234.511L305.52 234.511L305.52 234.511L305.521 234.511L305.521 234.511L305.522 234.511L305.522 234.511L305.522 234.511L305.523 234.511L305.523 234.511L305.524 234.511L305.524 234.511L305.524 234.512L305.525 234.512L305.525 234.512L305.526 234.512L305.526 234.512L305.526 234.512L305.527 234.512L305.527 234.512L305.527 234.512L305.528 234.512L305.528 234.512L305.529 234.512L305.529 234.512L305.529 234.512L305.53 234.512L305.53 234.512L305.531 234.512L305.531 234.513L305.531 234.513L305.532 234.513L305.532 234.513L305.533 234.513L305.533 234.513L305.533 234.513L305.534 234.513L305.534 234.513L305.535 234.513L305.535 234.513L305.535 234.513L305.536 234.513L305.536 234.513L305.536 234.513L305.537 234.513L305.537 234.513L305.538 234.514L305.538 234.514L305.538 234.514L305.539 234.514L305.539 234.514L305.54 234.514L305.54 234.514L305.54 234.514L305.541 234.514L305.541 234.514L305.542 234.514L305.542 234.514L305.542 234.514L305.543 234.514L305.543 234.514L305.543 234.514L305.544 234.514L305.544 234.515L305.545 234.515L305.545 234.515L305.545 234.515L305.546 234.515L305.546 234.515L305.547 234.515L305.547 234.515L305.547 234.515L305.548 234.515L305.548 234.515L305.549 234.515L305.549 234.515L305.549 234.515L305.55 234.515L305.55 234.515L305.551 234.515L305.551 234.516L305.551 234.516L305.552 234.516L305.552 234.516L305.552 234.516L305.553 234.516L305.553 234.516L305.554 234.516L305.554 234.516L305.554 234.516L305.555 234.516L305.555 234.516L305.556 234.516L305.556 234.516L305.556 234.516L305.557 234.516L305.557 234.516L305.558 234.517L305.558 234.517L305.558 234.517L305.559 234.517L305.559 234.517L305.56 234.517L305.56 234.517L305.56 234.517L305.561 234.517L305.561 234.517L305.561 234.517L305.562 234.517L305.562 234.517L305.563 234.517L305.563 234.517L305.563 234.517L305.564 234.517L305.564 234.518L305.565 234.518L305.565 234.518L305.565 234.518L305.566 234.518L305.566 234.518L305.567 234.518L305.567 234.518L305.567 234.518L305.568 234.518L305.568 234.518L305.568 234.518L305.569 234.518L305.569 234.518L305.57 234.518L305.57 234.518L305.57 234.518L305.571 234.519L305.571 234.519L305.572 234.519L305.572 234.519L305.572 234.519L305.573 234.519L305.573 234.519L305.574 234.519L305.574 234.519L305.574 234.519L305.575 234.519L305.575 234.519L305.576 234.519L305.576 234.519L305.576 234.519L305.577 234.519L305.577 234.519L305.577 234.52L305.578 234.52L305.578 234.52L305.579 234.52L305.579 234.52L305.579 234.52L305.58 234.52L305.58 234.52L305.581 234.52L305.581 234.52L305.581 234.52L305.582 234.52L305.582 234.52L305.583 234.52L305.583 234.52L305.583 234.52L305.584 234.52L305.584 234.521L305.585 234.521L305.585 234.521L305.585 234.521L305.586 234.521L305.586 234.521L305.586 234.521L305.587 234.521L305.587 234.521L305.588 234.521L305.588 234.521L305.588 234.521L305.589 234.521L305.589 234.521L305.59 234.521L305.59 234.521L305.59 234.521L305.591 234.522L305.591 234.522L305.592 234.522L305.592 234.522L305.592 234.522L305.593 234.522L305.593 234.522L305.594 234.522L305.594 234.522L305.594 234.522L305.595 234.522L305.595 234.522L305.595 234.522L305.596 234.522L305.596 234.522L305.597 234.522L305.597 234.522L305.597 234.522L305.598 234.523L305.598 234.523L305.599 234.523L305.599 234.523L305.599 234.523L305.6 234.523L305.6 234.523L305.601 234.523L305.601 234.523L305.601 234.523L305.602 234.523L305.602 234.523L305.602 234.523L305.603 234.523L305.603 234.523L305.604 234.523L305.604 234.523L305.604 234.524L305.605 234.524L305.605 234.524L305.606 234.524L305.606 234.524L305.606 234.524L305.607 234.524L305.607 234.524L305.608 234.524L305.608 234.524L305.608 234.524L305.609 234.524L305.609 234.524L305.61 234.524L305.61 234.524L305.61 234.524L305.611 234.524L305.611 234.525L305.611 234.525L305.612 234.525L305.612 234.525L305.613 234.525L305.613 234.525L305.613 234.525L305.614 234.525L305.614 234.525L305.615 234.525L305.615 234.525L305.615 234.525L305.616 234.525L305.616 234.525L305.617 234.525L305.617 234.525L305.617 234.525L305.618 234.526L305.618 234.526L305.619 234.526L305.619 234.526L305.619 234.526L305.62 234.526L305.62 234.526L305.62 234.526L305.621 234.526L305.621 234.526L305.622 234.526L305.622 234.526L305.622 234.526L305.623 234.526L305.623 234.526L305.624 234.526L305.624 234.526L305.624 234.527L305.625 234.527L305.625 234.527L305.626 234.527L305.626 234.527L305.626 234.527L305.627 234.527L305.627 234.527L305.627 234.527L305.628 234.527L305.628 234.527L305.629 234.527L305.629 234.527L305.629 234.527L305.629 234.527L305.63 234.527L305.63 234.527L305.631 234.527L305.631 234.528L305.631 234.528L305.632 234.528L305.632 234.528L305.633 234.528L305.633 234.528L305.633 234.528L305.634 234.528L305.634 234.528L305.635 234.528L305.635 234.528L305.635 234.528L305.636 234.528L305.636 234.528L305.636 234.528L305.637 234.528L305.637 234.528L305.638 234.529L305.638 234.529L305.638 234.529L305.639 234.529L305.639 234.529L305.491 235.518C305.754 235.554 306.021 235.588 306.284 235.611L323.635 205.757ZM323.635 205.757L323.635 205.757C325.372 208.383 326.375 211.257 326.64 214.395L326.348 219.403C326.08 220.778 325.535 222.443 324.793 224.024C324.036 225.636 323.105 227.091 322.112 228.056L322.035 228.13L322.022 228.15L322.015 228.159C320.923 229.478 319.647 230.646 318.219 231.607L318.218 231.608C315.437 233.483 312.182 234.533 308.866 234.675L308.857 234.676L308.848 234.676C308.694 234.685 308.552 234.691 308.412 234.691H308.396L308.38 234.692C308.292 234.694 308.201 234.694 308.092 234.694C307.857 234.694 307.632 234.691 307.41 234.682L307.405 234.682C307.371 234.681 307.337 234.679 307.291 234.676C307.251 234.674 307.201 234.671 307.149 234.669L323.635 205.757ZM309.522 168.015C309.652 168.021 309.782 168.031 309.912 168.041L309.949 168.045C310.087 168.057 310.228 168.07 310.369 168.085L309.522 168.015ZM309.522 168.015C309.342 168.005 309.158 168.001 308.978 168.001C308.943 168.001 308.907 168.001 308.872 168.001C308.802 168 308.733 167.999 308.662 168.001L309.522 168.015Z" stroke="#EE2E20" stroke-width="2"></path><path d="M310.437 218.627L311.301 218.036L309.404 220.811L309.198 221.112L309.234 221.475L311.221 241.337H305.429L306.91 226.53L306.946 226.167L306.74 225.866L306.401 225.371L306.986 225.77L307.153 224.092L308.324 212.365L308.877 217.901L309.045 219.578L310.437 218.627Z" fill="#1E1413" stroke="#EE2E20" stroke-width="2"></path><path d="M150 241H166.5" stroke="#5533E5" stroke-width="2"></path><path d="M3.41595 200.191C3.83352 199.72 4.28425 199.286 4.76627 198.89L5.24534 198.575C5.24942 198.573 5.25416 198.571 5.2596 198.569C5.26288 198.568 5.26674 198.567 5.27113 198.565C5.32828 198.544 5.47583 198.49 5.62596 198.397L6.08521 198.111L6.09741 197.57C6.1449 195.465 7.03651 193.295 8.49307 191.655C9.94507 190.021 11.9015 188.973 14.0586 188.973C15.0113 188.973 15.9034 189.048 16.7427 189.224L17.396 189.362L17.7733 188.811C19.325 186.546 21.713 185 24.3948 185C27.0538 185 29.2896 185.554 31.2107 187.245L31.2107 187.245L31.2155 187.249C31.3517 187.367 31.487 187.499 31.6383 187.651C31.6818 187.696 31.7199 187.737 31.7645 187.785C31.7903 187.813 31.8182 187.844 31.8506 187.878C31.8745 187.904 31.8947 187.926 31.9124 187.945C31.9554 187.991 31.9841 188.022 32.0161 188.059L32.0215 188.066L32.027 188.072C32.1168 188.174 32.2043 188.278 32.2894 188.385L32.2989 188.397L32.3087 188.409C32.3213 188.424 32.3347 188.441 32.364 188.479L32.366 188.482C32.5713 188.747 32.7562 189.001 32.9167 189.258L33.3012 189.874L34.0061 189.699C34.3366 189.617 34.6786 189.573 35.0312 189.573C38.2522 189.573 40.9344 191.588 41.1778 194.77L41.1781 194.774C41.1956 194.991 41.1961 195.216 41.1821 195.45L41.1464 196.045L41.6538 196.36C42.0874 196.628 42.5064 196.936 42.917 197.297L42.9171 197.297C44.848 198.995 46.0685 201.428 46.264 203.99L46.2641 203.991C46.4385 206.254 45.7018 208.663 44.3215 210.626L42.4971 210.017L43.8136 212.299C44.4779 213.451 44.887 214.742 44.9898 216.07C45.1631 218.326 44.3328 220.744 42.8203 222.599C41.3124 224.45 39.197 225.66 36.8512 225.66C35.1917 225.66 33.7142 225.437 32.383 224.861L31.8756 224.641L31.4199 224.954C30.2078 225.787 28.8086 226.277 27.3063 226.277C25.3018 226.277 23.5533 225.955 22.0078 225.076L21.5297 224.804L21.044 225.062C20.6198 225.288 20.1767 225.472 19.7159 225.615L19.6045 225.647C19.4813 225.683 19.3543 225.717 19.2256 225.748L19.2063 225.752L19.2046 225.753C19.1927 225.755 19.1751 225.759 19.1572 225.763L19.1494 225.765L19.1415 225.767C19.0288 225.794 18.9262 225.816 18.827 225.832L18.8267 225.833L18.8264 225.833L18.8261 225.833L18.8258 225.833L18.8255 225.833L18.8252 225.833L18.8249 225.833L18.8246 225.833L18.8243 225.833L18.824 225.833L18.8236 225.833L18.8233 225.833L18.823 225.833L18.8227 225.833L18.8224 225.833L18.8221 225.833L18.8218 225.833L18.8215 225.833L18.8212 225.833L18.8209 225.833L18.8206 225.833L18.8203 225.834L18.82 225.834L18.8197 225.834L18.8194 225.834L18.8191 225.834L18.8188 225.834L18.8185 225.834L18.8182 225.834L18.8179 225.834L18.8176 225.834L18.8173 225.834L18.817 225.834L18.8167 225.834L18.8164 225.834L18.8161 225.834L18.8158 225.834L18.8154 225.834L18.8151 225.834L18.8148 225.834L18.8145 225.834L18.8142 225.834L18.8139 225.835L18.8136 225.835L18.8133 225.835L18.813 225.835L18.8127 225.835L18.8124 225.835L18.8121 225.835L18.8118 225.835L18.8115 225.835L18.8112 225.835L18.8109 225.835L18.8106 225.835L18.8103 225.835L18.81 225.835L18.8097 225.835L18.8094 225.835L18.8091 225.835L18.8088 225.835L18.8085 225.835L18.8082 225.835L18.8079 225.835L18.8075 225.836L18.8072 225.836L18.8069 225.836L18.8066 225.836L18.8063 225.836L18.806 225.836L18.8057 225.836L18.8054 225.836L18.8051 225.836L18.8048 225.836L18.8045 225.836L18.8042 225.836L18.8039 225.836L18.8036 225.836L18.8033 225.836L18.803 225.836L18.8027 225.836L18.8024 225.836L18.8021 225.836L18.8018 225.836L18.8015 225.836L18.8012 225.837L18.8009 225.837L18.8006 225.837L18.8003 225.837L18.8 225.837L18.7997 225.837L18.7993 225.837L18.799 225.837L18.7987 225.837L18.7984 225.837L18.7981 225.837L18.7978 225.837L18.7975 225.837L18.7972 225.837L18.7969 225.837L18.7966 225.837L18.7963 225.837L18.796 225.837L18.7957 225.837L18.7954 225.837L18.7951 225.838L18.7948 225.838L18.7945 225.838L18.7942 225.838L18.7939 225.838L18.7936 225.838L18.7933 225.838L18.793 225.838L18.7927 225.838L18.7924 225.838L18.7921 225.838L18.7918 225.838L18.7914 225.838L18.7911 225.838L18.7908 225.838L18.7905 225.838L18.7902 225.838L18.7899 225.838L18.7896 225.838L18.7893 225.838L18.789 225.838L18.7887 225.839L18.7884 225.839L18.7881 225.839L18.7878 225.839L18.7875 225.839L18.7872 225.839L18.7869 225.839L18.7866 225.839L18.7863 225.839L18.786 225.839L18.7857 225.839L18.7854 225.839L18.7851 225.839L18.7848 225.839L18.7845 225.839L18.7842 225.839L18.7839 225.839L18.7836 225.839L18.7832 225.839L18.7829 225.839L18.7826 225.839L18.7823 225.84L18.782 225.84L18.7817 225.84L18.7814 225.84L18.7811 225.84L18.7808 225.84L18.7805 225.84L18.7802 225.84L18.7799 225.84L18.7796 225.84L18.7793 225.84L18.779 225.84L18.7787 225.84L18.7784 225.84L18.7781 225.84L18.7778 225.84L18.7775 225.84L18.7772 225.84L18.7769 225.84L18.7766 225.84L18.7763 225.84L18.776 225.841L18.7757 225.841L18.7753 225.841L18.775 225.841L18.7747 225.841L18.7744 225.841L18.7741 225.841L18.7738 225.841L18.7735 225.841L18.7732 225.841L18.7729 225.841L18.7726 225.841L18.7723 225.841L18.772 225.841L18.7717 225.841L18.7714 225.841L18.7711 225.841L18.7708 225.841L18.7705 225.841L18.7702 225.841L18.7699 225.841L18.7696 225.842L18.7693 225.842L18.769 225.842L18.7687 225.842L18.7684 225.842L18.7681 225.842L18.7678 225.842L18.7674 225.842L18.7671 225.842L18.7668 225.842L18.7665 225.842L18.7662 225.842L18.7659 225.842L18.7656 225.842L18.7653 225.842L18.765 225.842L18.7647 225.842L18.7644 225.842L18.7641 225.842L18.7638 225.842L18.7635 225.842L18.7632 225.843L18.7629 225.843L18.7626 225.843L18.7623 225.843L18.762 225.843L18.7617 225.843L18.7614 225.843L18.7611 225.843L18.7608 225.843L18.7605 225.843L18.7602 225.843L18.7599 225.843L18.7596 225.843L18.7592 225.843L18.7589 225.843L18.7586 225.843L18.7583 225.843L18.758 225.843L18.7577 225.843L18.7574 225.843L18.7571 225.843L18.7568 225.844L18.7565 225.844L18.7562 225.844L18.7559 225.844L18.7556 225.844L18.7553 225.844L18.755 225.844L18.7547 225.844L18.7544 225.844L18.7541 225.844L18.7538 225.844L18.7535 225.844L18.7532 225.844L18.7529 225.844L18.7526 225.844L18.7523 225.844L18.752 225.844L18.7517 225.844L18.7513 225.844L18.751 225.844L18.7507 225.845L18.7504 225.845L18.7501 225.845L18.7498 225.845L18.7495 225.845L18.7492 225.845L18.7489 225.845L18.7486 225.845L18.7483 225.845L18.748 225.845L18.7477 225.845L18.7474 225.845L18.7471 225.845L18.7468 225.845L18.7465 225.845L18.7462 225.845L18.7459 225.845L18.7456 225.845L18.7453 225.845L18.745 225.845L18.7447 225.845L18.7444 225.846L18.7441 225.846L18.7438 225.846L18.7435 225.846L18.7431 225.846L18.7428 225.846L18.7425 225.846L18.7422 225.846L18.7419 225.846L18.7416 225.846L18.7413 225.846L18.741 225.846L18.7407 225.846L18.7404 225.846L18.7401 225.846L18.7398 225.846L18.7395 225.846L18.7392 225.846L18.7389 225.846L18.7386 225.846L18.7383 225.846L18.738 225.847L18.7377 225.847L18.7374 225.847L18.7371 225.847L18.7368 225.847L18.7365 225.847L18.7362 225.847L18.7359 225.847L18.7356 225.847L18.7352 225.847L18.7349 225.847L18.7346 225.847L18.7343 225.847L18.734 225.847L18.7337 225.847L18.7334 225.847L18.7331 225.847L18.7328 225.847L18.7325 225.847L18.7322 225.847L18.7319 225.847L18.7316 225.848L18.7313 225.848L18.731 225.848L18.7307 225.848L18.7304 225.848L18.7301 225.848L18.7298 225.848L18.7295 225.848L18.7292 225.848L18.7289 225.848L18.7286 225.848L18.7283 225.848L18.728 225.848L18.7277 225.848L18.7274 225.848L18.727 225.848L18.7267 225.848L18.7264 225.848L18.7261 225.848L18.7258 225.848L18.7255 225.848L18.7252 225.849L18.7249 225.849L18.7246 225.849L18.7243 225.849L18.724 225.849L18.7237 225.849L18.7234 225.849L18.7231 225.849L18.7228 225.849L18.7225 225.849L18.7222 225.849L18.7219 225.849L18.7216 225.849L18.7213 225.849L18.721 225.849L18.7207 225.849L18.7204 225.849L18.7201 225.849L18.7198 225.849L18.7195 225.849L18.7191 225.849L18.7188 225.85L18.7185 225.85L18.7182 225.85L18.7179 225.85L18.7176 225.85L18.7173 225.85L18.717 225.85L18.7167 225.85L18.7164 225.85L18.7161 225.85L18.7158 225.85L18.7155 225.85L18.7152 225.85L18.7149 225.85L18.7146 225.85L18.7143 225.85L18.714 225.85L18.7137 225.85L18.7134 225.85L18.7131 225.85L18.7128 225.851L18.7125 225.851L18.7122 225.851L18.7119 225.851L18.7116 225.851L18.7113 225.851L18.7109 225.851L18.7106 225.851L18.7103 225.851L18.71 225.851L18.7097 225.851L18.7094 225.851L18.7091 225.851L18.7088 225.851L18.7085 225.851L18.7082 225.851L18.7079 225.851L18.7076 225.851L18.7073 225.851L18.707 225.851L18.7067 225.851L18.7064 225.852L18.7061 225.852L18.7058 225.852L18.7055 225.852L18.7052 225.852L18.7049 225.852L18.7046 225.852L18.7043 225.852L18.704 225.852L18.7037 225.852L18.7034 225.852L18.703 225.852L18.7027 225.852L18.7024 225.852L18.7021 225.852L18.7018 225.852L18.7015 225.852L18.7012 225.852L18.7009 225.852L18.7006 225.852L18.7003 225.852L18.7 225.853L18.6997 225.853L18.6994 225.853L18.6991 225.853L18.6988 225.853L18.6985 225.853L18.6982 225.853L18.6979 225.853L18.6976 225.853L18.6973 225.853L18.697 225.853L18.6967 225.853L18.6964 225.853L18.6961 225.853L18.6958 225.853L18.6955 225.853L18.6951 225.853L18.6948 225.853L18.6945 225.853L18.6942 225.853L18.6939 225.853L18.6936 225.854L18.6933 225.854L18.693 225.854L18.6927 225.854L18.6924 225.854L18.6921 225.854L18.6918 225.854L18.6915 225.854L18.6912 225.854L18.6909 225.854L18.6906 225.854L18.6903 225.854L18.69 225.854L18.6897 225.854L18.6894 225.854L18.6891 225.854L18.6888 225.854L18.6885 225.854L18.6882 225.854L18.6879 225.854L18.6876 225.854L18.6873 225.855L18.6872 225.855L18.6869 225.855L18.6866 225.855L18.6863 225.855L18.686 225.855L18.6857 225.855L18.6854 225.855L18.6852 225.855L18.6851 225.855L18.685 225.855L18.6848 225.855L18.6848 225.855C18.5773 225.871 18.484 225.886 18.3929 225.897L18.392 225.898C18.3548 225.902 18.3311 225.904 18.2945 225.907C18.265 225.91 18.2271 225.913 18.1672 225.919L18.1672 225.918L18.157 225.92C18.0819 225.928 18.0199 225.934 17.962 225.938C17.8185 225.947 17.6716 225.952 17.5213 225.952C14.7649 225.952 12.4415 225.377 10.4439 223.62C8.59669 221.993 7.42829 219.667 7.24084 217.214C7.22187 216.963 7.2167 216.7 7.2217 216.433L7.23349 215.802L6.66918 215.52C6.64895 215.509 6.63076 215.501 6.61614 215.495C6.60158 215.485 6.58701 215.476 6.57059 215.466C6.54791 215.451 6.52172 215.435 6.48721 215.413L6.4773 215.407L6.47722 215.407L6.47544 215.406L6.244 215.261H6.24237C5.59603 214.857 4.98502 214.449 4.32513 213.965L4.30149 213.944C2.41513 212.283 1.22045 209.889 1.02758 207.379C0.829741 204.786 1.70339 202.139 3.41595 200.191Z" stroke="#EE2E20" stroke-width="2"></path><path d="M27.5991 222.744L29.711 221.299L27.196 224.974L27.093 225.125L27.1111 225.306L28.7725 241.912H23.3287L24.5753 229.443L24.5934 229.261L24.4904 229.111L23.2537 227.304L23.9944 227.811L24.6905 228.288L24.7745 227.448L25.9573 215.625H26.1438L26.8192 222.381L26.9031 223.22L27.5991 222.744Z" fill="#1E1413" stroke="#EE2E20"></path></svg>