<svg xmlns="http://www.w3.org/2000/svg" width="288" height="224" viewBox="0 0 288 224" fill="none"><g clip-path="url(#clip0_1605_2370)"><path d="M120.347 195.12C120.325 195.036 120.305 194.953 120.283 194.87C111.776 201.715 100.616 213.373 93.9496 220.58C92.8891 221.726 91.4903 221.73 90.5358 221.349C89.583 220.97 88.574 220.011 88.599 218.456C89.0652 188.682 96.5056 167.783 102.666 155.492C105.245 150.347 107.82 146.241 110.014 143.135C109.892 142.214 109.775 141.297 109.662 140.387C107.213 143.674 104.141 148.358 101.028 154.554C94.759 167.031 87.1861 188.24 86.7135 218.427C86.6808 220.494 87.9065 222.326 89.8372 223.094C90.4454 223.336 91.077 223.454 91.6992 223.454C93.0544 223.454 94.3722 222.896 95.3375 221.854C102.145 214.495 113.663 202.465 122.1 195.825H120.531L120.349 195.12H120.347Z" fill="#EE2E20" stroke="#EE2E20" stroke-width="2"></path><path d="M187.322 154.556C184.178 148.298 181.073 143.583 178.614 140.289C178.501 141.199 178.386 142.115 178.264 143.036C180.473 146.154 183.077 150.291 185.684 155.494C191.844 167.783 199.285 188.682 199.751 218.458C199.776 220.013 198.767 220.972 197.814 221.351C196.858 221.731 195.461 221.728 194.4 220.582C187.718 213.359 176.524 201.665 168.009 194.826C167.984 194.924 167.959 195.024 167.933 195.121L167.75 195.827H166.25C174.687 202.467 186.204 214.498 193.011 221.856C193.976 222.9 195.294 223.456 196.649 223.456C197.271 223.456 197.903 223.338 198.511 223.095C200.44 222.328 201.666 220.496 201.635 218.428C201.162 188.242 193.59 167.033 187.32 154.556H187.322Z" fill="#EE2E20" stroke="#EE2E20" stroke-width="2"></path><path d="M121.584 32.0273L121.344 32.5214C121.425 32.3552 121.506 32.192 121.587 32.0273H121.584Z" fill="#15173F" stroke="#EE2E20" stroke-width="2"></path><path d="M116.753 180.327C116.697 180.083 116.641 179.838 116.586 179.594L116.751 180.327H116.753Z" fill="#15173F" stroke="#EE2E20" stroke-width="2"></path><path d="M166.478 32.0273H166.475C166.562 32.2029 166.649 32.3769 166.737 32.554L166.478 32.0273Z" fill="#15173F" stroke="#EE2E20" stroke-width="2"></path><path d="M176.973 138.175C177.479 138.799 178.029 139.505 178.617 140.291C185.125 87.3941 176.855 53.8924 167.389 33.9102H165.299C174.698 53.3254 183.09 86.103 176.973 138.175Z" fill="#EE2E20" stroke="#EE2E20" stroke-width="2"></path><path d="M110.994 141.778C110.677 142.206 110.348 142.662 110.013 143.137C111.457 154.077 113.525 165.832 116.332 178.448H118.263C101.261 102.361 111.233 57.9193 122.765 33.9102H120.679C111.283 53.9049 103.092 87.436 109.659 140.39C110.074 139.832 110.472 139.315 110.847 138.837L110.993 141.778H110.994Z" fill="#EE2E20" stroke="#EE2E20" stroke-width="2"></path><path d="M170.018 178.448H171.948C174.762 165.793 176.829 154.006 178.267 143.037C177.7 142.237 177.159 141.502 176.65 140.836C175.198 152.416 173.035 164.934 170.018 178.448Z" fill="#EE2E20" stroke="#EE2E20" stroke-width="2"></path><path d="M171.529 180.327L171.694 179.594C171.64 179.838 171.583 180.083 171.527 180.327H171.529Z" fill="#15173F" stroke="#EE2E20" stroke-width="2"></path><path d="M110.994 141.777L110.848 138.836C110.473 139.313 110.075 139.832 109.66 140.39C109.772 141.3 109.891 142.217 110.013 143.138C110.349 142.662 110.677 142.207 110.994 141.778V141.777Z" fill="#EE2E20" stroke="#EE2E20" stroke-width="2"></path><path d="M176.65 140.833C177.159 141.5 177.7 142.233 178.268 143.035C178.388 142.113 178.505 141.198 178.617 140.288C178.029 139.502 177.48 138.798 176.973 138.172C176.87 139.054 176.763 139.941 176.65 140.833Z" fill="#EE2E20" stroke="#EE2E20" stroke-width="2"></path><path d="M144.048 99.0014C154.61 99.0014 163.203 90.4412 163.203 79.9187C163.203 69.3962 154.61 60.8359 144.048 60.8359C133.485 60.8359 124.893 69.3962 124.893 79.9187C124.893 90.4412 133.485 99.0014 144.048 99.0014ZM144.048 62.7158C153.57 62.7158 161.316 70.4325 161.316 79.9187C161.316 89.4049 153.57 97.1216 144.048 97.1216C134.526 97.1216 126.78 89.4049 126.78 79.9187C126.78 70.4325 134.526 62.7158 144.048 62.7158Z" fill="#EE2E20" stroke="#EE2E20" stroke-width="2"></path><path d="M121.341 32.5234C121.335 32.5343 121.33 32.5467 121.324 32.5576L120.666 33.9077H120.678C120.894 33.4509 121.109 33.0004 121.324 32.5576L121.341 32.5234Z" fill="#15173F"></path><path d="M121.324 32.5576C121.33 32.5467 121.335 32.5343 121.341 32.5234L121.324 32.5576ZM121.324 32.5576L120.666 33.9077H120.678C120.894 33.4509 121.109 33.0004 121.324 32.5576Z" stroke="#EE2E20" stroke-width="2"></path><path d="M143.96 6.43808C145.805 7.68406 155.622 14.871 164.366 32.0288H166.475C156.491 11.9813 145.118 4.92488 144.634 4.63281L144.408 4.49609H143.508L143.282 4.63436C142.802 4.92799 131.494 11.9844 121.588 32.0288H123.693C132.35 14.9129 142.123 7.69183 143.96 6.43808Z" fill="#EE2E20" stroke="#EE2E20" stroke-width="2"></path><path d="M167.401 33.9102L166.736 32.5586C166.955 33.0014 167.171 33.4535 167.388 33.9102H167.401Z" fill="#15173F" stroke="#EE2E20" stroke-width="2"></path><path d="M165.298 33.9095H167.388C167.171 33.4512 166.955 33.0007 166.736 32.5579C166.649 32.3808 166.562 32.2068 166.474 32.0312H121.586C121.505 32.1959 121.424 32.3591 121.342 32.5253L121.325 32.5595C121.11 33.0022 120.895 33.4528 120.68 33.9095H165.298Z" fill="#EE2E20" stroke="#EE2E20" stroke-width="2"></path><path d="M171.949 178.445H171.947C171.863 178.826 171.779 179.208 171.691 179.59L171.949 178.445Z" fill="#15173F" stroke="#EE2E20" stroke-width="2"></path><path d="M169.594 180.324C168.6 184.693 167.524 189.133 166.391 193.556C166.919 193.957 167.46 194.38 168.013 194.824C169.263 189.98 170.444 185.108 171.528 180.326H169.595L169.594 180.324Z" fill="#EE2E20" stroke="#EE2E20" stroke-width="2"></path><path d="M151.239 193.945L151.064 195.824H166.254C165.381 195.135 164.54 194.505 163.74 193.945H151.241H151.239Z" fill="#EE2E20" stroke="#EE2E20" stroke-width="2"></path><path d="M116.587 179.59C116.502 179.208 116.417 178.826 116.332 178.445H116.33L116.587 179.59Z" fill="#15173F" stroke="#EE2E20" stroke-width="2"></path><path d="M121.991 193.945C120.813 189.366 119.703 184.792 118.686 180.324H116.754C117.835 185.091 119.02 189.977 120.283 194.869C120.526 194.673 120.77 194.479 121.008 194.291L123.14 195.018C122.799 195.276 122.451 195.546 122.098 195.824H135.201L135.027 193.946H121.992L121.991 193.945Z" fill="#EE2E20" stroke="#EE2E20" stroke-width="2"></path><path d="M121.008 194.293C120.77 194.481 120.526 194.675 120.283 194.871C120.305 194.955 120.325 195.037 120.347 195.121L120.53 195.826H122.098C122.451 195.55 122.799 195.278 123.14 195.02L121.008 194.293Z" fill="#EE2E20" stroke="#EE2E20" stroke-width="2"></path><path d="M167.935 195.118C167.96 195.02 167.985 194.92 168.012 194.822C167.46 194.378 166.918 193.956 166.39 193.555C166.357 193.684 166.324 193.814 166.292 193.943H163.74C164.539 194.504 165.381 195.135 166.254 195.821H167.754L167.937 195.116L167.935 195.118Z" fill="#EE2E20" stroke="#EE2E20" stroke-width="2"></path><path d="M165.291 180.324H171.526C171.582 180.08 171.638 179.834 171.693 179.59C171.779 179.208 171.863 178.826 171.948 178.445H165.648L165.291 180.324Z" fill="#EE2E20" stroke="#EE2E20" stroke-width="2"></path><path d="M134.113 178.445H116.332C116.416 178.826 116.5 179.208 116.588 179.59C116.642 179.834 116.699 180.08 116.755 180.324H134.112C134.107 179.698 134.107 179.071 134.112 178.445H134.113Z" fill="#EE2E20" stroke="#EE2E20" stroke-width="2"></path><path d="M152.152 178.445C152.158 179.071 152.158 179.698 152.152 180.324H163.369L163.727 178.445H152.15H152.152Z" fill="#EE2E20" stroke="#EE2E20" stroke-width="2"></path><path d="M163.728 178.445L163.371 180.324H165.291L165.648 178.445H163.728Z" fill="#EE2E20" stroke="#EE2E20" stroke-width="2"></path><path d="M147.094 218.065C146.902 220.116 145.199 221.66 143.132 221.66C141.066 221.66 139.363 220.115 139.171 218.065L137.094 195.824H135.199L137.292 218.239C137.574 221.261 140.084 223.54 143.131 223.54C146.178 223.54 148.687 221.261 148.97 218.239L151.062 195.824H149.168L147.09 218.065H147.094Z" fill="#EE2E20" stroke="#EE2E20" stroke-width="2"></path><path d="M136.001 178.447C136.029 175.767 136.168 173.087 136.415 170.426L139.174 140.889C139.366 138.838 141.069 137.294 143.135 137.294C145.202 137.294 146.905 138.84 147.096 140.889L149.855 170.426C150.103 173.087 150.242 175.767 150.27 178.447H152.155C152.127 175.708 151.987 172.971 151.733 170.252L148.974 140.715C148.692 137.693 146.183 135.414 143.135 135.414C140.088 135.414 137.579 137.693 137.297 140.715L134.538 170.252C134.284 172.972 134.143 175.708 134.115 178.447H136.001Z" fill="#EE2E20" stroke="#EE2E20" stroke-width="2"></path><path d="M135.999 180.324H134.113C134.137 183.124 134.277 185.922 134.537 188.703L135.027 193.945H136.922L136.417 188.529C136.162 185.807 136.025 183.066 136 180.324H135.999Z" fill="#EE2E20" stroke="#EE2E20" stroke-width="2"></path><path d="M152.153 180.324H150.267C150.244 183.066 150.105 185.805 149.851 188.529L149.346 193.945H151.24L151.73 188.703C151.991 185.922 152.131 183.124 152.154 180.324H152.153Z" fill="#EE2E20" stroke="#EE2E20" stroke-width="2"></path><path d="M149.346 193.945L149.17 195.824H151.065L151.239 193.945H149.346Z" fill="#EE2E20" stroke="#EE2E20" stroke-width="2"></path><path d="M136.92 193.945H135.025L135.202 195.824H137.095L136.92 193.945Z" fill="#EE2E20" stroke="#EE2E20" stroke-width="2"></path><path d="M135.999 178.445H134.114C134.108 179.071 134.108 179.698 134.114 180.324H135.999C135.995 179.698 135.993 179.071 135.999 178.445Z" fill="#EE2E20" stroke="#EE2E20" stroke-width="2"></path><path d="M152.151 178.445H150.266C150.272 179.071 150.272 179.698 150.266 180.324H152.151C152.156 179.698 152.156 179.071 152.151 178.445Z" fill="#EE2E20" stroke="#EE2E20" stroke-width="2"></path><path d="M252.136 0.539062H247.059V219.602H252.136V0.539062Z" fill="#5533E5"></path><path d="M288 0.539062H282.922V219.602H288V0.539062Z" fill="#5533E5"></path><path d="M282.922 0.539062H247.059V4.14184H282.922V0.539062Z" fill="#5533E5"></path><path d="M282.922 48.7539H247.059V52.3567H282.922V48.7539Z" fill="#5533E5"></path><path d="M282.922 96.9727H247.059V100.575H282.922V96.9727Z" fill="#5533E5"></path><path d="M282.922 145.188H247.059V148.79H282.922V145.188Z" fill="#5533E5"></path><path d="M282.922 193.406H247.059V197.009H282.922V193.406Z" fill="#5533E5"></path><path d="M281.595 3.2365L250.807 47.8477L253.494 49.6881L284.282 5.07697L281.595 3.2365Z" fill="#5533E5"></path><path d="M281.595 51.4552L250.807 96.0664L253.494 97.9069L284.282 53.2957L281.595 51.4552Z" fill="#5533E5"></path><path d="M281.581 99.6647L250.801 144.281L253.487 146.12L284.268 101.504L281.581 99.6647Z" fill="#5533E5"></path><path d="M281.583 147.887L250.803 192.504L253.489 194.343L284.269 149.727L281.583 147.887Z" fill="#5533E5"></path><path d="M260.83 4.14062H260.287V219.6H260.83V4.14062Z" fill="#5533E5"></path><path d="M264.519 4.14062H263.977V219.6H264.519V4.14062Z" fill="#5533E5"></path><path d="M264.248 5.83984H260.559V6.38049H264.248V5.83984Z" fill="#5533E5"></path><path d="M264.248 8.27344H260.559V8.81409H264.248V8.27344Z" fill="#5533E5"></path><path d="M264.248 10.7031H260.559V11.2438H264.248V10.7031Z" fill="#5533E5"></path><path d="M264.248 13.1328H260.559V13.6735H264.248V13.1328Z" fill="#5533E5"></path><path d="M264.248 15.5625H260.559V16.1031H264.248V15.5625Z" fill="#5533E5"></path><path d="M264.248 17.9922H260.559V18.5328H264.248V17.9922Z" fill="#5533E5"></path><path d="M264.248 20.4219H260.559V20.9625H264.248V20.4219Z" fill="#5533E5"></path><path d="M264.248 22.8555H260.559V23.3961H264.248V22.8555Z" fill="#5533E5"></path><path d="M264.248 25.2852H260.559V25.8258H264.248V25.2852Z" fill="#5533E5"></path><path d="M264.248 27.7148H260.559V28.2555H264.248V27.7148Z" fill="#5533E5"></path><path d="M264.248 30.1445H260.559V30.6852H264.248V30.1445Z" fill="#5533E5"></path><path d="M264.248 32.5781H260.559V33.1188H264.248V32.5781Z" fill="#5533E5"></path><path d="M264.248 35.0078H260.559V35.5485H264.248V35.0078Z" fill="#5533E5"></path><path d="M264.248 37.4375H260.559V37.9781H264.248V37.4375Z" fill="#5533E5"></path><path d="M264.248 39.8672H260.559V40.4078H264.248V39.8672Z" fill="#5533E5"></path><path d="M264.248 42.3008H260.559V42.8414H264.248V42.3008Z" fill="#5533E5"></path><path d="M264.248 44.7305H260.559V45.2711H264.248V44.7305Z" fill="#5533E5"></path><path d="M264.248 47.1602H260.559V47.7008H264.248V47.1602Z" fill="#5533E5"></path><path d="M264.248 49.5898H260.559V50.1305H264.248V49.5898Z" fill="#5533E5"></path><path d="M264.248 52.0234H260.559V52.5641H264.248V52.0234Z" fill="#5533E5"></path><path d="M264.248 54.4531H260.559V54.9938H264.248V54.4531Z" fill="#5533E5"></path><path d="M264.248 56.8828H260.559V57.4235H264.248V56.8828Z" fill="#5533E5"></path><path d="M264.248 59.3125H260.559V59.8531H264.248V59.3125Z" fill="#5533E5"></path><path d="M264.248 61.7461H260.559V62.2867H264.248V61.7461Z" fill="#5533E5"></path><path d="M264.248 64.1758H260.559V64.7164H264.248V64.1758Z" fill="#5533E5"></path><path d="M264.248 66.6055H260.559V67.1461H264.248V66.6055Z" fill="#5533E5"></path><path d="M264.248 69.0352H260.559V69.5758H264.248V69.0352Z" fill="#5533E5"></path><path d="M264.248 71.4688H260.559V72.0094H264.248V71.4688Z" fill="#5533E5"></path><path d="M264.248 73.8984H260.559V74.4391H264.248V73.8984Z" fill="#5533E5"></path><path d="M264.248 76.3281H260.559V76.8688H264.248V76.3281Z" fill="#5533E5"></path><path d="M264.248 78.7578H260.559V79.2985H264.248V78.7578Z" fill="#5533E5"></path><path d="M264.248 81.1875H260.559V81.7281H264.248V81.1875Z" fill="#5533E5"></path><path d="M264.248 83.6211H260.559V84.1617H264.248V83.6211Z" fill="#5533E5"></path><path d="M264.248 86.0508H260.559V86.5914H264.248V86.0508Z" fill="#5533E5"></path><path d="M264.248 88.4805H260.559V89.0211H264.248V88.4805Z" fill="#5533E5"></path><path d="M264.248 90.9102H260.559V91.4508H264.248V90.9102Z" fill="#5533E5"></path><path d="M264.248 93.3398H260.559V93.8805H264.248V93.3398Z" fill="#5533E5"></path><path d="M264.248 95.7695H260.559V96.3102H264.248V95.7695Z" fill="#5533E5"></path><path d="M264.248 98.2031H260.559V98.7438H264.248V98.2031Z" fill="#5533E5"></path><path d="M264.248 100.633H260.559V101.173H264.248V100.633Z" fill="#5533E5"></path><path d="M264.248 103.062H260.559V103.603H264.248V103.062Z" fill="#5533E5"></path><path d="M264.248 105.492H260.559V106.033H264.248V105.492Z" fill="#5533E5"></path><path d="M264.248 107.926H260.559V108.466H264.248V107.926Z" fill="#5533E5"></path><path d="M264.248 110.355H260.559V110.896H264.248V110.355Z" fill="#5533E5"></path><path d="M264.248 112.785H260.559V113.326H264.248V112.785Z" fill="#5533E5"></path><path d="M264.248 115.215H260.559V115.755H264.248V115.215Z" fill="#5533E5"></path><path d="M264.248 117.648H260.559V118.189H264.248V117.648Z" fill="#5533E5"></path><path d="M264.248 120.078H260.559V120.619H264.248V120.078Z" fill="#5533E5"></path><path d="M264.248 122.508H260.559V123.048H264.248V122.508Z" fill="#5533E5"></path><path d="M264.248 124.938H260.559V125.478H264.248V124.938Z" fill="#5533E5"></path><path d="M264.248 127.371H260.559V127.912H264.248V127.371Z" fill="#5533E5"></path><path d="M264.248 129.801H260.559V130.341H264.248V129.801Z" fill="#5533E5"></path><path d="M264.248 132.23H260.559V132.771H264.248V132.23Z" fill="#5533E5"></path><path d="M264.248 134.66H260.559V135.201H264.248V134.66Z" fill="#5533E5"></path><path d="M264.248 137.094H260.559V137.634H264.248V137.094Z" fill="#5533E5"></path><path d="M264.248 139.523H260.559V140.064H264.248V139.523Z" fill="#5533E5"></path><path d="M264.248 141.953H260.559V142.494H264.248V141.953Z" fill="#5533E5"></path><path d="M264.248 144.383H260.559V144.923H264.248V144.383Z" fill="#5533E5"></path><path d="M264.248 146.816H260.559V147.357H264.248V146.816Z" fill="#5533E5"></path><path d="M264.248 149.246H260.559V149.787H264.248V149.246Z" fill="#5533E5"></path><path d="M264.248 151.676H260.559V152.216H264.248V151.676Z" fill="#5533E5"></path><path d="M264.248 154.105H260.559V154.646H264.248V154.105Z" fill="#5533E5"></path><path d="M264.248 156.535H260.559V157.076H264.248V156.535Z" fill="#5533E5"></path><path d="M264.248 158.965H260.559V159.505H264.248V158.965Z" fill="#5533E5"></path><path d="M264.248 161.398H260.559V161.939H264.248V161.398Z" fill="#5533E5"></path><path d="M264.248 163.828H260.559V164.369H264.248V163.828Z" fill="#5533E5"></path><path d="M264.248 166.258H260.559V166.798H264.248V166.258Z" fill="#5533E5"></path><path d="M264.248 168.688H260.559V169.228H264.248V168.688Z" fill="#5533E5"></path><path d="M264.248 171.121H260.559V171.662H264.248V171.121Z" fill="#5533E5"></path><path d="M264.248 173.551H260.559V174.091H264.248V173.551Z" fill="#5533E5"></path><path d="M264.248 175.98H260.559V176.521H264.248V175.98Z" fill="#5533E5"></path><path d="M264.248 178.41H260.559V178.951H264.248V178.41Z" fill="#5533E5"></path><path d="M264.248 180.84H260.559V181.38H264.248V180.84Z" fill="#5533E5"></path><path d="M264.248 183.273H260.559V183.814H264.248V183.273Z" fill="#5533E5"></path><path d="M264.248 185.703H260.559V186.244H264.248V185.703Z" fill="#5533E5"></path><path d="M264.248 188.133H260.559V188.673H264.248V188.133Z" fill="#5533E5"></path><path d="M264.248 190.566H260.559V191.107H264.248V190.566Z" fill="#5533E5"></path><path d="M264.248 192.996H260.559V193.537H264.248V192.996Z" fill="#5533E5"></path><path d="M264.248 195.426H260.559V195.966H264.248V195.426Z" fill="#5533E5"></path><path d="M264.248 197.855H260.559V198.396H264.248V197.855Z" fill="#5533E5"></path><path d="M264.248 200.289H260.559V200.83H264.248V200.289Z" fill="#5533E5"></path><path d="M264.248 202.719H260.559V203.259H264.248V202.719Z" fill="#5533E5"></path><path d="M264.248 205.148H260.559V205.689H264.248V205.148Z" fill="#5533E5"></path><path d="M264.248 207.578H260.559V208.119H264.248V207.578Z" fill="#5533E5"></path><path d="M264.248 210.008H260.559V210.548H264.248V210.008Z" fill="#5533E5"></path><path d="M264.248 212.441H260.559V212.982H264.248V212.441Z" fill="#5533E5"></path><path d="M264.248 214.871H260.559V215.412H264.248V214.871Z" fill="#5533E5"></path><path d="M264.248 217.301H260.559V217.841H264.248V217.301Z" fill="#5533E5"></path><path d="M247.211 42.0312H202.654V43.1141H247.211V42.0312Z" fill="#5533E5"></path><path d="M247.211 49.6172H202.654V50.7H247.211V49.6172Z" fill="#5533E5"></path><path d="M205.931 50.2561L203.036 44.0572V50.1597H202.686V42.457L206.238 50.0634L205.931 50.2561Z" fill="#5533E5"></path><path d="M209.152 50.2561L206.258 44.0572V50.1597H205.908V42.457L209.461 50.0634L209.152 50.2561Z" fill="#5533E5"></path><path d="M212.377 50.2561L209.482 44.0572V50.1597H209.133V42.457L212.684 50.0634L212.377 50.2561Z" fill="#5533E5"></path><path d="M215.599 50.2561L212.704 44.0572V50.1597H212.354V42.457L215.906 50.0634L215.599 50.2561Z" fill="#5533E5"></path><path d="M218.822 50.2561L215.927 44.0572V50.1597H215.578V42.457L219.131 50.0634L218.822 50.2561Z" fill="#5533E5"></path><path d="M222.045 50.2561L219.15 44.0572V50.1597H218.801V42.457L222.352 50.0634L222.045 50.2561Z" fill="#5533E5"></path><path d="M225.269 50.2561L222.375 44.0572V50.1597H222.025V42.457L225.576 50.0634L225.269 50.2561Z" fill="#5533E5"></path><path d="M228.49 50.2561L225.595 44.0572V50.1597H225.246V42.457L228.799 50.0634L228.49 50.2561Z" fill="#5533E5"></path><path d="M231.714 50.2561L228.82 44.0572V50.1597H228.471V42.457L232.022 50.0634L231.714 50.2561Z" fill="#5533E5"></path><path d="M234.936 50.2561L232.043 44.0572V50.1597H231.693V42.457L235.244 50.0634L234.936 50.2561Z" fill="#5533E5"></path><path d="M238.16 50.2561L235.265 44.0572V50.1597H234.916V42.457L238.469 50.0634L238.16 50.2561Z" fill="#5533E5"></path><path d="M241.382 50.2561L238.488 44.0572V50.1597H238.139V42.457L241.69 50.0634L241.382 50.2561Z" fill="#5533E5"></path><path d="M244.605 50.2561L241.713 44.0572V50.1597H241.363V42.457L244.914 50.0634L244.605 50.2561Z" fill="#5533E5"></path><path d="M247.828 50.2561L244.933 44.0572V50.1597H244.584V42.457L248.137 50.0634L247.828 50.2561Z" fill="#5533E5"></path><path d="M247.211 91.4375H202.654V92.5203H247.211V91.4375Z" fill="#5533E5"></path><path d="M247.211 99.0234H202.654V100.106H247.211V99.0234Z" fill="#5533E5"></path><path d="M205.931 99.6639L203.036 93.465V99.5675H202.686V91.8633L206.238 99.4697L205.931 99.6639Z" fill="#5533E5"></path><path d="M209.152 99.6639L206.258 93.465V99.5675H205.908V91.8633L209.461 99.4697L209.152 99.6639Z" fill="#5533E5"></path><path d="M212.377 99.6639L209.482 93.465V99.5675H209.133V91.8633L212.684 99.4697L212.377 99.6639Z" fill="#5533E5"></path><path d="M215.599 99.6639L212.704 93.465V99.5675H212.354V91.8633L215.906 99.4697L215.599 99.6639Z" fill="#5533E5"></path><path d="M218.822 99.6639L215.927 93.465V99.5675H215.578V91.8633L219.131 99.4697L218.822 99.6639Z" fill="#5533E5"></path><path d="M222.045 99.6639L219.15 93.465V99.5675H218.801V91.8633L222.352 99.4697L222.045 99.6639Z" fill="#5533E5"></path><path d="M225.269 99.6639L222.375 93.465V99.5675H222.025V91.8633L225.576 99.4697L225.269 99.6639Z" fill="#5533E5"></path><path d="M228.49 99.6639L225.595 93.465V99.5675H225.246V91.8633L228.799 99.4697L228.49 99.6639Z" fill="#5533E5"></path><path d="M231.714 99.6639L228.82 93.465V99.5675H228.471V91.8633L232.022 99.4697L231.714 99.6639Z" fill="#5533E5"></path><path d="M234.936 99.6639L232.043 93.465V99.5675H231.693V91.8633L235.244 99.4697L234.936 99.6639Z" fill="#5533E5"></path><path d="M238.16 99.6639L235.265 93.465V99.5675H234.916V91.8633L238.469 99.4697L238.16 99.6639Z" fill="#5533E5"></path><path d="M241.382 99.6639L238.488 93.465V99.5675H238.139V91.8633L241.69 99.4697L241.382 99.6639Z" fill="#5533E5"></path><path d="M244.605 99.6639L241.713 93.465V99.5675H241.363V91.8633L244.914 99.4697L244.605 99.6639Z" fill="#5533E5"></path><path d="M247.828 99.6639L244.933 93.465V99.5675H244.584V91.8633L248.137 99.4697L247.828 99.6639Z" fill="#5533E5"></path><path d="M247.211 140.844H202.654V141.927H247.211V140.844Z" fill="#5533E5"></path><path d="M247.211 148.434H202.654V149.516H247.211V148.434Z" fill="#5533E5"></path><path d="M205.931 149.07L203.036 142.871V148.974H202.686V141.27L206.238 148.877L205.931 149.07Z" fill="#5533E5"></path><path d="M209.152 149.07L206.258 142.871V148.974H205.908V141.27L209.461 148.877L209.152 149.07Z" fill="#5533E5"></path><path d="M212.377 149.07L209.482 142.871V148.974H209.133V141.27L212.684 148.877L212.377 149.07Z" fill="#5533E5"></path><path d="M215.599 149.07L212.704 142.871V148.974H212.354V141.27L215.906 148.877L215.599 149.07Z" fill="#5533E5"></path><path d="M218.822 149.07L215.927 142.871V148.974H215.578V141.27L219.131 148.877L218.822 149.07Z" fill="#5533E5"></path><path d="M222.045 149.07L219.15 142.871V148.974H218.801V141.27L222.352 148.877L222.045 149.07Z" fill="#5533E5"></path><path d="M225.269 149.07L222.375 142.871V148.974H222.025V141.27L225.576 148.877L225.269 149.07Z" fill="#5533E5"></path><path d="M228.49 149.07L225.595 142.871V148.974H225.246V141.27L228.799 148.877L228.49 149.07Z" fill="#5533E5"></path><path d="M231.714 149.07L228.82 142.871V148.974H228.471V141.27L232.022 148.877L231.714 149.07Z" fill="#5533E5"></path><path d="M234.936 149.07L232.043 142.871V148.974H231.693V141.27L235.244 148.877L234.936 149.07Z" fill="#5533E5"></path><path d="M238.16 149.07L235.265 142.871V148.974H234.916V141.27L238.469 148.877L238.16 149.07Z" fill="#5533E5"></path><path d="M241.382 149.07L238.488 142.871V148.974H238.139V141.27L241.69 148.877L241.382 149.07Z" fill="#5533E5"></path><path d="M244.605 149.07L241.713 142.871V148.974H241.363V141.27L244.914 148.877L244.605 149.07Z" fill="#5533E5"></path><path d="M247.828 149.07L244.933 142.871V148.974H244.584V141.27L248.137 148.877L247.828 149.07Z" fill="#5533E5"></path><path d="M247.211 190.254H202.654V191.337H247.211V190.254Z" fill="#5533E5"></path><path d="M247.211 197.84H202.654V198.923H247.211V197.84Z" fill="#5533E5"></path><path d="M205.931 198.48L203.036 192.28V198.382H202.686V190.68L206.238 198.286L205.931 198.48Z" fill="#5533E5"></path><path d="M209.152 198.48L206.258 192.28V198.382H205.908V190.68L209.461 198.286L209.152 198.48Z" fill="#5533E5"></path><path d="M212.377 198.48L209.482 192.28V198.382H209.133V190.68L212.684 198.286L212.377 198.48Z" fill="#5533E5"></path><path d="M215.599 198.48L212.704 192.28V198.382H212.354V190.68L215.906 198.286L215.599 198.48Z" fill="#5533E5"></path><path d="M218.822 198.48L215.927 192.28V198.382H215.578V190.68L219.131 198.286L218.822 198.48Z" fill="#5533E5"></path><path d="M222.045 198.48L219.15 192.28V198.382H218.801V190.68L222.352 198.286L222.045 198.48Z" fill="#5533E5"></path><path d="M225.269 198.48L222.375 192.28V198.382H222.025V190.68L225.576 198.286L225.269 198.48Z" fill="#5533E5"></path><path d="M228.49 198.48L225.595 192.28V198.382H225.246V190.68L228.799 198.286L228.49 198.48Z" fill="#5533E5"></path><path d="M231.714 198.48L228.82 192.28V198.382H228.471V190.68L232.022 198.286L231.714 198.48Z" fill="#5533E5"></path><path d="M234.936 198.48L232.043 192.28V198.382H231.693V190.68L235.244 198.286L234.936 198.48Z" fill="#5533E5"></path><path d="M238.16 198.48L235.265 192.28V198.382H234.916V190.68L238.469 198.286L238.16 198.48Z" fill="#5533E5"></path><path d="M241.382 198.48L238.488 192.28V198.382H238.139V190.68L241.69 198.286L241.382 198.48Z" fill="#5533E5"></path><path d="M244.605 198.48L241.713 192.28V198.382H241.363V190.68L244.914 198.286L244.605 198.48Z" fill="#5533E5"></path><path d="M247.828 198.48L244.933 192.28V198.382H244.584V190.68L248.137 198.286L247.828 198.48Z" fill="#5533E5"></path><path d="M35.8637 219.602H40.9414L40.9414 0.539124H35.8637L35.8637 219.602Z" fill="#5533E5"></path><path d="M0.000404358 219.602H5.07812L5.07812 0.539124H0.000404358L0.000404358 219.602Z" fill="#5533E5"></path><path d="M5.07767 4.14063L40.9414 4.14062V0.537849L5.07767 0.537849V4.14063Z" fill="#5533E5"></path><path d="M5.07767 52.3594L40.9414 52.3594V48.7566L5.07767 48.7566V52.3594Z" fill="#5533E5"></path><path d="M5.07767 100.574H40.9414V96.9714H5.07767V100.574Z" fill="#5533E5"></path><path d="M5.07767 148.793H40.9414V145.19H5.07767V148.793Z" fill="#5533E5"></path><path d="M5.07767 197.008H40.9414V193.405H5.07767V197.008Z" fill="#5533E5"></path><path d="M6.42145 3.22203L3.73438 5.0625L34.5228 49.6737L37.2099 47.8332L6.42145 3.22203Z" fill="#5533E5"></path><path d="M6.4234 51.433L3.73633 53.2734L34.5248 97.8846L37.2119 96.0441L6.4234 51.433Z" fill="#5533E5"></path><path d="M6.4283 99.6492L3.74219 101.488L34.5228 146.105L37.2089 144.266L6.4283 99.6492Z" fill="#5533E5"></path><path d="M6.43221 147.864L3.74609 149.703L34.5267 194.32L37.2129 192.481L6.43221 147.864Z" fill="#5533E5"></path><path d="M27.7107 4.14062H27.168V219.6H27.7107V4.14062Z" fill="#5533E5"></path><path d="M24.0212 4.14062H23.4785V219.6H24.0212V4.14062Z" fill="#5533E5"></path><path d="M27.4398 5.83984H23.75V6.38049H27.4398V5.83984Z" fill="#5533E5"></path><path d="M27.4398 8.27344H23.75V8.81409H27.4398V8.27344Z" fill="#5533E5"></path><path d="M27.4398 10.7031H23.75V11.2438H27.4398V10.7031Z" fill="#5533E5"></path><path d="M27.4398 13.1328H23.75V13.6735H27.4398V13.1328Z" fill="#5533E5"></path><path d="M27.4398 15.5625H23.75V16.1031H27.4398V15.5625Z" fill="#5533E5"></path><path d="M27.4398 17.9922H23.75V18.5328H27.4398V17.9922Z" fill="#5533E5"></path><path d="M27.4398 20.4219H23.75V20.9625H27.4398V20.4219Z" fill="#5533E5"></path><path d="M27.4398 22.8555H23.75V23.3961H27.4398V22.8555Z" fill="#5533E5"></path><path d="M27.4398 25.2852H23.75V25.8258H27.4398V25.2852Z" fill="#5533E5"></path><path d="M27.4398 27.7148H23.75V28.2555H27.4398V27.7148Z" fill="#5533E5"></path><path d="M27.4398 30.1445H23.75V30.6852H27.4398V30.1445Z" fill="#5533E5"></path><path d="M27.4398 32.5781H23.75V33.1188H27.4398V32.5781Z" fill="#5533E5"></path><path d="M27.4398 35.0078H23.75V35.5485H27.4398V35.0078Z" fill="#5533E5"></path><path d="M27.4398 37.4375H23.75V37.9781H27.4398V37.4375Z" fill="#5533E5"></path><path d="M27.4398 39.8672H23.75V40.4078H27.4398V39.8672Z" fill="#5533E5"></path><path d="M27.4398 42.3008H23.75V42.8414H27.4398V42.3008Z" fill="#5533E5"></path><path d="M27.4398 44.7305H23.75V45.2711H27.4398V44.7305Z" fill="#5533E5"></path><path d="M27.4398 47.1602H23.75V47.7008H27.4398V47.1602Z" fill="#5533E5"></path><path d="M27.4398 49.5898H23.75V50.1305H27.4398V49.5898Z" fill="#5533E5"></path><path d="M27.4398 52.0234H23.75V52.5641H27.4398V52.0234Z" fill="#5533E5"></path><path d="M27.4398 54.4531H23.75V54.9938H27.4398V54.4531Z" fill="#5533E5"></path><path d="M27.4398 56.8828H23.75V57.4235H27.4398V56.8828Z" fill="#5533E5"></path><path d="M27.4398 59.3125H23.75V59.8531H27.4398V59.3125Z" fill="#5533E5"></path><path d="M27.4398 61.7461H23.75V62.2867H27.4398V61.7461Z" fill="#5533E5"></path><path d="M27.4398 64.1758H23.75V64.7164H27.4398V64.1758Z" fill="#5533E5"></path><path d="M27.4398 66.6055H23.75V67.1461H27.4398V66.6055Z" fill="#5533E5"></path><path d="M27.4398 69.0352H23.75V69.5758H27.4398V69.0352Z" fill="#5533E5"></path><path d="M27.4398 71.4688H23.75V72.0094H27.4398V71.4688Z" fill="#5533E5"></path><path d="M27.4398 73.8984H23.75V74.4391H27.4398V73.8984Z" fill="#5533E5"></path><path d="M27.4398 76.3281H23.75V76.8688H27.4398V76.3281Z" fill="#5533E5"></path><path d="M27.4398 78.7578H23.75V79.2985H27.4398V78.7578Z" fill="#5533E5"></path><path d="M27.4398 81.1875H23.75V81.7281H27.4398V81.1875Z" fill="#5533E5"></path><path d="M27.4398 83.6211H23.75V84.1617H27.4398V83.6211Z" fill="#5533E5"></path><path d="M27.4398 86.0508H23.75V86.5914H27.4398V86.0508Z" fill="#5533E5"></path><path d="M27.4398 88.4805H23.75V89.0211H27.4398V88.4805Z" fill="#5533E5"></path><path d="M27.4398 90.9102H23.75V91.4508H27.4398V90.9102Z" fill="#5533E5"></path><path d="M27.4398 93.3398H23.75V93.8805H27.4398V93.3398Z" fill="#5533E5"></path><path d="M27.4398 95.7695H23.75V96.3102H27.4398V95.7695Z" fill="#5533E5"></path><path d="M27.4398 98.2031H23.75V98.7438H27.4398V98.2031Z" fill="#5533E5"></path><path d="M27.4398 100.633H23.75V101.173H27.4398V100.633Z" fill="#5533E5"></path><path d="M27.4398 103.062H23.75V103.603H27.4398V103.062Z" fill="#5533E5"></path><path d="M27.4398 105.492H23.75V106.033H27.4398V105.492Z" fill="#5533E5"></path><path d="M27.4398 107.926H23.75V108.466H27.4398V107.926Z" fill="#5533E5"></path><path d="M27.4398 110.355H23.75V110.896H27.4398V110.355Z" fill="#5533E5"></path><path d="M27.4398 112.785H23.75V113.326H27.4398V112.785Z" fill="#5533E5"></path><path d="M27.4398 115.215H23.75V115.755H27.4398V115.215Z" fill="#5533E5"></path><path d="M27.4398 117.648H23.75V118.189H27.4398V117.648Z" fill="#5533E5"></path><path d="M27.4398 120.078H23.75V120.619H27.4398V120.078Z" fill="#5533E5"></path><path d="M27.4398 122.508H23.75V123.048H27.4398V122.508Z" fill="#5533E5"></path><path d="M27.4398 124.938H23.75V125.478H27.4398V124.938Z" fill="#5533E5"></path><path d="M27.4398 127.371H23.75V127.912H27.4398V127.371Z" fill="#5533E5"></path><path d="M27.4398 129.801H23.75V130.341H27.4398V129.801Z" fill="#5533E5"></path><path d="M27.4398 132.23H23.75V132.771H27.4398V132.23Z" fill="#5533E5"></path><path d="M27.4398 134.66H23.75V135.201H27.4398V134.66Z" fill="#5533E5"></path><path d="M27.4398 137.094H23.75V137.634H27.4398V137.094Z" fill="#5533E5"></path><path d="M27.4398 139.523H23.75V140.064H27.4398V139.523Z" fill="#5533E5"></path><path d="M27.4398 141.953H23.75V142.494H27.4398V141.953Z" fill="#5533E5"></path><path d="M27.4398 144.383H23.75V144.923H27.4398V144.383Z" fill="#5533E5"></path><path d="M27.4398 146.816H23.75V147.357H27.4398V146.816Z" fill="#5533E5"></path><path d="M27.4398 149.246H23.75V149.787H27.4398V149.246Z" fill="#5533E5"></path><path d="M27.4398 151.676H23.75V152.216H27.4398V151.676Z" fill="#5533E5"></path><path d="M27.4398 154.105H23.75V154.646H27.4398V154.105Z" fill="#5533E5"></path><path d="M27.4398 156.535H23.75V157.076H27.4398V156.535Z" fill="#5533E5"></path><path d="M27.4398 158.965H23.75V159.505H27.4398V158.965Z" fill="#5533E5"></path><path d="M27.4398 161.398H23.75V161.939H27.4398V161.398Z" fill="#5533E5"></path><path d="M27.4398 163.828H23.75V164.369H27.4398V163.828Z" fill="#5533E5"></path><path d="M27.4398 166.258H23.75V166.798H27.4398V166.258Z" fill="#5533E5"></path><path d="M27.4398 168.688H23.75V169.228H27.4398V168.688Z" fill="#5533E5"></path><path d="M27.4398 171.121H23.75V171.662H27.4398V171.121Z" fill="#5533E5"></path><path d="M27.4398 173.551H23.75V174.091H27.4398V173.551Z" fill="#5533E5"></path><path d="M27.4398 175.98H23.75V176.521H27.4398V175.98Z" fill="#5533E5"></path><path d="M27.4398 178.41H23.75V178.951H27.4398V178.41Z" fill="#5533E5"></path><path d="M27.4398 180.84H23.75V181.38H27.4398V180.84Z" fill="#5533E5"></path><path d="M27.4398 183.273H23.75V183.814H27.4398V183.273Z" fill="#5533E5"></path><path d="M27.4398 185.703H23.75V186.244H27.4398V185.703Z" fill="#5533E5"></path><path d="M27.4398 188.133H23.75V188.673H27.4398V188.133Z" fill="#5533E5"></path><path d="M27.4398 190.566H23.75V191.107H27.4398V190.566Z" fill="#5533E5"></path><path d="M27.4398 192.996H23.75V193.537H27.4398V192.996Z" fill="#5533E5"></path><path d="M27.4398 195.426H23.75V195.966H27.4398V195.426Z" fill="#5533E5"></path><path d="M27.4398 197.855H23.75V198.396H27.4398V197.855Z" fill="#5533E5"></path><path d="M27.4398 200.289H23.75V200.83H27.4398V200.289Z" fill="#5533E5"></path><path d="M27.4398 202.719H23.75V203.259H27.4398V202.719Z" fill="#5533E5"></path><path d="M27.4398 205.148H23.75V205.689H27.4398V205.148Z" fill="#5533E5"></path><path d="M27.4398 207.578H23.75V208.119H27.4398V207.578Z" fill="#5533E5"></path><path d="M27.4398 210.008H23.75V210.548H27.4398V210.008Z" fill="#5533E5"></path><path d="M27.4398 212.441H23.75V212.982H27.4398V212.441Z" fill="#5533E5"></path><path d="M27.4398 214.871H23.75V215.412H27.4398V214.871Z" fill="#5533E5"></path><path d="M27.4398 217.301H23.75V217.841H27.4398V217.301Z" fill="#5533E5"></path><path d="M85.3435 42.0312H40.7871V43.1141H85.3435V42.0312Z" fill="#5533E5"></path><path d="M85.3435 49.6172H40.7871V50.7H85.3435V49.6172Z" fill="#5533E5"></path><path d="M82.067 50.2561L84.9614 44.0572V50.1597H85.3107V42.457L81.7598 50.0634L82.067 50.2561Z" fill="#5533E5"></path><path d="M78.8443 50.2561L81.7388 44.0572V50.1597H82.0896V42.457L78.5371 50.0634L78.8443 50.2561Z" fill="#5533E5"></path><path d="M75.6217 50.2561L78.5161 44.0572V50.1597H78.8654V42.457L75.3145 50.0634L75.6217 50.2561Z" fill="#5533E5"></path><path d="M72.399 50.2561L75.2934 44.0572V50.1597H75.6428V42.457L72.0918 50.0634L72.399 50.2561Z" fill="#5533E5"></path><path d="M69.176 50.2561L72.0688 44.0572V50.1597H72.4197V42.457L68.8672 50.0634L69.176 50.2561Z" fill="#5533E5"></path><path d="M65.9533 50.2561L68.8477 44.0572V50.1597H69.1971V42.457L65.6445 50.0634L65.9533 50.2561Z" fill="#5533E5"></path><path d="M62.7291 50.2561L65.6235 44.0572V50.1597H65.9728V42.457L62.4219 50.0634L62.7291 50.2561Z" fill="#5533E5"></path><path d="M59.508 50.2561L62.4024 44.0572V50.1597H62.7518V42.457L59.1992 50.0634L59.508 50.2561Z" fill="#5533E5"></path><path d="M56.2853 50.2561L59.1798 44.0572V50.1597H59.5291V42.457L55.9766 50.0634L56.2853 50.2561Z" fill="#5533E5"></path><path d="M53.0611 50.2561L55.9556 44.0572V50.1597H56.3049V42.457L52.7539 50.0634L53.0611 50.2561Z" fill="#5533E5"></path><path d="M49.8381 50.2561L52.7325 44.0572V50.1597H53.0818V42.457L49.5293 50.0634L49.8381 50.2561Z" fill="#5533E5"></path><path d="M46.6158 50.2561L49.5102 44.0572V50.1597H49.8596V42.457L46.3086 50.0634L46.6158 50.2561Z" fill="#5533E5"></path><path d="M43.3912 50.2561L46.2856 44.0572V50.1597H46.635V42.457L43.084 50.0634L43.3912 50.2561Z" fill="#5533E5"></path><path d="M40.1701 50.2561L43.0645 44.0572V50.1597H43.4139V42.457L39.8613 50.0634L40.1701 50.2561Z" fill="#5533E5"></path><path d="M85.3435 91.4375H40.7871V92.5203H85.3435V91.4375Z" fill="#5533E5"></path><path d="M85.3435 99.0234H40.7871V100.106H85.3435V99.0234Z" fill="#5533E5"></path><path d="M82.067 99.6639L84.9614 93.465V99.5675H85.3107V91.8633L81.7598 99.4697L82.067 99.6639Z" fill="#5533E5"></path><path d="M78.8443 99.6639L81.7388 93.465V99.5675H82.0896V91.8633L78.5371 99.4697L78.8443 99.6639Z" fill="#5533E5"></path><path d="M75.6217 99.6639L78.5161 93.465V99.5675H78.8654V91.8633L75.3145 99.4697L75.6217 99.6639Z" fill="#5533E5"></path><path d="M72.399 99.6639L75.2934 93.465V99.5675H75.6428V91.8633L72.0918 99.4697L72.399 99.6639Z" fill="#5533E5"></path><path d="M69.176 99.6639L72.0688 93.465V99.5675H72.4197V91.8633L68.8672 99.4697L69.176 99.6639Z" fill="#5533E5"></path><path d="M65.9533 99.6639L68.8477 93.465V99.5675H69.1971V91.8633L65.6445 99.4697L65.9533 99.6639Z" fill="#5533E5"></path><path d="M62.7291 99.6639L65.6235 93.465V99.5675H65.9728V91.8633L62.4219 99.4697L62.7291 99.6639Z" fill="#5533E5"></path><path d="M59.508 99.6639L62.4024 93.465V99.5675H62.7518V91.8633L59.1992 99.4697L59.508 99.6639Z" fill="#5533E5"></path><path d="M56.2853 99.6639L59.1798 93.465V99.5675H59.5291V91.8633L55.9766 99.4697L56.2853 99.6639Z" fill="#5533E5"></path><path d="M53.0611 99.6639L55.9556 93.465V99.5675H56.3049V91.8633L52.7539 99.4697L53.0611 99.6639Z" fill="#5533E5"></path><path d="M49.8381 99.6639L52.7325 93.465V99.5675H53.0818V91.8633L49.5293 99.4697L49.8381 99.6639Z" fill="#5533E5"></path><path d="M46.6158 99.6639L49.5102 93.465V99.5675H49.8596V91.8633L46.3086 99.4697L46.6158 99.6639Z" fill="#5533E5"></path><path d="M43.3912 99.6639L46.2856 93.465V99.5675H46.635V91.8633L43.084 99.4697L43.3912 99.6639Z" fill="#5533E5"></path><path d="M40.1701 99.6639L43.0645 93.465V99.5675H43.4139V91.8633L39.8613 99.4697L40.1701 99.6639Z" fill="#5533E5"></path><path d="M85.3435 140.844H40.7871V141.927H85.3435V140.844Z" fill="#5533E5"></path><path d="M85.3435 148.434H40.7871V149.516H85.3435V148.434Z" fill="#5533E5"></path><path d="M82.067 149.07L84.9614 142.871V148.974H85.3107V141.27L81.7598 148.877L82.067 149.07Z" fill="#5533E5"></path><path d="M78.8443 149.07L81.7388 142.871V148.974H82.0896V141.27L78.5371 148.877L78.8443 149.07Z" fill="#5533E5"></path><path d="M75.6217 149.07L78.5161 142.871V148.974H78.8654V141.27L75.3145 148.877L75.6217 149.07Z" fill="#5533E5"></path><path d="M72.399 149.07L75.2934 142.871V148.974H75.6428V141.27L72.0918 148.877L72.399 149.07Z" fill="#5533E5"></path><path d="M69.176 149.07L72.0688 142.871V148.974H72.4197V141.27L68.8672 148.877L69.176 149.07Z" fill="#5533E5"></path><path d="M65.9533 149.07L68.8477 142.871V148.974H69.1971V141.27L65.6445 148.877L65.9533 149.07Z" fill="#5533E5"></path><path d="M62.7291 149.07L65.6235 142.871V148.974H65.9728V141.27L62.4219 148.877L62.7291 149.07Z" fill="#5533E5"></path><path d="M59.508 149.07L62.4024 142.871V148.974H62.7518V141.27L59.1992 148.877L59.508 149.07Z" fill="#5533E5"></path><path d="M56.2853 149.07L59.1798 142.871V148.974H59.5291V141.27L55.9766 148.877L56.2853 149.07Z" fill="#5533E5"></path><path d="M53.0611 149.07L55.9556 142.871V148.974H56.3049V141.27L52.7539 148.877L53.0611 149.07Z" fill="#5533E5"></path><path d="M49.8381 149.07L52.7325 142.871V148.974H53.0818V141.27L49.5293 148.877L49.8381 149.07Z" fill="#5533E5"></path><path d="M46.6158 149.07L49.5102 142.871V148.974H49.8596V141.27L46.3086 148.877L46.6158 149.07Z" fill="#5533E5"></path><path d="M43.3912 149.07L46.2856 142.871V148.974H46.635V141.27L43.084 148.877L43.3912 149.07Z" fill="#5533E5"></path><path d="M40.1701 149.07L43.0645 142.871V148.974H43.4139V141.27L39.8613 148.877L40.1701 149.07Z" fill="#5533E5"></path><path d="M85.3435 190.254H40.7871V191.337H85.3435V190.254Z" fill="#5533E5"></path><path d="M85.3435 197.84H40.7871V198.923H85.3435V197.84Z" fill="#5533E5"></path><path d="M82.067 198.48L84.9614 192.28V198.382H85.3107V190.68L81.7598 198.286L82.067 198.48Z" fill="#5533E5"></path><path d="M78.8443 198.48L81.7388 192.28V198.382H82.0896V190.68L78.5371 198.286L78.8443 198.48Z" fill="#5533E5"></path><path d="M75.6217 198.48L78.5161 192.28V198.382H78.8654V190.68L75.3145 198.286L75.6217 198.48Z" fill="#5533E5"></path><path d="M72.399 198.48L75.2934 192.28V198.382H75.6428V190.68L72.0918 198.286L72.399 198.48Z" fill="#5533E5"></path><path d="M69.176 198.48L72.0688 192.28V198.382H72.4197V190.68L68.8672 198.286L69.176 198.48Z" fill="#5533E5"></path><path d="M65.9533 198.48L68.8477 192.28V198.382H69.1971V190.68L65.6445 198.286L65.9533 198.48Z" fill="#5533E5"></path><path d="M62.7291 198.48L65.6235 192.28V198.382H65.9728V190.68L62.4219 198.286L62.7291 198.48Z" fill="#5533E5"></path><path d="M59.508 198.48L62.4024 192.28V198.382H62.7518V190.68L59.1992 198.286L59.508 198.48Z" fill="#5533E5"></path><path d="M56.2853 198.48L59.1798 192.28V198.382H59.5291V190.68L55.9766 198.286L56.2853 198.48Z" fill="#5533E5"></path><path d="M53.0611 198.48L55.9556 192.28V198.382H56.3049V190.68L52.7539 198.286L53.0611 198.48Z" fill="#5533E5"></path><path d="M49.8381 198.48L52.7325 192.28V198.382H53.0818V190.68L49.5293 198.286L49.8381 198.48Z" fill="#5533E5"></path><path d="M46.6158 198.48L49.5102 192.28V198.382H49.8596V190.68L46.3086 198.286L46.6158 198.48Z" fill="#5533E5"></path><path d="M43.3912 198.48L46.2856 192.28V198.382H46.635V190.68L43.084 198.286L43.3912 198.48Z" fill="#5533E5"></path><path d="M40.1701 198.48L43.0645 192.28V198.382H43.4139V190.68L39.8613 198.286L40.1701 198.48Z" fill="#5533E5"></path></g><defs><clipPath id="clip0_1605_2370"><rect width="288" height="223" fill="white" transform="translate(0 0.539062)"></rect></clipPath></defs></svg>