<svg xmlns="http://www.w3.org/2000/svg" width="293" height="287" viewBox="0 0 293 287" fill="none"><g clip-path="url(#clip0_1734_359)"><path d="M284.933 284.804L284.899 284.811L284.702 284.826V284.979L284.802 285.028L284.935 285.105V285.057L284.99 285.028L285.035 285.001L285.09 284.93L284.935 284.953V284.804H284.933ZM284.747 285.606L284.647 285.568L284.592 285.723L284.8 285.894V285.783L284.744 285.695V285.606H284.747ZM290.91 259.9L290.822 259.366L290.469 258.31L290.381 257.749V257.238L290.414 256.804L290.525 256.436L290.625 256.077L290.383 255.506L290.339 254.675L290.383 253.096L290.283 252.569L290.086 252.09L289.493 251.227L289.845 251.935L289.9 252.121L289.934 252.518L289.406 252.276L289.254 252.143L289.154 251.929L289.054 251.709L288.999 251.528L288.866 251.395L288.955 251.176V251.032L288.899 250.877L288.866 250.629H288.822L288.711 250.595L288.611 250.529L288.556 250.462V250.336L288.611 250.243L288.711 250.172V249.315L288.766 248.925L288.711 248.595L289.36 246.033L289.404 245.209L288.997 242.708L289.107 242.192L288.899 241.922L288.822 241.603V241.306L288.997 241.087V240.883L288.611 240.664L288.425 240.509L288.173 240.13L287.787 240.289H286.941L286.6 240.509L286.501 240.865L286.556 241.344L286.7 241.784L286.908 242.004L286.853 242.234L286.809 242.349L286.853 242.438L286.908 242.569L286.403 243.069L286.315 243.257L286.215 243.528V243.754L286.37 244.017V244.265L285.821 245.025L286.118 245.448L286.403 245.889L286.503 246.378L286.37 246.901L286.556 247.494L286.259 248.296L285.524 249.528H285.391L285.183 248.994L285.083 248.775L284.984 248.6L284.84 248.456L284.401 248.225L283.378 247.922L283.17 247.948L282.973 247.871L282.479 247.875L281.996 247.964L281.81 248.135L280.722 249.339L280.623 249.873L279.985 250.203L277.733 250.688L276.457 251.353L275.719 251.397L275.872 251.59L275.719 251.98L275.578 252.347L275.336 252.611L275.039 252.722L274.798 252.622L274.601 252.423L274.415 252.323L274.052 252.516L274.007 252.279L273.952 252.23L273.908 252.219L273.764 252.141V252.345L273.908 252.609L273.819 253.209L273.908 253.461L273.511 253.565L273.17 253.725L272.918 254.039L272.787 254.733L272.732 254.848L272.787 254.925L273.028 254.952L273.128 255.052L273.028 255.271L272.787 255.616V256.217L272.59 256.398L271.941 256.498L271.863 256.591L271.808 256.706L271.708 256.832L271.653 257.018L271.609 257.249L271.498 257.364L271.268 257.22L271.168 257.406L270.96 257.521H270.774L270.577 257.391L270.521 257.65V257.958L270.621 258.261L270.732 258.48L270.579 258.695L271.403 258.354L271.81 258.321L272.251 258.695L271.658 259.058L271.558 259.147L271.613 259.351L271.658 259.461L271.813 259.477L272.043 259.236L272.154 259.335L272.198 259.517L272.253 259.616L273.033 259.995L273.077 260.04L273.385 260.277L273.33 260.485L273.285 260.518L273.175 260.496L273.075 260.556L272.889 260.704L272.592 260.824L271.813 260.983L271.615 261.094L271.46 261.209L271.274 261.287L270.78 261.264L270.528 261.32L270.484 261.579L270.583 261.679L270.88 261.772L271.024 261.931L270.88 262.232L271.122 262.354L271.221 262.618L271.122 262.877L270.88 262.97V263.156H271.407V263.36L271.122 263.586L270.967 263.674L270.736 263.712L270.922 263.696L271.119 263.707L271.274 263.785L271.407 263.918L271.374 264.022L271.274 264.274L271.713 264.263L272.151 264.367L272.537 264.587L272.692 264.932L272.791 265.032L273.385 264.879L273.571 264.934L273.726 265.171L274.056 265.936L274.364 266.177L274.495 266.359L274.45 266.7L274.362 266.704L273.824 266.985L273.724 267.063L273.285 267.2L272.889 267.504L272.692 267.816L272.922 267.991L272.692 268.465L272.306 268.635L271.274 268.729L271.868 269.404L271.945 269.772L271.715 270.224L271.868 270.576L272.154 270.356L272.539 270.275L273.385 270.226L273.77 270.088L274.495 269.71L274.902 269.676L275.088 269.725L275.241 269.818L275.341 269.978L275.429 270.226L275.682 270.39L275.726 270.407L275.682 270.589L275.474 270.808L275.429 270.952H275.396L275.144 271.331L275.243 271.302L275.299 271.457L275.398 271.643L275.431 271.703L275.299 271.847L274.605 272.066L274.858 272.1L275.044 272.21L275.186 272.385L275.296 272.638L274.647 273.034L274.209 273.172H273.77V273.375L274.012 273.517V273.77L273.912 274.051L273.768 274.277L273.516 274.419L272.922 274.507L272.692 274.651L272.922 274.711L273.13 274.804L273.383 274.859L273.613 274.853L273.513 275.094L273.469 275.198L273.952 275.165L274.798 274.835L275.292 274.85L275.137 275.384L275.389 275.654L275.872 275.736L276.313 275.747L277.589 276.111L278.071 276.133L277.841 276.425L277.533 276.585L277.347 276.777L277.248 277.141L277.039 277.311L275.963 277.812L275.622 277.63L275.425 278.004L275.292 278.554L275.137 278.906L275.467 279.017L275.522 279.203L275.423 279.719L275.522 279.834L275.775 279.956L276.06 280.022L276.269 280.007L276.399 280.1L276.652 280.193V280.352L276.399 280.538L276.554 280.665L276.751 280.691L276.906 280.68L277.092 280.74L277.192 280.851L277.248 280.966L277.292 281.059L277.733 281.169L277.919 281.325L278.127 281.5L278.324 281.659L278.665 281.588L279.148 281.659L279.642 281.825L279.839 282.007L279.983 282.211L280.136 282.117L280.18 282.069L280.421 282.009L280.388 282.098L280.333 282.131V282.16L280.277 282.215L280.419 282.397L281.013 281.918L281.265 281.847V282.011L280.957 282.397L281.265 282.634L281.748 282.831L282.089 283.127L281.903 283.183L281.803 283.271L281.551 283.965L282.089 284.195L282.727 284.288L283.012 284.421L283.562 284.877L283.814 284.97L284.144 284.795L284.255 284.569L284.43 284.168L284.583 283.712L284.693 283.316L284.43 283.46L284.1 283.768L283.858 283.867V283.697L284.045 283.526L284.144 283.329L284.045 283.114L283.858 282.966V282.769L284.255 282.72L284.793 282.357L285.079 282.219L284.979 282.016L285.176 281.841L285.276 281.604L285.176 281.395L284.979 281.302L285.023 281.116L285.079 280.924L285.023 280.738L284.979 280.552L285.331 280.485L285.517 280.222L285.672 279.951L285.869 279.814L286.211 279.732L286.496 279.522L286.693 279.198L286.749 278.82L286.596 278.571L286.157 278.642L285.52 278.917L285.234 278.735L285.387 278.487L285.562 278.217L285.517 277.98L285.77 277.947L286.056 277.962L286.363 278.04L286.594 278.166L286.549 277.759L286.594 277.606L286.747 277.588L286.933 277.615L287.13 277.471L287.24 277.163L287.285 276.689H287.032L287.132 276.43L287.34 276.193L287.526 276.022L287.679 275.956L287.723 275.818L287.779 273.849L287.57 271.995L287.779 270.131V269.167L287.878 268.908L288.164 268.604L289.537 266.591L289.889 265.931L290.075 265.579L290.613 265.074L290.768 264.826L290.813 264.618L290.868 264.146L290.901 263.916L290.768 263.273L290.901 259.898L290.91 259.9ZM228.968 239.153L228.627 239.213L228.43 239.399L228.3 239.707L227.903 239.862L227.804 240.07L227.859 240.345L227.992 240.367L228.145 240.207L228.53 240.081L228.838 239.547L228.968 239.388L229.321 239.339V239.195L229.221 239.076L228.968 239.153ZM54.8171 127.984L54.6134 127.765L53.9379 127.401L53.7341 127.164L53.6854 126.737L53.7895 126.347L53.7341 126.01L53.2934 125.747L52.959 125.687L51.7785 125.747L52.1129 126.199L52.4695 127.326L52.7552 127.782L53.2934 127.508L53.8382 127.86L54.228 128.531L54.5137 129.191L54.8658 129.388L54.9699 129.003L54.9212 128.405L54.8171 127.986V127.984ZM68.3447 149.05L68.4998 148.886V148.704L68.3957 148.556L68.2473 148.434L67.8575 148.356L66.7258 148.653V148.828L66.9295 148.999L67.7534 149.938L68.0457 150.053L69.1775 149.845L71.1331 151.109L72.0611 151.291L72.1652 151.324L72.2648 151.435L72.4686 151.313L72.6059 151.264L72.803 151.249L72.5505 150.715L72.1652 150.259L71.7244 149.955L69.6647 149.625L69.3236 149.466V149.251H69.6138V149.047L69.1199 149.169L68.533 149.439L68.0435 149.45L67.6537 148.828L67.9062 148.85L68.3447 149.047V149.05ZM223.837 239.993L223.684 240.145L223.584 240.194L223.485 240.179L223.429 240.194L223.396 240.287L223.199 240.38L222.65 240.365L222.419 240.464L222.453 240.619L222.947 240.879L223.199 240.956L223.485 240.874L223.737 240.737L223.968 240.433V240.044L223.923 239.895L223.835 239.995L223.837 239.993ZM73.1906 156.21L72.9536 155.913L72.6524 155.947L72.4154 156.035L72.1629 155.913L71.6691 155.386L71.0821 154.87L70.4067 154.514L69.7644 154.432L70.2051 155.426L70.4576 156.102L70.4089 156.405L70.3092 156.669L70.6436 157.218L71.0844 157.741L71.4919 158.049L72.6568 159.391L72.9093 159.798L73.0422 160.177L73.35 161.183L73.6845 161.342L73.9702 160.886L74.2293 160.126L74.3777 158.899L74.329 158.651L74.1761 158.399L73.5892 158.046L73.4032 157.847L73.5029 157.588V157.391L73.3057 157.183L73.2504 156.897L73.3057 156.567L73.2017 156.21H73.1906ZM261.275 67.1986L258.088 65.4887L257.691 65.44L256.56 65.5662L254.912 65.0767L254.659 65.1365L254.166 65.3957L253.913 65.4666L253.782 65.4333L253.342 65.2805L253.089 65.2473L252.848 65.296L252.595 65.3957L252.365 65.4555L252.112 65.3957L251.926 65.2362L251.718 64.8397L251.565 64.6537L251.125 64.4167L250.257 64.2683L249.816 63.987L249.508 63.657L249.069 62.9039L248.784 62.6071L248.828 62.5075L248.883 62.441L249.014 62.348L248.883 61.8962L248.531 61.7633L247.652 61.7035L247.552 61.3557L247.156 61.3225L246.715 61.4709L246.385 61.657L246.274 61.8098L246.13 62.255L246.02 62.4255L245.889 62.503L245.437 62.5518L245.293 62.6116L245.138 62.771L244.941 63.2007L244.81 63.3203L244.7 63.3048L244.162 63.0523L242.403 63.0368L242.106 62.9261L241.765 62.7666L240.975 62.1996L240.886 62.1885L240.689 62.3635L240.733 62.534L240.789 62.7046L240.733 62.853L240.151 63.2428L239.712 62.8973L239.46 62.0512V60.9615L239.021 60.946L237.801 60.2306L237.548 60.1929L236.955 60.2527L236.131 60.06L235.923 60.1088L235.79 60.5384L235.923 61.039L236.033 61.544L235.692 62.0113L235.44 62.0711L234.66 61.7743L233.737 61.7633L233.484 61.6636L233.243 61.2406L233.298 60.8618L233.398 60.472L233.298 59.9714L233.188 59.9825L232.935 60.1597L232.858 60.1708L232.802 60.06L232.747 59.812L232.703 59.7455L232.647 59.6193L232.494 59.0412L232.417 58.9592L232.109 58.8596L232.009 58.771V58.6447L232.054 58.3413L232.009 58.204L230.692 56.9127L230.35 56.5007L230.198 56.1441L230.308 55.8584L230.694 55.8429L230.749 55.5948L230.694 55.4021L229.717 54.3634L229.562 54.1596L229.617 54.1441V53.9735L229.562 53.721L229.429 53.4619L229.066 53.1319L227.208 52.2016L227.011 52.1573L226.825 52.2238L226.472 52.4874L226.231 52.5316L226.078 52.5095L225.693 52.4718L225.155 52.1751L224.123 51.4331L223.584 51.2138L222.991 51.154L221.881 51.2802L221.959 51.566L221.421 51.6213L221.288 51.6701L221.188 51.8628V52.0599L221.133 52.2238L220.902 52.3168L220.694 52.6136L220.409 52.7288L218.688 52.8329L218.298 52.948L218.045 52.0621L217.656 51.6723L216.391 51.3688L215.902 51.1318L215.494 50.8018L214.867 49.9557L214.663 49.9004L214.225 49.6257L213.973 49.5925L213.786 49.7143L213.483 50.0488L213.297 50.1529L213.248 50.1573L212.808 50.0798L212.418 49.8716L211.928 49.7719L211.423 50.0244L211.186 50.3544L211.138 50.5737V50.6069L211.089 50.6999L210.934 50.7154L210.797 50.7376L210.593 50.6889L209.955 50.3921L209.718 50.5139L209.614 50.5626L209.377 50.7553L209.074 50.9702L208.684 51.1961L208.584 51.2736L208.146 51.1584L208.041 50.9436L207.993 50.8771L208.041 50.6069L208.097 50.3101V49.9845L207.993 49.7099L207.065 47.9446L206.675 47.6035L206.037 47.3776L205.933 47.3178L205.802 47.2403L205.698 47.2137L205.599 47.3023L205.543 47.4773L205.41 47.6323V47.639L205.255 47.6722L204.954 47.6057L204.866 47.4906L204.817 47.3466V47.1982L204.866 46.7575V46.7419L205.003 46.66L205.052 46.6113L205.107 46.5448L204.954 46.0775L204.564 45.6035L204.174 45.1805L203.922 45.1915L203.74 45.1982L203.399 45.2801L202.812 45.4462L202.372 45.32L201.964 45.0387L201.876 44.939L201.678 44.7419L201.185 44.0331L200.85 43.4994L200.598 43.2734L200.412 43.2247L199.873 43.0586L199.466 42.8393L198.742 42.0907L198.401 41.9091L198.352 41.8914L198.148 41.9024L197.911 41.9069L197.504 42.0553L197.063 42.2147L196.729 42.2701L196.574 42.2856L196.288 42.2369L196.084 42.2147L195.898 41.9777V40.8127L195.849 40.6311V40.6244L195.646 40.3011L195.597 40.1416L195.646 39.9489L195.801 39.7341L195.849 39.7008L195.898 39.5746V39.4816L195.987 39.1958L196.035 39.0696L196.084 38.9323L196.133 38.6621V38.4738L196.084 38.2479L195.798 37.6875V37.6809L195.26 37.4439L194.87 37.2844L194.569 36.8503L194.669 36.3453L195.207 34.9698L195.444 34.4206V34.0795L195.411 33.8203L195.444 33.6055V33.528L195.548 33.291L195.852 32.7018V32.6907L195.94 32.6686L196.137 32.8945L196.193 32.9056V32.5756L196.241 32.3563L196.341 31.7029V31.158L196.137 30.91L195.55 31.0362L195.313 30.9432L195.209 30.498V30.4825L194.671 30.735L192.512 32.9078L192.408 33.1492L192.374 33.4748V33.6077L192.408 33.6631V33.7184L192.456 33.8115V33.9156L192.512 34.0307L192.408 34.3608L192.326 35.0252L192.171 35.5258V35.5856L192.022 35.8824L191.885 35.982L191.781 36.0308L190.939 36.157L190.264 36.5025L188.153 37.5524L187.511 37.6609L184.873 36.9234L184.384 36.7794L183.797 36.8614L182.813 37.0098L182.616 36.95L182.561 36.9344L181.429 36.3187L181.582 36.3342V36.0419L181.533 35.8779L181.485 35.6299L181.429 35.3929L181.347 35.3597L181.429 34.9854L181.533 34.7816V34.7484L181.682 34.5734L181.885 34.3652L182.023 34.2279L182.379 33.9909L182.512 33.8868L182.765 33.7539L183.002 33.6542V33.4394L182.869 33.1913L182.813 33.0274L182.765 32.9011L182.43 31.5479L182.226 31.4371L181.974 31.4703L181.584 31.6564L181.431 31.5966L181.298 31.5146L181.347 31.0406V30.9476L181.584 30.1503L181.739 29.6874L181.839 29.1093L181.943 28.8834V28.8568L182.18 28.5533L182.621 28.1746L182.669 28.1414L182.818 27.9442L182.873 27.7848V27.6142L182.769 27.4105L182.517 27.1912L182.331 27.0915L182.231 27.0251L182.027 26.9542V26.9653L181.79 27.0649V27.3794L181.839 27.4902L181.739 27.5389L181.684 27.6319L181.398 27.5168L181.298 27.457L180.86 26.5555L180.76 26.2742L180.322 25.8999L180.063 25.7338L179.881 25.6452L179.239 24.9032L179.19 24.8921L178.849 24.7149L178.645 24.7415L178.408 24.7637L177.569 25.1203L177.128 25.2975L176.838 25.3085H176.69L176.586 25.2642L176.3 25.138L176.096 24.9962L175.948 24.8921L175.558 24.6839L174.727 24.5732L173.848 24.6507L173.7 24.6884L173.545 24.7437L173.407 24.9298L173.007 25.5455L172.958 25.7493L172.92 25.8157V25.849L172.82 25.9708L172.772 25.9442L172.716 25.9619L172.668 26.1657L171.943 25.5057L171.791 24.2144L171.742 22.7348L171.594 21.5189L171.252 20.9253L170.863 20.5355L170.422 20.3162L169.972 20.2165L168.752 20.2054H168.652L168.415 20.0238L168.601 19.6982V19.6761L168.65 19.4125L168.497 19.253L168.415 19.2265L168.212 19.1667L168.008 19.1888H167.926L167.773 19.2929L167.724 19.3195L167.676 19.397L167.523 19.5233L167.434 19.572L167.237 19.7315L166.544 19.984L166.358 20.0548L166.203 20.077L165.868 20.1146L165.512 20.0105L164.633 19.5543L164.396 19.3461L164.092 18.9895L164.043 18.9407L163.939 18.5775V17.5653L163.417 15.7779L163.213 14.8654L163.366 14.5907L163.499 14.3316L163.417 14.0392L163.262 13.5829L163.113 13.3083V13.2862L162.876 13.1931L162.568 13.1599L162.438 12.9672L162.13 12.3625L161.948 11.9617L161.844 11.7911L161.543 11.2573L161.202 10.9273L160.763 10.8011L160.664 10.7745L159.685 11.0823L159.091 11.2684L158.905 11.3348L158.011 11.6051L157.774 11.7645L157.576 11.9019L157.39 12.0945L157.187 12.2983L156.95 12.7391L156.593 13.3504L156.307 13.5586L156.208 13.5298L156.053 13.4966L156.004 13.4921L155.915 13.4589V13.4434L154.48 12.8011L154.294 12.7081L154.195 12.615L153.909 12.3958V12.3182L153.805 12.2031L153.552 11.5608L153.415 11.3459L153.366 11.264L152.675 10.6305L152.527 10.3935V10.3824L152.471 10.1742L152.39 9.98819L152.137 9.84423H152.088L151.951 9.82872L151.544 9.87745H151.411L151.103 9.811L150.954 9.76227V9.74013L150.817 9.56515L150.768 9.3791L150.664 9.15983L150.565 9.06016L150.516 9.02693L150.33 8.93391L150.281 8.85196V8.68141L150.429 8.32482L150.467 8.12105L150.281 7.42779L150.077 6.71903L150.177 6.42223L150.33 6.25833L150.616 5.96154L150.72 5.83972L150.768 5.77327L150.72 5.13096L150.379 4.65254L149.637 3.85518L149.451 3.23945V2.98695L149.247 1.82192L149.198 1.73997L148.946 1.09766L148.66 1.31693L147.829 1.69567L146.208 2.13644L144.977 1.98139L144.791 2.00797L144.587 2.12315L141.159 3.25495L137.934 3.66249L137.192 4.07446L136.851 3.99694L132.966 5.69132L132.395 6.28048L131.801 7.09334L131.467 7.43886L131.059 7.58283L130.619 7.62713L130.464 7.70465L129.974 8.09004V8.24951L130.03 8.69027L130.331 9.87745L130.464 10.6039L130.382 11.2086L130.129 11.6759L129.689 12.9362L129.589 13.5032L129.638 14.1632L129.841 15.5099L129.941 17.0049L130.03 17.4457L130.568 18.2874L129.941 18.7658L129.841 20.0526V21.5477L129.452 22.6042V22.8234L130.568 23.7027V23.8999L129.793 23.7404L129.403 24.5754L129.199 25.8113V26.8235L129.403 27.076L130.233 27.4991L130.43 27.9066L130.568 28.2632L130.871 28.5046L131.31 28.6419L131.699 28.6464V28.8834H131.259L131.358 29.1203L131.462 29.2577L131.595 29.3064L131.855 29.2909V29.5102L131.651 29.6807L131.465 29.6962L129.454 28.7128L128.763 28.8058L128.07 29.7361L127.629 31.4017L127.443 31.6719L127.239 31.8757L126.163 33.1847L123.509 35.3176L122.734 36.2035L122.245 36.3785L121.755 36.7683L113.426 39.4572L111.707 39.4284L110.135 40.0109L109.359 40.5558L108.613 40.7706L106.113 42.2834L105.931 42.5802L103.278 43.8006L103.074 43.9977H102.837L101.86 44.8216L101.557 45.1738L100.726 47.9114L99.6988 49.8184L99.6434 50.0377L99.5947 50.3788L99.6434 50.6379L99.9512 50.835L100.033 51.0211L100.188 51.3245L100.574 51.566L101.067 51.7144L101.42 51.7476H101.809L103.276 52.2371L104.945 52.463L106.604 52.226L108.022 51.3245L107.681 51.7852L107.295 52.1308L106.367 52.6025L101.366 53.7454L100.031 54.7177L99.5415 55.4774L99.3555 55.6214L98.9147 55.7477L98.3278 56.2371L97.3999 56.6868L94.1531 57.4575L93.6636 57.9182L91.7567 56.7687L90.7778 56.5317L90.1355 56.1353L89.7945 55.9824H88.4257L87.5354 55.6037L87.0415 55.4819L86.3173 55.8894L85.8279 55.8407L84.9486 55.5882L81.5047 55.3689L79.1083 54.4564L76.4551 54.3146L76.1207 54.4852L75.7796 54.8528L75.6312 55.2759L75.835 55.5904V55.7942L75.4452 55.9027L75.2414 55.7765L75.0377 55.5572L74.8516 55.3711L74.5991 55.4044L74.4175 55.5483L74.2647 55.5749L74.1606 55.2626L74.216 55.1696L74.3157 55.0101L74.4198 54.762L74.4685 54.4276L74.3644 53.752L74.1606 53.2847L72.6435 51.3334L72.3534 50.4807L72.0013 49.9425L71.7156 49.3267L71.8152 48.5892L71.968 48.4341L72.1541 48.3677L72.5926 48.3566L72.6413 48.2237L72.69 47.938L72.7897 47.6456L73.3345 47.2669L73.2304 46.7331L72.7897 45.7873L72.69 45.2713L72.5904 45.0564L72.4531 44.9634L69.9858 44.5116L69.6514 44.5559L68.7235 44.8416L68.4311 45.0719L67.8929 45.7696L67.5917 46.0731L67.2507 46.237L66.9982 46.2259L66.6128 46.0664L66.3714 46.0177L66.1189 46.0952L65.8819 46.3986L65.6782 46.4651L65.5298 46.3986L65.4811 46.2436V46.0952L65.4434 46.0177L65.1422 46.0398L63.6251 45.5282L62.3074 45.3244L61.8666 45.1694L61.7625 45.1539L61.5101 45.1982L61.4281 45.1716L61.3794 45.0276L61.2753 44.6489L61.1756 44.5116L60.9896 44.4296L60.396 44.5116L60.1989 44.4451L59.8091 44.1594L59.6054 44.0885L59.0672 44.1594L58.9786 44.4008L59.0118 44.8571L58.8302 45.5946L59.7028 45.9734L60.396 46.0996L60.5334 46.3189L60.6884 46.6157L60.8368 46.9612L60.9918 47.4064V47.9225L60.8921 48.8948L60.7881 49.2093L60.2011 49.732L60.0483 50.1617L60.2011 50.3478L60.6906 50.979L60.8944 51.3201L60.994 51.5571V51.7166L61.0272 51.8716L61.3351 52.4098L61.3838 52.6025L61.4325 52.8174L61.4658 53.2626L61.3838 54.3124L61.4325 54.72L61.6186 54.9282L61.8711 54.9126L62.1568 54.7908L62.4092 54.72L62.3605 54.8351L62.3118 54.9282L62.2631 55.1363L62.6484 55.3733L63.1379 55.885L63.479 56.122L63.6827 55.5882H63.8311L64.0681 56.2194V56.4055H63.6827L63.8311 56.8905L64.0681 57.2361L64.6616 57.6923L64.562 57.7322L64.5066 57.7809L64.3737 57.9182L64.6594 58.2815L64.9938 59.4244L65.3017 59.792L65.4877 59.2095L65.8886 59.2206L66.4334 59.4731L66.8741 59.606V59.792L66.1278 59.5838L65.7424 59.606L65.5896 59.8983L65.6383 60.4654L65.7424 61.0545L65.8421 61.637L66.0281 62.1265L66.1278 61.9825L66.1832 61.9338L66.4356 62.1265L66.0281 62.4012L65.8908 62.5939L65.7424 62.9903L65.6383 63.3868V63.7279L65.7424 63.9649L66.0281 64.0136L65.9462 64.3325L65.8908 64.6559V65.3935L65.9462 65.6526L66.0768 65.9538L66.2319 66.1355L66.2806 66.0136L66.4666 65.5352L66.8188 65.3159L67.3127 65.3204L67.6471 65.5064V65.6947L67.1576 65.4577L66.9207 65.6017L66.7656 66.0646L66.5619 67.8409L66.6172 68.0225L66.8697 68.089L66.9694 68.2551V68.5297L66.8697 68.8819L66.666 68.6228L66.5109 68.9262L66.3736 70.3947L66.2252 70.7535L66.0215 71.0348L65.7358 71.161V71.3869L66.2252 71.5132L66.4622 71.996L66.5619 72.7114V73.5575L66.7656 74.284L67.4921 74.9551L67.6449 75.6705L67.7999 75.8588L68.0369 76.0293L68.7301 76.2331L68.8298 76.3483L68.8785 76.5188L68.9338 76.7115L68.9671 76.8555L69.0667 76.8068L69.1708 76.696V76.6185L69.9615 76.696L70.4022 76.9264L70.7366 77.4491L69.9947 77.1678L67.8021 77.6573L66.2297 77.4491L65.8886 77.5266L64.9119 78.0604L63.3394 78.3129L61.8733 78.2863L60.994 78.0493L60.5378 77.5266V76.8178L61.0272 75.9983L60.8966 75.7835L60.8412 75.624V75.4867L60.8966 75.356L58.8369 75.768L58.9853 75.9983H58.1946L58.0418 76.098L57.9931 76.3128V76.5321L57.9598 76.6207L57.6033 76.7137L57.3663 76.933L57.2179 77.2143L57.1625 77.4513L57.3663 77.83L57.7561 78.7381L57.9598 78.9131L58.1459 78.9197L58.3984 78.9973L58.5312 79.1833L58.6841 79.5421L58.4471 79.3561L58.3984 79.2631L58.2943 79.1191H58.1459L58.2455 79.6086L58.5312 80.1468L58.3984 80.3838L58.9853 80.7802L58.3474 81.1878L58.1437 81.4071L58.2433 80.7315L58.0883 80.3306L57.5988 79.5443L57.6476 79.4225L57.7516 79.1213L57.4659 79.0327L57.3131 78.8068L57.2135 78.51L57.1581 78.18L56.7196 77.3893L56.6709 77.2519L55.7429 77.356L54.8149 77.6639L55.0009 78.1047L55.1006 78.3195L55.2556 78.5056L55.0032 78.2309L54.7175 78.2088L54.5137 78.3838L54.2767 78.7248L54.4805 78.8843L54.5137 78.9175V79.1213L54.228 79.2963L54.0752 79.1213L53.9379 78.7426L53.8891 78.2929V78.6673L53.7895 78.9795L53.6367 79.2165L53.4506 79.3317L53.4019 79.0128L53.3532 78.6673L53.2004 78.4037L52.9634 78.2929L52.9147 78.1224L52.8106 77.4136L52.7109 77.2542L52.2214 77.4845L51.8317 77.9031L51.4419 78.1667L51.0897 77.881L51.6279 77.2542L51.732 77.0836L51.8317 76.9086L51.9357 76.7492L52.0664 76.6273V76.4014L51.7807 76.4457L51.577 76.3571L51.4396 76.1312L51.3909 75.7746L51.0897 76.335L50.5515 76.8577L49.9757 77.2542L49.4375 77.4579L49.2847 77.046L48.844 76.9862L47.916 77.2564L48.3058 77.4491L48.5096 77.4601V77.6683L48.2017 77.9939L46.833 78.8467L46.4809 78.9618L46.2948 79.1257L46.0911 79.3184L45.6525 80.0715L45.2672 80.5012L44.9261 80.6451L44.1354 80.6075L44.0314 80.8334V81.2631L43.9981 81.5555L43.6969 81.3251L43.5419 81.0881L43.3559 80.9131L43.1521 80.8135L42.9705 80.7913L43.1012 80.6496L43.2008 80.4746L43.3049 80.2664L43.3536 79.9851L42.2219 79.4292L41.7325 79.0549L41.4468 78.9175L41.3427 78.8245L41.2939 78.6429L41.3427 78.4878L41.398 78.3439L41.3427 78.1888L41.2939 77.9474L41.0415 77.0349L39.7768 75.9031L39.6218 75.5952L39.3361 75.232L38.9463 74.9197L38.6429 74.727V74.5343L38.7426 74.49L38.9463 74.3194L38.8976 74.1267V73.9407L38.9463 73.6771L38.5388 73.5332L37.5112 73.4844L36.9841 73.2807V73.0614H36.7316V72.8687L37.0727 72.5985L37.221 72.5099L37.4248 72.4545V72.2995L37.3761 72.2662H37.3273L37.2786 72.2397L37.427 72.0315L37.2233 71.872L36.9863 71.8122L36.7892 71.8609L36.5854 72.0315L36.2443 71.9539L35.859 72.5365L35.2167 73.9163H35.0617V73.6749L35.4692 73.1145L35.6021 72.8665L35.8612 72.0691L36.0428 71.8166L35.7571 71.5974V71.4047L35.9121 71.1079V70.7778L35.7571 70.5076L35.5046 70.3437L35.2189 70.4146L34.8779 70.8709L34.6254 70.7778L34.4925 71.0082L33.9986 71.4379L33.3608 72.1799L33.2079 72.4767L33.1592 72.8665L33.0042 72.6738V72.5852L32.971 72.4523L33.2567 72.14L33.4117 71.5907V70.9905L33.2567 70.5497L32.971 70.4722L32.3287 71.2253L32.1803 71.1765H32.0275L31.7905 71.3515L30.0652 71.9938L29.9323 72.0935L29.7286 72.346L29.5736 72.4567L29.3366 72.4833L28.8471 72.4501L28.8959 72.295L28.9446 72.202L28.9999 72.1201L29.1328 72.027L28.8471 72.0115L28.1539 71.5929L27.5116 71.5553L27.3256 71.4024H27.1772L27.0731 71.6549L26.6324 72.4523L26.0455 72.7114L25.8594 72.975L25.9591 73.4756L26.6346 74.3438L26.9425 74.5299L25.8594 74.7225L25.8107 74.9263L25.8594 75.3981L26.0455 76.1024L25.8085 76.2619H25.215L24.6768 76.1068L24.7255 75.5908L23.9836 75.7946L23.7466 75.779L23.5096 75.6683L23.0534 75.2453L22.8164 75.1522L21.8884 75.212L21.4986 75.0969L21.2462 74.7225V75.0791L21.1974 75.2275L21.0933 75.3649L20.8564 75.1788L20.708 75.5199L20.6039 76.1024L20.708 76.6296L20.5042 76.4701L20.471 76.3771L20.4156 76.2021H20.2672L20.3669 76.8178L20.471 77.0703L20.5529 77.2564L20.4156 77.4601L20.5529 77.6683L20.4156 77.8832L20.1144 77.5377L19.5209 77.1478L19.2839 76.8178V76.6318L19.388 76.5941L19.574 76.4081L19.1842 76.315L18.8985 76.4701L18.305 77.0371L18.4091 76.6694V76.366L18.254 76.1401L18.0503 76.0138V75.7835H18.2053V75.5974L17.9683 75.5044L17.913 75.356L18.0016 75.1367L18.0503 74.8399L17.913 74.7469L17.2198 74.9618L16.7857 75.232L16.5265 75.325L16.2408 75.3737L16.3449 75.655V75.8809L16.2408 76.067L16.0925 76.2087H16.0039L15.9042 75.9784L15.8001 75.8344H15.7005L15.5454 76.016L15.211 75.8012L14.7703 75.768L14.2808 75.861L13.891 76.016L13.5344 76.2575L13.2 76.6141L13.1004 76.9264L13.5012 77.0371V77.263L13.2 77.2741L12.7615 77.0858L12.509 77.0371L12.323 77.0925L11.6807 77.4668L11.2422 77.5266L11.395 76.8511L11.0052 76.4103L10.467 76.3926L9.92885 76.6008L9.38402 76.9308L8.79712 77.0349V77.2608L8.94551 77.294L9.18248 77.4646L8.74396 77.4801L8.05075 77.799L7.61666 77.8876H6.0442V78.0737L6.19259 78.1888L6.24796 78.2819L6.19259 78.3815L6.14386 78.5144L6.68869 78.7337L6.34762 78.7492L5.41965 78.5122L5.16717 78.6938L5.26683 79.1124L5.75629 79.7503L5.50381 79.8279L4.83496 79.4491L4.44516 79.3384L3.80289 79.4048L3.46182 79.5355L3.10968 79.7503L3.26471 79.9807L3.06095 79.8877L2.82398 79.7503L2.48291 80.2841L1.99345 81.2122L1.78969 82.0915L2.27915 82.4702V82.6563L1.94472 82.7781L1.69224 83.19L1.58815 83.7615V84.3285L1.94472 85.148L1.99345 85.5378L1.58594 85.571L1.73875 86.2089L1.89157 86.5124L2.17727 86.6231L3.20491 86.6298L3.35773 86.5301L3.40645 86.3108V86.0915L3.45517 85.9919L3.84497 86.0583L4.56919 86.344L4.92576 86.4216L5.31555 86.3728L5.90246 86.065L6.87916 85.8235L8.1482 85.0195L8.79047 84.7493L10.1592 84.53L10.5445 84.375L11.1868 84.0118L11.5279 83.901L9.61657 85.0505L9.37959 85.2255L8.24786 86.6275V86.8136L8.53799 86.7914L8.79047 86.7139L9.02745 86.5877L9.17584 86.4171L9.33087 86.6253L9.28215 86.6851L9.23342 86.6962L9.17805 86.8114L9.67194 86.7339L10.3098 86.2887L10.5999 86.4149L10.6486 86.2887L10.8015 86.1336L10.8502 85.9852H10.9986V86.2111H10.8502V86.4149L11.1359 86.3219L11.6253 85.9919L11.9819 85.9852L11.5744 86.4149L11.3884 86.5589L11.2887 86.6851V86.8114L11.0849 86.8778L10.9964 86.9553L10.848 87.23L11.7272 87.1702L11.8269 87.1259L11.9265 87.4382L12.2167 87.5379L12.4692 87.4603L12.6552 87.23L12.7549 87.5822L12.9918 87.704L13.5854 87.6597V87.8856L11.9819 88.2422L11.5257 88.0716L11.8269 88.0672L11.9797 88.0118L12.1126 87.8856L10.7439 87.9786L9.8159 88.2488L9.56342 88.2754L9.27772 88.2267L9.1249 88.1226L8.97651 87.9897L8.79047 87.8856L6.98325 88.0118L6.43842 87.7416L6.67983 86.6253L6.3897 86.4659L6.0885 86.7139L5.74743 87.6597L5.8028 87.7704L5.85152 87.9786L5.8028 88.1935L5.55032 88.2754L5.31334 88.2422L5.15831 88.1757L4.97227 88.1536L4.76851 88.2754L4.82388 88.5789L4.76851 88.9044L6.00434 88.9532L6.24131 89.013L6.34098 89.3275L6.29225 89.4427L6.13943 89.58L6.03977 89.9321L6.0885 90.1625L6.18816 90.415L6.44064 90.7494L6.34098 90.9532L6.13722 91.5955L6.68205 91.4205L7.01647 90.8425L7.31768 90.1603L7.60781 89.6154L8.14599 89.4338L9.22899 90.116L9.76717 89.9299L9.8159 90.1271L9.86462 90.302L10.0019 90.446L10.1548 90.5457L11.0274 90.7428L11.2865 91.0241L11.3861 91.6885L11.4902 91.8967L11.7272 92.2711L11.8269 92.6055L11.6231 93.4627L11.5235 93.6709L11.2333 93.7971L10.106 93.4516L3.58363 94.9023L3.50168 94.8647L3.34665 94.6786L3.24699 94.6831L3.19162 94.7938L3.1429 94.8979V95.0087L2.99451 95.2279L2.95686 95.4206L2.8572 95.5956L2.70438 95.7063L4.2259 96.1405L4.91912 96.1072L5.25354 96.1626L5.84709 96.7562L6.13279 96.6122L6.38527 96.3088L6.62225 96.1382L6.826 96.249L8.63323 97.6687L9.5612 98.9179L9.91778 99.4628L10.1038 100.282L10.405 101.053L10.4537 101.591L10.405 101.784L10.2013 101.828H9.99751L9.91556 101.906L9.86019 102.081L9.91556 102.493V102.723L12.8501 102.867L13.344 102.723L13.6297 102.537L14.3229 101.906V101.675H13.7847V101.494L13.8334 101.401L13.8822 101.29L13.5809 101.075L13.6297 100.712L13.9309 100.63L14.3207 101.29L14.5067 101.086L14.7105 100.96L14.9076 100.883L15.1446 100.867V100.681L14.9076 100.444L14.6042 100.036L14.5045 99.5802L14.7082 99.228L14.8079 99.7175L14.994 100.189L15.2464 100.535L15.4834 100.679L15.7868 100.712L16.077 100.816L16.6639 101.29L16.768 101.026L16.9163 100.967L17.1024 100.951L17.3549 100.869L17.2552 101.128L17.1511 101.266L17.0027 101.31L16.8167 101.294L17.202 101.405L17.6406 100.905L17.7956 100.453L17.5918 99.8371L18.13 99.9412L18.6748 100.304L19.0646 100.745L19.1134 101.075L19.3658 101.235L19.4987 101.294H19.7025L19.6028 101.64L19.6515 101.826L19.8044 101.941L19.9527 102.096L20.3425 102.812L20.3913 102.916L20.7323 102.949L21.1731 102.856L21.6116 102.845L21.9128 103.137L22.9781 102.544L23.1265 102.626L23.3302 103.033L23.72 103.17L24.4619 103.137L24.5439 103.193L24.7964 103.445L24.9514 103.538L25.0887 103.565L25.6269 103.538L26.3688 103.72L26.659 103.724L26.9114 103.538L26.9602 103.769L27.0421 103.906L27.2946 104.158L27.5847 104.774L28.1716 105.549L28.2757 105.709L28.5614 105.797L30.1826 105.39V105.197L30.0829 105.042L29.9789 104.92L29.846 104.821L30.2313 104.728L30.8736 104.353L31.4118 103.842L31.8525 103.319V103.534L31.6 103.749L31.414 104.101L31.1615 104.772L31.0131 104.805L30.6721 104.756L30.6233 104.872V105.153L30.5746 105.308L30.5193 105.363L30.3376 105.39V105.609L31.1615 105.691L31.5026 105.817L31.8547 106.014V106.2L31.0641 105.904L30.6743 105.87L30.3399 106.014L30.878 106.03L31.7573 106.271L32.2467 106.42L32.889 107.117L33.0219 107.239L33.2257 107.113L33.2744 106.832L33.3785 106.55L33.6642 106.418L33.4272 106.094L33.3785 106.012L33.6642 105.935L33.817 105.738L33.9654 105.633L34.2024 105.808V105.649L34.2577 105.622L34.3574 105.607L34.2577 105.195L34.1027 104.869L33.9654 104.65L33.6642 104.539L33.9654 104.484L34.2555 104.617L34.4593 104.677L34.5922 104.351H34.745V105.193L34.8446 105.133L35.0816 105.04L35.1857 104.973V105.478L35.2344 105.649L35.2831 105.808L33.817 106.517L33.5645 107.341L33.5091 107.731L33.5645 107.917L33.7683 108.032L34.0052 108.125L34.2024 108.251L34.4947 108.581L34.6985 108.971L34.8468 109.494L34.8956 110.187L34.8468 110.588L34.6431 111.093L34.5944 111.412L34.6431 111.693L34.8956 112.546H35.0329L35.137 112.42L35.5711 112.531L35.8302 112.548L35.3917 112.026L35.0838 111.332L34.9509 110.48L35.1879 109.474L35.0838 109.414L34.9842 109.321L34.8956 109.277L35.0816 108.958L35.2854 108.94L35.5223 109.095L35.7261 109.277L35.5733 109.388L35.4736 109.476L35.7261 109.651L36.0672 109.618L36.705 109.277L36.8578 109.414L36.9575 109.459L37.2476 109.474L37.0926 109.078L37.1922 108.748L37.2963 108.703L37.396 109.16L37.4846 109.556L37.6884 109.634L37.788 109.447L37.6884 109.051L37.9408 109.299L38.1778 109.6L38.3262 109.793L38.5122 109.682L38.716 109.979L38.7647 110.09L38.8201 109.968L38.8688 109.886L38.9175 109.682L38.7138 109.474L38.4768 109.166L38.273 108.836L38.2243 108.535V107.826L38.1756 107.618L38.0715 107.244V107.018H38.2243L38.273 107.385L38.4281 107.667L38.6141 107.822L38.9175 107.826L38.7138 107.97L38.6651 108.2V108.504L38.7647 108.867H38.9175L38.9995 108.741L39.0548 108.692L39.3073 108.648V108.867H39.1523V109.053L39.8455 108.894L40.2353 108.708L40.4391 108.351L40.6207 108.143L41.6527 108.032L42.0935 107.828L41.8078 107.642L42.4456 107.753L42.6826 107.917L42.9417 108.258L42.481 108.114L42.0957 108.048L43.0724 108.697L43.172 108.867L43.4312 108.852L43.5131 108.792L43.6128 108.648L43.3271 108.44L43.564 108.369L43.7169 108.225L43.6681 108.032L43.4821 107.828V107.642L43.9206 108.236L43.8165 108.792L43.0259 109.89L43.1743 110.094L42.7889 110.376L42.1953 110.424L41.7059 110.265L41.4202 109.89L41.2674 110.32V110.517L41.0636 110.336L40.9307 110.298L40.8266 110.358L40.727 110.517H40.5742L40.2885 109.917H39.6949L39.4092 110.158L39.7503 110.296V110.44L39.6949 110.484L39.799 110.517L39.985 110.55L40.1821 110.644L40.2862 110.803L40.335 110.836L40.676 111.419L40.7248 111.529L40.9772 111.793L41.2629 111.926L41.5486 111.966L41.9561 111.921L42.9727 111.558L43.3249 111.532L44.0003 111.78L44.2528 111.62L44.3016 110.912L44.4876 111.06L44.7401 111.12L45.2849 111.109L45.2362 110.912L45.1321 110.801L45.0324 110.741L44.8464 110.708L45.1808 110.63L45.4665 110.652L45.7744 110.604L46.0601 110.3L45.9294 110.697L45.6215 111.038L45.2871 111.253L44.9793 111.312L45.183 111.51L45.3358 111.483L45.4355 111.383L45.6215 111.312H46.3635L46.9902 111.093L47.2914 111.06L47.5816 111.109L49.154 111.731H49.4885L50.0266 111.638L50.3832 111.731L49.9757 111.693L49.2515 111.897L47.9669 111.975L47.73 112.167L48.0201 112.557L47.8828 113.124L48.1198 113.284L48.5096 113.328L48.8617 113.554L48.6579 113.972L48.999 114.105L49.4885 114.121L49.845 114.181L49.7409 114.384L49.0477 114.763L48.8617 114.994L48.7133 114.819L48.813 114.759L48.8617 114.599L48.5096 114.522L48.3235 114.433L48.1198 114.418L46.4986 115.379L47.3446 115.924L47.5816 116.38V117.248H47.73L47.8828 116.951L47.8341 116.836L47.73 116.617L47.8341 116.557L47.8828 116.509L48.0201 116.431L48.3213 116.854L48.762 117.25L48.9148 117.647L48.5583 118.055L48.1175 118.136L47.2383 117.718L46.7998 117.658V117.851L48.6579 118.845L49.2515 118.867L49.3002 118.779V118.604L49.4043 118.4L49.5372 118.263L49.69 118.225L49.8938 118.214L50.2282 118.263L50.5693 118.449L51.0587 119.027L51.3599 119.297L51.701 119.441L52.0863 119.452L52.4761 119.297L52.9656 118.825L53.5592 118.65L53.7629 118.453L53.8626 118.267L53.9445 118.086L54.0973 117.855L54.7396 117.476L57.5257 117.273L58.2677 117.503L58.5534 117.789L58.7571 117.855L59.1957 117.904L59.6364 118.041L60.3296 118.464L61.0051 119.053L61.6474 119.784L61.9818 120.07L62.8278 120.241L63.2176 120.511L62.1346 120.478L61.6939 120.263L61.2044 119.784L61.0007 119.647L60.1768 119.476L59.3463 118.872V118.653H59.787L59.5832 118.455L59.3972 118.329L59.1934 118.269H58.9565L59.0938 118.469L58.7527 118.484L57.7251 118.203L57.57 118.059L57.4372 117.855L57.2843 117.882L57.1293 117.948L56.9809 118.057L55.1228 118.249L54.6289 118.464L54.4805 118.717L54.3432 119.069L54.2944 119.454L54.2457 119.784L54.2944 120.23L54.5314 120.701L54.4827 121.098L54.4495 121.539L54.3941 121.776L54.2457 121.886L53.5525 121.975L53.3665 122.15L53.114 122.343L52.877 122.54L53.5525 122.936L55.9156 123.344L57.1293 124.019L57.4372 124.327L57.6188 124.673L57.8779 125.2L57.9266 125.694L57.57 125.957L57.3331 126.48L56.9809 127.547L56.7439 127.993L55.9466 128.467L55.6609 128.79L55.7606 129.198L55.2711 129.583L55.1228 129.891L55.0674 130.513V131.018L55.1715 131.579L55.3199 132.041L55.5568 132.239L56.0507 132.414L56.6886 132.859L57.8203 134.035L58.4139 135.262L58.5999 135.437L58.952 135.47L59.2931 135.592L59.5301 135.811L59.7338 136.553L59.9708 136.839L60.272 137.109L60.6131 137.455L60.7127 137.807L60.8124 138.203L60.9674 138.522L61.3085 138.664L61.2044 139.169L61.6429 141.32L61.8467 141.579L62.0327 141.69L62.1324 141.557L62.0837 141.304L61.9796 140.821V140.458L62.1833 140.777L62.3871 141.422L62.5244 141.659L62.7769 141.818L63.3638 141.973L64.0393 142.573L65.1223 142.759L65.4235 143.074L65.2751 143.437L65.8133 143.612L67.182 143.672L67.7202 143.783L68.1587 144.113L68.4998 144.635L68.5994 145.373L68.8519 146L69.3414 146.033L70.4244 145.687L70.7101 145.798L71.1486 146.195L71.7909 146.569L71.9769 146.607L72.2781 146.7L72.6679 147.26L73.0577 147.723L73.5959 147.878L73.5471 146.954L74.3378 146.509L75.2171 146.569L75.6578 147.189L75.7065 147.597L75.8106 147.849V148.086L75.6556 148.449L74.2869 149.324L74.0344 149.703L74.1341 150.259L73.9303 150.396L73.7487 150.638L73.6446 150.919V151.167L73.8483 151.364L74.0344 151.402L74.1872 151.386L74.4397 151.453L74.7254 151.426L74.825 151.453L74.8804 151.535L74.825 151.679V151.805L74.9291 151.865L75.0598 151.898L75.5005 152.261L75.2636 152.498V152.624L75.4186 152.717L75.5005 152.861L75.6046 152.906L75.8571 152.994L75.9568 153.032V153.422L76.0941 153.818V154.104L76.1938 154.341L76.5836 154.489L76.6876 154.589L76.836 154.733L76.8848 154.859V155.034L76.6876 155.528L76.3953 155.77L76.0941 155.743L75.6556 155.451L75.9568 156.401L76.1428 156.791L76.4839 157.01L76.3953 157.092L76.1915 157.311L76.0919 157.404L76.1915 157.559L76.3444 157.812L76.4263 158.108L76.4817 158.412L76.3931 158.753L76.2934 158.819L76.0897 158.786L75.9523 158.808L75.6002 158.994L75.4142 159.209L75.3101 159.335L75.2104 159.499L75.0576 159.67L74.8206 159.792L75.0067 160.095L75.1108 160.518L75.2104 160.948L75.2591 161.289L75.3632 161.542L75.9014 162.164L77.7086 163.637L78.1472 164.153L76.7297 163.493L76.4772 163.262L76.2403 163.114L74.9557 161.59L74.5659 161.564L73.2526 161.987V162.35L72.9115 164.363L73.2526 164.518L73.9768 164.354L74.329 164.647L74.5659 164.966L74.8738 165.263L75.2082 165.466L75.598 165.544L76.1849 165.785L77.2679 166.875L77.9434 167.123L78.0431 167.238L78.1472 167.783L78.1959 167.909L81.0861 169.987L82.0141 171.059L82.4548 171.779L82.8557 172.58L83.5312 174.39L83.7837 175.495L84.5632 180.962L84.8157 181.874L85.2055 182.612L85.8987 183.168L86.7713 183.46L87.6019 183.856L88.0913 184.753L87.6506 184.379L87.1611 184.142L86.623 184.02L86.0294 183.987L86.4679 184.284L86.9574 184.751L87.1611 185.367L86.9574 186.127L87.1124 186.483L87.1611 187.285L87.2652 187.682L87.0061 187.473L86.8245 187.01L86.7204 186.421V185.821L86.7691 185.371L86.7204 185.112L86.572 184.749L86.386 184.545L85.7437 184.167L84.953 183.413L84.2775 182.516L83.5843 180.862L83.529 180.539L83.1436 177.887L82.9066 176.82L82.8513 176.248L82.5988 175.385L82.0119 174.55L79.5624 171.816L79.2767 171.723L78.4306 171.245L77.0619 170.195L76.8759 169.969L76.6788 169.624L76.6234 169.469V169.314L76.6788 169.165L76.7275 169.072V168.534L76.6788 168.408L76.475 168.297L76.134 168.423L75.897 168.864L75.155 170.266L75.051 170.689L74.7165 176.727L73.8373 181.247L72.6059 195.259L72.7543 194.94L72.9403 194.264L73.1441 193.015L74.072 191.617L74.2249 191.365L74.2736 191.316V191.205L74.3223 191.079L74.4264 190.986L74.5083 190.975L74.608 191.035L74.7121 191.128L74.8118 191.188L75.0487 191.281L76.5703 192.705L76.774 193.112H76.4728L76.9623 193.635V194.076L76.5725 194.368L75.8483 194.479L74.6124 194.167L74.123 194.189L73.7376 194.689L73.3478 195.981L73.2991 196.315L73.2504 196.501L72.7055 197.283L72.6568 197.52L72.8606 198.322L72.9093 198.723L72.7565 200.484L72.2183 204.43L70.9005 212.364L70.2073 215.988L69.7179 217.576L68.894 222.145L68.4001 223.729L68.2517 224.597L67.9439 225.636L67.7623 225.955L66.7302 226.785L66.5264 227.005L66.4268 227.319L65.9883 228.183L65.8509 228.42L65.4501 228.695L65.0093 228.943L64.5199 229.113L62.7614 229.399L62.3716 229.554L62.2232 229.751L61.9309 229.525L61.7825 230.296V231.215L62.3694 231.507L62.6064 231.842L62.7104 232.38L62.8101 232.599L62.9961 232.566L63.2486 232.451L63.6894 232.391L64.0792 232.221L64.2829 232.238L64.6683 232.424L64.872 232.566V232.692L64.8233 232.863V233.111L64.9562 233.583L65.0603 233.709L65.3128 233.82L65.5497 233.853L65.8022 233.82L65.9883 233.694L66.1433 233.457L66.2917 232.978L66.584 232.796L66.9694 232.812L67.6117 232.998L68.4577 233.439L68.6947 233.394L68.8984 233.317H69.1354L69.7223 233.917L69.8264 234.934L69.5739 236.028L69.2838 236.903L69.0313 237.248L68.2074 238.134L68.0037 238.371L68.3049 238.972L68.6393 239.384L69.0778 239.647L69.5717 239.773L70.1586 239.822L70.4997 239.707L70.6481 239.333L70.6968 238.617L70.8496 238.068L71.1907 237.667L71.6248 237.503L72.1186 237.618L71.6779 237.982L71.5229 238.345L71.5716 238.708L71.9282 239.109L72.3135 239.335L73.4829 239.55L74.1761 239.928L74.8693 240.467L75.5936 240.4L75.7973 240.467L76.083 240.675L76.2381 240.808L76.9623 240.896L77.3144 240.989L77.5514 241.282L78.2446 241.804L79.0242 242.057L80.5967 242.194L82.1625 241.913L82.7073 242.099L83.0927 243.067V243.271L82.993 243.392V243.536L83.0927 243.8L83.2964 243.993L83.4825 244.019L83.6862 243.982L83.9232 244.019L84.6164 244.449L84.9575 244.752L85.7481 245.809L85.7969 245.931L85.7481 246.041V246.152L85.8478 246.212H86.1889L86.2885 246.234L86.3926 246.405V246.739L86.5787 246.876L86.727 246.85L87.0681 246.613L87.2165 246.558L87.2719 245.904L87.81 245.915L88.8931 246.431L89.4645 246.376L89.9539 246.079L90.955 245.319L91.1366 245.494L91.2916 245.428L91.4289 245.224L91.5286 244.954L91.832 245.24L93.0523 245.988L93.3048 246.493L93.843 246.56L94.4365 246.4L94.771 246.247V246.721L94.8751 247.195L95.112 247.603L95.4465 247.873L95.5506 248.026L95.5993 248.219L95.648 248.4L95.8518 248.5L96.0887 248.566L96.2416 248.693L96.3412 248.83L96.4785 248.956L97.2692 249.269L97.9447 249.202L99.5171 248.626L100.749 248.44L101.138 248.188L101.473 248.139L102.505 248.42L102.857 248.58L103.295 249.348L103.588 249.716L103.889 249.678L104.46 248.877L104.817 248.52L105.207 248.383L105.745 248.868L105.794 248.95V249.18L105.898 249.273L106.283 249.351L106.673 249.335L107.448 249.131L107.805 249.264L110.305 249.187L111.029 249.291L111.282 249.187L111.468 248.901V248.46L111.331 248.048L111.078 247.745L110.841 247.634L110.945 247.364L111.027 247.253L111.182 247.127L110.945 246.812L111.231 246.048L111.182 245.459L111.282 245.069L111.771 244.883L112.316 244.845L112.651 244.883L113.344 245.153L113.685 245.231L114.07 245.198L114.46 245.257L115.306 245.773L115.926 246.01L116.081 246.143L116.438 246.467L116.619 246.549L116.823 246.456L117.009 246.296L117.213 246.236L117.417 246.296L117.702 246.577L117.855 246.659L119.607 246.775L119.997 246.912L120.353 247.235L120.535 247.621L120.739 248.044L120.942 248.422L121.284 248.675L121.465 248.708L122.158 248.482L124.659 248.498L125.148 248.624L125.049 249.003L125.148 249.125L125.352 249.131L125.489 249.224L125.842 249.867L126.231 250.4L126.572 251.335L126.874 251.725L127.312 251.539L127.647 250.46L128.289 250.493L128.882 250.263L129.168 250.248L130.251 251.001L130.488 251.1L132.8 251.32L132.596 251.88L132.931 252.084L133.387 252.232L133.624 252.595L133.135 252.651L132.8 253.003L132.548 253.57L132.499 254.245L132.548 254.29L132.596 254.345V254.5L132.931 254.653L134.215 254.823L134.605 254.998L135.786 255.774L136.226 255.884L136.612 255.911L136.92 256.042L137.205 256.498L137.442 257.521L137.646 257.94L138.036 258.292L138.288 258.447L138.574 258.485L139.112 258.429L139.42 258.352L139.657 258.199L139.991 257.836L140.481 257.461L140.585 257.302L140.733 256.905L140.837 256.762L141.172 256.606L142.1 256.728L143.336 256.338L143.956 256.272L144.549 256.584L144.802 256.788L145.967 257.344L146.609 257.481L146.91 257.497L147.048 257.938L147.4 258.356L147.79 258.664L148.131 258.764L148.516 259.001L148.768 259.078L148.954 259.067L149.107 258.934L149.311 258.494L149.444 258.35L149.851 258.334L150.779 258.653L151.218 258.742L151.756 258.704V258.593L151.453 258.307L151.315 257.785L151.453 257.554L152.299 256.879L152.684 256.704L153.074 256.671L153.871 256.793L154.305 256.733L154.598 256.518L155.24 255.929L155.526 255.736L155.878 255.698L156.219 255.709L156.553 255.661L157.196 255.134L157.889 255.397L158.23 255.16L158.411 255.209L159.005 255.224L159.16 255.258L159.308 255.565L159.446 255.818L159.649 256.022L159.902 256.181L160.287 256.319L160.832 256.374L161.322 256.341L162.739 256.104V255.258L162.097 254.361L160.679 252.936L160.476 252.392L160.239 250.325V249.995L160.19 249.84L160.09 249.762L159.8 249.789L159.7 249.745L159.596 249.537L159.497 249.328V249.091L159.7 248.81L159.986 249.2L160.09 249.3L160.139 249.107L160.391 247.712L160.425 247.222L160.391 246.733L160.287 246.261L160.188 246.041L159.935 245.931L159.412 245.756L159.056 245.711L158.87 245.607L158.77 245.448L158.617 245.063L158.469 244.881L159.26 244.039L159.497 243.913L159.596 243.765L159.548 243.133L159.652 242.989L159.855 243.034L160.092 243.182L160.241 243.16L160.582 242.852L160.478 242.593L159.94 242.126L159.703 241.725L159.654 241.291L159.802 240.972L160.241 240.912L159.988 241.401L159.906 241.649L159.988 241.869L160.241 241.951L160.345 241.731L160.427 241.435L160.582 241.286L160.682 241.133L160.73 240.77L160.834 240.066L160.883 239.78L161.273 239.35L161.373 239.02L161.224 238.768L160.883 238.553L160.531 238.174L160.394 237.415L160.476 237.217L160.728 237.135H161.273L161.373 237.228L161.169 237.432L160.834 237.718V237.889L161.071 238.048L161.224 238.223L161.324 238.327L161.51 238.283L162.048 237.415L162.152 237.091L162.438 236.799L162.894 236.38L163.027 236.121L163.231 235.594L163.386 235.341L163.72 234.929L166.511 232.801L167.204 232.438L167.693 232.345L168.517 232.741L168.907 232.555L170.577 230.52L171.268 229.959L173.516 228.728L177.538 225.408V225.204L176.862 225.434L176.269 225.946L175.186 227.111L174.158 228.019L173.516 228.371L172.84 228.427V228.256L174.495 227.529L174.803 227.206L174.851 226.776L174.984 226.513L176.32 225.408L176.865 225.078L178.078 224.699L179.006 224.039L179.6 223.835L180.732 223.676L180.528 224.088L180.291 224.362L179.934 224.522L179.496 224.637L178.517 224.725L178.078 224.869L177.841 225.206L178.517 224.887L179.748 224.761L180.88 224.876L181.403 225.31L181.458 225.399L181.859 226.878L181.947 227.115L182.096 227.286L182.537 227.505L183.03 227.616L189.26 227.82L190.133 228.006L190.678 228.429L190.727 228.918L190.572 229.485L190.39 229.964L190.335 230.161L190.879 230.435L191.703 230.666L194.642 230.81L195.384 230.524L194.895 229.99L194.252 229.549L193.714 228.982L193.462 228.048V226.057L193.38 225.771L192.786 224.807V224.637L193.121 224.841L193.38 225.253L193.617 225.727L193.717 226.15L193.765 226.621L193.717 228.254L194.051 228.98L194.744 229.623L195.575 230.101L196.372 230.331L196.219 229.875L196.015 229.704L195.916 229.561L196.064 229.171L196.268 229.007L196.757 228.896L196.943 228.714L197.482 228.489L198.565 229.131L198.954 228.989L199.493 229.131L199.931 228.785L200.184 228.17L199.931 227.476L199.645 227.217L199.408 227.091L199.205 226.865L199.105 226.331L199.154 226.127L199.253 225.749L199.357 225.374L199.49 225.199L199.643 225.281L199.929 225.682L199.978 225.764L200.467 225.749L200.62 225.764L201.061 225.908L201.16 226.052V226.289L201.315 226.712L201.756 227.217L202.245 227.31L202.839 227.1L203.41 226.71L203.459 227.37L203.222 227.997L202.837 228.502L202.429 228.805L201.851 228.987H200.082L199.439 229.339L199.154 229.899L199.253 230.522L199.798 231.082L200.336 231.215L201.601 231.2L201.909 231.084L202.788 231.211L205.47 230.599L206.015 230.989V232.424L206.115 232.584L206.27 232.739L206.369 232.821L206.451 232.799L206.403 233.007L206.369 233.182L206.216 233.634L206.068 233.919L206.019 234.201L206.168 234.475L206.405 234.579L206.998 234.535L207.251 234.677L207.585 234.566L208.079 234.533L208.569 234.593L208.821 234.763L208.903 234.896L209.155 234.83L209.408 234.688L209.749 234.418L209.935 234.517L210.424 235.177L210.573 235.333L210.881 235.443L210.963 235.536L211.067 235.592L211.215 235.629L211.319 235.57L211.368 235.443L211.401 235.306L211.501 235.246L212.533 235.29L212.923 235.499L212.785 235.993L213.561 236.411L213.95 236.544L214.407 236.582L214.593 236.67L214.641 237.049L214.794 237.131L215.184 237.16L215.284 237.215L215.417 237.319L214.796 237.649L214.644 237.902L214.748 238.281L214.929 238.424L215.913 238.843L216.369 238.876L216.606 238.739L216.655 238.36L216.803 238.156H217.144L217.786 238.283V238.09L217.43 237.946L216.989 237.463L216.655 237.319L217.241 237.022L217.583 236.941L217.917 236.945L217.835 237.071V237.346L217.786 237.512L218.276 237.308L218.869 237.304L219.441 237.448L219.848 237.718L219.979 237.8L221.452 237.889L221.607 238.015V238.296L221.507 238.752L221.396 238.834L220.67 238.845V239.02L221.066 239.098L222.395 239.113L222.736 239.02V238.845L222.581 238.85L222.426 238.801L222.185 238.659L222.393 238.092L222.426 237.62L222.581 237.231L223.022 236.949L223.274 236.912L224.636 236.949L224.789 236.976L225.075 237.102L225.327 237.135L225.513 237.257L225.613 237.516L225.669 237.769L225.724 237.891L226.448 237.913L226.645 237.764L226.36 237.324L226.448 237.109V236.73L226.603 236.385L226.8 236.241L227.427 236.192L227.835 235.977L228.275 235.818L228.506 235.8L228.999 235.855L229.252 235.818L229.538 235.581L229.846 235.246L230.231 235.016L230.769 235.071L230.955 235.235L231.055 235.472L231.11 235.687L231.21 235.82L231.396 235.864L231.803 235.689L231.989 235.64L231.901 235.255L232.725 234.591L232.835 234.416L232.78 234.327L232.68 234.227L232.581 234.101V233.942L232.625 233.682L232.68 233.578L232.78 233.507L232.835 233.375L233.021 232.907L232.966 232.759L231.055 232.847L230.902 232.81L230.957 232.573L231.265 232.32L231.803 232.039L232.242 231.961L232.428 231.758L232.528 231.454L232.725 231.091L233.021 230.81L233.374 230.688L233.56 230.522L233.715 229.691L233.856 229.191L234.098 228.712L234.35 228.427L234.736 228.739L235.285 228.865L236.306 228.81V228.71L236.394 228.495L236.494 228.369L236.55 228.522L236.649 228.604L236.749 228.648H236.904L236.992 228.626L237.092 228.493L237.147 228.125L237.192 228.043H237.347L237.435 228.021L237.48 227.972L238.226 226.697V226.619L238.281 226.604V226.158L238.226 226.147L238.512 225.718L238.82 225.465L239.15 225.268L239.446 225.009L239.929 225.202L240.423 225.053L240.961 224.779L241.499 224.635L241.555 224.728V224.92L241.654 225.058L241.852 225.009L241.94 224.898V223.117L242.04 222.914L242.193 222.787L242.348 222.524L242.534 222.271L242.886 222.15L243.172 222.127L243.38 222.05L243.555 221.928L243.763 221.764L244.148 221.186L244.401 220.982L244.686 221.093L244.839 221.137L245.871 221L245.772 221.275L245.716 221.363L246.113 221.326L246.157 221.055L246.212 220.714L246.398 220.433L246.751 220.351L246.806 219.988L247.092 219.653L247.477 219.498L247.916 219.762L248.068 219.558L248.265 219.47L248.452 219.496L248.604 219.545H248.704L248.89 219.467V219.368L248.857 219.011L248.89 218.911L248.945 218.878L249.045 218.885H249.145L249.397 218.699L248.99 217.357L248.89 216.648L249.198 216.07L250.077 215.108L250.462 214.459L251.539 213.574L251.977 213.073L252.132 212.754L252.341 212.116L252.418 211.779L252.671 211.531L252.956 211.305L253.164 211.009L253.22 210.519L252.912 209.844L252.418 209.394L252.188 208.871L252.473 207.959L251.847 207.848L251.001 208.386L250.462 208.442L246.934 209.454L246.111 209.432L245.902 209.387L245.769 209.201L245.614 208.964L245.515 208.761L245.229 208.661L244.68 208.568L244.35 208.408L242.186 207.088L241.362 206.792L240.175 206.16L239.923 206.083L239.637 206.112L239.44 206.182L239.198 206.227L238.89 206.116L238.704 205.908L238.605 205.655L238.56 205.392L238.408 205.122L238.277 204.902L237.881 204.617L237.683 204.419L237.573 204.211L237.342 203.633L237.145 203.363L236.707 202.84L236.651 202.714L236.552 202.461V202.317L236.596 202.136L236.804 201.261L236.937 201.013L237.575 200.639L237.092 200.198L236.454 199.549L236.016 198.763L235.96 197.883L236.158 197.505L237.19 196.718L237.883 195.52L238.168 195.312L237.916 194.7L238.069 194.133L238.454 193.677L238.893 193.414H239.3L240.024 193.628H240.388L240.277 193.254L239.639 192.1L239.539 191.852L239.44 191.154L239.254 190.543V190.51L239.353 190.058L239.398 190.036V189.728L239.353 189.569L239.298 189.425L238.89 189.028L237.912 188.61L237.526 188.576L236.55 188.78L236.153 188.68L234.791 187.879L234.098 187.301L233.757 186.7L233.812 185.11L233.659 184.291L233.165 183.912L232.43 183.845L232.244 183.67L231.992 183.247L231.936 182.984V182.554L231.595 182.273L231.265 181.735L231.495 181.411L231.859 181.108L232.53 180.7L232.727 180.667L233.068 180.683L233.276 180.649L233.409 180.556L233.817 180.275L233.949 180.193L234.643 180.308L235.389 180.716L236.113 180.968L236.751 180.649L236.806 180.474L236.707 180.348L236.596 180.193L236.707 179.945L236.849 179.874H237.342L237.528 179.83L237.836 179.56L238.166 178.937L238.408 178.696L239.143 178.366L239.836 178.162L240.022 178.239L240.275 178.543L240.385 178.587L240.516 178.443L240.901 177.739L241.44 177.283V176.837L241.209 176.259L241.11 175.433L241.209 175.263L241.903 174.487L242.288 173.734L242.474 173.294V172.937L242.343 172.822L241.497 172.443L241.212 172.239L241.057 171.909L240.904 171.553L240.718 171.24L239.838 170.585L238.893 170.069L238.76 169.646L238.66 168.463L238.56 168.244L238.374 167.903L238.319 167.677L238.374 167.44L238.605 166.935L238.66 166.775L238.505 166.341L238.275 166.166L237.626 166.007L237.34 165.792L236.902 165.336L236.594 165.243L236.111 165.132L235.573 164.731L235.134 164.111L234.926 162.924L234.893 162.408V161.891L234.981 161.413L235.234 160.99L235.575 160.804L236.158 160.722V160.667L236.213 160.551L236.313 160.407L236.401 160.33L236.456 160.345L236.654 160.445L236.709 160.467L236.851 160.441H237.345L237.785 160.314L238.224 160.084L238.665 159.739L238.895 159.276L239.05 158.886L239.203 158.54L239.4 158.27L239.697 158.133L239.542 157.907L239.442 157.61L239.298 157.076L239.101 156.478L239.001 156.175L238.89 156.108L237.528 154.558L237.09 154.365L236.935 154.432L236.802 154.576L236.594 154.698L236.45 154.671L236.264 154.538V154.099L236.308 154.073V153.769L236.264 153.484L236.208 153.517L236.308 153.362L236.452 153.158L236.596 152.939V152.72L236.31 152.418L234.696 152.062L234.543 151.583L234.74 150.589L235.081 149.543L235.774 148.153L235.336 147.366L234.589 146.607L234.204 145.935L234.359 145.601L234.897 144.974L234.986 144.496V143.935L234.8 143.65L234.492 143.495L231.46 142.719L230.142 142.675L228.825 142.928L227.099 144.11L226.461 144.281L225.779 144.308L225.186 144.511L224.504 145.083L223.954 145.836L223.516 146.418L223.416 146.815L223.471 147.1L223.669 147.601V147.723L223.877 148.201L223.954 148.323L224.162 148.434L224.504 148.279L224.648 148.339L224.758 149.003L224.264 149.563L222.936 150.416L221.915 151.625L221.277 151.951L220.583 151.648L219.649 151.681L218.776 151.9L218.287 152.197L218.524 151.566L218.677 151.269L218.776 151.021L218.386 150.576L218.189 150.168L218.289 149.823L218.778 149.508L219.948 148.919L219.992 148.908H220.048L220.245 148.957L220.344 148.979L220.433 148.957L220.927 148.824L220.971 148.631V148.044L221.126 147.22L221.181 146.99L221.875 145.532L221.819 145.207L221.567 144.766L221.281 144.447L220.205 143.776L220.435 143.557V142.941L220.402 142.859L220.347 142.733L220.302 142.595V142.447L220.402 142.276L220.643 142.024L221.336 140.815L222.061 139.918L221.567 139.368L221.467 138.99L221.775 138.626L224.457 136.152L225.93 135.355L226.127 135.18L226.665 134.582L227.314 134.234L227.544 134.064L227.753 133.782L227.852 133.541V133.04L227.699 132.881L227.544 132.739L227.5 132.569L227.544 132.427L227.852 131.47L227.985 131.218L228.138 130.943V130.524L228.083 130.205L227.797 129.689L227.753 129.43L228.038 128.385L229.017 127.824L231.17 127.138L232.543 126.114L232.982 125.45L232.74 124.905L233.037 124.431L233.179 124.245L233.728 124.063L233.772 123.877L233.872 123.829L234.169 123.676L234.113 123.171L234.751 122.956L236.069 121.74L236.41 121.096L237.004 120.495L238.388 119.49L238.332 118.759L238.421 118.148L238.828 117.758L239.015 117.736L239.114 117.691L239.411 117.295L239.597 117.169L239.805 117.113L239.991 116.987L240.146 116.668L239.938 116.365L239.652 116.083L239.367 115.846L238.959 116.021L236.563 116.252L236.662 115.877L236.948 115.414L237.256 115.013L237.739 114.71L237.794 114.154L238.332 114.032L238.618 113.846L238.904 113.587L239.112 113.339L239.012 112.976L238.771 112.568L238.716 112.238L239.112 112.123L239.309 111.986L239.453 111.937L239.65 111.986L239.847 112.123L240.341 112.201L241.373 112.019L241.856 112.123L242.097 112.271L242.35 112.316L242.921 112.267L242.536 113.102L242.689 113.592L243.074 113.855L243.712 114.041L243.767 114.108L243.823 114.218L243.9 114.318L244.053 114.396L244.208 114.362L244.988 114.032L245.47 113.917L246.91 113.984L247.481 113.753L247.889 113.23L247.922 112.949L247.889 112.783L247.789 112.646L247.734 112.568L247.634 112.393V112.205L247.887 112.139L248.172 112.238L248.414 112.42L248.711 112.453L248.996 112.172L249.052 112.123V111.886L248.899 111.682L248.866 111.56L248.899 111.467L248.999 111.401L249.207 111.445L249.404 111.397L249.437 111.226V110.929H249.404L249.052 110.677L248.996 110.65L249.898 109.935L250.381 109.66L251.063 109.408L251.007 109.403L251.063 109.392L251.162 109.089L251.218 108.978L251.162 108.692L251.063 108.537L250.908 108.426L250.819 108.274L250.378 107.361L250.082 106.982L249.796 106.834L249.685 106.692L249.641 106.367L249.585 105.724L249.641 105.549L249.971 105.197L250.126 104.993V104.504L249.896 103.454L249.929 103.042L250.237 102.07L250.336 101.926L250.622 101.771V101.441L250.522 100.885V100.466L250.622 100.34L250.722 100.207L250.821 100.063L250.965 99.7551V99.1394L251.065 98.7385L251.603 98.1671L251.8 97.8038L251.756 96.8692L250.877 95.3298L250.821 94.0873L250.965 93.4981L251.065 93.0418L251.218 92.7672L251.362 92.5856L251.45 92.3486L251.506 91.9145L251.658 91.5468L252.923 89.755L253.12 89.3253L253.275 88.8092L253.331 88.1935L253.408 87.5556L253.771 87.2854L254.157 87.0927L254.409 86.6408L254.442 86.2222L254.354 85.8147L254.21 85.4249L254.154 85.0616V84.6652L254.307 83.8612L254.407 83.5156L254.54 83.2299L254.693 83.0328L254.792 82.736L254.848 82.1646L254.936 81.8833L255.189 81.6418L255.672 81.2409V81.0327L255.419 80.3838V79.3273L255.627 78.3372L256.451 77.0017L256.704 76.8311L257.045 76.7314L257.341 76.4612L257.891 75.7901L258.121 75.6417L258.407 75.3782L258.615 75.0924L258.715 74.8444V74.2619L258.867 73.9916L259.053 73.9141L259.647 73.903L259.791 73.8543L259.902 73.7546L259.935 73.5841L259.979 73.2984L260.079 73.1389L260.19 73.0459L260.234 72.9684L260.389 72.9573L261.169 72.5608L261.268 72.4612L261.51 72.0381L262.433 69.5198L263.071 68.3215L263.467 67.8321L263.281 67.6128L261.27 67.2052L261.275 67.1986ZM138.375 255.862L138.122 255.907H138.073L137.635 255.836L137.398 255.639L137.343 255.293L137.529 254.804L137.781 254.699L137.967 254.985L138.171 255.441L138.423 255.838L138.375 255.864V255.862Z" stroke="#BAB7EA" stroke-width="1.33" stroke-linejoin="round"></path><path d="M148.786 142.698C155.555 142.698 161.042 137.21 161.042 130.441C161.042 123.671 155.555 118.184 148.786 118.184C142.017 118.184 136.529 123.671 136.529 130.441C136.529 137.21 142.017 142.698 148.786 142.698Z" stroke="#EE2E20" stroke-width="1.33" stroke-linejoin="round"></path><path d="M148.785 156.432C163.137 156.432 174.772 144.796 174.772 130.443C174.772 116.089 163.137 104.453 148.785 104.453C134.432 104.453 122.797 116.089 122.797 130.443C122.797 144.796 134.432 156.432 148.785 156.432Z" stroke="#EE2E20" stroke-width="1.33" stroke-linejoin="round"></path><path d="M148.784 178.04C175.071 178.04 196.381 156.729 196.381 130.44C196.381 104.151 175.071 82.8398 148.784 82.8398C122.497 82.8398 101.188 104.151 101.188 130.44C101.188 156.729 122.497 178.04 148.784 178.04Z" stroke="#EE2E20" stroke-width="1.33" stroke-linejoin="round"></path><path d="M148.784 210.394C192.939 210.394 228.734 174.597 228.734 130.439C228.734 86.2815 192.939 50.4844 148.784 50.4844C104.629 50.4844 68.834 86.2815 68.834 130.439C68.834 174.597 104.629 210.394 148.784 210.394Z" stroke="#EE2E20" stroke-width="1.33" stroke-linejoin="round"></path><path d="M148.784 249.342C214.447 249.342 267.678 196.108 267.678 130.441C267.678 64.7731 214.447 11.5391 148.784 11.5391C83.1211 11.5391 29.8906 64.7731 29.8906 130.441C29.8906 196.108 83.1211 249.342 148.784 249.342Z" stroke="#EE2E20" stroke-width="1.33" stroke-linejoin="round"></path><path d="M70.8638 154.408C73.9254 154.408 76.4073 151.926 76.4073 148.864C76.4073 145.802 73.9254 143.32 70.8638 143.32C67.8022 143.32 65.3203 145.802 65.3203 148.864C65.3203 151.926 67.8022 154.408 70.8638 154.408Z" fill="#EE2E20" stroke="#EE2E20" stroke-width="2.66665" stroke-miterlimit="10"></path><path d="M61.0786 216.619C64.1402 216.619 66.6221 214.137 66.6221 211.075C66.6221 208.013 64.1402 205.531 61.0786 205.531C58.0171 205.531 55.5352 208.013 55.5352 211.075C55.5352 214.137 58.0171 216.619 61.0786 216.619Z" fill="#EE2E20" stroke="#EE2E20" stroke-width="2.66665" stroke-miterlimit="10"></path><path d="M255.192 82.5291C258.253 82.5291 260.735 80.047 260.735 76.9853C260.735 73.9235 258.253 71.4414 255.192 71.4414C252.13 71.4414 249.648 73.9235 249.648 76.9853C249.648 80.047 252.13 82.5291 255.192 82.5291Z" fill="#EE2E20" stroke="#EE2E20" stroke-width="2.66665" stroke-miterlimit="10"></path><path d="M171.208 147.213C174.269 147.213 176.751 144.731 176.751 141.669C176.751 138.607 174.269 136.125 171.208 136.125C168.146 136.125 165.664 138.607 165.664 141.669C165.664 144.731 168.146 147.213 171.208 147.213Z" fill="#EE2E20" stroke="#EE2E20" stroke-width="2.66665" stroke-miterlimit="10"></path><path d="M177.321 96.6268C180.382 96.6268 182.864 94.1447 182.864 91.0829C182.864 88.0211 180.382 85.5391 177.321 85.5391C174.259 85.5391 171.777 88.0211 171.777 91.0829C171.777 94.1447 174.259 96.6268 177.321 96.6268Z" fill="#5533E5" stroke="#5533E5" stroke-width="1.33333"></path><path d="M183.086 249.107C186.148 249.107 188.63 246.625 188.63 243.563C188.63 240.502 186.148 238.02 183.086 238.02C180.025 238.02 177.543 240.502 177.543 243.563C177.543 246.625 180.025 249.107 183.086 249.107Z" fill="#5533E5" stroke="#5533E5" stroke-width="1.33333"></path><path d="M105.065 25.5291C108.127 25.5291 110.608 23.047 110.608 19.9853C110.608 16.9235 108.127 14.4414 105.065 14.4414C102.003 14.4414 99.5215 16.9235 99.5215 19.9853C99.5215 23.047 102.003 25.5291 105.065 25.5291Z" fill="#5533E5" stroke="#5533E5" stroke-width="1.33333"></path><path d="M220.626 168.857C223.687 168.857 226.169 166.375 226.169 163.313C226.169 160.252 223.687 157.77 220.626 157.77C217.564 157.77 215.082 160.252 215.082 163.313C215.082 166.375 217.564 168.857 220.626 168.857Z" fill="#5533E5" stroke="#5533E5" stroke-width="1.33333"></path><path d="M139.196 141.842C142.257 141.842 144.739 139.36 144.739 136.298C144.739 133.236 142.257 130.754 139.196 130.754C136.134 130.754 133.652 133.236 133.652 136.298C133.652 139.36 136.134 141.842 139.196 141.842Z" fill="#5533E5" stroke="#5533E5" stroke-width="1.33333"></path></g><defs><clipPath id="clip0_1734_359"><rect width="291.539" height="287" fill="white" transform="translate(0.480469)"></rect></clipPath></defs></svg>