<svg xmlns="http://www.w3.org/2000/svg" width="239" height="246" viewBox="0 0 239 246" fill="none"><path d="M32.002 101.94H67.8869L68.7041 4.92969" fill="white"></path><path d="M32.002 101.94H67.8869L68.7041 4.92969" stroke="#BAB7EA" stroke-width="2" stroke-miterlimit="10"></path><path d="M1.99023 238.661L82.6865 245L139.989 232.322H234.617L237.509 2L146.824 16.2632L81.3727 3.84918L2.25346 10.1879L1.99023 238.661Z" stroke="#BAB7EA" stroke-width="2" stroke-miterlimit="10"></path><path d="M82.6855 244.997L136.957 169.113L235.367 149.926" stroke="#BAB7EA" stroke-width="2" stroke-miterlimit="10"></path><path d="M136.959 169.117L179.936 83.7383L100.324 88.249" stroke="#BAB7EA" stroke-width="2" stroke-miterlimit="10"></path><path d="M15.8105 10.2383L32.0039 101.901L28.8028 168.046L201.695 232.349" stroke="#BAB7EA" stroke-width="2" stroke-miterlimit="10"></path><path d="M2.47461 194.478L53.2062 197.026L136.659 15.293" stroke="#BAB7EA" stroke-width="2" stroke-miterlimit="10"></path><path d="M223.463 42.4858C223.463 46.5305 222.045 51.5054 219.676 56.9624C217.315 62.4013 214.047 68.2345 210.431 73.9711C203.199 85.4433 194.624 96.4505 189.274 103.019C187.006 105.803 182.769 105.803 180.501 103.019C175.151 96.4505 166.576 85.4433 159.344 73.9711C155.728 68.2345 152.46 62.4013 150.099 56.9624C147.73 51.5054 146.312 46.5305 146.312 42.4858C146.312 21.0707 163.588 3.71875 184.888 3.71875C206.187 3.71875 223.463 21.0707 223.463 42.4858Z" fill="white" stroke="#EE2E20" stroke-width="2"></path><path d="M205.959 42.4833C205.959 54.1844 196.521 63.6618 184.888 63.6618C173.255 63.6618 163.816 54.1844 163.816 42.4833C163.816 30.7821 173.255 21.3047 184.888 21.3047C196.521 21.3047 205.959 30.7821 205.959 42.4833Z" fill="white" stroke="#EE2E20" stroke-width="2"></path><path d="M88.7099 121.756C91.9259 121.756 94.533 119.134 94.533 115.9C94.533 112.665 91.9259 110.043 88.7099 110.043C85.4938 110.043 82.8867 112.665 82.8867 115.9C82.8867 119.134 85.4938 121.756 88.7099 121.756Z" fill="#EE2E20" stroke="#EE2E20" stroke-width="2.66665" stroke-miterlimit="10"></path><path d="M210.563 160.846C213.779 160.846 216.387 158.224 216.387 154.99C216.387 151.755 213.779 149.133 210.563 149.133C207.347 149.133 204.74 151.755 204.74 154.99C204.74 158.224 207.347 160.846 210.563 160.846Z" fill="#EE2E20" stroke="#EE2E20" stroke-width="2.66665" stroke-miterlimit="10"></path><path d="M114.974 206.272C118.19 206.272 120.797 203.65 120.797 200.415C120.797 197.181 118.19 194.559 114.974 194.559C111.758 194.559 109.15 197.181 109.15 200.415C109.15 203.65 111.758 206.272 114.974 206.272Z" fill="#5533E5" stroke="#5533E5" stroke-width="1.33333"></path><path d="M21.4814 49.9244C24.6974 49.9244 27.3045 47.3022 27.3045 44.0677C27.3045 40.8331 24.6974 38.2109 21.4814 38.2109C18.2653 38.2109 15.6582 40.8331 15.6582 44.0677C15.6582 47.3022 18.2653 49.9244 21.4814 49.9244Z" fill="#5533E5" stroke="#5533E5" stroke-width="1.33333"></path></svg>