<svg xmlns="http://www.w3.org/2000/svg" width="43" height="43" viewBox="0 0 43 43" fill="none"><path d="M21.336 42.4588C21.2863 42.4588 21.2373 42.4588 21.1875 42.4588C15.5786 42.4204 10.3197 40.2044 6.38135 36.2187C2.44218 32.2329 0.29479 26.955 0.33252 21.3573C0.371856 15.7589 2.5923 10.5114 6.58525 6.58012C10.579 2.64968 15.8644 0.505802 21.4765 0.543456C27.0854 0.581912 32.3443 2.79789 36.2827 6.78361C40.2211 10.7693 42.3701 16.0465 42.3315 21.6449L39.9232 21.6281L42.3315 21.6449C42.293 27.2426 40.0725 32.4909 36.0788 36.4213C32.1204 40.3173 26.8896 42.458 21.336 42.458V42.4588ZM21.3288 5.35035C17.0485 5.35035 13.0178 6.99992 9.96729 10.0026C6.88949 13.0318 5.17881 17.076 5.1491 21.3902C5.1194 25.7044 6.7747 29.771 9.80995 32.8426C12.8452 35.9142 16.8976 37.6215 21.2204 37.6511C21.2582 37.6511 21.2967 37.6511 21.3344 37.6511C25.6148 37.6511 29.6454 36.0015 32.6959 32.9988C35.7737 29.9697 37.4844 25.9255 37.5141 21.6113C37.5751 12.7057 30.3655 5.41124 21.4428 5.35035C21.4051 5.35035 21.3665 5.35035 21.3288 5.35035Z" fill="#EE2E20"></path><path fill-rule="evenodd" clip-rule="evenodd" d="M6.88477 21.4999L21.3316 7.08203L35.7784 21.4999L21.3316 35.9177L6.88477 21.4999ZM21.3316 28.3504L28.1958 21.4999L21.3316 14.6494L14.4674 21.4999L21.3316 28.3504Z" fill="#5533E5"></path></svg>