<svg xmlns="http://www.w3.org/2000/svg" width="225" height="277" viewBox="0 0 225 277" fill="none"><path d="M34.659 138.099H29.2307H28.2307V139.099V153.839C27.1813 153.945 26.1128 154.001 25.0287 154.001C23.9438 154.001 22.8752 153.947 21.8268 153.84V139.099V138.099H20.8268H15V133.632H20.8268H21.8268V132.632V127.704C21.8268 125.154 22.7314 123.152 24.2674 121.779C25.8154 120.394 28.0975 119.566 30.9815 119.566H30.9987H31.0159H31.0332H31.0504H31.0676H31.0849H31.1021H31.1194H31.1366H31.1539H31.1712H31.1884H31.2057H31.2229H31.2402H31.2575H31.2747H31.292H31.3093H31.3265H31.3438H31.361H31.3783H31.3956H31.4128H31.4301H31.4474H31.4646H31.4819H31.4992H31.5164H31.5337H31.5509H31.5682H31.5854H31.6027H31.6199H31.6372H31.6544H31.6717H31.6889H31.7062H31.7234H31.7406H31.7579H31.7751H31.7923H31.8095H31.8267H31.8439H31.8612H31.8784H31.8956H31.9127H31.9299H31.9471H31.9643H31.9815H31.9986H32.0158H32.033H32.0501H32.0673H32.0844H32.1015H32.1187H32.1358H32.1529H32.17H32.1871H32.2042H32.2213H32.2384H32.2555H32.2725H32.2896H32.3066H32.3237H32.3407H32.3577H32.3747H32.3918H32.4088H32.4258H32.4427H32.4597H32.4767H32.4936H32.5106H32.5275H32.5444H32.5614H32.5783H32.5952H32.612H32.6289H32.6458H32.6626H32.6795H32.6963H32.7131H32.7299H32.7467H32.7635H32.7803H32.7971H32.8138H32.8305H32.8473H32.864H32.8807H32.8974H32.914H32.9307H32.9474H32.964H32.9806H32.9972H33.0138H33.0304H33.047H33.0635H33.08H33.0966H33.1131H33.1296H33.146H33.1625H33.179H33.1954H33.2118H33.2282H33.2446H33.261H33.2773H33.2937H33.31H33.3263H33.3426H33.3588H33.3751H33.3913H33.4075H33.4237H33.4399H33.4561H33.4722H33.4884H33.5045H33.5206H33.5367H33.5527H33.5688H33.5848H33.6008H33.6168H33.6327H33.6487H33.6646H33.6805H33.6964H33.7122H33.7281H33.7439H33.7597H33.7755H33.7912H33.807H33.8227H33.8384H33.8541H33.8697H33.8854H33.901H33.9166H33.9321H33.9477H33.9632H33.9787H33.9942H34.0096H34.0251H34.0405H34.0559H34.0712H34.0866H34.1019H34.1172H34.1325H34.1477H34.1629H34.1781H34.1933H34.2084H34.2236H34.2387H34.2537H34.2688H34.2838H34.2988H34.3138H34.3287H34.3436H34.3585H34.3734H34.3882H34.403H34.4178H34.4326H34.4473H34.462H34.4767H34.4914H34.506H34.5206H34.5352H34.5497H34.5642H34.5787H34.5932H34.6076H34.622H34.6364H34.6507H34.665H34.6793H34.6936H34.7078H34.722H34.7361H34.7503H34.7644H34.7785H34.7925H34.8065H34.8205H34.8345H34.8484H34.8623H34.8761H34.89H34.9038H34.9175H34.9313H34.945H34.9586H34.9723H34.9859H34.9994H35.013H35.0265H35.04H35.0534H35.0668H35.0802H35.0935H35.1068H35.1201H35.1334H35.1466H35.1597H35.1729H35.186H35.199H35.2121H35.2251H35.238H35.251H35.2639H35.2767H35.2895H35.3023H35.3151H35.3278H35.3405H35.3531H35.3657H35.3783H35.3908H35.4033H35.4158H35.4282H35.4406H35.4529H35.4652H35.4775H35.4897H35.5019H35.5141H35.5262H35.5383H35.5503H35.5623H35.5743H35.5862H35.5981H35.6099H35.6217H35.6335H35.6452H35.6569H35.6685H35.6801H35.6917H35.7032H35.7147H35.7261H35.7375H35.7489H35.7602H35.7715H35.7827H35.7939H35.8051H35.8162H35.8273H35.8383H35.8493H35.8602H35.8711H35.882H35.8928H35.9035H35.9143H35.9249H35.9356H35.9462H35.9567H35.9672H35.9777H35.9881H35.9985H36V124.5H33.5C31.7542 124.5 30.4091 124.797 29.4933 125.519C28.5166 126.288 28.228 127.372 28.228 128.435V132.632V133.632H29.228H35.4828L34.659 138.099Z" stroke="#5533E5" stroke-width="2"></path><path d="M210.14 197.965H11.8436C8.38866 197.965 5.58789 200.755 5.58789 204.196V268.592C5.58789 272.033 8.38866 274.823 11.8436 274.823H210.14C213.595 274.823 216.396 272.033 216.396 268.592V204.196C216.396 200.755 213.595 197.965 210.14 197.965Z" stroke="#BAB7EA" stroke-width="2" stroke-miterlimit="10"></path><path d="M82.2581 2.17578H7.2728C4.8774 2.17578 2.93555 4.11006 2.93555 6.49612V90.9005C2.93555 93.2865 4.8774 95.2208 7.2728 95.2208H82.2581C84.6535 95.2208 86.5954 93.2865 86.5954 90.9005V6.49612C86.5954 4.11006 84.6535 2.17578 82.2581 2.17578Z" stroke="#BAB7EA" stroke-width="2" stroke-miterlimit="10"></path><path d="M217.268 2.17578H103.05C100.125 2.17578 97.7539 4.53785 97.7539 7.4516V89.945C97.7539 92.8588 100.125 95.2208 103.05 95.2208H217.268C220.193 95.2208 222.564 92.8588 222.564 89.945V7.4516C222.564 4.53785 220.193 2.17578 217.268 2.17578Z" stroke="#BAB7EA" stroke-width="2" stroke-miterlimit="10"></path><path d="M41.4427 112.07H11.7811C8.32616 112.07 5.52539 114.86 5.52539 118.302V147.847C5.52539 151.289 8.32616 154.079 11.7811 154.079H41.4427C44.8976 154.079 47.6984 151.289 47.6984 147.847V118.302C47.6984 114.86 44.8976 112.07 41.4427 112.07Z" stroke="#BAB7EA" stroke-width="2" stroke-miterlimit="10"></path><path d="M127.829 112.07H98.1678C94.7129 112.07 91.9121 114.86 91.9121 118.302V147.847C91.9121 151.289 94.7129 154.079 98.1678 154.079H127.829C131.284 154.079 134.085 151.289 134.085 147.847V118.302C134.085 114.86 131.284 112.07 127.829 112.07Z" stroke="#BAB7EA" stroke-width="2" stroke-miterlimit="10"></path><path d="M209.939 112.07H180.277C176.822 112.07 174.021 114.86 174.021 118.302V147.847C174.021 151.289 176.822 154.079 180.277 154.079H209.939C213.394 154.079 216.194 151.289 216.194 147.847V118.302C216.194 114.86 213.394 112.07 209.939 112.07Z" stroke="#BAB7EA" stroke-width="2" stroke-miterlimit="10"></path><path d="M25.8496 155V158.419C25.8496 166.884 32.7368 173.744 41.2343 173.744H96.3098C104.807 173.744 111.694 180.604 111.694 189.069V196.623" stroke="#BAB7EA" stroke-width="2" stroke-miterlimit="10"></path><path d="M197.778 154V158.419C197.778 166.883 190.891 173.743 182.394 173.743H127.318C118.821 173.743 111.934 180.604 111.934 189.068L112 198" stroke="#BAB7EA" stroke-width="2" stroke-miterlimit="10"></path><path d="M111.682 154.441V187.265" stroke="#BAB7EA" stroke-width="2" stroke-miterlimit="10"></path><path d="M113.2 122.112C116.838 122.112 117.268 122.125 118.704 122.191C120.032 122.251 120.753 122.471 121.234 122.658C121.87 122.904 122.324 123.198 122.8 123.673C123.277 124.147 123.572 124.6 123.819 125.233C124.004 125.712 124.227 126.43 124.288 127.754C124.354 129.184 124.367 129.615 124.367 133.236C124.367 136.858 124.354 137.289 124.288 138.719C124.227 140.042 124.007 140.76 123.819 141.239C123.572 141.873 123.277 142.325 122.8 142.8C122.324 143.274 121.87 143.568 121.234 143.814C120.753 143.999 120.032 144.221 118.704 144.282C117.268 144.347 116.838 144.36 113.2 144.36C109.561 144.36 109.131 144.347 107.695 144.282C106.367 144.221 105.646 144.001 105.165 143.814C104.529 143.568 104.075 143.274 103.599 142.8C103.122 142.325 102.827 141.873 102.58 141.239C102.395 140.76 102.172 140.042 102.111 138.719C102.045 137.289 102.032 136.858 102.032 133.236C102.032 129.615 102.045 129.184 102.111 127.754C102.172 126.43 102.392 125.712 102.58 125.233C102.827 124.6 103.122 124.147 103.599 123.673C104.075 123.198 104.529 122.904 105.165 122.658C105.646 122.473 106.367 122.251 107.695 122.191C109.131 122.125 109.564 122.112 113.2 122.112ZM113.2 119.668C109.5 119.668 109.037 119.683 107.584 119.751C106.133 119.816 105.143 120.047 104.278 120.382C103.382 120.728 102.622 121.192 101.866 121.947C101.108 122.702 100.642 123.457 100.295 124.35C99.9583 125.214 99.7289 126.2 99.6612 127.643C99.5956 129.09 99.5781 129.551 99.5781 133.236C99.5781 136.921 99.5934 137.382 99.6612 138.83C99.7267 140.275 99.9583 141.261 100.295 142.123C100.642 143.015 101.108 143.773 101.866 144.526C102.624 145.281 103.382 145.745 104.278 146.091C105.146 146.426 106.135 146.654 107.584 146.722C109.037 146.787 109.5 146.804 113.2 146.804C116.899 146.804 117.362 146.789 118.815 146.722C120.266 146.656 121.256 146.426 122.121 146.091C123.017 145.745 123.777 145.281 124.533 144.526C125.291 143.77 125.757 143.015 126.104 142.123C126.441 141.259 126.67 140.273 126.738 138.83C126.803 137.382 126.821 136.921 126.821 133.236C126.821 129.551 126.806 129.09 126.738 127.643C126.672 126.197 126.441 125.211 126.104 124.35C125.757 123.457 125.291 122.7 124.533 121.947C123.775 121.192 123.017 120.728 122.121 120.382C121.253 120.047 120.264 119.818 118.815 119.751C117.362 119.685 116.899 119.668 113.2 119.668Z" fill="#5533E5"></path><path d="M113.199 126.27C109.336 126.27 106.205 129.388 106.205 133.236C106.205 137.085 109.336 140.203 113.199 140.203C117.062 140.203 120.194 137.085 120.194 133.236C120.194 129.388 117.062 126.27 113.199 126.27ZM113.199 137.759C110.691 137.759 108.659 135.735 108.659 133.236C108.659 130.738 110.691 128.714 113.199 128.714C115.708 128.714 117.74 130.738 117.74 133.236C117.74 135.735 115.708 137.759 113.199 137.759Z" fill="#5533E5"></path><path d="M120.47 127.619C121.373 127.619 122.105 126.89 122.105 125.991C122.105 125.092 121.373 124.363 120.47 124.363C119.568 124.363 118.836 125.092 118.836 125.991C118.836 126.89 119.568 127.619 120.47 127.619Z" fill="#5533E5"></path><mask id="path-14-inside-1_1738_439" fill="white"><path d="M191.361 144.377C201.231 144.377 206.625 136.233 206.625 129.172C206.625 128.942 206.621 128.711 206.61 128.482C207.657 127.727 208.568 126.787 209.287 125.716C208.325 126.14 207.292 126.428 206.206 126.558C207.314 125.897 208.164 124.85 208.566 123.603C207.528 124.214 206.381 124.66 205.159 124.9C204.18 123.862 202.786 123.211 201.244 123.211C198.281 123.211 195.877 125.605 195.877 128.554C195.877 128.974 195.925 129.381 196.017 129.773C191.558 129.549 187.605 127.422 184.959 124.19C184.498 124.98 184.231 125.897 184.231 126.876C184.231 128.731 185.179 130.367 186.619 131.325C185.739 131.299 184.913 131.057 184.19 130.657C184.19 130.678 184.19 130.702 184.19 130.724C184.19 133.312 186.04 135.473 188.494 135.963C188.044 136.085 187.57 136.15 187.08 136.15C186.735 136.15 186.399 136.115 186.071 136.054C186.755 138.179 188.735 139.722 191.083 139.765C189.246 141.2 186.934 142.053 184.419 142.053C183.986 142.053 183.558 142.029 183.139 141.979C185.514 143.494 188.332 144.38 191.363 144.38"></path></mask><path d="M206.61 128.482L205.44 126.861L204.561 127.495L204.612 128.578L206.61 128.482ZM209.287 125.716L210.947 126.831L214.796 121.098L208.479 123.886L209.287 125.716ZM206.206 126.558L205.18 124.841L206.445 128.544L206.206 126.558ZM208.566 123.603L210.469 124.216L212.084 119.208L207.55 121.88L208.566 123.603ZM205.159 124.9L203.704 126.272L204.461 127.075L205.544 126.863L205.159 124.9ZM196.017 129.773L195.917 131.771L198.57 131.904L197.964 129.317L196.017 129.773ZM184.959 124.19L186.506 122.923L184.682 120.696L183.231 123.182L184.959 124.19ZM186.619 131.325L186.56 133.324L193.548 133.531L187.727 129.66L186.619 131.325ZM184.19 130.657L185.159 128.907L182.19 127.263V130.657H184.19ZM188.494 135.963L189.017 137.893L188.886 134.002L188.494 135.963ZM186.071 136.054L186.437 134.088L183.139 133.475L184.167 136.667L186.071 136.054ZM191.083 139.765L192.314 141.342L196.762 137.87L191.12 137.766L191.083 139.765ZM183.139 141.979L183.376 139.993L182.063 143.665L183.139 141.979ZM191.361 146.377C202.558 146.377 208.625 137.1 208.625 129.172H204.625C204.625 135.365 199.903 142.377 191.361 142.377V146.377ZM208.625 129.172C208.625 128.917 208.621 128.654 208.608 128.387L204.612 128.578C204.621 128.768 204.625 128.966 204.625 129.172H208.625ZM207.78 130.104C209.018 129.211 210.095 128.1 210.947 126.831L207.626 124.601C207.04 125.474 206.296 126.243 205.44 126.861L207.78 130.104ZM208.479 123.886C207.698 124.231 206.856 124.466 205.967 124.573L206.445 128.544C207.728 128.39 208.953 128.05 210.094 127.546L208.479 123.886ZM207.231 128.275C208.747 127.37 209.915 125.936 210.469 124.216L206.662 122.989C206.412 123.764 205.881 124.423 205.18 124.841L207.231 128.275ZM207.55 121.88C206.701 122.38 205.767 122.743 204.775 122.937L205.544 126.863C206.995 126.578 208.354 126.049 209.581 125.326L207.55 121.88ZM206.614 123.528C205.273 122.105 203.359 121.211 201.244 121.211V125.211C202.213 125.211 203.088 125.618 203.704 126.272L206.614 123.528ZM201.244 121.211C197.184 121.211 193.877 124.493 193.877 128.554H197.877C197.877 126.718 199.377 125.211 201.244 125.211V121.211ZM193.877 128.554C193.877 129.128 193.943 129.688 194.07 130.229L197.964 129.317C197.908 129.075 197.877 128.821 197.877 128.554H193.877ZM196.118 127.776C192.242 127.581 188.808 125.734 186.506 122.923L183.411 125.457C186.402 129.11 190.873 131.517 195.917 131.771L196.118 127.776ZM183.231 123.182C182.599 124.266 182.231 125.528 182.231 126.876H186.231C186.231 126.265 186.396 125.695 186.686 125.198L183.231 123.182ZM182.231 126.876C182.231 129.429 183.539 131.678 185.512 132.99L187.727 129.66C186.82 129.056 186.231 128.032 186.231 126.876H182.231ZM186.679 129.326C186.13 129.31 185.614 129.16 185.159 128.907L183.221 132.406C184.211 132.955 185.348 133.288 186.56 133.324L186.679 129.326ZM182.19 130.657C182.19 130.657 182.19 130.657 182.19 130.657C182.19 130.657 182.19 130.657 182.19 130.657C182.19 130.657 182.19 130.657 182.19 130.657C182.19 130.657 182.19 130.657 182.19 130.657C182.19 130.657 182.19 130.657 182.19 130.657C182.19 130.657 182.19 130.657 182.19 130.657C182.19 130.658 182.19 130.658 182.19 130.658C182.19 130.658 182.19 130.658 182.19 130.658C182.19 130.658 182.19 130.658 182.19 130.658C182.19 130.658 182.19 130.658 182.19 130.658C182.19 130.658 182.19 130.658 182.19 130.658C182.19 130.658 182.19 130.658 182.19 130.658C182.19 130.658 182.19 130.658 182.19 130.658C182.19 130.658 182.19 130.658 182.19 130.659C182.19 130.659 182.19 130.659 182.19 130.659C182.19 130.659 182.19 130.659 182.19 130.659C182.19 130.659 182.19 130.659 182.19 130.659C182.19 130.659 182.19 130.659 182.19 130.659C182.19 130.659 182.19 130.659 182.19 130.659C182.19 130.659 182.19 130.659 182.19 130.659C182.19 130.659 182.19 130.659 182.19 130.659C182.19 130.659 182.19 130.659 182.19 130.66C182.19 130.66 182.19 130.66 182.19 130.66C182.19 130.66 182.19 130.66 182.19 130.66C182.19 130.66 182.19 130.66 182.19 130.66C182.19 130.66 182.19 130.66 182.19 130.66C182.19 130.66 182.19 130.66 182.19 130.66C182.19 130.66 182.19 130.66 182.19 130.66C182.19 130.66 182.19 130.66 182.19 130.66C182.19 130.66 182.19 130.661 182.19 130.661C182.19 130.661 182.19 130.661 182.19 130.661C182.19 130.661 182.19 130.661 182.19 130.661C182.19 130.661 182.19 130.661 182.19 130.661C182.19 130.661 182.19 130.661 182.19 130.661C182.19 130.661 182.19 130.661 182.19 130.661C182.19 130.661 182.19 130.661 182.19 130.661C182.19 130.661 182.19 130.661 182.19 130.661C182.19 130.662 182.19 130.662 182.19 130.662C182.19 130.662 182.19 130.662 182.19 130.662C182.19 130.662 182.19 130.662 182.19 130.662C182.19 130.662 182.19 130.662 182.19 130.662C182.19 130.662 182.19 130.662 182.19 130.662C182.19 130.662 182.19 130.662 182.19 130.662C182.19 130.662 182.19 130.662 182.19 130.662C182.19 130.662 182.19 130.662 182.19 130.663C182.19 130.663 182.19 130.663 182.19 130.663C182.19 130.663 182.19 130.663 182.19 130.663C182.19 130.663 182.19 130.663 182.19 130.663C182.19 130.663 182.19 130.663 182.19 130.663C182.19 130.663 182.19 130.663 182.19 130.663C182.19 130.663 182.19 130.663 182.19 130.663C182.19 130.663 182.19 130.663 182.19 130.663C182.19 130.663 182.19 130.664 182.19 130.664C182.19 130.664 182.19 130.664 182.19 130.664C182.19 130.664 182.19 130.664 182.19 130.664C182.19 130.664 182.19 130.664 182.19 130.664C182.19 130.664 182.19 130.664 182.19 130.664C182.19 130.664 182.19 130.664 182.19 130.664C182.19 130.664 182.19 130.664 182.19 130.664C182.19 130.664 182.19 130.664 182.19 130.664C182.19 130.664 182.19 130.665 182.19 130.665C182.19 130.665 182.19 130.665 182.19 130.665C182.19 130.665 182.19 130.665 182.19 130.665C182.19 130.665 182.19 130.665 182.19 130.665C182.19 130.665 182.19 130.665 182.19 130.665C182.19 130.665 182.19 130.665 182.19 130.665C182.19 130.665 182.19 130.665 182.19 130.665C182.19 130.665 182.19 130.665 182.19 130.665C182.19 130.666 182.19 130.666 182.19 130.666C182.19 130.666 182.19 130.666 182.19 130.666C182.19 130.666 182.19 130.666 182.19 130.666C182.19 130.666 182.19 130.666 182.19 130.666C182.19 130.666 182.19 130.666 182.19 130.666C182.19 130.666 182.19 130.666 182.19 130.666C182.19 130.666 182.19 130.666 182.19 130.666C182.19 130.666 182.19 130.667 182.19 130.667C182.19 130.667 182.19 130.667 182.19 130.667C182.19 130.667 182.19 130.667 182.19 130.667C182.19 130.667 182.19 130.667 182.19 130.667C182.19 130.667 182.19 130.667 182.19 130.667C182.19 130.667 182.19 130.667 182.19 130.667C182.19 130.667 182.19 130.667 182.19 130.667C182.19 130.667 182.19 130.667 182.19 130.667C182.19 130.668 182.19 130.668 182.19 130.668C182.19 130.668 182.19 130.668 182.19 130.668C182.19 130.668 182.19 130.668 182.19 130.668C182.19 130.668 182.19 130.668 182.19 130.668C182.19 130.668 182.19 130.668 182.19 130.668C182.19 130.668 182.19 130.668 182.19 130.668C182.19 130.668 182.19 130.668 182.19 130.668C182.19 130.668 182.19 130.668 182.19 130.669C182.19 130.669 182.19 130.669 182.19 130.669C182.19 130.669 182.19 130.669 182.19 130.669C182.19 130.669 182.19 130.669 182.19 130.669C182.19 130.669 182.19 130.669 182.19 130.669C182.19 130.669 182.19 130.669 182.19 130.669C182.19 130.669 182.19 130.669 182.19 130.669C182.19 130.669 182.19 130.669 182.19 130.669C182.19 130.669 182.19 130.67 182.19 130.67C182.19 130.67 182.19 130.67 182.19 130.67C182.19 130.67 182.19 130.67 182.19 130.67C182.19 130.67 182.19 130.67 182.19 130.67C182.19 130.67 182.19 130.67 182.19 130.67C182.19 130.67 182.19 130.67 182.19 130.67C182.19 130.67 182.19 130.67 182.19 130.67C182.19 130.67 182.19 130.67 182.19 130.67C182.19 130.671 182.19 130.671 182.19 130.671C182.19 130.671 182.19 130.671 182.19 130.671C182.19 130.671 182.19 130.671 182.19 130.671C182.19 130.671 182.19 130.671 182.19 130.671C182.19 130.671 182.19 130.671 182.19 130.671C182.19 130.671 182.19 130.671 182.19 130.671C182.19 130.671 182.19 130.671 182.19 130.671C182.19 130.671 182.19 130.671 182.19 130.672C182.19 130.672 182.19 130.672 182.19 130.672C182.19 130.672 182.19 130.672 182.19 130.672C182.19 130.672 182.19 130.672 182.19 130.672C182.19 130.672 182.19 130.672 182.19 130.672C182.19 130.672 182.19 130.672 182.19 130.672C182.19 130.672 182.19 130.672 182.19 130.672C182.19 130.672 182.19 130.672 182.19 130.672C182.19 130.673 182.19 130.673 182.19 130.673C182.19 130.673 182.19 130.673 182.19 130.673C182.19 130.673 182.19 130.673 182.19 130.673C182.19 130.673 182.19 130.673 182.19 130.673C182.19 130.673 182.19 130.673 182.19 130.673C182.19 130.673 182.19 130.673 182.19 130.673C182.19 130.673 182.19 130.673 182.19 130.673C182.19 130.673 182.19 130.673 182.19 130.674C182.19 130.674 182.19 130.674 182.19 130.674C182.19 130.674 182.19 130.674 182.19 130.674C182.19 130.674 182.19 130.674 182.19 130.674C182.19 130.674 182.19 130.674 182.19 130.674C182.19 130.674 182.19 130.674 182.19 130.674C182.19 130.674 182.19 130.674 182.19 130.674C182.19 130.674 182.19 130.674 182.19 130.674C182.19 130.674 182.19 130.675 182.19 130.675C182.19 130.675 182.19 130.675 182.19 130.675C182.19 130.675 182.19 130.675 182.19 130.675C182.19 130.675 182.19 130.675 182.19 130.675C182.19 130.675 182.19 130.675 182.19 130.675C182.19 130.675 182.19 130.675 182.19 130.675C182.19 130.675 182.19 130.675 182.19 130.675C182.19 130.675 182.19 130.675 182.19 130.676C182.19 130.676 182.19 130.676 182.19 130.676C182.19 130.676 182.19 130.676 182.19 130.676C182.19 130.676 182.19 130.676 182.19 130.676C182.19 130.676 182.19 130.676 182.19 130.676C182.19 130.676 182.19 130.676 182.19 130.676C182.19 130.676 182.19 130.676 182.19 130.676C182.19 130.676 182.19 130.676 182.19 130.676C182.19 130.676 182.19 130.677 182.19 130.677C182.19 130.677 182.19 130.677 182.19 130.677C182.19 130.677 182.19 130.677 182.19 130.677C182.19 130.677 182.19 130.677 182.19 130.677C182.19 130.677 182.19 130.677 182.19 130.677C182.19 130.677 182.19 130.677 182.19 130.677C182.19 130.677 182.19 130.677 182.19 130.677C182.19 130.677 182.19 130.677 182.19 130.677C182.19 130.678 182.19 130.678 182.19 130.678C182.19 130.678 182.19 130.678 182.19 130.678C182.19 130.678 182.19 130.678 182.19 130.678C182.19 130.678 182.19 130.678 182.19 130.678C182.19 130.678 182.19 130.678 182.19 130.678C182.19 130.678 182.19 130.678 182.19 130.678C182.19 130.678 182.19 130.678 182.19 130.678C182.19 130.678 182.19 130.679 182.19 130.679C182.19 130.679 182.19 130.679 182.19 130.679C182.19 130.679 182.19 130.679 182.19 130.679C182.19 130.679 182.19 130.679 182.19 130.679C182.19 130.679 182.19 130.679 182.19 130.679C182.19 130.679 182.19 130.679 182.19 130.679C182.19 130.679 182.19 130.679 182.19 130.679C182.19 130.679 182.19 130.679 182.19 130.679C182.19 130.68 182.19 130.68 182.19 130.68C182.19 130.68 182.19 130.68 182.19 130.68C182.19 130.68 182.19 130.68 182.19 130.68C182.19 130.68 182.19 130.68 182.19 130.68C182.19 130.68 182.19 130.68 182.19 130.68C182.19 130.68 182.19 130.68 182.19 130.68C182.19 130.68 182.19 130.68 182.19 130.68C182.19 130.68 182.19 130.681 182.19 130.681C182.19 130.681 182.19 130.681 182.19 130.681C182.19 130.681 182.19 130.681 182.19 130.681C182.19 130.681 182.19 130.681 182.19 130.681C182.19 130.681 182.19 130.681 182.19 130.681C182.19 130.681 182.19 130.681 182.19 130.681C182.19 130.681 182.19 130.681 182.19 130.681C182.19 130.681 182.19 130.681 182.19 130.681C182.19 130.682 182.19 130.682 182.19 130.682C182.19 130.682 182.19 130.682 182.19 130.682C182.19 130.682 182.19 130.682 182.19 130.682C182.19 130.682 182.19 130.682 182.19 130.682C182.19 130.682 182.19 130.682 182.19 130.682C182.19 130.682 182.19 130.682 182.19 130.682C182.19 130.682 182.19 130.682 182.19 130.682C182.19 130.682 182.19 130.683 182.19 130.683C182.19 130.683 182.19 130.683 182.19 130.683C182.19 130.683 182.19 130.683 182.19 130.683C182.19 130.683 182.19 130.683 182.19 130.683C182.19 130.683 182.19 130.683 182.19 130.683C182.19 130.683 182.19 130.683 182.19 130.683C182.19 130.683 182.19 130.683 182.19 130.683C182.19 130.683 182.19 130.683 182.19 130.683C182.19 130.684 182.19 130.684 182.19 130.684C182.19 130.684 182.19 130.684 182.19 130.684C182.19 130.684 182.19 130.684 182.19 130.684C182.19 130.684 182.19 130.684 182.19 130.684C182.19 130.684 182.19 130.684 182.19 130.684C182.19 130.684 182.19 130.684 182.19 130.684C182.19 130.684 182.19 130.684 182.19 130.684C182.19 130.684 182.19 130.685 182.19 130.685C182.19 130.685 182.19 130.685 182.19 130.685C182.19 130.685 182.19 130.685 182.19 130.685C182.19 130.685 182.19 130.685 182.19 130.685C182.19 130.685 182.19 130.685 182.19 130.685C182.19 130.685 182.19 130.685 182.19 130.685C182.19 130.685 182.19 130.685 182.19 130.685C182.19 130.685 182.19 130.685 182.19 130.686C182.19 130.686 182.19 130.686 182.19 130.686C182.19 130.686 182.19 130.686 182.19 130.686C182.19 130.686 182.19 130.686 182.19 130.686C182.19 130.686 182.19 130.686 182.19 130.686C182.19 130.686 182.19 130.686 182.19 130.686C182.19 130.686 182.19 130.686 182.19 130.686C182.19 130.686 182.19 130.686 182.19 130.686C182.19 130.686 182.19 130.687 182.19 130.687C182.19 130.687 182.19 130.687 182.19 130.687C182.19 130.687 182.19 130.687 182.19 130.687C182.19 130.687 182.19 130.687 182.19 130.687C182.19 130.687 182.19 130.687 182.19 130.687C182.19 130.687 182.19 130.687 182.19 130.687C182.19 130.687 182.19 130.687 182.19 130.687C182.19 130.687 182.19 130.687 182.19 130.688C182.19 130.688 182.19 130.688 182.19 130.688C182.19 130.688 182.19 130.688 182.19 130.688C182.19 130.688 182.19 130.688 182.19 130.688C182.19 130.688 182.19 130.688 182.19 130.688C182.19 130.688 182.19 130.688 182.19 130.688C182.19 130.688 182.19 130.688 182.19 130.688C182.19 130.688 182.19 130.688 182.19 130.688C182.19 130.688 182.19 130.689 182.19 130.689C182.19 130.689 182.19 130.689 182.19 130.689C182.19 130.689 182.19 130.689 182.19 130.689C182.19 130.689 182.19 130.689 182.19 130.689C182.19 130.689 182.19 130.689 182.19 130.689C182.19 130.689 182.19 130.689 182.19 130.689C182.19 130.689 182.19 130.689 182.19 130.689C182.19 130.689 182.19 130.689 182.19 130.69C182.19 130.69 182.19 130.69 182.19 130.69C182.19 130.69 182.19 130.69 182.19 130.69C182.19 130.69 182.19 130.69 182.19 130.69C182.19 130.69 182.19 130.69 182.19 130.69C182.19 130.69 182.19 130.69 182.19 130.69C182.19 130.69 182.19 130.69 182.19 130.69C182.19 130.69 182.19 130.69 182.19 130.69C182.19 130.691 182.19 130.691 182.19 130.691C182.19 130.691 182.19 130.691 182.19 130.691C182.19 130.691 182.19 130.691 182.19 130.691C182.19 130.691 182.19 130.691 182.19 130.691C182.19 130.691 182.19 130.691 182.19 130.691C182.19 130.691 182.19 130.691 182.19 130.691C182.19 130.691 182.19 130.691 182.19 130.691C182.19 130.691 182.19 130.691 182.19 130.692C182.19 130.692 182.19 130.692 182.19 130.692C182.19 130.692 182.19 130.692 182.19 130.692C182.19 130.692 182.19 130.692 182.19 130.692C182.19 130.692 182.19 130.692 182.19 130.692C182.19 130.692 182.19 130.692 182.19 130.692C182.19 130.692 182.19 130.692 182.19 130.692C182.19 130.692 182.19 130.692 182.19 130.692C182.19 130.693 182.19 130.693 182.19 130.693C182.19 130.693 182.19 130.693 182.19 130.693C182.19 130.693 182.19 130.693 182.19 130.693C182.19 130.693 182.19 130.693 182.19 130.693C182.19 130.693 182.19 130.693 182.19 130.693C182.19 130.693 182.19 130.693 182.19 130.693C182.19 130.693 182.19 130.693 182.19 130.693C182.19 130.693 182.19 130.693 182.19 130.694C182.19 130.694 182.19 130.694 182.19 130.694C182.19 130.694 182.19 130.694 182.19 130.694C182.19 130.694 182.19 130.694 182.19 130.694C182.19 130.694 182.19 130.694 182.19 130.694C182.19 130.694 182.19 130.694 182.19 130.694C182.19 130.694 182.19 130.694 182.19 130.694C182.19 130.694 182.19 130.694 182.19 130.694C182.19 130.695 182.19 130.695 182.19 130.695C182.19 130.695 182.19 130.695 182.19 130.695C182.19 130.695 182.19 130.695 182.19 130.695C182.19 130.695 182.19 130.695 182.19 130.695C182.19 130.695 182.19 130.695 182.19 130.695C182.19 130.695 182.19 130.695 182.19 130.695C182.19 130.695 182.19 130.695 182.19 130.695C182.19 130.695 182.19 130.695 182.19 130.696C182.19 130.696 182.19 130.696 182.19 130.696C182.19 130.696 182.19 130.696 182.19 130.696C182.19 130.696 182.19 130.696 182.19 130.696C182.19 130.696 182.19 130.696 182.19 130.696C182.19 130.696 182.19 130.696 182.19 130.696C182.19 130.696 182.19 130.696 182.19 130.696C182.19 130.696 182.19 130.696 182.19 130.696C182.19 130.697 182.19 130.697 182.19 130.697C182.19 130.697 182.19 130.697 182.19 130.697C182.19 130.697 182.19 130.697 182.19 130.697C182.19 130.697 182.19 130.697 182.19 130.697C182.19 130.697 182.19 130.697 182.19 130.697C182.19 130.697 182.19 130.697 182.19 130.697C182.19 130.697 182.19 130.697 182.19 130.697C182.19 130.697 182.19 130.698 182.19 130.698C182.19 130.698 182.19 130.698 182.19 130.698C182.19 130.698 182.19 130.698 182.19 130.698C182.19 130.698 182.19 130.698 182.19 130.698C182.19 130.698 182.19 130.698 182.19 130.698C182.19 130.698 182.19 130.698 182.19 130.698C182.19 130.698 182.19 130.698 182.19 130.698C182.19 130.698 182.19 130.698 182.19 130.698C182.19 130.699 182.19 130.699 182.19 130.699C182.19 130.699 182.19 130.699 182.19 130.699C182.19 130.699 182.19 130.699 182.19 130.699C182.19 130.699 182.19 130.699 182.19 130.699C182.19 130.699 182.19 130.699 182.19 130.699C182.19 130.699 182.19 130.699 182.19 130.699C182.19 130.699 182.19 130.699 182.19 130.699C182.19 130.699 182.19 130.7 182.19 130.7C182.19 130.7 182.19 130.7 182.19 130.7C182.19 130.7 182.19 130.7 182.19 130.7C182.19 130.7 182.19 130.7 182.19 130.7C182.19 130.7 182.19 130.7 182.19 130.7C182.19 130.7 182.19 130.7 182.19 130.7C182.19 130.7 182.19 130.7 182.19 130.7C182.19 130.7 182.19 130.7 182.19 130.7C182.19 130.701 182.19 130.701 182.19 130.701C182.19 130.701 182.19 130.701 182.19 130.701C182.19 130.701 182.19 130.701 182.19 130.701C182.19 130.701 182.19 130.701 182.19 130.701C182.19 130.701 182.19 130.701 182.19 130.701C182.19 130.701 182.19 130.701 182.19 130.701C182.19 130.701 182.19 130.701 182.19 130.701C182.19 130.701 182.19 130.702 182.19 130.702C182.19 130.702 182.19 130.702 182.19 130.702C182.19 130.702 182.19 130.702 182.19 130.702C182.19 130.702 182.19 130.702 182.19 130.702C182.19 130.702 182.19 130.702 182.19 130.702C182.19 130.702 182.19 130.702 182.19 130.702C182.19 130.702 182.19 130.702 182.19 130.702C182.19 130.702 182.19 130.702 182.19 130.702C182.19 130.703 182.19 130.703 182.19 130.703C182.19 130.703 182.19 130.703 182.19 130.703C182.19 130.703 182.19 130.703 182.19 130.703C182.19 130.703 182.19 130.703 182.19 130.703C182.19 130.703 182.19 130.703 182.19 130.703C182.19 130.703 182.19 130.703 182.19 130.703C182.19 130.703 182.19 130.703 182.19 130.703C182.19 130.703 182.19 130.704 182.19 130.704C182.19 130.704 182.19 130.704 182.19 130.704C182.19 130.704 182.19 130.704 182.19 130.704C182.19 130.704 182.19 130.704 182.19 130.704C182.19 130.704 182.19 130.704 182.19 130.704C182.19 130.704 182.19 130.704 182.19 130.704C182.19 130.704 182.19 130.704 182.19 130.704C182.19 130.704 182.19 130.704 182.19 130.704C182.19 130.705 182.19 130.705 182.19 130.705C182.19 130.705 182.19 130.705 182.19 130.705C182.19 130.705 182.19 130.705 182.19 130.705C182.19 130.705 182.19 130.705 182.19 130.705C182.19 130.705 182.19 130.705 182.19 130.705C182.19 130.705 182.19 130.705 182.19 130.705C182.19 130.705 182.19 130.705 182.19 130.705C182.19 130.705 182.19 130.705 182.19 130.706C182.19 130.706 182.19 130.706 182.19 130.706C182.19 130.706 182.19 130.706 182.19 130.706C182.19 130.706 182.19 130.706 182.19 130.706C182.19 130.706 182.19 130.706 182.19 130.706C182.19 130.706 182.19 130.706 182.19 130.706C182.19 130.706 182.19 130.706 182.19 130.706C182.19 130.706 182.19 130.706 182.19 130.706C182.19 130.707 182.19 130.707 182.19 130.707C182.19 130.707 182.19 130.707 182.19 130.707C182.19 130.707 182.19 130.707 182.19 130.707C182.19 130.707 182.19 130.707 182.19 130.707C182.19 130.707 182.19 130.707 182.19 130.707C182.19 130.707 182.19 130.707 182.19 130.707C182.19 130.707 182.19 130.707 182.19 130.707C182.19 130.707 182.19 130.707 182.19 130.708C182.19 130.708 182.19 130.708 182.19 130.708C182.19 130.708 182.19 130.708 182.19 130.708C182.19 130.708 182.19 130.708 182.19 130.708C182.19 130.708 182.19 130.708 182.19 130.708C182.19 130.708 182.19 130.708 182.19 130.708C182.19 130.708 182.19 130.708 182.19 130.708C182.19 130.708 182.19 130.708 182.19 130.708C182.19 130.708 182.19 130.709 182.19 130.709C182.19 130.709 182.19 130.709 182.19 130.709C182.19 130.709 182.19 130.709 182.19 130.709C182.19 130.709 182.19 130.709 182.19 130.709C182.19 130.709 182.19 130.709 182.19 130.709C182.19 130.709 182.19 130.709 182.19 130.709C182.19 130.709 182.19 130.709 182.19 130.709C182.19 130.709 182.19 130.709 182.19 130.71C182.19 130.71 182.19 130.71 182.19 130.71C182.19 130.71 182.19 130.71 182.19 130.71C182.19 130.71 182.19 130.71 182.19 130.71C182.19 130.71 182.19 130.71 182.19 130.71C182.19 130.71 182.19 130.71 182.19 130.71C182.19 130.71 182.19 130.71 182.19 130.71C182.19 130.71 182.19 130.71 182.19 130.71C182.19 130.71 182.19 130.711 182.19 130.711C182.19 130.711 182.19 130.711 182.19 130.711C182.19 130.711 182.19 130.711 182.19 130.711C182.19 130.711 182.19 130.711 182.19 130.711C182.19 130.711 182.19 130.711 182.19 130.711C182.19 130.711 182.19 130.711 182.19 130.711C182.19 130.711 182.19 130.711 182.19 130.711C182.19 130.711 182.19 130.711 182.19 130.711C182.19 130.712 182.19 130.712 182.19 130.712C182.19 130.712 182.19 130.712 182.19 130.712C182.19 130.712 182.19 130.712 182.19 130.712C182.19 130.712 182.19 130.712 182.19 130.712C182.19 130.712 182.19 130.712 182.19 130.712C182.19 130.712 182.19 130.712 182.19 130.712C182.19 130.712 182.19 130.712 182.19 130.712C182.19 130.712 182.19 130.712 182.19 130.713C182.19 130.713 182.19 130.713 182.19 130.713C182.19 130.713 182.19 130.713 182.19 130.713C182.19 130.713 182.19 130.713 182.19 130.713C182.19 130.713 182.19 130.713 182.19 130.713C182.19 130.713 182.19 130.713 182.19 130.713C182.19 130.713 182.19 130.713 182.19 130.713C182.19 130.713 182.19 130.713 182.19 130.713C182.19 130.713 182.19 130.714 182.19 130.714C182.19 130.714 182.19 130.714 182.19 130.714C182.19 130.714 182.19 130.714 182.19 130.714C182.19 130.714 182.19 130.714 182.19 130.714C182.19 130.714 182.19 130.714 182.19 130.714C182.19 130.714 182.19 130.714 182.19 130.714C182.19 130.714 182.19 130.714 182.19 130.714C182.19 130.714 182.19 130.714 182.19 130.715C182.19 130.715 182.19 130.715 182.19 130.715C182.19 130.715 182.19 130.715 182.19 130.715C182.19 130.715 182.19 130.715 182.19 130.715C182.19 130.715 182.19 130.715 182.19 130.715C182.19 130.715 182.19 130.715 182.19 130.715C182.19 130.715 182.19 130.715 182.19 130.715C182.19 130.715 182.19 130.715 182.19 130.715C182.19 130.715 182.19 130.716 182.19 130.716C182.19 130.716 182.19 130.716 182.19 130.716C182.19 130.716 182.19 130.716 182.19 130.716C182.19 130.716 182.19 130.716 182.19 130.716C182.19 130.716 182.19 130.716 182.19 130.716C182.19 130.716 182.19 130.716 182.19 130.716C182.19 130.716 182.19 130.716 182.19 130.716C182.19 130.716 182.19 130.716 182.19 130.716C182.19 130.717 182.19 130.717 182.19 130.717C182.19 130.717 182.19 130.717 182.19 130.717C182.19 130.717 182.19 130.717 182.19 130.717C182.19 130.717 182.19 130.717 182.19 130.717C182.19 130.717 182.19 130.717 182.19 130.717C182.19 130.717 182.19 130.717 182.19 130.717C182.19 130.717 182.19 130.717 182.19 130.717C182.19 130.717 182.19 130.717 182.19 130.717C182.19 130.718 182.19 130.718 182.19 130.718C182.19 130.718 182.19 130.718 182.19 130.718C182.19 130.718 182.19 130.718 182.19 130.718C182.19 130.718 182.19 130.718 182.19 130.718C182.19 130.718 182.19 130.718 182.19 130.718C182.19 130.718 182.19 130.718 182.19 130.718C182.19 130.718 182.19 130.718 182.19 130.718C182.19 130.718 182.19 130.718 182.19 130.719C182.19 130.719 182.19 130.719 182.19 130.719C182.19 130.719 182.19 130.719 182.19 130.719C182.19 130.719 182.19 130.719 182.19 130.719C182.19 130.719 182.19 130.719 182.19 130.719C182.19 130.719 182.19 130.719 182.19 130.719C182.19 130.719 182.19 130.719 182.19 130.719C182.19 130.719 182.19 130.719 182.19 130.719C182.19 130.719 182.19 130.72 182.19 130.72C182.19 130.72 182.19 130.72 182.19 130.72C182.19 130.72 182.19 130.72 182.19 130.72C182.19 130.72 182.19 130.72 182.19 130.72C182.19 130.72 182.19 130.72 182.19 130.72C182.19 130.72 182.19 130.72 182.19 130.72C182.19 130.72 182.19 130.72 182.19 130.72C182.19 130.72 182.19 130.72 182.19 130.72C182.19 130.721 182.19 130.721 182.19 130.721C182.19 130.721 182.19 130.721 182.19 130.721C182.19 130.721 182.19 130.721 182.19 130.721C182.19 130.721 182.19 130.721 182.19 130.721C182.19 130.721 182.19 130.721 182.19 130.721C182.19 130.721 182.19 130.721 182.19 130.721C182.19 130.721 182.19 130.721 182.19 130.721C182.19 130.721 182.19 130.721 182.19 130.722C182.19 130.722 182.19 130.722 182.19 130.722C182.19 130.722 182.19 130.722 182.19 130.722C182.19 130.722 182.19 130.722 182.19 130.722C182.19 130.722 182.19 130.722 182.19 130.722C182.19 130.722 182.19 130.722 182.19 130.722C182.19 130.722 182.19 130.722 182.19 130.722C182.19 130.722 182.19 130.722 182.19 130.722C182.19 130.722 182.19 130.722 182.19 130.723C182.19 130.723 182.19 130.723 182.19 130.723C182.19 130.723 182.19 130.723 182.19 130.723C182.19 130.723 182.19 130.723 182.19 130.723C182.19 130.723 182.19 130.723 182.19 130.723C182.19 130.723 182.19 130.723 182.19 130.723C182.19 130.723 182.19 130.723 182.19 130.723C182.19 130.723 182.19 130.723 182.19 130.723C182.19 130.723 182.19 130.724 182.19 130.724C182.19 130.724 182.19 130.724 182.19 130.724C182.19 130.724 182.19 130.724 182.19 130.724C182.19 130.724 182.19 130.724 182.19 130.724C182.19 130.724 182.19 130.724 182.19 130.724C182.19 130.724 182.19 130.724 182.19 130.724H186.19C186.19 130.724 186.19 130.724 186.19 130.724C186.19 130.724 186.19 130.724 186.19 130.724C186.19 130.724 186.19 130.724 186.19 130.724C186.19 130.724 186.19 130.724 186.19 130.724C186.19 130.724 186.19 130.724 186.19 130.724C186.19 130.724 186.19 130.723 186.19 130.723C186.19 130.723 186.19 130.723 186.19 130.723C186.19 130.723 186.19 130.723 186.19 130.723C186.19 130.723 186.19 130.723 186.19 130.723C186.19 130.723 186.19 130.723 186.19 130.723C186.19 130.723 186.19 130.723 186.19 130.723C186.19 130.723 186.19 130.723 186.19 130.723C186.19 130.723 186.19 130.723 186.19 130.723C186.19 130.722 186.19 130.722 186.19 130.722C186.19 130.722 186.19 130.722 186.19 130.722C186.19 130.722 186.19 130.722 186.19 130.722C186.19 130.722 186.19 130.722 186.19 130.722C186.19 130.722 186.19 130.722 186.19 130.722C186.19 130.722 186.19 130.722 186.19 130.722C186.19 130.722 186.19 130.722 186.19 130.722C186.19 130.722 186.19 130.722 186.19 130.722C186.19 130.721 186.19 130.721 186.19 130.721C186.19 130.721 186.19 130.721 186.19 130.721C186.19 130.721 186.19 130.721 186.19 130.721C186.19 130.721 186.19 130.721 186.19 130.721C186.19 130.721 186.19 130.721 186.19 130.721C186.19 130.721 186.19 130.721 186.19 130.721C186.19 130.721 186.19 130.721 186.19 130.721C186.19 130.721 186.19 130.721 186.19 130.72C186.19 130.72 186.19 130.72 186.19 130.72C186.19 130.72 186.19 130.72 186.19 130.72C186.19 130.72 186.19 130.72 186.19 130.72C186.19 130.72 186.19 130.72 186.19 130.72C186.19 130.72 186.19 130.72 186.19 130.72C186.19 130.72 186.19 130.72 186.19 130.72C186.19 130.72 186.19 130.72 186.19 130.72C186.19 130.72 186.19 130.719 186.19 130.719C186.19 130.719 186.19 130.719 186.19 130.719C186.19 130.719 186.19 130.719 186.19 130.719C186.19 130.719 186.19 130.719 186.19 130.719C186.19 130.719 186.19 130.719 186.19 130.719C186.19 130.719 186.19 130.719 186.19 130.719C186.19 130.719 186.19 130.719 186.19 130.719C186.19 130.719 186.19 130.719 186.19 130.719C186.19 130.718 186.19 130.718 186.19 130.718C186.19 130.718 186.19 130.718 186.19 130.718C186.19 130.718 186.19 130.718 186.19 130.718C186.19 130.718 186.19 130.718 186.19 130.718C186.19 130.718 186.19 130.718 186.19 130.718C186.19 130.718 186.19 130.718 186.19 130.718C186.19 130.718 186.19 130.718 186.19 130.718C186.19 130.718 186.19 130.718 186.19 130.717C186.19 130.717 186.19 130.717 186.19 130.717C186.19 130.717 186.19 130.717 186.19 130.717C186.19 130.717 186.19 130.717 186.19 130.717C186.19 130.717 186.19 130.717 186.19 130.717C186.19 130.717 186.19 130.717 186.19 130.717C186.19 130.717 186.19 130.717 186.19 130.717C186.19 130.717 186.19 130.717 186.19 130.717C186.19 130.717 186.19 130.717 186.19 130.716C186.19 130.716 186.19 130.716 186.19 130.716C186.19 130.716 186.19 130.716 186.19 130.716C186.19 130.716 186.19 130.716 186.19 130.716C186.19 130.716 186.19 130.716 186.19 130.716C186.19 130.716 186.19 130.716 186.19 130.716C186.19 130.716 186.19 130.716 186.19 130.716C186.19 130.716 186.19 130.716 186.19 130.716C186.19 130.716 186.19 130.715 186.19 130.715C186.19 130.715 186.19 130.715 186.19 130.715C186.19 130.715 186.19 130.715 186.19 130.715C186.19 130.715 186.19 130.715 186.19 130.715C186.19 130.715 186.19 130.715 186.19 130.715C186.19 130.715 186.19 130.715 186.19 130.715C186.19 130.715 186.19 130.715 186.19 130.715C186.19 130.715 186.19 130.715 186.19 130.715C186.19 130.714 186.19 130.714 186.19 130.714C186.19 130.714 186.19 130.714 186.19 130.714C186.19 130.714 186.19 130.714 186.19 130.714C186.19 130.714 186.19 130.714 186.19 130.714C186.19 130.714 186.19 130.714 186.19 130.714C186.19 130.714 186.19 130.714 186.19 130.714C186.19 130.714 186.19 130.714 186.19 130.714C186.19 130.714 186.19 130.713 186.19 130.713C186.19 130.713 186.19 130.713 186.19 130.713C186.19 130.713 186.19 130.713 186.19 130.713C186.19 130.713 186.19 130.713 186.19 130.713C186.19 130.713 186.19 130.713 186.19 130.713C186.19 130.713 186.19 130.713 186.19 130.713C186.19 130.713 186.19 130.713 186.19 130.713C186.19 130.713 186.19 130.713 186.19 130.713C186.19 130.712 186.19 130.712 186.19 130.712C186.19 130.712 186.19 130.712 186.19 130.712C186.19 130.712 186.19 130.712 186.19 130.712C186.19 130.712 186.19 130.712 186.19 130.712C186.19 130.712 186.19 130.712 186.19 130.712C186.19 130.712 186.19 130.712 186.19 130.712C186.19 130.712 186.19 130.712 186.19 130.712C186.19 130.712 186.19 130.712 186.19 130.711C186.19 130.711 186.19 130.711 186.19 130.711C186.19 130.711 186.19 130.711 186.19 130.711C186.19 130.711 186.19 130.711 186.19 130.711C186.19 130.711 186.19 130.711 186.19 130.711C186.19 130.711 186.19 130.711 186.19 130.711C186.19 130.711 186.19 130.711 186.19 130.711C186.19 130.711 186.19 130.711 186.19 130.711C186.19 130.711 186.19 130.71 186.19 130.71C186.19 130.71 186.19 130.71 186.19 130.71C186.19 130.71 186.19 130.71 186.19 130.71C186.19 130.71 186.19 130.71 186.19 130.71C186.19 130.71 186.19 130.71 186.19 130.71C186.19 130.71 186.19 130.71 186.19 130.71C186.19 130.71 186.19 130.71 186.19 130.71C186.19 130.71 186.19 130.71 186.19 130.71C186.19 130.709 186.19 130.709 186.19 130.709C186.19 130.709 186.19 130.709 186.19 130.709C186.19 130.709 186.19 130.709 186.19 130.709C186.19 130.709 186.19 130.709 186.19 130.709C186.19 130.709 186.19 130.709 186.19 130.709C186.19 130.709 186.19 130.709 186.19 130.709C186.19 130.709 186.19 130.709 186.19 130.709C186.19 130.709 186.19 130.708 186.19 130.708C186.19 130.708 186.19 130.708 186.19 130.708C186.19 130.708 186.19 130.708 186.19 130.708C186.19 130.708 186.19 130.708 186.19 130.708C186.19 130.708 186.19 130.708 186.19 130.708C186.19 130.708 186.19 130.708 186.19 130.708C186.19 130.708 186.19 130.708 186.19 130.708C186.19 130.708 186.19 130.708 186.19 130.708C186.19 130.707 186.19 130.707 186.19 130.707C186.19 130.707 186.19 130.707 186.19 130.707C186.19 130.707 186.19 130.707 186.19 130.707C186.19 130.707 186.19 130.707 186.19 130.707C186.19 130.707 186.19 130.707 186.19 130.707C186.19 130.707 186.19 130.707 186.19 130.707C186.19 130.707 186.19 130.707 186.19 130.707C186.19 130.707 186.19 130.707 186.19 130.706C186.19 130.706 186.19 130.706 186.19 130.706C186.19 130.706 186.19 130.706 186.19 130.706C186.19 130.706 186.19 130.706 186.19 130.706C186.19 130.706 186.19 130.706 186.19 130.706C186.19 130.706 186.19 130.706 186.19 130.706C186.19 130.706 186.19 130.706 186.19 130.706C186.19 130.706 186.19 130.706 186.19 130.706C186.19 130.705 186.19 130.705 186.19 130.705C186.19 130.705 186.19 130.705 186.19 130.705C186.19 130.705 186.19 130.705 186.19 130.705C186.19 130.705 186.19 130.705 186.19 130.705C186.19 130.705 186.19 130.705 186.19 130.705C186.19 130.705 186.19 130.705 186.19 130.705C186.19 130.705 186.19 130.705 186.19 130.705C186.19 130.705 186.19 130.705 186.19 130.704C186.19 130.704 186.19 130.704 186.19 130.704C186.19 130.704 186.19 130.704 186.19 130.704C186.19 130.704 186.19 130.704 186.19 130.704C186.19 130.704 186.19 130.704 186.19 130.704C186.19 130.704 186.19 130.704 186.19 130.704C186.19 130.704 186.19 130.704 186.19 130.704C186.19 130.704 186.19 130.704 186.19 130.704C186.19 130.704 186.19 130.703 186.19 130.703C186.19 130.703 186.19 130.703 186.19 130.703C186.19 130.703 186.19 130.703 186.19 130.703C186.19 130.703 186.19 130.703 186.19 130.703C186.19 130.703 186.19 130.703 186.19 130.703C186.19 130.703 186.19 130.703 186.19 130.703C186.19 130.703 186.19 130.703 186.19 130.703C186.19 130.703 186.19 130.703 186.19 130.702C186.19 130.702 186.19 130.702 186.19 130.702C186.19 130.702 186.19 130.702 186.19 130.702C186.19 130.702 186.19 130.702 186.19 130.702C186.19 130.702 186.19 130.702 186.19 130.702C186.19 130.702 186.19 130.702 186.19 130.702C186.19 130.702 186.19 130.702 186.19 130.702C186.19 130.702 186.19 130.702 186.19 130.702C186.19 130.702 186.19 130.701 186.19 130.701C186.19 130.701 186.19 130.701 186.19 130.701C186.19 130.701 186.19 130.701 186.19 130.701C186.19 130.701 186.19 130.701 186.19 130.701C186.19 130.701 186.19 130.701 186.19 130.701C186.19 130.701 186.19 130.701 186.19 130.701C186.19 130.701 186.19 130.701 186.19 130.701C186.19 130.701 186.19 130.701 186.19 130.7C186.19 130.7 186.19 130.7 186.19 130.7C186.19 130.7 186.19 130.7 186.19 130.7C186.19 130.7 186.19 130.7 186.19 130.7C186.19 130.7 186.19 130.7 186.19 130.7C186.19 130.7 186.19 130.7 186.19 130.7C186.19 130.7 186.19 130.7 186.19 130.7C186.19 130.7 186.19 130.7 186.19 130.7C186.19 130.7 186.19 130.699 186.19 130.699C186.19 130.699 186.19 130.699 186.19 130.699C186.19 130.699 186.19 130.699 186.19 130.699C186.19 130.699 186.19 130.699 186.19 130.699C186.19 130.699 186.19 130.699 186.19 130.699C186.19 130.699 186.19 130.699 186.19 130.699C186.19 130.699 186.19 130.699 186.19 130.699C186.19 130.699 186.19 130.699 186.19 130.698C186.19 130.698 186.19 130.698 186.19 130.698C186.19 130.698 186.19 130.698 186.19 130.698C186.19 130.698 186.19 130.698 186.19 130.698C186.19 130.698 186.19 130.698 186.19 130.698C186.19 130.698 186.19 130.698 186.19 130.698C186.19 130.698 186.19 130.698 186.19 130.698C186.19 130.698 186.19 130.698 186.19 130.698C186.19 130.698 186.19 130.697 186.19 130.697C186.19 130.697 186.19 130.697 186.19 130.697C186.19 130.697 186.19 130.697 186.19 130.697C186.19 130.697 186.19 130.697 186.19 130.697C186.19 130.697 186.19 130.697 186.19 130.697C186.19 130.697 186.19 130.697 186.19 130.697C186.19 130.697 186.19 130.697 186.19 130.697C186.19 130.697 186.19 130.697 186.19 130.696C186.19 130.696 186.19 130.696 186.19 130.696C186.19 130.696 186.19 130.696 186.19 130.696C186.19 130.696 186.19 130.696 186.19 130.696C186.19 130.696 186.19 130.696 186.19 130.696C186.19 130.696 186.19 130.696 186.19 130.696C186.19 130.696 186.19 130.696 186.19 130.696C186.19 130.696 186.19 130.696 186.19 130.696C186.19 130.695 186.19 130.695 186.19 130.695C186.19 130.695 186.19 130.695 186.19 130.695C186.19 130.695 186.19 130.695 186.19 130.695C186.19 130.695 186.19 130.695 186.19 130.695C186.19 130.695 186.19 130.695 186.19 130.695C186.19 130.695 186.19 130.695 186.19 130.695C186.19 130.695 186.19 130.695 186.19 130.695C186.19 130.695 186.19 130.695 186.19 130.694C186.19 130.694 186.19 130.694 186.19 130.694C186.19 130.694 186.19 130.694 186.19 130.694C186.19 130.694 186.19 130.694 186.19 130.694C186.19 130.694 186.19 130.694 186.19 130.694C186.19 130.694 186.19 130.694 186.19 130.694C186.19 130.694 186.19 130.694 186.19 130.694C186.19 130.694 186.19 130.694 186.19 130.694C186.19 130.693 186.19 130.693 186.19 130.693C186.19 130.693 186.19 130.693 186.19 130.693C186.19 130.693 186.19 130.693 186.19 130.693C186.19 130.693 186.19 130.693 186.19 130.693C186.19 130.693 186.19 130.693 186.19 130.693C186.19 130.693 186.19 130.693 186.19 130.693C186.19 130.693 186.19 130.693 186.19 130.693C186.19 130.693 186.19 130.693 186.19 130.692C186.19 130.692 186.19 130.692 186.19 130.692C186.19 130.692 186.19 130.692 186.19 130.692C186.19 130.692 186.19 130.692 186.19 130.692C186.19 130.692 186.19 130.692 186.19 130.692C186.19 130.692 186.19 130.692 186.19 130.692C186.19 130.692 186.19 130.692 186.19 130.692C186.19 130.692 186.19 130.692 186.19 130.692C186.19 130.691 186.19 130.691 186.19 130.691C186.19 130.691 186.19 130.691 186.19 130.691C186.19 130.691 186.19 130.691 186.19 130.691C186.19 130.691 186.19 130.691 186.19 130.691C186.19 130.691 186.19 130.691 186.19 130.691C186.19 130.691 186.19 130.691 186.19 130.691C186.19 130.691 186.19 130.691 186.19 130.691C186.19 130.691 186.19 130.691 186.19 130.69C186.19 130.69 186.19 130.69 186.19 130.69C186.19 130.69 186.19 130.69 186.19 130.69C186.19 130.69 186.19 130.69 186.19 130.69C186.19 130.69 186.19 130.69 186.19 130.69C186.19 130.69 186.19 130.69 186.19 130.69C186.19 130.69 186.19 130.69 186.19 130.69C186.19 130.69 186.19 130.69 186.19 130.69C186.19 130.689 186.19 130.689 186.19 130.689C186.19 130.689 186.19 130.689 186.19 130.689C186.19 130.689 186.19 130.689 186.19 130.689C186.19 130.689 186.19 130.689 186.19 130.689C186.19 130.689 186.19 130.689 186.19 130.689C186.19 130.689 186.19 130.689 186.19 130.689C186.19 130.689 186.19 130.689 186.19 130.689C186.19 130.689 186.19 130.688 186.19 130.688C186.19 130.688 186.19 130.688 186.19 130.688C186.19 130.688 186.19 130.688 186.19 130.688C186.19 130.688 186.19 130.688 186.19 130.688C186.19 130.688 186.19 130.688 186.19 130.688C186.19 130.688 186.19 130.688 186.19 130.688C186.19 130.688 186.19 130.688 186.19 130.688C186.19 130.688 186.19 130.688 186.19 130.688C186.19 130.687 186.19 130.687 186.19 130.687C186.19 130.687 186.19 130.687 186.19 130.687C186.19 130.687 186.19 130.687 186.19 130.687C186.19 130.687 186.19 130.687 186.19 130.687C186.19 130.687 186.19 130.687 186.19 130.687C186.19 130.687 186.19 130.687 186.19 130.687C186.19 130.687 186.19 130.687 186.19 130.687C186.19 130.687 186.19 130.686 186.19 130.686C186.19 130.686 186.19 130.686 186.19 130.686C186.19 130.686 186.19 130.686 186.19 130.686C186.19 130.686 186.19 130.686 186.19 130.686C186.19 130.686 186.19 130.686 186.19 130.686C186.19 130.686 186.19 130.686 186.19 130.686C186.19 130.686 186.19 130.686 186.19 130.686C186.19 130.686 186.19 130.686 186.19 130.686C186.19 130.685 186.19 130.685 186.19 130.685C186.19 130.685 186.19 130.685 186.19 130.685C186.19 130.685 186.19 130.685 186.19 130.685C186.19 130.685 186.19 130.685 186.19 130.685C186.19 130.685 186.19 130.685 186.19 130.685C186.19 130.685 186.19 130.685 186.19 130.685C186.19 130.685 186.19 130.685 186.19 130.685C186.19 130.685 186.19 130.684 186.19 130.684C186.19 130.684 186.19 130.684 186.19 130.684C186.19 130.684 186.19 130.684 186.19 130.684C186.19 130.684 186.19 130.684 186.19 130.684C186.19 130.684 186.19 130.684 186.19 130.684C186.19 130.684 186.19 130.684 186.19 130.684C186.19 130.684 186.19 130.684 186.19 130.684C186.19 130.684 186.19 130.684 186.19 130.683C186.19 130.683 186.19 130.683 186.19 130.683C186.19 130.683 186.19 130.683 186.19 130.683C186.19 130.683 186.19 130.683 186.19 130.683C186.19 130.683 186.19 130.683 186.19 130.683C186.19 130.683 186.19 130.683 186.19 130.683C186.19 130.683 186.19 130.683 186.19 130.683C186.19 130.683 186.19 130.683 186.19 130.683C186.19 130.683 186.19 130.682 186.19 130.682C186.19 130.682 186.19 130.682 186.19 130.682C186.19 130.682 186.19 130.682 186.19 130.682C186.19 130.682 186.19 130.682 186.19 130.682C186.19 130.682 186.19 130.682 186.19 130.682C186.19 130.682 186.19 130.682 186.19 130.682C186.19 130.682 186.19 130.682 186.19 130.682C186.19 130.682 186.19 130.682 186.19 130.681C186.19 130.681 186.19 130.681 186.19 130.681C186.19 130.681 186.19 130.681 186.19 130.681C186.19 130.681 186.19 130.681 186.19 130.681C186.19 130.681 186.19 130.681 186.19 130.681C186.19 130.681 186.19 130.681 186.19 130.681C186.19 130.681 186.19 130.681 186.19 130.681C186.19 130.681 186.19 130.681 186.19 130.681C186.19 130.681 186.19 130.68 186.19 130.68C186.19 130.68 186.19 130.68 186.19 130.68C186.19 130.68 186.19 130.68 186.19 130.68C186.19 130.68 186.19 130.68 186.19 130.68C186.19 130.68 186.19 130.68 186.19 130.68C186.19 130.68 186.19 130.68 186.19 130.68C186.19 130.68 186.19 130.68 186.19 130.68C186.19 130.68 186.19 130.68 186.19 130.679C186.19 130.679 186.19 130.679 186.19 130.679C186.19 130.679 186.19 130.679 186.19 130.679C186.19 130.679 186.19 130.679 186.19 130.679C186.19 130.679 186.19 130.679 186.19 130.679C186.19 130.679 186.19 130.679 186.19 130.679C186.19 130.679 186.19 130.679 186.19 130.679C186.19 130.679 186.19 130.679 186.19 130.679C186.19 130.679 186.19 130.678 186.19 130.678C186.19 130.678 186.19 130.678 186.19 130.678C186.19 130.678 186.19 130.678 186.19 130.678C186.19 130.678 186.19 130.678 186.19 130.678C186.19 130.678 186.19 130.678 186.19 130.678C186.19 130.678 186.19 130.678 186.19 130.678C186.19 130.678 186.19 130.678 186.19 130.678C186.19 130.678 186.19 130.678 186.19 130.677C186.19 130.677 186.19 130.677 186.19 130.677C186.19 130.677 186.19 130.677 186.19 130.677C186.19 130.677 186.19 130.677 186.19 130.677C186.19 130.677 186.19 130.677 186.19 130.677C186.19 130.677 186.19 130.677 186.19 130.677C186.19 130.677 186.19 130.677 186.19 130.677C186.19 130.677 186.19 130.677 186.19 130.677C186.19 130.677 186.19 130.676 186.19 130.676C186.19 130.676 186.19 130.676 186.19 130.676C186.19 130.676 186.19 130.676 186.19 130.676C186.19 130.676 186.19 130.676 186.19 130.676C186.19 130.676 186.19 130.676 186.19 130.676C186.19 130.676 186.19 130.676 186.19 130.676C186.19 130.676 186.19 130.676 186.19 130.676C186.19 130.676 186.19 130.676 186.19 130.676C186.19 130.675 186.19 130.675 186.19 130.675C186.19 130.675 186.19 130.675 186.19 130.675C186.19 130.675 186.19 130.675 186.19 130.675C186.19 130.675 186.19 130.675 186.19 130.675C186.19 130.675 186.19 130.675 186.19 130.675C186.19 130.675 186.19 130.675 186.19 130.675C186.19 130.675 186.19 130.675 186.19 130.675C186.19 130.675 186.19 130.674 186.19 130.674C186.19 130.674 186.19 130.674 186.19 130.674C186.19 130.674 186.19 130.674 186.19 130.674C186.19 130.674 186.19 130.674 186.19 130.674C186.19 130.674 186.19 130.674 186.19 130.674C186.19 130.674 186.19 130.674 186.19 130.674C186.19 130.674 186.19 130.674 186.19 130.674C186.19 130.674 186.19 130.674 186.19 130.674C186.19 130.673 186.19 130.673 186.19 130.673C186.19 130.673 186.19 130.673 186.19 130.673C186.19 130.673 186.19 130.673 186.19 130.673C186.19 130.673 186.19 130.673 186.19 130.673C186.19 130.673 186.19 130.673 186.19 130.673C186.19 130.673 186.19 130.673 186.19 130.673C186.19 130.673 186.19 130.673 186.19 130.673C186.19 130.673 186.19 130.673 186.19 130.672C186.19 130.672 186.19 130.672 186.19 130.672C186.19 130.672 186.19 130.672 186.19 130.672C186.19 130.672 186.19 130.672 186.19 130.672C186.19 130.672 186.19 130.672 186.19 130.672C186.19 130.672 186.19 130.672 186.19 130.672C186.19 130.672 186.19 130.672 186.19 130.672C186.19 130.672 186.19 130.672 186.19 130.672C186.19 130.671 186.19 130.671 186.19 130.671C186.19 130.671 186.19 130.671 186.19 130.671C186.19 130.671 186.19 130.671 186.19 130.671C186.19 130.671 186.19 130.671 186.19 130.671C186.19 130.671 186.19 130.671 186.19 130.671C186.19 130.671 186.19 130.671 186.19 130.671C186.19 130.671 186.19 130.671 186.19 130.671C186.19 130.671 186.19 130.671 186.19 130.67C186.19 130.67 186.19 130.67 186.19 130.67C186.19 130.67 186.19 130.67 186.19 130.67C186.19 130.67 186.19 130.67 186.19 130.67C186.19 130.67 186.19 130.67 186.19 130.67C186.19 130.67 186.19 130.67 186.19 130.67C186.19 130.67 186.19 130.67 186.19 130.67C186.19 130.67 186.19 130.67 186.19 130.67C186.19 130.67 186.19 130.669 186.19 130.669C186.19 130.669 186.19 130.669 186.19 130.669C186.19 130.669 186.19 130.669 186.19 130.669C186.19 130.669 186.19 130.669 186.19 130.669C186.19 130.669 186.19 130.669 186.19 130.669C186.19 130.669 186.19 130.669 186.19 130.669C186.19 130.669 186.19 130.669 186.19 130.669C186.19 130.669 186.19 130.669 186.19 130.669C186.19 130.668 186.19 130.668 186.19 130.668C186.19 130.668 186.19 130.668 186.19 130.668C186.19 130.668 186.19 130.668 186.19 130.668C186.19 130.668 186.19 130.668 186.19 130.668C186.19 130.668 186.19 130.668 186.19 130.668C186.19 130.668 186.19 130.668 186.19 130.668C186.19 130.668 186.19 130.668 186.19 130.668C186.19 130.668 186.19 130.668 186.19 130.667C186.19 130.667 186.19 130.667 186.19 130.667C186.19 130.667 186.19 130.667 186.19 130.667C186.19 130.667 186.19 130.667 186.19 130.667C186.19 130.667 186.19 130.667 186.19 130.667C186.19 130.667 186.19 130.667 186.19 130.667C186.19 130.667 186.19 130.667 186.19 130.667C186.19 130.667 186.19 130.667 186.19 130.667C186.19 130.667 186.19 130.666 186.19 130.666C186.19 130.666 186.19 130.666 186.19 130.666C186.19 130.666 186.19 130.666 186.19 130.666C186.19 130.666 186.19 130.666 186.19 130.666C186.19 130.666 186.19 130.666 186.19 130.666C186.19 130.666 186.19 130.666 186.19 130.666C186.19 130.666 186.19 130.666 186.19 130.666C186.19 130.666 186.19 130.666 186.19 130.665C186.19 130.665 186.19 130.665 186.19 130.665C186.19 130.665 186.19 130.665 186.19 130.665C186.19 130.665 186.19 130.665 186.19 130.665C186.19 130.665 186.19 130.665 186.19 130.665C186.19 130.665 186.19 130.665 186.19 130.665C186.19 130.665 186.19 130.665 186.19 130.665C186.19 130.665 186.19 130.665 186.19 130.665C186.19 130.665 186.19 130.664 186.19 130.664C186.19 130.664 186.19 130.664 186.19 130.664C186.19 130.664 186.19 130.664 186.19 130.664C186.19 130.664 186.19 130.664 186.19 130.664C186.19 130.664 186.19 130.664 186.19 130.664C186.19 130.664 186.19 130.664 186.19 130.664C186.19 130.664 186.19 130.664 186.19 130.664C186.19 130.664 186.19 130.664 186.19 130.664C186.19 130.664 186.19 130.663 186.19 130.663C186.19 130.663 186.19 130.663 186.19 130.663C186.19 130.663 186.19 130.663 186.19 130.663C186.19 130.663 186.19 130.663 186.19 130.663C186.19 130.663 186.19 130.663 186.19 130.663C186.19 130.663 186.19 130.663 186.19 130.663C186.19 130.663 186.19 130.663 186.19 130.663C186.19 130.663 186.19 130.663 186.19 130.663C186.19 130.662 186.19 130.662 186.19 130.662C186.19 130.662 186.19 130.662 186.19 130.662C186.19 130.662 186.19 130.662 186.19 130.662C186.19 130.662 186.19 130.662 186.19 130.662C186.19 130.662 186.19 130.662 186.19 130.662C186.19 130.662 186.19 130.662 186.19 130.662C186.19 130.662 186.19 130.662 186.19 130.662C186.19 130.662 186.19 130.662 186.19 130.661C186.19 130.661 186.19 130.661 186.19 130.661C186.19 130.661 186.19 130.661 186.19 130.661C186.19 130.661 186.19 130.661 186.19 130.661C186.19 130.661 186.19 130.661 186.19 130.661C186.19 130.661 186.19 130.661 186.19 130.661C186.19 130.661 186.19 130.661 186.19 130.661C186.19 130.661 186.19 130.661 186.19 130.661C186.19 130.661 186.19 130.66 186.19 130.66C186.19 130.66 186.19 130.66 186.19 130.66C186.19 130.66 186.19 130.66 186.19 130.66C186.19 130.66 186.19 130.66 186.19 130.66C186.19 130.66 186.19 130.66 186.19 130.66C186.19 130.66 186.19 130.66 186.19 130.66C186.19 130.66 186.19 130.66 186.19 130.66C186.19 130.66 186.19 130.66 186.19 130.66C186.19 130.659 186.19 130.659 186.19 130.659C186.19 130.659 186.19 130.659 186.19 130.659C186.19 130.659 186.19 130.659 186.19 130.659C186.19 130.659 186.19 130.659 186.19 130.659C186.19 130.659 186.19 130.659 186.19 130.659C186.19 130.659 186.19 130.659 186.19 130.659C186.19 130.659 186.19 130.659 186.19 130.659C186.19 130.659 186.19 130.659 186.19 130.659C186.19 130.658 186.19 130.658 186.19 130.658C186.19 130.658 186.19 130.658 186.19 130.658C186.19 130.658 186.19 130.658 186.19 130.658C186.19 130.658 186.19 130.658 186.19 130.658C186.19 130.658 186.19 130.658 186.19 130.658C186.19 130.658 186.19 130.658 186.19 130.658C186.19 130.658 186.19 130.658 186.19 130.658C186.19 130.658 186.19 130.658 186.19 130.657C186.19 130.657 186.19 130.657 186.19 130.657C186.19 130.657 186.19 130.657 186.19 130.657C186.19 130.657 186.19 130.657 186.19 130.657C186.19 130.657 186.19 130.657 186.19 130.657C186.19 130.657 186.19 130.657 186.19 130.657C186.19 130.657 186.19 130.657 186.19 130.657H182.19ZM182.19 130.724C182.19 134.289 184.737 137.253 188.103 137.924L188.886 134.002C187.344 133.694 186.19 132.335 186.19 130.724H182.19ZM187.971 134.033C187.69 134.109 187.391 134.15 187.08 134.15V138.15C187.748 138.15 188.398 138.061 189.017 137.893L187.971 134.033ZM187.08 134.15C186.87 134.15 186.657 134.129 186.437 134.088L185.705 138.021C186.141 138.102 186.6 138.15 187.08 138.15V134.15ZM184.167 136.667C185.108 139.588 187.825 141.705 191.046 141.765L191.12 137.766C189.644 137.738 188.402 136.769 187.975 135.441L184.167 136.667ZM189.853 138.189C188.355 139.358 186.474 140.053 184.419 140.053V144.053C187.395 144.053 190.137 143.042 192.314 141.342L189.853 138.189ZM184.419 140.053C184.06 140.053 183.711 140.033 183.376 139.993L182.902 143.965C183.405 144.025 183.913 144.053 184.419 144.053V140.053ZM182.063 143.665C184.747 145.377 187.937 146.38 191.363 146.38V142.38C188.728 142.38 186.281 141.611 184.214 140.293L182.063 143.665Z" fill="#5533E5" mask="url(#path-14-inside-1_1738_439)"></path><path d="M193.5 135L189 134H188.5V137L193.5 135Z" fill="#5533E5"></path><path d="M85.5377 239.806C85.5384 239.806 85.539 239.805 85.5397 239.804C85.539 239.805 85.5384 239.806 85.5377 239.806ZM85.5377 239.806C85.5377 239.806 85.5376 239.806 85.5376 239.806L85.8316 240.128L85.5377 239.806ZM84.9961 224.421L85.8795 226.077L86.7612 224.42C87.4089 223.203 88.809 222.312 90.4909 222.312H90.4931C92.118 222.312 93.2902 223.087 94.0232 224.246C94.7753 225.436 95.067 227.048 94.7895 228.619C94.4962 230.279 93.5957 231.844 92.4494 233.241C90.2911 235.869 88.2853 237.516 86.8228 238.717C86.4568 239.018 86.1249 239.291 85.833 239.544C85.5484 239.297 85.2239 239.027 84.8645 238.728C83.4035 237.514 81.364 235.82 79.0688 233.212L79.0686 233.212C77.4216 231.343 76.3223 228.41 76.8443 226.094L76.8445 226.094C77.3058 224.042 79.2527 222.312 81.2658 222.312C82.945 222.312 84.346 223.202 84.9961 224.421Z" stroke="#EE2E20" stroke-width="2"></path><path d="M126.485 237.369V236.369H125.485H125.291C123.788 236.369 122.576 235.156 122.576 233.669V224.802C122.576 223.314 123.788 222.102 125.291 222.102H136.513H136.515C138.018 222.102 139.23 223.314 139.23 224.802V233.669C139.23 235.156 138.018 236.369 136.515 236.369H132.759H132.505L132.281 236.49L126.485 239.645V237.369Z" stroke="#EE2E20" stroke-width="2"></path><path d="M43.1201 226.801L43.4865 225.525C43.9534 223.898 44.0005 222.766 43.8494 221.92C43.7009 221.089 43.3462 220.452 42.8574 219.831L42.8569 219.83C42.5573 219.448 42.1874 219.358 41.8128 219.372C41.7874 219.373 41.7623 219.375 41.7375 219.377V221.409C41.7375 222.17 41.5588 222.925 41.2073 223.609L41.2072 223.609C39.5829 226.767 37.8167 228.418 36.9819 229.077L37.0643 237.058L38.4693 237.977H48.621C48.7682 237.977 48.9324 237.896 49.1203 237.642C49.2073 237.525 49.2744 237.402 49.32 237.305C49.3231 237.298 49.3261 237.292 49.3289 237.286L49.3697 236.297C49.3698 236.297 49.3698 236.296 49.3698 236.295C49.3861 235.877 49.5613 235.434 49.9337 235.118L49.9366 235.115C50.0621 235.01 50.2084 234.793 50.3371 234.522C50.3898 234.411 50.4311 234.309 50.4603 234.232L50.4421 233.34C50.4421 233.339 50.4421 233.339 50.4421 233.338L50.4421 233.337L51.4419 233.316C51.4375 233.131 51.5402 232.97 51.6866 232.855C51.9116 232.676 52.0515 232.295 52.0515 232.295L43.1201 226.801ZM43.1201 226.801H44.4476H49.7095C49.7159 226.802 49.7227 226.804 49.7297 226.806C49.8081 226.827 49.9231 226.86 50.0586 226.908C50.3376 227.008 50.6644 227.156 50.9371 227.359C51.2087 227.562 51.3723 227.776 51.4388 228.001C51.5002 228.208 51.5213 228.564 51.2358 229.149L52.1345 229.588M43.1201 226.801L51.0456 232.081M51.0456 232.081C51.0419 232.087 51.0389 232.091 51.0368 232.094L51.0456 232.081ZM51.0456 232.081L50.9972 230.201L50.9971 230.197C50.9888 229.807 51.089 229.449 51.2365 229.148L52.1345 229.588M52.1345 229.588C53.6138 226.556 49.825 225.801 49.825 225.801L51.9969 230.176C51.9925 229.971 52.0449 229.771 52.1345 229.588ZM51.1154 231.944C51.1158 231.943 51.1157 231.943 51.1153 231.944L51.1154 231.944ZM41.1367 219.513C41.1367 219.513 41.1373 219.513 41.1386 219.513L41.1373 219.513C41.1369 219.513 41.1367 219.513 41.1367 219.513Z" stroke="#EE2E20" stroke-width="2"></path><path d="M29.9316 237.979V227.91H33.805V237.979H29.9316Z" stroke="#EE2E20" stroke-width="2"></path><path d="M167.288 238.008C167.45 232.684 169.327 229.905 171.14 228.429C172.232 227.541 173.358 227.075 174.212 226.833C174.639 226.712 174.993 226.647 175.235 226.614C175.356 226.597 175.448 226.587 175.506 226.583C175.535 226.58 175.556 226.579 175.567 226.578L175.577 226.578L175.577 226.578L175.577 226.578L176.539 226.545V225.578V222.783L187.144 229.986L176.539 237.189V234.354V233.354H175.539C172.33 233.354 169.791 235.284 168.13 237.047C167.824 237.371 167.543 237.695 167.288 238.008Z" stroke="#EE2E20" stroke-width="2"></path><path d="M24.7969 250.548V247.832H29.2412V257.378H26.1865V250.548H24.7969Z" fill="#EE2E20"></path><path d="M31.28 248.918C31.9224 248.056 32.9122 247.625 34.2494 247.625C35.5867 247.625 36.5655 248.058 37.2123 248.924C37.8591 249.791 38.1825 250.972 38.1825 252.47C38.1825 253.967 37.8591 255.162 37.2123 256.028C36.5655 256.895 35.5779 257.328 34.2494 257.328C32.9209 257.328 31.9224 256.895 31.28 256.028C30.6376 255.162 30.3164 253.976 30.3164 252.47C30.3164 250.964 30.6376 249.78 31.28 248.918ZM35.1016 250.896C34.9617 250.544 34.6777 250.367 34.2494 250.367C33.8212 250.367 33.524 250.544 33.3842 250.896C33.2443 251.249 33.1744 251.773 33.1744 252.47C33.1744 253.166 33.2443 253.704 33.3842 254.057C33.524 254.409 33.8124 254.585 34.2494 254.585C34.6864 254.585 34.9617 254.409 35.1016 254.057C35.2414 253.704 35.3113 253.175 35.3113 252.47C35.3113 251.765 35.2414 251.249 35.1016 250.896Z" fill="#EE2E20"></path><path d="M40.0766 248.448C40.6578 247.899 41.4815 247.625 42.5478 247.625C43.2383 247.625 43.8282 247.743 44.3177 247.978C44.8071 248.213 45.1764 248.53 45.4255 248.931C45.6746 249.331 45.7991 249.784 45.7991 250.289C45.7991 250.898 45.6549 251.375 45.3665 251.719C45.0781 252.063 44.7547 252.296 44.3964 252.418V252.47C45.4452 252.862 45.9696 253.589 45.9696 254.651C45.9696 255.208 45.8385 255.7 45.5763 256.126C45.3141 256.553 44.9404 256.884 44.4553 257.119C43.9703 257.354 43.3956 257.471 42.7314 257.471C41.5952 257.471 40.7037 257.202 40.0569 256.662C39.4101 256.122 39.078 255.278 39.0605 254.128H41.8923C41.8748 254.442 41.9207 254.679 42.03 254.84C42.1392 255.001 42.3293 255.082 42.6003 255.082C42.7576 255.082 42.8887 255.023 42.9936 254.905C43.0985 254.788 43.1509 254.633 43.1509 254.442C43.1509 254.198 43.07 254.013 42.9084 253.887C42.7467 253.761 42.4735 253.697 42.089 253.697H41.6039V251.36H42.0759C42.6702 251.395 42.9674 251.16 42.9674 250.655C42.9674 250.437 42.9215 250.276 42.8297 250.172C42.7379 250.067 42.6221 250.015 42.4823 250.015C42.1589 250.015 41.9972 250.285 41.9972 250.824H39.1654C39.1916 249.788 39.4954 248.996 40.0766 248.448Z" fill="#EE2E20"></path><path d="M47.3203 255.943V253.527L51.2271 247.977H54.3604V253.435H55.3044V255.943H54.3604V257.379H51.4238V255.943H47.3203ZM51.6598 251.28L50.2439 253.435H51.6598V251.28Z" fill="#EE2E20"></path><path d="M75.8852 248.448C76.4664 247.899 77.2901 247.625 78.3564 247.625C79.0469 247.625 79.6368 247.743 80.1263 247.978C80.6157 248.213 80.985 248.53 81.2341 248.931C81.4832 249.331 81.6077 249.784 81.6077 250.289C81.6077 250.898 81.4635 251.375 81.1751 251.719C80.8867 252.063 80.5633 252.296 80.2049 252.418V252.47C81.2538 252.862 81.7782 253.589 81.7782 254.651C81.7782 255.208 81.6471 255.7 81.3849 256.126C81.1227 256.553 80.749 256.884 80.2639 257.119C79.7789 257.354 79.2042 257.471 78.54 257.471C77.4038 257.471 76.5123 257.202 75.8655 256.662C75.2187 256.122 74.8866 255.278 74.8691 254.128H77.7009C77.6834 254.442 77.7293 254.679 77.8386 254.84C77.9478 255.001 78.1379 255.082 78.4089 255.082C78.5662 255.082 78.6973 255.023 78.8022 254.905C78.907 254.788 78.9595 254.633 78.9595 254.442C78.9595 254.198 78.8786 254.013 78.717 253.887C78.5553 253.761 78.2821 253.697 77.8976 253.697H77.4125V251.36H77.8845C78.4788 251.395 78.7759 251.16 78.7759 250.655C78.7759 250.437 78.7301 250.276 78.6383 250.172C78.5465 250.067 78.4307 250.015 78.2909 250.015C77.9675 250.015 77.8058 250.285 77.8058 250.824H74.974C75.0002 249.788 75.304 248.996 75.8852 248.448Z" fill="#EE2E20"></path><path d="M82.5781 250.548V247.832H87.0224V257.378H83.9678V250.548H82.5781Z" fill="#EE2E20"></path><path d="M90.8245 252.698C91.5063 251.989 91.8471 251.325 91.8471 250.707C91.8471 250.498 91.8012 250.337 91.7095 250.224C91.6177 250.111 91.4975 250.054 91.3489 250.054C91.1741 250.054 91.0365 250.143 90.936 250.322C90.8355 250.5 90.7983 250.772 90.8245 251.138H88.0059C88.0321 250.328 88.2091 249.662 88.5368 249.14C88.8646 248.617 89.2906 248.234 89.8151 247.991C90.3395 247.747 90.9163 247.625 91.5456 247.625C92.6643 247.625 93.4837 247.893 94.0037 248.428C94.5238 248.964 94.7838 249.649 94.7838 250.485C94.7838 251.364 94.5019 252.189 93.9382 252.96C93.3744 253.73 92.6687 254.381 91.8209 254.912H94.8231V257.249H88.0452V255.069C89.2164 254.198 90.1428 253.408 90.8245 252.698Z" fill="#EE2E20"></path><path d="M120.855 255.943V253.527L124.762 247.977H127.896V253.435H128.84V255.943H127.896V257.379H124.959V255.943H120.855ZM125.195 251.28L123.779 253.435H125.195V251.28Z" fill="#EE2E20"></path><path d="M137.06 250.379H133.258V251.475C133.424 251.327 133.64 251.21 133.907 251.123C134.173 251.036 134.473 250.992 134.805 250.992C135.399 250.992 135.902 251.132 136.312 251.41C136.723 251.689 137.029 252.061 137.23 252.527C137.431 252.992 137.532 253.508 137.532 254.074C137.532 255.119 137.237 255.931 136.647 256.51C136.057 257.089 135.246 257.378 134.215 257.378C133.463 257.378 132.814 257.248 132.268 256.986C131.722 256.725 131.307 256.364 131.022 255.902C130.738 255.441 130.605 254.914 130.623 254.322H133.454C133.454 254.462 133.502 254.592 133.599 254.714C133.695 254.836 133.852 254.897 134.071 254.897C134.289 254.897 134.451 254.819 134.556 254.662C134.661 254.505 134.713 254.292 134.713 254.022C134.713 253.769 134.654 253.578 134.536 253.447C134.418 253.317 134.25 253.251 134.031 253.251C133.848 253.251 133.708 253.295 133.612 253.382C133.516 253.469 133.468 253.569 133.468 253.682H130.636V247.832H137.06V250.379Z" fill="#EE2E20"></path><path d="M170.512 250.548V247.832H174.956V257.378H171.901V250.548H170.512Z" fill="#EE2E20"></path><path d="M183.269 250.379H179.467V251.475C179.633 251.327 179.849 251.21 180.116 251.123C180.382 251.036 180.682 250.992 181.014 250.992C181.608 250.992 182.111 251.132 182.521 251.41C182.932 251.689 183.238 252.061 183.439 252.527C183.64 252.992 183.741 253.508 183.741 254.074C183.741 255.119 183.446 255.931 182.856 256.51C182.266 257.089 181.455 257.378 180.424 257.378C179.672 257.378 179.023 257.248 178.477 256.986C177.931 256.725 177.516 256.364 177.231 255.902C176.947 255.441 176.814 254.914 176.832 254.322H179.663C179.663 254.462 179.711 254.592 179.808 254.714C179.904 254.836 180.061 254.897 180.28 254.897C180.498 254.897 180.66 254.819 180.765 254.662C180.87 254.505 180.922 254.292 180.922 254.022C180.922 253.769 180.863 253.578 180.745 253.447C180.627 253.317 180.459 253.251 180.24 253.251C180.057 253.251 179.917 253.295 179.821 253.382C179.725 253.469 179.676 253.569 179.676 253.682H176.845V247.832H183.269V250.379Z" fill="#EE2E20"></path><path d="M77.8804 9.20703H11.1777C10.0732 9.20703 9.17773 10.1025 9.17773 11.207V56.5176C9.17773 57.6222 10.0732 58.5176 11.1777 58.5176H77.8804C78.985 58.5176 79.8804 57.6222 79.8804 56.5176V11.207C79.8804 10.1025 78.985 9.20703 77.8804 9.20703Z" stroke="#BAB7EA" stroke-width="2" stroke-miterlimit="10"></path><g clip-path="url(#clip0_1738_439)"><path d="M37.6941 48.3703C28.942 46.2724 23.5295 37.4455 25.6274 28.6937C27.7262 19.9419 36.5534 14.5295 45.3054 16.6274C54.0574 18.7252 59.47 27.5522 57.3721 36.3039C55.2742 45.0557 46.4461 50.4681 37.695 48.3703H37.6941ZM45.0413 17.7276C36.8963 15.7746 28.6798 20.8121 26.7277 28.9578C24.7746 37.1026 29.8131 45.3179 37.9581 47.2709C46.1031 49.2239 54.3188 44.1856 56.2718 36.0408C58.2248 27.896 53.1864 19.6806 45.0413 17.7276Z" fill="#F2CFCE"></path><path d="M56.0874 37.3862C56.0902 37.3688 56.1241 35.5808 52.439 32.809C47.6096 29.5614 40.4383 25.5802 33.6714 25.0383C29.6526 24.7165 27.6592 25.7829 27.639 25.7939L27.2539 24.9412C27.3428 24.8907 29.3161 23.5832 33.6283 23.9014C40.6804 24.4213 48.0992 28.5271 53.0817 31.8793L53.1056 31.8967C57.4133 35.1325 56.8494 37.3229 56.7907 37.5696L56.0489 37.4348L56.0856 37.3871L56.0874 37.3862Z" fill="#F2CFCE"></path><path d="M56.9329 30.9371L56.8265 30.8985C55.1367 30.2916 51.1801 28.8704 47.9397 23.3864C44.9249 18.2839 38.1003 17.5164 38.0352 17.5091L38.5514 16.7188C38.8375 16.7472 45.6016 17.2065 48.9135 22.8106C51.9467 27.9434 55.5007 29.2206 57.2089 29.834L57.3162 29.8725L56.9329 30.9361V30.9371Z" fill="#F2CFCE"></path><path d="M49.7623 46.3129L49.1727 45.8288C52.3186 42.5225 52.5268 38.6357 51.0102 36.9358C49.3368 35.0598 47.9321 34.0109 40.4803 35.9951C32.7956 38.0416 26.6953 37.066 26.4395 37.0229L26.6247 35.9071C26.7017 35.9199 32.7625 36.879 40.1896 34.9021C43.9224 33.9082 46.3825 33.6029 48.1641 33.9128C49.9823 34.2291 50.9469 35.1671 51.8538 36.183C52.8816 37.3347 53.2502 39.0227 52.8917 40.9344C52.535 42.836 51.3421 44.6542 49.7632 46.3138L49.7623 46.3129ZM26.5311 36.4636L26.6238 35.9061L26.4633 35.8851L26.5311 36.4636Z" fill="#F2CFCE"></path><path d="M33.416 46.4667L33.4591 45.6324L33.4435 46.0716L33.4573 45.6076C33.4894 45.6085 36.7344 45.5948 40.5579 44.1186C45.6523 42.1509 49.3191 38.4833 51.4546 33.2167C54.386 26.108 52.7172 21.9618 52.6989 21.9214L53.36 21.6445C53.4452 21.8288 55.6183 26.0869 52.5017 33.6449C49.6822 40.5959 44.6474 43.7601 40.921 45.1904C36.8902 46.7372 33.5554 46.4713 33.416 46.4667Z" fill="#F2CFCE"></path></g><path d="M81.6207 67.3594H7.43945" stroke="#BAB7EA" stroke-width="2" stroke-miterlimit="10"></path><path d="M214.66 54.6367H104.299" stroke="#BAB7EA" stroke-width="2" stroke-miterlimit="10"></path><path d="M214.66 62.8555H104.299" stroke="#BAB7EA" stroke-width="2" stroke-miterlimit="10"></path><path d="M27.1602 112.2V95.5039" stroke="#BAB7EA" stroke-width="2" stroke-miterlimit="10"></path><path d="M112.352 111.605V95.2969" stroke="#BAB7EA" stroke-width="2" stroke-miterlimit="10"></path><path d="M198.352 112.086V95.2422" stroke="#BAB7EA" stroke-width="2" stroke-miterlimit="10"></path><path d="M86.0234 29.1484H97.4074" stroke="#BAB7EA" stroke-width="2" stroke-miterlimit="10"></path><path d="M86.0234 48.4258H97.4074" stroke="#BAB7EA" stroke-width="2" stroke-miterlimit="10"></path><path d="M209.155 70.9219H154.42C152.59 70.9219 151.107 72.3991 151.107 74.2214V83.4606C151.107 85.2829 152.59 86.7602 154.42 86.7602H209.155C210.984 86.7602 212.467 85.2829 212.467 83.4606V74.2214C212.467 72.3991 210.984 70.9219 209.155 70.9219Z" stroke="#EE2E20" stroke-width="2" stroke-miterlimit="10"></path><path d="M76.4376 75.3633H12.8405C11.1294 75.3633 9.74219 76.745 9.74219 78.4495V84.4567C9.74219 86.1612 11.1294 87.5429 12.8405 87.5429H76.4376C78.1487 87.5429 79.5359 86.1612 79.5359 84.4567V78.4495C79.5359 76.745 78.1487 75.3633 76.4376 75.3633Z" stroke="#5533E5" stroke-width="2" stroke-miterlimit="10"></path><path d="M210.197 10.5586H108.788C107.534 10.5586 106.518 11.571 106.518 12.82V44.2202C106.518 45.4691 107.534 46.4816 108.788 46.4816H210.197C211.45 46.4816 212.467 45.4691 212.467 44.2202V12.82C212.467 11.571 211.45 10.5586 210.197 10.5586Z" stroke="#BAB7EA" stroke-width="2" stroke-miterlimit="10"></path><path d="M107.5 46L211.708 11.1406" stroke="#BAB7EA" stroke-width="2" stroke-miterlimit="10"></path><path d="M107.5 12L212 45.5" stroke="#BAB7EA" stroke-width="2" stroke-miterlimit="10"></path><path d="M44 178C46.2091 178 48 176.209 48 174C48 171.791 46.2091 170 44 170C41.7909 170 40 171.791 40 174C40 176.209 41.7909 178 44 178Z" fill="#EE2E20" stroke="#EE2E20" stroke-width="2.66665" stroke-miterlimit="10"></path><path d="M112 192C114.209 192 116 190.209 116 188C116 185.791 114.209 184 112 184C109.791 184 108 185.791 108 188C108 190.209 109.791 192 112 192Z" fill="#5533E5" stroke="#5533E5" stroke-width="2.66665" stroke-miterlimit="10"></path><path d="M196 170C198.209 170 200 168.209 200 166C200 163.791 198.209 162 196 162C193.791 162 192 163.791 192 166C192 168.209 193.791 170 196 170Z" fill="#EE2E20" stroke="#EE2E20" stroke-width="2.66665" stroke-miterlimit="10"></path><defs><clipPath id="clip0_1738_439"><rect width="33" height="33" fill="white" transform="translate(25 16)"></rect></clipPath></defs></svg>