<svg xmlns="http://www.w3.org/2000/svg" width="100" height="100" viewBox="0 0 100 100" fill="none"><mask id="mask0_1605_392" style="mask-type:alpha" maskUnits="userSpaceOnUse" x="0" y="0" width="100" height="100"><rect width="100" height="100" fill="#D9D9D9"></rect></mask><g mask="url(#mask0_1605_392)"><path d="M8.33398 91.6667V83.3333C11.5284 83.3333 14.6882 83.125 17.8132 82.7083C20.9382 82.2917 23.9937 81.5278 26.9798 80.4167C23.7854 78.8194 21.268 76.5104 19.4277 73.4896C17.5875 70.4688 16.6673 67.1875 16.6673 63.6458V54.1667H33.334V41.6667H47.3965L33.7507 14.375L41.2507 10.625L54.8965 37.9167C56.2854 40.6944 56.1812 43.4028 54.584 46.0417C52.9868 48.6806 50.6257 50 47.5007 50H41.6673V54.1667C41.6673 56.4583 40.8513 58.4201 39.2194 60.0521C37.5875 61.684 35.6257 62.5 33.334 62.5H25.0007V63.6458C25.0007 66.0764 25.7472 68.2118 27.2402 70.0521C28.7333 71.8924 30.6257 73.125 32.9173 73.75L34.1673 74.0625C36.9451 74.7569 38.5076 76.4931 38.8548 79.2708C39.202 82.0486 38.1257 84.1319 35.6257 85.5208C31.459 87.8125 27.0666 89.4097 22.4486 90.3125C17.8305 91.2153 13.1257 91.6667 8.33398 91.6667ZM67.9173 79.7917L61.9798 73.9583C63.4382 72.5 64.584 70.816 65.4173 68.9062C66.2507 66.9965 66.6673 64.9306 66.6673 62.7083C66.6673 60.4861 66.2507 58.4201 65.4173 56.5104C64.584 54.6007 63.4382 52.9167 61.9798 51.4583L67.9173 45.5208C70.1395 47.7431 71.8757 50.3299 73.1257 53.2812C74.3757 56.2326 75.0007 59.375 75.0007 62.7083C75.0007 66.0417 74.3757 69.1667 73.1257 72.0833C71.8757 75 70.1395 77.5694 67.9173 79.7917ZM79.6882 91.6667L73.7507 85.7292C76.7368 82.743 79.0805 79.2882 80.7819 75.3646C82.4833 71.441 83.334 67.2222 83.334 62.7083C83.334 58.125 82.4833 53.8889 80.7819 50C79.0805 46.1111 76.7368 42.6736 73.7507 39.6875L79.6882 33.75C83.4382 37.5 86.3722 41.8403 88.4902 46.7708C90.6083 51.7014 91.6673 57.0139 91.6673 62.7083C91.6673 68.3333 90.6083 73.6285 88.4902 78.5938C86.3722 83.559 83.4382 87.9167 79.6882 91.6667Z" fill="#5533E5"></path></g></svg>