<svg xmlns="http://www.w3.org/2000/svg" width="37" height="37" viewBox="0 0 37 37" fill="none"><mask id="mask0_1605_1951" style="mask-type:alpha" maskUnits="userSpaceOnUse" x="0" y="0" width="37" height="37"><rect width="36" height="36" transform="matrix(4.37114e-08 1 1 -4.37114e-08 0.712891 0.859375)" fill="#D9D9D9"></rect></mask><g mask="url(#mask0_1605_1951)"><path d="M32.2129 23.3594L27.7129 23.3594L27.7129 17.3594L12.7129 17.3594L12.7129 14.3594L17.2129 14.3594L17.2129 3.85937L5.21289 3.85938L5.21289 14.3594L9.71289 14.3594L9.71289 23.3594L5.21289 23.3594L5.21289 33.8594L17.2129 33.8594L17.2129 23.3594L12.7129 23.3594L12.7129 20.3594L24.7129 20.3594L24.7129 23.3594L20.2129 23.3594L20.2129 33.8594L32.2129 33.8594L32.2129 23.3594ZM14.2129 26.3594L14.2129 30.8594L8.21289 30.8594L8.21289 26.3594L14.2129 26.3594ZM29.2129 26.3594L29.2129 30.8594L23.2129 30.8594L23.2129 26.3594L29.2129 26.3594ZM14.2129 6.85937L14.2129 11.3594L8.21289 11.3594L8.21289 6.85937L14.2129 6.85937Z" fill="#CF190B"></path></g></svg>