<svg xmlns="http://www.w3.org/2000/svg" width="291" height="284" viewBox="0 0 291 284" fill="none"><path d="M217.91 57.7969L215.178 60.4849L216.373 61.6991L219.106 59.011L217.91 57.7969Z" fill="#5533E5"></path><path d="M231.51 71.0742L228.408 74.2676L229.632 75.456L232.734 72.2627L231.51 71.0742Z" fill="#5533E5"></path><path d="M224.331 35.8134L230.98 42.434C231.314 42.7686 231.314 43.3066 230.98 43.6412C230.645 43.9757 230.107 43.9757 229.773 43.6412L223.124 37.0206C222.789 36.686 222.789 36.1479 223.124 35.8134C223.458 35.4789 223.997 35.4789 224.331 35.8134Z" fill="#5533E5"></path><path d="M231.517 28.6298L238.069 35.2107C238.404 35.5452 238.404 36.0833 238.069 36.4178C237.735 36.7524 237.197 36.7524 236.862 36.4178L230.309 29.837C229.975 29.5024 229.975 28.9644 230.309 28.6298C230.644 28.2953 231.182 28.2953 231.517 28.6298Z" fill="#5533E5"></path><path d="M219.801 40.7643C219.288 40.7643 218.811 40.5654 218.451 40.2051L195.173 16.9277C194.429 16.1837 194.429 14.9719 195.173 14.2279L208.714 0.680221C209.077 0.319947 209.554 0.121094 210.064 0.121094C210.574 0.121094 211.053 0.319947 211.414 0.680221L234.693 23.9577C235.437 24.7016 235.437 25.9135 234.693 26.6574L221.146 40.2051C220.783 40.5654 220.306 40.7643 219.796 40.7643H219.803H219.801ZM210.064 1.83123C210.024 1.83123 209.968 1.83825 209.921 1.89205L196.373 15.4398C196.298 15.5146 196.298 15.6433 196.373 15.7252L219.651 39.0027C219.7 39.0495 219.754 39.0635 219.794 39.0635C219.833 39.0635 219.889 39.0565 219.936 39.0027L233.484 25.4549C233.559 25.3801 233.559 25.2514 233.484 25.1695L210.206 1.88503C210.157 1.83825 210.104 1.82421 210.064 1.82421V1.83123Z" fill="#5533E5"></path><path d="M260.542 60.0734L253.976 53.5674C253.641 53.2329 253.641 52.6948 253.976 52.3603C254.31 52.0257 254.848 52.0257 255.183 52.3603L261.749 58.8663C262.084 59.2008 262.084 59.7389 261.749 60.0734C261.415 60.408 260.877 60.408 260.542 60.0734Z" fill="#5533E5"></path><path d="M253.362 67.2583L246.788 60.5909C246.453 60.2563 246.453 59.7183 246.788 59.3837C247.123 59.0492 247.661 59.0492 247.995 59.3837L254.567 66.0511C254.901 66.3857 254.901 66.9237 254.567 67.2583C254.232 67.5928 253.694 67.5928 253.36 67.2583H253.362Z" fill="#5533E5"></path><path d="M248.761 58.3824C247.902 58.3824 246.77 58.1157 245.284 57.3999C243.062 56.3237 240.559 54.4545 238.247 52.1431C235.936 49.8318 234.067 47.3286 232.99 45.0991C231.442 41.9011 232.008 40.3406 232.759 39.5897C233.318 39.0306 234.429 38.4995 236.551 39.1405L236.053 40.7781C235.044 40.4717 234.287 40.4857 233.966 40.8062C233.019 41.7537 234.689 46.1729 239.454 50.9453C241.635 53.128 243.967 54.8803 246.028 55.8746C248.073 56.8641 249.219 56.794 249.579 56.4337C249.9 56.1132 249.907 55.3575 249.608 54.3539L251.243 53.8626C251.877 55.9705 251.346 57.0817 250.787 57.6408C250.384 58.0432 249.75 58.3918 248.761 58.3918V58.3848V58.3824Z" fill="#5533E5"></path><path d="M234.01 73.1515H233.751C233.704 73.1515 233.65 73.1445 233.594 73.1375H233.538C233.477 73.1235 233.409 73.1164 233.339 73.1094H233.278C233.224 73.0954 233.161 73.0813 233.1 73.0743L233.032 73.0603C232.972 73.0463 232.904 73.0322 232.843 73.0205H232.803C232.728 72.9924 232.66 72.9807 232.586 72.9597L232.525 72.9457C232.457 72.9246 232.396 72.9106 232.326 72.8919L232.272 72.8778C232.19 72.8497 232.108 72.831 232.026 72.803L231.977 72.7889C231.881 72.7538 231.806 72.7281 231.725 72.7L231.675 72.686C231.587 72.6509 231.491 72.6181 231.397 72.576L231.343 72.555C231.24 72.5152 231.144 72.4731 231.051 72.4333L231.002 72.4123C230.885 72.3655 230.77 72.3093 230.653 72.2555L230.611 72.2345C230.489 72.1736 230.365 72.1175 230.251 72.0567L230.197 72.0286C230.129 71.9935 230.068 71.9608 230.012 71.9327L229.937 71.8929C229.876 71.8578 229.82 71.8321 229.759 71.797L229.692 71.7619C229.61 71.7221 229.528 71.673 229.453 71.6262L229.418 71.6052C229.35 71.5654 229.282 71.5233 229.207 71.4835L229.154 71.4484C229.016 71.3665 228.88 71.2847 228.744 71.1958L228.69 71.1607C228.562 71.0788 228.417 70.9899 228.281 70.894L228.246 70.8659C228.096 70.763 227.953 70.667 227.811 70.5735L227.771 70.5454C227.628 70.4425 227.479 70.3419 227.336 70.2319L227.308 70.2108C227.158 70.1009 227.001 69.9863 226.845 69.8623C226.681 69.7406 226.531 69.6166 226.374 69.495L226.353 69.4809C226.196 69.3523 226.047 69.2353 225.897 69.1137L225.85 69.0739C225.708 68.9569 225.563 68.8353 225.42 68.7136L225.373 68.6738C225.141 68.475 224.903 68.2574 224.664 68.0469L224.643 68.0258C224.454 67.848 224.269 67.6772 224.084 67.5018L224.044 67.462C223.887 67.3123 223.731 67.1555 223.574 66.9988L223.485 66.9099C223.349 66.7742 223.214 66.6315 223.076 66.4935L223.055 66.4724C222.905 66.3157 222.755 66.1589 222.61 66.0022L222.589 65.9811L223.216 65.4009L222.582 65.9671C222.446 65.8244 222.308 65.6676 222.173 65.5179L222.138 65.4782C222.009 65.3284 221.878 65.1857 221.749 65.036L221.709 64.9892C221.581 64.8395 221.457 64.6968 221.335 64.5471L221.295 64.4932C221.174 64.3435 221.05 64.1868 220.928 64.0371L220.9 64.002C220.771 63.8312 220.64 63.6744 220.526 63.5107L220.498 63.4709C220.369 63.3001 220.245 63.1364 220.123 62.9656L220.091 62.9188C219.962 62.741 219.831 62.5585 219.709 62.3737L219.674 62.3269C219.613 62.238 219.557 62.1561 219.51 62.0813L219.471 62.0134C219.41 61.9245 219.347 61.8286 219.293 61.735L219.265 61.6953C219.19 61.5783 219.129 61.4707 219.061 61.3607L219.047 61.3397C218.979 61.2297 218.918 61.1221 218.855 61.0122L218.82 60.9513C218.745 60.8156 218.663 60.6729 218.582 60.5279L218.568 60.4998C218.493 60.3641 218.418 60.2214 218.35 60.0764L218.2 59.7629L217.702 58.5698L217.517 57.9826C217.517 57.9826 217.496 57.9147 217.489 57.8796L217.44 57.6948C217.44 57.6948 217.426 57.634 217.419 57.6059L217.323 57.0749L217.283 56.6257V56.1952C217.283 56.1952 217.283 56.1344 217.29 56.1063V56.0245C217.29 56.0034 217.29 55.9707 217.297 55.9426C217.297 55.9075 217.297 55.8888 217.304 55.8607L217.332 55.6969C217.332 55.6969 217.346 55.6361 217.353 55.608L217.367 55.5332C217.367 55.5332 217.381 55.4794 217.388 55.4583L218.212 55.6689L217.388 55.4373C217.388 55.4373 217.403 55.3905 217.41 55.3694C217.41 55.3484 217.424 55.3226 217.438 55.2946C217.452 55.2548 217.459 55.2337 217.466 55.2127C217.473 55.1916 217.487 55.1659 217.494 55.1448V55.1238C217.494 55.1238 217.522 55.077 217.527 55.0559C217.534 55.0349 217.548 55.0162 217.562 54.9881V54.974C217.562 54.974 217.59 54.9343 217.601 54.9132C217.615 54.8852 217.629 54.8664 217.641 54.8384C217.662 54.8033 217.676 54.7846 217.681 54.7635C217.695 54.7354 217.716 54.7167 217.73 54.6957L217.744 54.6816C217.744 54.6816 217.772 54.6418 217.784 54.6208C217.798 54.5997 217.824 54.574 217.845 54.5459C217.859 54.5249 217.873 54.5062 217.891 54.4921C217.927 54.4524 217.966 54.4102 218.001 54.3705L232.784 39.6016L233.992 40.8087C233.992 40.8087 233.977 40.8228 233.97 40.8368L233.842 41.0614L233.774 41.3351L233.753 41.6135L233.788 42.0697L233.917 42.6826L234.209 43.5622L234.558 44.353L234.647 44.5378C234.707 44.6665 234.785 44.8045 234.852 44.9332L234.108 45.3636L234.859 44.9612C234.927 45.0899 235.002 45.2279 235.077 45.3566L235.105 45.4034C235.159 45.4993 235.222 45.6022 235.283 45.7028L234.567 46.166L235.297 45.7239C235.358 45.8268 235.421 45.9227 235.482 46.0233L235.51 46.0701C235.566 46.152 235.62 46.2409 235.674 46.3298L235.713 46.3906C235.762 46.4655 235.809 46.5333 235.856 46.6082L235.889 46.662C236.006 46.8328 236.127 47.0036 236.251 47.1814L236.279 47.2211C236.396 47.3779 236.511 47.5416 236.635 47.6984L236.649 47.7124C236.778 47.8832 236.902 48.0399 237.023 48.1967L236.368 48.7418L237.035 48.2107L237.049 48.2318C237.159 48.3675 237.274 48.5102 237.398 48.6622L237.438 48.709C237.554 48.8447 237.669 48.9874 237.793 49.1254L237.833 49.1722C237.95 49.3079 238.072 49.4506 238.2 49.5886L238.233 49.6284C238.362 49.7711 238.493 49.9138 238.628 50.0659L238.642 50.0799C238.792 50.2367 238.937 50.3864 239.08 50.5361L239.101 50.5572C239.23 50.6858 239.354 50.8169 239.489 50.9525L239.571 51.0344C239.721 51.1841 239.871 51.3269 240.02 51.4719L240.06 51.5117C240.238 51.6754 240.416 51.8462 240.591 52.01L240.619 52.031C240.837 52.2299 241.071 52.4334 241.302 52.6323L241.342 52.6674C241.48 52.7843 241.616 52.899 241.751 53.0089L241.791 53.044C241.934 53.161 242.072 53.2756 242.215 53.3856L242.25 53.4136C242.392 53.5306 242.542 53.6382 242.685 53.7552C242.842 53.8722 242.984 53.9798 243.134 54.0897L243.162 54.1108C243.3 54.2067 243.436 54.3096 243.572 54.4032L243.593 54.4173C243.735 54.5202 243.871 54.6091 244.002 54.6957L244.051 54.7237C244.18 54.8056 244.311 54.8945 244.432 54.9694L244.479 54.9974C244.603 55.0723 244.732 55.1542 244.854 55.2291L244.9 55.2571C244.961 55.2969 245.029 55.332 245.092 55.3671L245.12 55.3811C245.202 55.4279 245.277 55.47 245.352 55.5098L245.413 55.5449C245.467 55.5729 245.516 55.5987 245.569 55.6268L245.857 55.7765C245.967 55.8303 246.075 55.8864 246.178 55.9332L246.217 55.9543C246.32 56.0011 246.428 56.0502 246.531 56.097L246.571 56.118C246.66 56.1531 246.741 56.1929 246.823 56.221L246.873 56.242C246.954 56.2771 247.036 56.3029 247.118 56.3379H247.146C247.214 56.373 247.275 56.3918 247.345 56.4128L247.392 56.4268C247.46 56.4479 247.528 56.4666 247.598 56.4877L247.638 56.5017C247.691 56.5157 247.74 56.5298 247.794 56.5415L247.841 56.5555C247.902 56.5696 247.965 56.5836 248.026 56.5953H248.047C248.094 56.6093 248.143 56.6234 248.19 56.6304H248.236C248.276 56.6444 248.318 56.6514 248.36 56.6584H248.381C248.435 56.6725 248.484 56.6725 248.531 56.6795H248.564C248.599 56.6795 248.632 56.6865 248.667 56.6865H248.973C248.973 56.6865 249.027 56.6795 249.055 56.6725H249.083C249.083 56.6725 249.144 56.6584 249.172 56.6514H249.186C249.186 56.6514 249.235 56.6374 249.261 56.6304H249.282C249.282 56.6304 249.324 56.6093 249.338 56.6023H249.366C249.366 56.6023 249.399 56.5812 249.42 56.5672H249.441C249.441 56.5672 249.476 56.5391 249.49 56.5321L249.504 56.5532L249.518 56.5391V56.5251C249.518 56.5251 249.539 56.504 249.554 56.497L249.568 56.483C249.568 56.483 249.596 56.4619 249.607 56.4479L249.621 56.4339L250.828 57.641L236.046 72.4099C236.046 72.4099 236.017 72.438 235.996 72.4567L235.95 72.4965C235.908 72.5316 235.868 72.5643 235.821 72.6064L235.793 72.6275C235.737 72.6673 235.683 72.7094 235.629 72.7445L235.589 72.7725C235.589 72.7725 235.557 72.7936 235.536 72.8006C235.486 72.8287 235.447 72.8474 235.4 72.8755L235.372 72.8895C235.311 72.9176 235.255 72.9433 235.201 72.9644L235.161 72.9784C235.161 72.9784 235.126 72.9924 235.112 72.9924C235.072 73.0065 235.023 73.0205 234.983 73.0322L234.93 73.0463C234.881 73.0603 234.834 73.0743 234.787 73.0813L234.698 73.1024C234.644 73.1164 234.588 73.1235 234.534 73.1305H234.485C234.431 73.1445 234.385 73.1515 234.335 73.1515H234.254C234.186 73.1515 234.125 73.1585 234.062 73.1585H234.048L234.02 73.1656L234.01 73.1515ZM233.996 71.4461H234.153C234.153 71.4461 234.207 71.4391 234.235 71.4391H234.27C234.27 71.4391 234.331 71.425 234.359 71.418H234.38C234.38 71.418 234.429 71.404 234.455 71.3969H234.469C234.469 71.3969 234.516 71.3759 234.53 71.3689H234.551C234.551 71.3689 234.59 71.3478 234.611 71.3338L234.633 71.3197C234.633 71.3197 234.661 71.3057 234.672 71.2987H234.686C234.686 71.2987 234.714 71.2706 234.726 71.2636L234.74 71.2496C234.74 71.2496 234.768 71.2285 234.782 71.2145L234.803 71.1934L247.738 58.2727C247.703 58.2656 247.67 58.2586 247.635 58.2516H247.6C247.525 58.2306 247.45 58.2118 247.368 58.1908L247.308 58.1767C247.24 58.1557 247.179 58.1417 247.109 58.1229L247.06 58.1089C246.978 58.0879 246.896 58.0621 246.807 58.034L246.753 58.013C246.671 57.9849 246.589 57.9592 246.515 57.9311H246.494C246.393 57.8843 246.295 57.8492 246.194 57.8095L246.138 57.7884C246.042 57.7486 245.948 57.7065 245.845 57.6667L245.813 57.6527C245.684 57.5989 245.56 57.5428 245.445 57.4819L245.406 57.4609C245.282 57.4071 245.16 57.3439 245.043 57.2831L244.975 57.248C244.921 57.2199 244.858 57.1872 244.804 57.1591L244.723 57.1123C244.669 57.0842 244.606 57.0515 244.552 57.0164L244.484 56.9766C244.402 56.9298 244.32 56.8877 244.245 56.8409L244.217 56.8269C244.135 56.7801 244.068 56.738 244 56.6982L243.946 56.6631C243.81 56.5812 243.672 56.4994 243.536 56.4105L243.487 56.3754C243.352 56.2865 243.216 56.1976 243.071 56.1087L243.022 56.0736C242.879 55.9777 242.734 55.8818 242.598 55.7882L242.559 55.7601C242.416 55.6572 242.266 55.5566 242.114 55.4466L242.086 55.4256C241.936 55.3156 241.78 55.201 241.623 55.077C241.459 54.9553 241.309 54.8313 241.153 54.7097L241.124 54.6886C240.975 54.567 240.825 54.45 240.682 54.3284L240.633 54.2886C240.49 54.1716 240.345 54.05 240.203 53.9283L240.163 53.8932C239.917 53.6827 239.679 53.4698 239.447 53.2592L239.419 53.2382C239.234 53.0674 239.045 52.8896 238.86 52.7141L238.82 52.6744C238.663 52.5246 238.507 52.3679 238.35 52.2112L238.261 52.1223C238.125 51.9866 237.987 51.8486 237.852 51.7058L237.831 51.6848C237.681 51.528 237.531 51.3643 237.381 51.2075L237.367 51.1935C237.218 51.0368 237.08 50.88 236.944 50.7303L236.911 50.6905C236.773 50.5408 236.644 50.3981 236.523 50.2484L236.483 50.2016C236.354 50.0519 236.23 49.9092 236.116 49.7594L236.076 49.7126C235.947 49.5559 235.823 49.4062 235.709 49.2564L235.681 49.2214C235.552 49.0576 235.421 48.8868 235.292 48.7231L235.278 48.709C235.143 48.5242 235.019 48.3534 234.897 48.1897L234.869 48.1499C234.733 47.9651 234.609 47.7826 234.48 47.5978L234.441 47.537C234.387 47.4621 234.338 47.3802 234.284 47.3054L234.244 47.2375C234.183 47.1416 234.12 47.0527 234.066 46.9591L234.038 46.9123C233.97 46.8024 233.903 46.6948 233.835 46.5848L234.551 46.1216L233.821 46.5637C233.753 46.4538 233.692 46.3462 233.622 46.2362L233.594 46.1824C233.512 46.0327 233.43 45.89 233.348 45.7449L233.334 45.7169C233.259 45.5742 233.177 45.4244 233.11 45.2794L232.536 43.9693L232.284 43.1926C232.284 43.1926 232.263 43.1318 232.256 43.0967L232.146 42.6265L219.211 55.5542C219.211 55.5542 219.197 55.5683 219.183 55.5823L219.047 55.8139L218.965 56.2023V56.366L218.993 56.8222L219.122 57.4351L219.382 58.2259L219.852 59.2833C219.92 59.412 219.988 59.55 220.062 59.6857L220.077 59.7067C220.144 59.8354 220.219 59.9664 220.294 60.1021L220.322 60.1559C220.376 60.2518 220.439 60.3548 220.5 60.4554L220.514 60.4764C220.575 60.5794 220.638 60.6753 220.699 60.7759L220.734 60.8367C220.781 60.9116 220.837 60.9934 220.891 61.0823L220.93 61.1432C220.977 61.218 221.026 61.2859 221.073 61.3607L221.106 61.4145C221.223 61.5853 221.344 61.7561 221.468 61.9339L221.501 61.9737C221.611 62.1304 221.726 62.2872 221.85 62.4439L221.864 62.4649C221.985 62.6287 222.109 62.7855 222.238 62.9492L222.259 62.9703C222.381 63.12 222.498 63.2627 222.615 63.4077L222.648 63.4475C222.765 63.5902 222.886 63.7259 223.003 63.871L223.038 63.9107C223.16 64.0534 223.284 64.1961 223.406 64.3342L223.445 64.3739C223.567 64.5166 223.705 64.6593 223.841 64.8044L223.855 64.8184C224.004 64.9752 224.147 65.1319 224.29 65.2816L224.304 65.2957C224.44 65.4314 224.564 65.5624 224.692 65.691L224.774 65.7729C224.924 65.9227 225.074 66.0654 225.223 66.2104L225.263 66.2455C225.441 66.4163 225.619 66.58 225.794 66.7438L225.815 66.7648C226.047 66.9754 226.271 67.1743 226.498 67.3708L226.545 67.4105C226.674 67.5205 226.812 67.6351 226.947 67.7451L226.994 67.7848C227.132 67.9018 227.275 68.0094 227.411 68.1194L227.443 68.1475C227.586 68.2644 227.738 68.3791 227.881 68.489C228.038 68.606 228.18 68.7136 228.33 68.8236L227.853 69.5324L228.358 68.8446C228.494 68.9475 228.637 69.0435 228.775 69.137L228.814 69.1651C228.943 69.254 229.074 69.3429 229.21 69.4318L229.252 69.4599C229.38 69.5488 229.511 69.6307 229.64 69.7125L229.68 69.7406C229.809 69.8225 229.933 69.8974 230.061 69.9722L230.11 70.0003C230.178 70.0401 230.246 70.0752 230.309 70.1173L230.33 70.1313C230.412 70.1781 230.487 70.2202 230.562 70.26L230.623 70.2951C230.677 70.3231 230.733 70.3559 230.779 70.384L230.847 70.4191C230.901 70.4471 230.948 70.4729 231.004 70.5009L231.072 70.536C231.172 70.5898 231.282 70.639 231.385 70.6928L231.427 70.7138C231.528 70.7606 231.638 70.8097 231.741 70.8565L231.781 70.8776C231.863 70.9127 231.952 70.9454 232.033 70.9805L232.08 71.0016C232.162 71.0367 232.244 71.0694 232.326 71.0975H232.354C232.422 71.1326 232.483 71.1513 232.553 71.1724L232.602 71.1864C232.677 71.2075 232.745 71.2332 232.812 71.2542H232.845C232.899 71.2823 232.955 71.294 233.009 71.308L233.056 71.3221C233.117 71.3361 233.18 71.3502 233.234 71.3619H233.255C233.304 71.3759 233.351 71.3899 233.397 71.3969H233.437C233.486 71.411 233.526 71.418 233.575 71.425H233.615C233.648 71.425 233.697 71.4391 233.744 71.4391H233.786C233.786 71.4391 233.853 71.4461 233.886 71.4461H234.043L233.989 71.4531L233.996 71.4461Z" fill="#5533E5"></path><path d="M262.724 44.4165C261.865 44.4165 260.733 44.1498 259.247 43.4339C257.025 42.3578 254.521 40.4886 252.21 38.1772C249.899 35.8658 248.03 33.3626 246.953 31.1331C245.405 27.9351 245.971 26.3747 246.722 25.6237C247.384 24.9617 248.741 24.4026 251.426 25.5021L250.778 27.0836C249.421 26.5315 248.324 26.4355 247.929 26.8379C246.981 27.7854 248.652 32.2046 253.417 36.9771C255.6 39.1598 257.932 40.912 259.991 41.9063C262.036 42.8959 263.182 42.8257 263.545 42.4654C263.933 42.0771 263.858 41.0337 263.346 39.7446L264.934 39.1247C265.943 41.7168 265.391 43.0316 264.745 43.6726C264.342 44.0749 263.708 44.4235 262.719 44.4235L262.726 44.4165H262.724Z" fill="#5533E5"></path><path d="M251.953 55.2213H251.693C251.653 55.2213 251.597 55.2143 251.543 55.2072H251.49C251.429 55.1932 251.361 55.1862 251.291 55.1792H251.23C251.176 55.1651 251.12 55.1511 251.059 55.1441L250.991 55.13C250.93 55.116 250.87 55.102 250.799 55.0903H250.753C250.678 55.0622 250.61 55.0505 250.535 55.0295L250.474 55.0154C250.413 55.0014 250.346 54.9803 250.275 54.9616L250.219 54.9476C250.13 54.9195 250.055 54.9008 249.974 54.8727L249.92 54.8517C249.838 54.8236 249.756 54.7978 249.681 54.7698L249.641 54.7557C249.538 54.7206 249.45 54.6879 249.361 54.6458L249.307 54.6247C249.211 54.585 249.117 54.5428 249.014 54.5031L248.961 54.482C248.851 54.4352 248.729 54.3791 248.612 54.3253L248.572 54.3042C248.451 54.2504 248.327 54.1873 248.212 54.1264L248.151 54.0913C248.09 54.0562 248.034 54.0305 247.98 54.0024L247.906 53.9627C247.845 53.9276 247.782 53.9018 247.728 53.8667L247.66 53.8317C247.578 53.7919 247.496 53.7428 247.421 53.696L247.393 53.6819C247.318 53.6351 247.243 53.593 247.176 53.5533L247.122 53.5182C246.986 53.4363 246.848 53.3544 246.712 53.2655L246.659 53.2304C246.53 53.1485 246.385 53.0596 246.249 52.9637L246.2 52.9286C246.064 52.8327 245.922 52.7368 245.777 52.6432L245.737 52.6151C245.594 52.5122 245.444 52.4116 245.302 52.3017L245.274 52.2806C245.124 52.1707 244.967 52.056 244.81 51.932L244.789 51.918C244.647 51.808 244.49 51.6864 244.333 51.5624L244.305 51.5343C244.155 51.4127 244.006 51.2957 243.863 51.174L243.814 51.1343C243.671 51.0126 243.526 50.8957 243.386 50.774L243.33 50.7342C243.098 50.5354 242.859 50.3248 242.621 50.1073L242.6 50.0862C242.41 49.9084 242.218 49.7376 242.034 49.5622L241.994 49.5224C241.837 49.3727 241.68 49.2159 241.524 49.0592L241.435 48.9703C241.297 48.8346 241.168 48.6966 241.032 48.5609L240.999 48.5258C240.857 48.3761 240.705 48.2193 240.555 48.0626L240.534 48.0415C240.398 47.8918 240.256 47.7421 240.118 47.5853L240.082 47.5502C239.947 47.3935 239.816 47.2508 239.687 47.1011L239.647 47.0543C239.519 46.9046 239.395 46.7548 239.273 46.6121L239.233 46.5653C239.105 46.4086 238.981 46.2589 238.859 46.1021L238.824 46.0624C238.702 45.9056 238.571 45.7419 238.442 45.5711L238.421 45.536C238.293 45.3652 238.169 45.2014 238.047 45.0307L238.012 44.9839C237.883 44.8061 237.752 44.6236 237.631 44.4388L237.591 44.378C237.537 44.2961 237.488 44.2212 237.434 44.1464L237.394 44.0855C237.334 43.9896 237.273 43.8937 237.21 43.8048V43.7908H237.203L237.181 43.7557C237.114 43.6457 237.043 43.5381 236.976 43.4281L236.962 43.4071C236.894 43.2971 236.833 43.1895 236.772 43.0796L236.737 43.0258C236.655 42.8831 236.573 42.7404 236.498 42.5953L236.484 42.5672C236.409 42.4245 236.335 42.2818 236.26 42.1368L236.014 41.6198L235.647 40.7191L235.38 39.8605C235.38 39.8605 235.366 39.7997 235.352 39.7646L235.23 39.1306L235.202 38.8569C235.202 38.8569 235.202 38.8031 235.195 38.775V38.2556L235.209 38.0919C235.209 38.0568 235.209 38.031 235.216 37.996C235.216 37.9749 235.216 37.9422 235.223 37.9141C235.223 37.886 235.23 37.8603 235.237 37.8252C235.237 37.7831 235.251 37.7644 235.251 37.7433C235.251 37.7222 235.265 37.6965 235.273 37.6614L235.287 37.5866C235.287 37.5866 235.301 37.5398 235.308 37.5187V37.4906C235.308 37.4906 235.329 37.4368 235.336 37.4228C235.343 37.3947 235.35 37.376 235.364 37.3479C235.371 37.3199 235.385 37.2941 235.392 37.2661C235.399 37.245 235.413 37.2193 235.42 37.1912L236.218 37.4977L235.427 37.1701C235.427 37.1701 235.441 37.1304 235.455 37.1093C235.469 37.0812 235.483 37.0555 235.49 37.0344C235.511 36.9994 235.518 36.9736 235.53 36.9526C235.544 36.9315 235.558 36.9128 235.57 36.8847C235.591 36.8496 235.605 36.8309 235.609 36.8099C235.63 36.7818 235.644 36.7561 235.663 36.735C235.677 36.7069 235.691 36.6952 235.705 36.6742C235.726 36.6461 235.745 36.6204 235.766 36.5993L235.78 36.5783C235.78 36.5783 235.801 36.5572 235.808 36.5432C235.848 36.4964 235.883 36.4543 235.925 36.4145L246.733 25.6133L247.941 26.8204C247.941 26.8204 247.927 26.8415 247.92 26.8485L247.81 27.0123L247.721 27.3117L247.693 27.6322L247.732 28.1446L247.849 28.6967L248.109 29.4874L248.49 30.367L248.579 30.5448C248.647 30.6805 248.717 30.8115 248.79 30.9472L248.804 30.9753C248.872 31.0969 248.947 31.235 249.021 31.3636L249.049 31.4104C249.11 31.5134 249.166 31.6093 249.227 31.7099L249.241 31.7379C249.297 31.8268 249.358 31.9298 249.426 32.0304L249.454 32.0772C249.508 32.1661 249.564 32.2479 249.618 32.3368L249.658 32.3977C249.707 32.4725 249.754 32.5404 249.8 32.6152L249.833 32.669C249.95 32.8398 250.072 33.0106 250.196 33.1884L250.224 33.2282C250.341 33.3849 250.456 33.5487 250.579 33.7054L250.594 33.7195C250.722 33.8902 250.846 34.047 250.968 34.2037L250.996 34.2388C251.106 34.3745 251.221 34.5172 251.345 34.6693L251.377 34.7161C251.494 34.8588 251.609 34.9968 251.733 35.1325L251.773 35.1793C251.897 35.322 252.018 35.4577 252.14 35.5957L252.175 35.6355C252.304 35.7782 252.435 35.9209 252.57 36.0729L252.584 36.087C252.734 36.2437 252.877 36.3934 253.02 36.5432L253.041 36.5642C253.169 36.6929 253.293 36.8239 253.429 36.9596L253.511 37.0415C253.661 37.1912 253.81 37.3339 253.96 37.4789L254.002 37.5187C254.18 37.6895 254.355 37.8533 254.533 38.017L254.554 38.0381C254.781 38.2416 255.006 38.4475 255.237 38.644L255.277 38.6791C255.415 38.7961 255.551 38.9107 255.686 39.0277L255.726 39.0627C255.869 39.1797 256.007 39.2873 256.143 39.4043L256.171 39.4254C256.321 39.5423 256.463 39.657 256.615 39.7669C256.772 39.8839 256.915 39.9915 257.064 40.1015L257.085 40.1155C257.228 40.2184 257.366 40.319 257.502 40.4149L257.542 40.443C257.67 40.5319 257.808 40.6278 257.937 40.7097L257.986 40.7448C258.108 40.8267 258.239 40.9086 258.368 40.9904L258.414 41.0185C258.538 41.0934 258.667 41.1753 258.789 41.2501L258.835 41.2782C258.896 41.318 258.964 41.3531 259.027 41.3882L259.06 41.4092C259.135 41.449 259.203 41.4911 259.278 41.5309L259.338 41.566C259.392 41.594 259.448 41.6198 259.495 41.6548L259.781 41.8046C259.89 41.8584 259.991 41.9145 260.101 41.9613L260.141 41.9824C260.241 42.0292 260.351 42.0783 260.454 42.1251L260.494 42.1461C260.576 42.1812 260.658 42.214 260.74 42.2491L260.779 42.2701C260.868 42.3052 260.95 42.338 261.032 42.366H261.06C261.128 42.4011 261.189 42.4198 261.259 42.4409L261.306 42.4549C261.374 42.476 261.444 42.5017 261.512 42.5158L261.551 42.5298C261.605 42.5438 261.654 42.5579 261.708 42.5696L261.755 42.5836C261.816 42.5976 261.879 42.6117 261.933 42.6234H261.961C262.008 42.6374 262.057 42.6515 262.104 42.6585H262.15C262.2 42.6725 262.239 42.6795 262.279 42.6865H262.307C262.361 42.7006 262.41 42.7006 262.457 42.7076H262.49C262.49 42.7076 262.557 42.7146 262.593 42.7146H262.906C262.906 42.7146 262.96 42.7076 262.988 42.7076H263.016C263.016 42.7076 263.077 42.6936 263.112 42.6865H263.126C263.126 42.6865 263.18 42.6725 263.201 42.6655H263.222C263.222 42.6655 263.262 42.6444 263.276 42.6374L263.304 42.7193L263.318 42.7053L263.29 42.6374C263.29 42.6374 263.329 42.6234 263.343 42.6164H263.365C263.365 42.6164 263.4 42.5883 263.414 42.5813H263.428C263.428 42.5813 263.456 42.5532 263.467 42.5415L263.482 42.5275C263.482 42.5275 263.51 42.5064 263.521 42.4924L263.535 42.4783L264.743 43.6855L253.934 54.4867C253.913 54.5078 253.899 54.5218 253.88 54.5335L253.841 54.5686C253.801 54.6084 253.752 54.6434 253.712 54.6785L253.691 54.6926C253.637 54.7323 253.581 54.7745 253.52 54.8095L253.473 54.8376C253.473 54.8376 253.452 54.8517 253.434 54.8587C253.394 54.8797 253.345 54.9055 253.296 54.9335L253.268 54.9476C253.207 54.9756 253.151 55.0014 253.09 55.0224L253.05 55.0365C253.05 55.0365 253.015 55.0505 253.001 55.0505C252.961 55.0645 252.912 55.0786 252.872 55.0903L252.818 55.1043C252.758 55.1183 252.697 55.1394 252.629 55.1511H252.594C252.54 55.1722 252.484 55.1792 252.43 55.1862H252.381C252.32 55.2002 252.271 55.2072 252.224 55.2072H252.142C252.074 55.2072 252.014 55.2143 251.95 55.2143H251.936L251.957 55.2283L251.953 55.2213ZM253.876 54.5452C253.876 54.5452 253.869 54.5522 253.862 54.5592C253.862 54.5592 253.869 54.5522 253.876 54.5452ZM252.17 53.5018L252.32 54.3393L252.203 53.4948C252.203 53.4948 252.257 53.4878 252.285 53.4807H252.313C252.313 53.4807 252.362 53.4667 252.381 53.4597H252.402C252.402 53.4597 252.442 53.4386 252.456 53.4316H252.477C252.477 53.4316 252.517 53.4106 252.531 53.3965H252.552C252.552 53.3965 252.587 53.3684 252.601 53.3614L252.622 53.3474C252.622 53.3474 252.65 53.3334 252.662 53.3193L252.676 53.3053C252.676 53.3053 252.704 53.2842 252.715 53.2702L252.736 53.2491L261.704 44.2961C261.668 44.2891 261.636 44.282 261.601 44.275H261.573C261.498 44.254 261.416 44.2329 261.334 44.2142L261.273 44.2002C261.212 44.1861 261.144 44.1651 261.074 44.1464L261.025 44.1323C260.943 44.1042 260.854 44.0855 260.772 44.0504L260.719 44.0294C260.637 44.0013 260.555 43.9756 260.473 43.9475H260.445C260.342 43.9007 260.246 43.8656 260.15 43.8259L260.089 43.8048C259.993 43.7697 259.898 43.7299 259.802 43.6831L259.752 43.6621C259.635 43.6153 259.521 43.5592 259.397 43.4983L259.364 43.4843C259.235 43.4235 259.111 43.3626 258.99 43.2995L258.922 43.2644C258.868 43.2363 258.812 43.2106 258.758 43.1825L258.676 43.1357C258.62 43.1076 258.559 43.0749 258.506 43.0398L258.438 43C258.356 42.9532 258.274 42.9111 258.199 42.8643L258.159 42.8433C258.091 42.8035 258.024 42.7614 257.956 42.7216L257.902 42.6865C257.764 42.6047 257.628 42.5228 257.493 42.4339L257.446 42.3988C257.31 42.3099 257.172 42.221 257.029 42.1321L256.983 42.097C256.84 42.0011 256.702 41.9052 256.559 41.8116L256.519 41.7835C256.377 41.6806 256.225 41.58 256.075 41.47L256.047 41.449C255.897 41.339 255.74 41.2244 255.584 41.1004C255.42 40.9787 255.27 40.8548 255.113 40.7331L255.078 40.705C254.929 40.5881 254.786 40.4664 254.636 40.3494L254.596 40.3143C254.454 40.1927 254.309 40.0687 254.161 39.9471L254.119 39.912C253.88 39.7084 253.642 39.4885 253.403 39.278L253.375 39.2569C253.19 39.0861 253.001 38.9083 252.816 38.7329L252.767 38.6931C252.61 38.5434 252.453 38.3937 252.297 38.2369L252.208 38.148C252.07 38.0123 251.934 37.8743 251.805 37.7316L251.784 37.7105C251.635 37.5538 251.478 37.39 251.335 37.2333L251.321 37.2193C251.171 37.0625 251.036 36.9058 250.898 36.7561L250.865 36.7163C250.736 36.5666 250.605 36.4239 250.477 36.2741L250.437 36.2273C250.308 36.0776 250.184 35.9349 250.069 35.7852L250.03 35.7384C249.901 35.5817 249.777 35.4319 249.662 35.2822L249.641 35.2611C249.499 35.0834 249.368 34.9126 249.246 34.7488L249.232 34.7278C249.096 34.55 248.972 34.3792 248.851 34.2154L248.823 34.1756C248.687 33.9908 248.563 33.8084 248.434 33.6235L248.394 33.5627C248.341 33.4878 248.292 33.406 248.238 33.3311L248.198 33.2633C248.137 33.1673 248.076 33.0784 248.02 32.9849L247.987 32.9381C247.92 32.8281 247.849 32.7275 247.789 32.6176L248.504 32.1544L247.775 32.5965C247.707 32.4866 247.646 32.379 247.576 32.262L247.548 32.2152C247.466 32.0655 247.384 31.9228 247.302 31.7777L247.288 31.7567C247.206 31.6069 247.131 31.4572 247.056 31.3075L246.593 30.2922L246.287 29.4196L246.095 28.6569L237.128 37.617C237.128 37.617 237.114 37.631 237.107 37.645L236.95 37.9375L236.889 38.3328V38.4288L236.917 38.8849L237.088 39.6476L237.376 40.4594L237.785 41.3601C237.846 41.4817 237.914 41.6127 237.989 41.7484L238.003 41.7695C238.07 41.8982 238.145 42.0292 238.22 42.1648L238.248 42.2046C238.309 42.3146 238.37 42.4081 238.433 42.5111L238.447 42.5321C238.508 42.6351 238.569 42.731 238.632 42.8316L238.66 42.8714C238.714 42.9603 238.77 43.0492 238.831 43.131L238.871 43.1919C238.92 43.2667 238.966 43.3346 239.013 43.4094L239.048 43.4632C239.163 43.634 239.287 43.8048 239.409 43.9826L239.437 44.0224C239.554 44.1791 239.668 44.3358 239.792 44.4996L239.806 44.5207C239.928 44.6844 240.052 44.8412 240.181 45.0049L240.202 45.033C240.319 45.1757 240.433 45.3184 240.55 45.4635L240.585 45.5032C240.702 45.6459 240.824 45.7816 240.941 45.9267L240.974 45.9664C241.098 46.1091 241.219 46.2519 241.341 46.3899L241.369 46.425C241.507 46.5747 241.636 46.7244 241.771 46.8671L241.786 46.8812C241.928 47.0309 242.073 47.1806 242.216 47.3303L242.244 47.3654C242.366 47.4941 242.497 47.6251 242.625 47.7538L242.707 47.8357C242.857 47.9854 243.007 48.1281 243.156 48.2731L243.196 48.3129C243.374 48.4837 243.552 48.6474 243.727 48.8112L243.748 48.8323C243.98 49.0428 244.205 49.2417 244.431 49.4382L244.471 49.4733C244.607 49.5902 244.745 49.7049 244.881 49.8148L244.93 49.8546C245.065 49.9646 245.201 50.0792 245.339 50.1891L245.372 50.2172C245.522 50.3342 245.664 50.4488 245.807 50.5588L245.821 50.5728C245.959 50.6757 246.109 50.7834 246.252 50.8933L245.774 51.6022L246.28 50.9144C246.415 51.0173 246.558 51.1132 246.696 51.2068L246.736 51.2349C246.864 51.3238 247.002 51.4127 247.131 51.5016L247.178 51.5296C247.307 51.6115 247.438 51.6934 247.559 51.7753L247.599 51.8034C247.728 51.8852 247.859 51.9601 247.98 52.035L248.03 52.063C248.09 52.0981 248.158 52.1379 248.219 52.173L248.24 52.187C248.329 52.2338 248.404 52.2759 248.472 52.3157L248.532 52.3508C248.586 52.3789 248.642 52.4116 248.689 52.4397L248.757 52.4748C248.811 52.5028 248.86 52.5286 248.914 52.5567L248.968 52.5847C249.078 52.6385 249.185 52.6947 249.295 52.7415L249.335 52.7625C249.438 52.8093 249.545 52.8584 249.648 52.9052L249.698 52.9263C249.772 52.9614 249.854 52.9941 249.943 53.0292L249.992 53.0503C250.074 53.0854 250.156 53.1181 250.238 53.1462H250.266C250.334 53.1813 250.395 53.2 250.465 53.2211L250.512 53.2351C250.579 53.2561 250.65 53.2819 250.718 53.2959H250.75C250.804 53.324 250.86 53.3357 250.914 53.3497L250.961 53.3638C251.022 53.3778 251.085 53.3918 251.139 53.4035H251.16C251.209 53.4176 251.256 53.4316 251.302 53.4386H251.352C251.391 53.4527 251.44 53.4597 251.48 53.4667H251.52C251.553 53.4667 251.602 53.4807 251.649 53.4807H251.688C251.688 53.4807 251.756 53.4878 251.789 53.4878H252.102C252.102 53.4878 252.156 53.4807 252.184 53.4807L252.17 53.5088V53.5018Z" fill="#5533E5"></path><path d="M262.942 40.4161H262.717C262.717 40.4161 262.65 40.4091 262.601 40.4021H262.561C262.507 40.3951 262.451 40.3881 262.397 40.381H262.343C262.294 40.367 262.247 40.36 262.2 40.353H262.151C262.098 40.3319 262.048 40.3249 261.995 40.3132H261.967C261.906 40.2991 261.845 40.2851 261.782 40.2734H261.742C261.681 40.2453 261.625 40.2336 261.571 40.2196L261.522 40.2056C261.468 40.1915 261.407 40.1705 261.337 40.1518L261.29 40.1377C261.23 40.1167 261.169 40.098 261.106 40.0769L261.066 40.0629C260.991 40.0348 260.916 40.0091 260.848 39.981L260.801 39.9599C260.727 39.9319 260.652 39.8991 260.577 39.864L260.528 39.843C260.446 39.8079 260.35 39.7681 260.254 39.7213L260.226 39.7073C260.123 39.6605 260.027 39.6114 259.934 39.5646L259.688 39.4359C259.641 39.4078 259.599 39.3891 259.552 39.361L259.498 39.333C259.431 39.2979 259.37 39.2581 259.307 39.223L259.286 39.209C259.225 39.1739 259.169 39.1411 259.115 39.1131L259.066 39.085C258.963 39.0242 258.855 38.9563 258.745 38.8861L258.705 38.8581C258.595 38.7902 258.488 38.7224 258.385 38.6475L258.345 38.6194C258.235 38.5446 258.128 38.4697 258.011 38.3948L257.982 38.3738C257.861 38.2919 257.751 38.21 257.634 38.1211L257.599 38.1001C257.489 38.0182 257.367 37.9293 257.243 37.8334L257.229 37.8193C257.112 37.7304 256.998 37.6415 256.874 37.5456L256.852 37.5316C256.729 37.4357 256.614 37.3398 256.504 37.2462L256.471 37.2181C256.354 37.1222 256.247 37.0263 256.13 36.9327L256.09 36.8976C255.905 36.7409 255.723 36.5771 255.545 36.4133L255.512 36.3782C255.369 36.2496 255.224 36.1115 255.082 35.9759L255.053 35.9478C254.925 35.8261 254.801 35.7092 254.679 35.5875L254.611 35.5197C254.501 35.4097 254.401 35.3091 254.291 35.1992C254.291 35.1992 254.277 35.1851 254.27 35.1711C254.155 35.0494 254.038 34.9254 253.921 34.8038L253.9 34.7757C253.797 34.6658 253.69 34.5441 253.58 34.4271L253.552 34.3921C253.449 34.2751 253.348 34.1604 253.252 34.0505L253.219 34.0107C253.123 33.8938 253.027 33.7861 252.932 33.6692L252.892 33.6224C252.803 33.5124 252.707 33.3908 252.613 33.2738L252.585 33.2387C252.475 33.103 252.379 32.979 252.286 32.8504L252.265 32.8293C252.164 32.7006 252.066 32.5626 251.972 32.4339L251.944 32.3942C251.841 32.2585 251.745 32.1088 251.645 31.9637L251.624 31.9286C251.575 31.8608 251.535 31.7999 251.495 31.7368L251.46 31.69C251.413 31.6151 251.364 31.5403 251.317 31.4654L251.296 31.4303C251.243 31.3414 251.186 31.2525 251.14 31.1706L251.126 31.1496C251.076 31.0677 251.023 30.9788 250.976 30.8969L250.948 30.8501C250.88 30.7332 250.819 30.6255 250.763 30.5156V30.4945C250.695 30.3776 250.634 30.27 250.578 30.16L250.183 29.2733L249.895 28.4218L249.792 27.9796C249.792 27.9796 249.785 27.9328 249.778 27.9048L249.743 27.6942C249.743 27.6942 249.743 27.6404 249.736 27.6194C249.736 27.5983 249.736 27.5726 249.729 27.5445L249.715 27.1889L249.729 26.9105V26.8497L250.58 26.9316L249.736 26.8356L249.757 26.707C249.757 26.707 249.764 26.6602 249.771 26.6321L249.799 26.5034C249.799 26.5034 249.813 26.4637 249.813 26.4426C249.82 26.4075 249.827 26.3888 249.834 26.3678C249.841 26.3467 249.848 26.328 249.855 26.3069L250.667 26.5666L249.862 26.2882C249.862 26.2882 249.876 26.2531 249.883 26.2344C249.897 26.2063 249.904 26.1876 249.911 26.1736L250.709 26.4871L249.925 26.1595L249.946 26.1198C249.946 26.1198 249.968 26.073 249.982 26.059V26.0449C249.982 26.0449 250.01 26.0051 250.021 25.9841C250.035 25.963 250.042 25.9443 250.056 25.9233C250.07 25.9022 250.084 25.8835 250.089 25.8624C250.103 25.8414 250.117 25.8227 250.129 25.8016C250.143 25.7735 250.157 25.7618 250.171 25.7408C250.185 25.7197 250.204 25.694 250.225 25.6659C250.232 25.6589 250.246 25.6379 250.258 25.6262C250.286 25.5911 250.318 25.5583 250.354 25.5232L254.724 21.1602L255.931 22.3603L255.835 22.5381L255.795 22.8118V22.8586L255.844 23.3148L256.022 23.9839L256.403 24.8986L256.471 25.0343C256.518 25.1372 256.572 25.2378 256.628 25.3407L256.642 25.3688C256.689 25.4577 256.743 25.5607 256.806 25.6612L256.827 25.6963C256.869 25.7712 256.916 25.8461 256.965 25.9279L256.979 25.949C257.026 26.0239 257.068 26.0987 257.122 26.1736L257.143 26.2017C257.192 26.2765 257.231 26.3373 257.271 26.4052L257.306 26.452C257.339 26.5058 257.381 26.5619 257.416 26.6228L257.444 26.6625C257.533 26.7912 257.629 26.9292 257.723 27.0579L257.737 27.0789C257.833 27.2076 257.922 27.3316 258.011 27.4533L258.032 27.4884C258.113 27.5983 258.209 27.72 258.303 27.8439L258.324 27.865C258.413 27.975 258.502 28.0826 258.591 28.1995L258.619 28.2346C258.708 28.3446 258.797 28.4452 258.893 28.5551L258.921 28.5832C259.024 28.7002 259.11 28.8078 259.208 28.9107L259.236 28.9458C259.332 29.0558 259.435 29.1634 259.536 29.2733L259.55 29.2874C259.66 29.4044 259.767 29.519 259.884 29.636L259.283 30.2419L259.896 29.6477C259.992 29.7506 260.095 29.8512 260.196 29.9471L260.263 30.015C260.378 30.1249 260.488 30.2395 260.605 30.3495L260.638 30.3776C260.776 30.5062 260.911 30.6372 261.047 30.7589L261.061 30.7729C261.239 30.9367 261.417 31.0864 261.585 31.2361L261.613 31.2572C261.723 31.3531 261.824 31.442 261.934 31.5239L261.969 31.552C262.079 31.6409 262.179 31.7298 262.289 31.8116L262.31 31.8257C262.427 31.9146 262.535 32.0035 262.652 32.0854C262.774 32.1743 262.884 32.2632 263.001 32.345L263.022 32.3591C263.122 32.4339 263.232 32.5088 263.342 32.5837L263.377 32.6047C263.473 32.6726 263.576 32.7404 263.677 32.8082L263.712 32.8293C263.815 32.8971 263.911 32.958 264.004 33.0211L264.039 33.0422C264.135 33.103 264.229 33.1592 264.327 33.22L264.367 33.241C264.414 33.2691 264.463 33.2949 264.51 33.3229L264.531 33.337C264.591 33.3721 264.652 33.4048 264.708 33.4329L265.09 33.6364C265.172 33.6762 265.253 33.7183 265.335 33.7581L265.363 33.7721C265.445 33.8119 265.527 33.847 265.602 33.8821L265.63 33.8961C265.698 33.9242 265.759 33.9499 265.829 33.978L265.864 33.992C265.932 34.0201 265.993 34.0388 266.054 34.0669H266.075C266.124 34.0949 266.171 34.1066 266.224 34.1277L266.264 34.1417C266.313 34.1558 266.367 34.1768 266.414 34.1885H266.442C266.482 34.2096 266.524 34.2166 266.559 34.2283H266.592C266.641 34.2493 266.681 34.2634 266.72 34.2681H266.741C266.741 34.2681 266.809 34.2891 266.842 34.2961H266.877C266.912 34.3102 266.945 34.3102 266.973 34.3172H267.001C267.001 34.3172 267.069 34.3312 267.104 34.3312H267.139C267.139 34.3312 267.186 34.3312 267.207 34.3382H267.424C267.424 34.3382 267.46 34.3382 267.474 34.3312H267.495C267.495 34.3312 267.534 34.3242 267.555 34.3172H267.57C267.57 34.3172 267.598 34.3102 267.619 34.3032C267.647 34.2961 267.658 34.2891 267.668 34.2891C267.689 34.2891 267.696 34.2751 267.708 34.2751C267.708 34.2751 267.736 34.261 267.74 34.254C267.754 34.247 267.761 34.24 267.768 34.233L267.782 34.2189L267.796 34.2049L267.81 34.1909L269.011 35.405L264.552 39.85C264.552 39.85 264.484 39.9038 264.449 39.9319L264.421 39.9529C264.381 39.988 264.332 40.0137 264.292 40.0418L264.245 40.0699C264.245 40.0699 264.217 40.0839 264.205 40.0909C264.166 40.112 264.131 40.1307 264.088 40.1518L264.06 40.1658C264.011 40.1869 263.971 40.2056 263.922 40.2266L263.876 40.2477C263.876 40.2477 263.854 40.2547 263.836 40.2617C263.801 40.2758 263.761 40.2898 263.726 40.2968L263.679 40.3108C263.63 40.3249 263.576 40.3389 263.522 40.3506H263.494C263.454 40.3647 263.405 40.3717 263.359 40.3787H263.316C263.277 40.3927 263.235 40.3927 263.195 40.3997H263.127C263.073 40.3997 263.024 40.4068 262.977 40.4068H262.963L262.956 40.4278L262.942 40.4161ZM262.928 38.7107H263.031C263.031 38.7107 263.071 38.7107 263.085 38.7036H263.106C263.106 38.7036 263.148 38.6966 263.167 38.6896H263.181C263.181 38.6896 263.216 38.6826 263.23 38.6756C263.258 38.6686 263.263 38.6615 263.277 38.6615H263.291C263.291 38.6615 263.312 38.6475 263.319 38.6475H263.333C263.333 38.6475 263.347 38.6335 263.354 38.6264L263.368 38.6124H263.382C263.382 38.6124 263.396 38.5914 263.403 38.5843L263.424 38.5633L266.11 35.8846C266.056 35.8706 266.007 35.8565 265.953 35.8448L265.913 35.8308C265.845 35.8098 265.777 35.791 265.714 35.77L265.675 35.7559C265.607 35.7349 265.546 35.7092 265.476 35.6881H265.455C265.373 35.653 265.298 35.6203 265.223 35.5922L265.183 35.5782C265.108 35.5431 265.027 35.5173 264.952 35.4822L264.919 35.4682C264.83 35.4284 264.734 35.3863 264.638 35.3465L264.605 35.3325C264.509 35.2857 264.414 35.2436 264.318 35.1968L263.873 34.9652C263.812 34.9301 263.752 34.8974 263.688 34.8623L263.667 34.8482C263.606 34.8132 263.55 34.7804 263.497 34.7523L263.447 34.7243C263.347 34.6634 263.237 34.5956 263.127 34.5254L263.087 34.4973C262.977 34.4295 262.87 34.3616 262.76 34.2868L262.725 34.2657C262.61 34.1909 262.5 34.116 262.39 34.0411L262.86 33.3323L262.376 34.0341L262.355 34.0201C262.238 33.9382 262.123 33.8563 262.006 33.7744L261.985 33.7604C261.861 33.6715 261.74 33.5826 261.618 33.4867L261.604 33.4727C261.487 33.3838 261.372 33.2949 261.248 33.1989L261.22 33.1779C261.103 33.082 260.989 32.9931 260.872 32.8995L260.839 32.8714C260.722 32.7755 260.614 32.6796 260.497 32.586L260.462 32.5579C260.277 32.4012 260.095 32.2374 259.903 32.0666L259.882 32.0456C259.739 31.9169 259.59 31.7789 259.447 31.6362L259.414 31.6011C259.29 31.4841 259.169 31.3625 259.047 31.2455L258.979 31.1777C258.869 31.0677 258.769 30.9601 258.659 30.8572L258.645 30.8431C258.523 30.7215 258.406 30.5975 258.289 30.4688L258.275 30.4548C258.165 30.3378 258.057 30.2161 257.947 30.0992L257.919 30.0641C257.816 29.9471 257.72 29.8395 257.62 29.7225L257.592 29.6874C257.491 29.5658 257.393 29.4488 257.299 29.3389L257.267 29.2991C257.171 29.1821 257.075 29.0675 256.979 28.9435L256.958 28.9154C256.857 28.7867 256.754 28.6487 256.651 28.52L256.63 28.485C256.534 28.3633 256.441 28.2323 256.345 28.0966L256.317 28.0568C256.214 27.9211 256.118 27.7784 256.017 27.6334L255.989 27.5936C255.949 27.5258 255.907 27.472 255.868 27.4088L255.832 27.362C255.783 27.2872 255.737 27.2123 255.69 27.1445L255.669 27.1094C255.613 27.0205 255.559 26.9316 255.505 26.8497V26.8356C255.444 26.7467 255.388 26.6649 255.341 26.576L255.32 26.5362C255.252 26.4192 255.191 26.3046 255.131 26.1876V26.1666C255.056 26.0496 254.993 25.9279 254.939 25.818L254.483 24.7816L254.251 24.0517L251.488 26.8403L251.427 27.1V27.2357L251.467 27.6989L251.685 28.4826L252.087 29.4161C252.136 29.519 252.19 29.6196 252.244 29.7225V29.7366C252.305 29.8395 252.361 29.9354 252.422 30.036L252.443 30.0711C252.489 30.153 252.539 30.2278 252.578 30.3027L251.855 30.7589L252.585 30.3167C252.632 30.3916 252.681 30.4665 252.728 30.5483L252.749 30.5834C252.789 30.6513 252.831 30.7121 252.878 30.7823L252.906 30.8291C252.941 30.8829 252.981 30.939 253.016 30.9999L253.051 31.0466C253.133 31.1683 253.229 31.3063 253.325 31.435L253.346 31.4631C253.435 31.5847 253.523 31.7087 253.619 31.8304L253.633 31.8444C253.729 31.9731 253.823 32.09 253.921 32.2117L253.935 32.2257C254.031 32.3427 254.12 32.4503 254.207 32.5673L254.235 32.6024C254.331 32.7123 254.419 32.8199 254.508 32.9299L254.543 32.9697C254.632 33.0726 254.728 33.1802 254.822 33.2902L254.836 33.3112C254.946 33.4329 255.046 33.5428 255.149 33.6528L255.163 33.6668C255.273 33.7838 255.374 33.8914 255.484 34.0084L255.491 34.0154L255.505 34.0294C255.606 34.1394 255.704 34.233 255.804 34.3359L255.872 34.4038C255.987 34.5207 256.104 34.6283 256.221 34.7383L256.242 34.7593C256.392 34.9021 256.53 35.026 256.665 35.1477L256.693 35.1758C256.857 35.3255 257.033 35.4822 257.21 35.632L257.239 35.653C257.348 35.7489 257.449 35.8378 257.559 35.9197L257.587 35.9408C257.704 36.0367 257.812 36.1256 257.915 36.2075L257.409 36.8953L257.933 36.2192C258.05 36.3151 258.165 36.397 258.275 36.4859H258.289C258.399 36.5818 258.514 36.6637 258.623 36.7385L258.139 37.4403L258.645 36.7526C258.754 36.8274 258.855 36.9023 258.965 36.9771L258.998 36.9982C259.101 37.066 259.197 37.1339 259.297 37.2017L259.332 37.2228C259.435 37.2906 259.531 37.3514 259.625 37.4146L259.66 37.4357C259.76 37.4965 259.859 37.5573 259.952 37.6135L259.992 37.6415C260.041 37.6696 260.088 37.6953 260.135 37.7234L259.732 38.4814L260.156 37.7375C260.212 37.7726 260.273 37.7983 260.327 37.8334L260.722 38.0369C260.797 38.072 260.879 38.1118 260.961 38.1539L260.989 38.1679C261.071 38.2077 261.145 38.2428 261.227 38.2779L261.255 38.2919C261.316 38.32 261.384 38.3457 261.445 38.3738H261.466C261.541 38.4136 261.602 38.4346 261.665 38.4627H261.672C261.733 38.4908 261.782 38.5025 261.828 38.5235L261.868 38.5375C261.917 38.5516 261.971 38.5726 262.018 38.5843H262.051C262.086 38.6054 262.126 38.6124 262.168 38.6241H262.203C262.243 38.6452 262.285 38.6522 262.324 38.6639H262.353C262.392 38.6779 262.427 38.6849 262.463 38.692H262.498C262.53 38.706 262.565 38.706 262.593 38.713H262.622C262.622 38.713 262.682 38.727 262.717 38.727H262.746C262.746 38.727 262.795 38.727 262.813 38.7341H262.923L262.937 38.699L262.928 38.7107Z" fill="#5533E5"></path><path d="M269.386 33.9571C268.691 33.9571 267.783 33.7465 266.604 33.1804C264.859 32.3358 262.908 30.876 261.095 29.07C257.555 25.5234 254.958 20.9568 256.839 19.0665C257.466 18.4395 258.748 17.9623 261.326 19.2092C263.071 20.0538 265.023 21.5136 266.836 23.3266C270.375 26.8732 272.972 31.4398 271.091 33.3301C270.75 33.6717 270.219 33.9641 269.386 33.9641V33.9571ZM258.559 20.1356C258.287 20.1356 258.124 20.1965 258.049 20.2713C257.483 20.8375 258.477 24.0285 262.302 27.8605C263.979 29.5379 265.767 30.8807 267.348 31.6457C268.951 32.4224 269.706 32.2937 269.884 32.1159C270.45 31.5498 269.454 28.3588 265.629 24.5268C263.951 22.8494 262.157 21.5066 260.582 20.7416C259.621 20.2783 258.966 20.1356 258.556 20.1356H258.559Z" fill="#5533E5"></path><path d="M267.307 36.05H267.082C267.082 36.05 267.014 36.0429 266.965 36.0359H266.918C266.862 36.0289 266.815 36.0219 266.761 36.0149H266.708C266.658 36.0008 266.612 35.9938 266.57 35.9868H266.516C266.467 35.9657 266.42 35.9587 266.366 35.947H266.352C266.291 35.933 266.228 35.9189 266.16 35.9002L266.113 35.8862C266.057 35.8722 266.003 35.8581 265.95 35.8394L265.903 35.8254C265.847 35.8113 265.779 35.7903 265.711 35.7645L265.671 35.7505C265.603 35.7295 265.543 35.7107 265.479 35.6827H265.458V35.6756C265.384 35.6476 265.302 35.6218 265.227 35.5867L265.187 35.5727C265.105 35.5376 265.03 35.5119 264.955 35.4768L264.913 35.4557C264.824 35.4206 264.735 35.3739 264.642 35.3341L264.607 35.32C264.511 35.2733 264.417 35.2311 264.319 35.1844L263.877 34.9528C263.816 34.9177 263.755 34.8849 263.685 34.8428L263.664 34.8288C263.603 34.7937 263.547 34.7609 263.493 34.7258L263.444 34.6978C263.344 34.6369 263.234 34.5691 263.124 34.5059L263.084 34.4779C262.981 34.41 262.873 34.3422 262.763 34.2743L262.721 34.2462C262.611 34.1714 262.504 34.0965 262.394 34.0217L262.366 34.0006C262.242 33.9187 262.127 33.8368 262.01 33.7479L261.989 33.7339C261.872 33.645 261.75 33.5561 261.629 33.4602L261.608 33.4462C261.498 33.3643 261.383 33.2684 261.259 33.1724L261.764 32.4846L261.24 33.1607C261.119 33.0648 261.002 32.9689 260.892 32.8753L260.857 32.8473C260.74 32.7513 260.632 32.6554 260.515 32.5618L260.501 32.5478L260.473 32.5268C260.295 32.37 260.106 32.2063 259.921 32.0355L259.893 32.0074C259.757 31.8787 259.607 31.7407 259.465 31.605L259.43 31.5699C259.308 31.4529 259.184 31.3313 259.062 31.2143L258.994 31.1465C258.885 31.0365 258.784 30.9289 258.674 30.826L258.66 30.8119C258.543 30.6903 258.428 30.5663 258.311 30.4446L258.297 30.4236C258.187 30.3019 258.08 30.185 257.977 30.068L257.942 30.0282C257.841 29.9113 257.738 29.7966 257.642 29.6797L257.614 29.6446C257.514 29.5276 257.415 29.413 257.322 29.296L257.289 29.2562C257.193 29.1392 257.097 29.0176 257.001 28.9006L256.973 28.8725C256.863 28.7369 256.767 28.6129 256.674 28.4842L256.646 28.4491C256.55 28.3275 256.456 28.1964 256.358 28.0608L256.33 28.021C256.234 27.8853 256.131 27.7426 256.037 27.5975L256.009 27.5578C255.96 27.4899 255.92 27.4291 255.881 27.3659L255.846 27.3191C255.799 27.2443 255.75 27.1764 255.703 27.1016L255.675 27.0618C255.619 26.9799 255.572 26.891 255.518 26.8092L255.504 26.7881C255.448 26.6992 255.401 26.6173 255.354 26.5284L255.326 26.4816C255.265 26.3717 255.198 26.257 255.141 26.1471L255.127 26.126C255.067 26.0161 255.006 25.9014 254.95 25.7845L254.493 24.7481L254.255 23.9901L254.234 23.9082C254.234 23.9082 254.22 23.8615 254.213 23.8334L254.117 23.2532L254.096 22.9608V22.8251L254.124 22.4016C254.124 22.3876 254.124 22.3665 254.131 22.3478L254.145 22.266C254.145 22.266 254.159 22.2192 254.159 22.1911L254.192 22.0484C254.192 22.0484 254.206 22.0016 254.213 21.9876C254.213 21.9735 254.227 21.9478 254.234 21.9267C254.241 21.8987 254.248 21.887 254.255 21.8659C254.262 21.8449 254.276 21.8261 254.283 21.7981C254.297 21.763 254.304 21.7443 254.318 21.7232C254.325 21.7021 254.339 21.6764 254.351 21.6554C254.365 21.6343 254.372 21.6156 254.386 21.5945C254.393 21.5805 254.407 21.5524 254.419 21.5337C254.433 21.5127 254.44 21.4939 254.454 21.4799C254.475 21.4518 254.489 21.4331 254.503 21.4121C254.517 21.391 254.531 21.377 254.536 21.3653C254.557 21.3302 254.575 21.3115 254.589 21.2904C254.603 21.2693 254.617 21.2506 254.638 21.2366C254.659 21.2085 254.692 21.1758 254.727 21.1407L256.828 19.0469L258.035 20.247L258 20.2868L257.979 20.3336H257.946L257.974 20.3476L257.914 20.6611V20.736L257.953 21.1921L258.131 21.8542L258.573 22.9046C258.623 23.0076 258.676 23.1082 258.73 23.2111L258.744 23.2392C258.793 23.3281 258.847 23.431 258.908 23.5316L258.929 23.5667C258.969 23.6415 259.018 23.7164 259.067 23.7983L259.081 23.8193C259.128 23.8942 259.17 23.9691 259.224 24.0439L259.245 24.079C259.285 24.1469 259.334 24.2147 259.373 24.2826L259.409 24.3293C259.441 24.3831 259.483 24.4393 259.519 24.4931L259.547 24.5329C259.635 24.6615 259.731 24.7996 259.825 24.9282L259.846 24.9563C259.935 25.078 260.024 25.202 260.117 25.3236L259.451 25.8547L260.131 25.3353C260.22 25.457 260.316 25.5809 260.412 25.6956L260.433 25.7166C260.522 25.8266 260.611 25.9342 260.7 26.0512L260.735 26.0909C260.824 26.1939 260.913 26.3015 261.002 26.4044L261.03 26.4325C261.126 26.5495 261.222 26.6571 261.318 26.76L261.346 26.7881C261.449 26.9051 261.549 27.0127 261.652 27.1226L261.666 27.1367C261.776 27.2536 261.884 27.3683 262.001 27.4853L262.015 27.4993C262.111 27.6022 262.214 27.7028 262.314 27.7987L262.382 27.8666C262.497 27.9765 262.607 28.0912 262.721 28.2011L262.756 28.2362C262.892 28.3649 263.03 28.4959 263.166 28.6175L262.614 29.2656L263.187 28.6316C263.365 28.7883 263.535 28.9451 263.711 29.0948L263.739 29.1158C263.849 29.2118 263.949 29.3007 264.059 29.3825L264.092 29.4106C264.202 29.4995 264.303 29.5884 264.413 29.6703L264.445 29.6984C264.548 29.7802 264.663 29.8691 264.773 29.951C264.895 30.0399 265.005 30.1288 265.122 30.2107L265.143 30.2247C265.245 30.2996 265.353 30.3745 265.456 30.4493L265.484 30.4704C265.587 30.5382 265.688 30.6131 265.791 30.6739L265.826 30.695C265.929 30.7628 266.025 30.8236 266.118 30.8868L266.153 30.9079C266.249 30.9687 266.343 31.0248 266.439 31.0857L266.478 31.1137C266.52 31.1418 266.574 31.1675 266.621 31.1956L266.642 31.2096C266.703 31.2447 266.759 31.2775 266.82 31.3056L267.208 31.5091C267.29 31.5512 267.372 31.591 267.454 31.6307L267.489 31.6448C267.564 31.6799 267.646 31.7126 267.721 31.7477L267.749 31.7618C267.817 31.7898 267.877 31.8156 267.948 31.8436L267.98 31.8577C268.048 31.8857 268.109 31.9045 268.172 31.9325H268.193C268.242 31.9606 268.289 31.9723 268.343 31.9934L268.383 32.0074C268.429 32.0214 268.486 32.0425 268.532 32.0542H268.56C268.6 32.0752 268.642 32.0823 268.677 32.094L268.717 32.108C268.757 32.115 268.799 32.129 268.846 32.1361H268.874C268.874 32.1361 268.935 32.1571 268.97 32.1641H268.998C269.04 32.1782 269.066 32.1782 269.101 32.1852H269.122C269.155 32.1922 269.19 32.1992 269.223 32.1992H269.258C269.258 32.1992 269.307 32.1992 269.333 32.2062H269.55C269.55 32.2062 269.585 32.2062 269.604 32.1992H269.625C269.625 32.1992 269.665 32.1922 269.686 32.1852H269.7C269.7 32.1852 269.728 32.1782 269.747 32.1712C269.775 32.1641 269.786 32.1571 269.796 32.1571C269.817 32.1571 269.824 32.1431 269.835 32.1431C269.835 32.1431 269.857 32.129 269.871 32.122C269.885 32.115 269.892 32.108 269.899 32.108L269.913 32.094L269.927 32.0799L269.941 32.0659L271.141 33.2801L268.958 35.4487C268.958 35.4487 268.89 35.5025 268.858 35.5376L268.822 35.5657C268.783 35.5938 268.741 35.6265 268.694 35.6546L268.661 35.6756C268.661 35.6756 268.626 35.6967 268.612 35.7037C268.577 35.7248 268.537 35.7435 268.495 35.7645L268.467 35.7786C268.427 35.7996 268.378 35.8184 268.331 35.8324L268.282 35.8534C268.282 35.8534 268.254 35.8605 268.242 35.8675C268.203 35.8815 268.167 35.8956 268.132 35.9026L268.083 35.9166C268.029 35.9306 267.973 35.9447 267.919 35.9587H267.891C267.849 35.9728 267.803 35.9798 267.753 35.9868H267.714C267.667 36.0008 267.625 36.0008 267.592 36.0078H267.353L267.304 36.0546L267.307 36.05ZM267.292 34.3445H267.395C267.395 34.3445 267.435 34.3445 267.449 34.3375H267.47C267.47 34.3375 267.512 34.3305 267.531 34.3234H267.538C267.538 34.3234 267.571 34.3164 267.585 34.3094C267.613 34.3024 267.625 34.2954 267.634 34.2954H267.655C267.655 34.2954 267.662 34.2813 267.676 34.2813C267.676 34.2813 267.704 34.2673 267.711 34.2603C267.711 34.2603 267.725 34.2462 267.732 34.2462C267.732 34.2462 267.753 34.2322 267.76 34.2252L267.774 34.2112L268.184 33.8018C268.137 33.7877 268.083 33.7737 268.034 33.762L267.994 33.7479C267.926 33.7269 267.866 33.7082 267.795 33.6871L267.756 33.6731C267.688 33.652 267.627 33.6263 267.557 33.6052H267.536C267.454 33.5701 267.379 33.5374 267.304 33.5093L267.262 33.4953C267.18 33.4602 267.105 33.4345 267.023 33.3994L266.991 33.3853C266.902 33.3456 266.806 33.3034 266.712 33.2637L266.677 33.2426C266.588 33.2029 266.492 33.1537 266.399 33.1069L266.345 33.0789C266.305 33.0578 266.263 33.0368 266.216 33.011L266.149 32.9759C266.109 32.9549 266.06 32.9291 266.01 32.9011L265.95 32.866C265.889 32.8309 265.826 32.7981 265.765 32.763L265.744 32.749C265.683 32.7139 265.627 32.6812 265.573 32.6461L265.54 32.625C265.423 32.5572 265.316 32.4893 265.206 32.4215L265.166 32.4004C265.056 32.3326 264.948 32.2647 264.838 32.1899L264.806 32.1688C264.689 32.094 264.581 32.0191 264.471 31.9442L264.431 31.9162C264.321 31.8413 264.207 31.7594 264.09 31.6705L264.069 31.6565C263.947 31.5676 263.823 31.4787 263.701 31.3828C263.573 31.2868 263.456 31.1909 263.334 31.0974L263.313 31.0763C263.198 30.9804 263.081 30.8845 262.965 30.7979L262.929 30.7698C262.815 30.6739 262.705 30.578 262.59 30.4844L262.555 30.4563C262.37 30.2996 262.181 30.1288 261.996 29.9651L261.975 29.944C261.832 29.8153 261.683 29.6773 261.54 29.5346L261.505 29.4995C261.383 29.3825 261.259 29.2609 261.137 29.1439L261.07 29.0761C260.96 28.9661 260.859 28.8585 260.749 28.7556L260.735 28.7415C260.613 28.6199 260.496 28.4889 260.379 28.3672L260.365 28.3532C260.255 28.2315 260.148 28.1146 260.038 27.9976L260.01 27.9695C259.9 27.8525 259.804 27.7379 259.703 27.6209L259.664 27.5742C259.568 27.4642 259.472 27.3496 259.376 27.2326L259.341 27.1928C259.245 27.0758 259.151 26.9612 259.055 26.8372L259.034 26.8092C258.931 26.6805 258.831 26.5425 258.728 26.4138L258.707 26.3787C258.611 26.257 258.517 26.126 258.419 25.9903L258.391 25.9553C258.29 25.8125 258.187 25.6698 258.091 25.5248L258.063 25.485C258.021 25.4172 257.982 25.3634 257.939 25.3002L257.907 25.2534C257.858 25.1786 257.811 25.1037 257.764 25.0359L257.743 25.0008C257.682 24.9048 257.633 24.823 257.579 24.7411L257.565 24.72C257.511 24.6381 257.462 24.5492 257.415 24.4603L257.394 24.4206C257.326 24.3036 257.266 24.189 257.202 24.072L257.188 24.0509C257.128 23.934 257.067 23.8193 257.011 23.7024L256.554 22.673L256.37 22.1279C256.37 22.1279 256.356 22.0811 256.349 22.0531L256.321 21.9361L255.857 22.4063V22.3923L255.825 22.4671L255.027 22.1607L255.818 22.4882L255.778 22.68V22.8438L255.813 23.3L255.97 23.8989L256.372 24.8744L256.454 25.0312C256.503 25.1271 256.55 25.223 256.604 25.3166L256.618 25.3376C256.667 25.4336 256.728 25.5295 256.781 25.6301L256.809 25.6769C256.849 25.7447 256.891 25.8196 256.938 25.9014L256.952 25.9225C256.992 25.9903 257.041 26.0652 257.09 26.1471L257.111 26.1822C257.151 26.243 257.193 26.3108 257.24 26.381L257.268 26.4208C257.308 26.4816 257.343 26.5378 257.385 26.5916V26.6056L256.702 27.1039L257.404 26.6197C257.5 26.7624 257.596 26.8934 257.691 27.0291L257.705 27.0501C257.801 27.1788 257.89 27.3028 257.984 27.4244L257.998 27.4455C258.087 27.5671 258.183 27.6911 258.279 27.8058L258.293 27.8268C258.389 27.9438 258.477 28.0514 258.564 28.1684L258.592 28.2035C258.688 28.3134 258.777 28.421 258.866 28.531L258.901 28.5708C258.99 28.6807 259.086 28.7813 259.179 28.8913L259.193 28.9123C259.303 29.034 259.404 29.1439 259.507 29.2609L259.528 29.289C259.624 29.3989 259.738 29.5135 259.848 29.6305L259.869 29.6516C259.965 29.7475 260.068 29.8504 260.162 29.951L260.223 30.0118C260.34 30.1288 260.454 30.2364 260.571 30.3534L260.592 30.3745C260.742 30.5172 260.88 30.6412 261.016 30.7698L261.037 30.7909C261.215 30.9476 261.385 31.1044 261.561 31.2541L261.596 31.2822C261.699 31.3711 261.802 31.46 261.902 31.5418L261.923 31.5629C262.045 31.6658 262.148 31.7477 262.258 31.8366L262.279 31.8507C262.396 31.9466 262.511 32.0285 262.621 32.1173L262.635 32.1314C262.749 32.2203 262.859 32.3022 262.962 32.377L262.983 32.3911C263.093 32.4659 263.194 32.5408 263.304 32.6157L263.339 32.6367C263.442 32.7045 263.538 32.7724 263.638 32.8402L263.666 32.8613C263.769 32.9291 263.87 32.99 263.966 33.0531L264.006 33.0742C264.102 33.135 264.195 33.1912 264.291 33.252L264.331 33.273C264.38 33.3011 264.434 33.3339 264.481 33.3619L264.502 33.376C264.562 33.4111 264.619 33.4368 264.672 33.4719L265.054 33.6754C265.143 33.7152 265.224 33.7573 265.306 33.7971L265.334 33.8111C265.416 33.8509 265.491 33.886 265.573 33.9211L265.606 33.9351C265.667 33.9632 265.734 33.9889 265.798 34.017L265.83 34.031C265.898 34.0591 265.959 34.0778 266.022 34.1059H266.043C266.097 34.134 266.146 34.1456 266.193 34.1667L266.226 34.1807C266.28 34.2018 266.336 34.2158 266.382 34.2275H266.411C266.45 34.2486 266.492 34.2556 266.528 34.2673L266.567 34.2813C266.607 34.2884 266.649 34.3024 266.696 34.3094H266.717C266.717 34.3094 266.785 34.3305 266.818 34.3375H266.853C266.853 34.3375 266.921 34.3515 266.949 34.3585H266.97C267.002 34.3656 267.038 34.3726 267.07 34.3726H267.105C267.105 34.3726 267.154 34.3726 267.173 34.3796H267.283L267.304 34.3398L267.292 34.3445ZM257.392 27.3075L257.043 27.5742L257.684 27.1039L257.392 27.3075Z" fill="#5533E5"></path><path d="M274.81 95.7682C274.3 95.7682 273.821 95.5693 273.46 95.209L250.183 71.9316C249.439 71.1876 249.439 69.9758 250.183 69.2319L263.731 55.6841C264.091 55.3239 264.568 55.125 265.081 55.125C265.593 55.125 266.07 55.3239 266.43 55.6841L289.708 78.9616C290.068 79.3242 290.267 79.8015 290.267 80.3115C290.267 80.8215 290.068 81.301 289.708 81.6613L276.16 95.209C275.798 95.5717 275.32 95.7682 274.81 95.7682ZM265.074 56.8351C265.034 56.8351 264.978 56.8422 264.931 56.896L251.383 70.4437C251.308 70.5185 251.308 70.6472 251.383 70.7291L274.661 94.0066C274.71 94.0557 274.764 94.0674 274.803 94.0674C274.843 94.0674 274.899 94.0534 274.946 94.0066L288.494 80.4588C288.54 80.4097 288.555 80.3559 288.555 80.3161C288.555 80.2764 288.54 80.2202 288.494 80.1734L265.216 56.896C265.167 56.8492 265.113 56.8351 265.074 56.8351Z" fill="#5533E5"></path><path d="M264.583 26.4245C264.366 26.4245 264.148 26.3426 263.977 26.1719C263.643 25.8373 263.643 25.2992 263.977 24.9647L267.094 21.8486C267.428 21.514 267.966 21.514 268.301 21.8486C268.635 22.1831 268.635 22.7212 268.301 23.0557L265.185 26.1719C265.021 26.3356 264.803 26.4245 264.579 26.4245H264.586H264.583Z" fill="#5533E5"></path><path d="M230.884 95.732C229.104 95.732 226.615 94.7564 223.424 92.8194C219.019 90.1407 213.844 85.9133 208.854 80.921C203.862 75.9309 199.634 70.7537 196.955 66.3509C194.003 61.4966 193.294 58.2518 194.841 56.696C196.396 55.1403 199.641 55.8515 204.496 58.8109C208.901 61.4896 214.076 65.7169 219.068 70.7093C224.058 75.6993 228.285 80.8765 230.966 85.2794C233.919 90.1337 234.628 93.3785 233.081 94.9342C232.548 95.4676 231.813 95.732 230.884 95.732ZM197.051 57.6108C196.567 57.6108 196.24 57.7207 196.057 57.9102C195.416 58.5512 195.648 60.9164 198.415 65.4713C201.026 69.7595 205.165 74.8267 210.061 79.7208C214.958 84.6173 220.022 88.7558 224.311 91.3666C228.866 94.1342 231.233 94.3728 231.872 93.7248C232.513 93.0837 232.281 90.7186 229.514 86.1637C226.903 81.8755 222.764 76.8082 217.868 71.9141C212.971 67.0177 207.906 62.8792 203.616 60.2684C200.378 58.2985 198.245 57.6084 197.049 57.6084L197.051 57.6108Z" fill="#5533E5"></path><path d="M201.929 88.0623C201.786 87.9196 201.69 87.7277 201.683 87.5102C201.655 87.0399 202.018 86.6375 202.488 86.6095L230.266 84.9859C230.737 84.9578 231.139 85.3204 231.167 85.7907C231.195 86.2609 230.833 86.6633 230.362 86.6914L202.584 88.3149C202.331 88.329 202.1 88.233 201.929 88.0693V88.0623Z" fill="#5533E5"></path><path d="M201.926 88.064C201.762 87.9002 201.659 87.6616 201.68 87.4089L203.309 59.5485C203.337 59.0783 203.739 58.7156 204.209 58.7437C204.68 58.7718 205.042 59.1742 205.014 59.6444L203.384 87.5048C203.356 87.9751 202.955 88.3377 202.483 88.3096C202.265 88.2956 202.073 88.1997 201.931 88.064H201.924H201.926Z" fill="#5533E5"></path><path d="M201.927 88.0645C201.592 87.7299 201.592 87.1919 201.927 86.8573L217.971 70.8134C218.305 70.4789 218.843 70.4789 219.178 70.8134C219.512 71.1479 219.512 71.686 219.178 72.0206L203.134 88.0645C202.799 88.399 202.261 88.399 201.927 88.0645Z" fill="#5533E5"></path><path d="M204.692 89.6241C205.195 89.1211 204.634 87.7432 203.438 86.5477C202.243 85.3522 200.865 84.7908 200.362 85.2938C199.859 85.7967 200.421 87.1747 201.616 88.3701C202.812 89.5656 204.189 90.127 204.692 89.6241Z" fill="#5533E5"></path><path d="M200.542 89.4487C201.225 90.1295 201.585 90.8805 201.346 91.1191C201.108 91.3577 200.364 90.9975 199.683 90.3143C199 89.6336 198.64 88.8826 198.878 88.644C199.117 88.4053 199.861 88.7656 200.542 89.4487Z" fill="#5533E5"></path><path d="M198.877 88.6338C198.877 88.6338 198.884 88.6268 198.891 88.6198C198.891 88.6198 198.905 88.6128 198.912 88.6058C198.912 88.6058 198.919 88.6058 198.926 88.5987C198.926 88.5987 198.94 88.5987 198.947 88.5917H199.165C199.165 88.5917 199.186 88.5917 199.193 88.5987H199.2C199.2 88.5987 199.221 88.5987 199.228 88.6058C199.242 88.6058 199.249 88.6058 199.261 88.6198H199.268C199.282 88.6198 199.289 88.6268 199.303 88.6338C199.317 88.6338 199.331 88.6408 199.343 88.6479H199.35C199.364 88.6479 199.378 88.6619 199.389 88.6619C199.403 88.6689 199.424 88.6759 199.438 88.683C199.452 88.69 199.471 88.697 199.485 88.711H199.492C199.492 88.711 199.506 88.7181 199.513 88.7251H199.527C199.527 88.7251 199.541 88.7321 199.555 88.7391H199.562C199.576 88.7391 199.583 88.7531 199.598 88.7602C199.605 88.7602 199.619 88.7742 199.626 88.7742H199.633C199.654 88.7882 199.672 88.7953 199.686 88.807H199.693C199.693 88.807 199.733 88.835 199.754 88.8467H199.761C199.782 88.8608 199.801 88.8748 199.822 88.8865C199.843 88.9005 199.862 88.9146 199.883 88.9356C199.883 88.9356 199.93 88.9707 199.951 88.9894C199.951 88.9894 199.991 89.0245 200.019 89.0432C200.04 89.0573 200.058 89.0783 200.079 89.0924C200.1 89.1064 200.119 89.1275 200.14 89.1462C200.175 89.1742 200.208 89.207 200.243 89.2351C200.243 89.2351 200.297 89.2889 200.325 89.3099C200.346 89.331 200.374 89.3497 200.393 89.3778C200.393 89.3778 200.4 89.3848 200.407 89.3918C200.428 89.4129 200.447 89.4316 200.468 89.4526C200.489 89.4737 200.508 89.5018 200.536 89.5205C200.557 89.5415 200.575 89.5603 200.596 89.5883C200.617 89.6094 200.629 89.6281 200.65 89.6492C200.65 89.6492 200.685 89.6983 200.704 89.717V89.724C200.725 89.7451 200.739 89.7638 200.758 89.7919C200.779 89.8199 200.798 89.841 200.812 89.8667C200.833 89.8948 200.847 89.9159 200.868 89.9416C200.889 89.9697 200.901 89.9954 200.922 90.0235V90.0305C200.929 90.0445 200.936 90.0515 200.943 90.0656V90.0726C200.95 90.0866 200.964 90.1007 200.971 90.1147V90.1217C200.978 90.1358 200.992 90.1568 200.999 90.1708C201.006 90.1849 201.02 90.2036 201.027 90.2176V90.2247C201.041 90.2457 201.048 90.2644 201.062 90.2855C201.076 90.3065 201.083 90.3252 201.097 90.3463V90.3603C201.097 90.3603 201.097 90.3744 201.104 90.3744V90.3884C201.104 90.3884 201.104 90.4024 201.111 90.4024V90.4165C201.111 90.4165 201.111 90.4235 201.118 90.4305V91.0107C201.118 91.0107 201.111 91.0177 201.104 91.0247L203.095 89.0339C203.095 89.0339 203.102 89.0269 203.109 89.0198V88.4397C203.109 88.4397 203.109 88.4326 203.102 88.4256V88.4116C203.102 88.4116 203.102 88.3975 203.095 88.3975V88.3835C203.095 88.3835 203.095 88.3695 203.088 88.3695V88.3554C203.074 88.3344 203.067 88.3157 203.053 88.2946C203.039 88.2736 203.032 88.2548 203.018 88.2338C203.011 88.2197 202.997 88.1987 202.99 88.1847C202.99 88.1847 202.969 88.1519 202.962 88.1379C202.955 88.1238 202.941 88.1098 202.934 88.0958V88.0887C202.927 88.0747 202.92 88.0677 202.912 88.0537C202.912 88.0537 202.877 87.9998 202.859 87.9718C202.838 87.9437 202.824 87.925 202.803 87.8969C202.781 87.8688 202.77 87.8501 202.749 87.822C202.728 87.801 202.716 87.7729 202.695 87.7542C202.674 87.7331 202.662 87.7144 202.641 87.6934C202.62 87.6723 202.606 87.6536 202.587 87.6325C202.587 87.6325 202.548 87.5858 202.526 87.5647C202.505 87.5437 202.487 87.5179 202.459 87.4969C202.438 87.4758 202.419 87.4571 202.398 87.436L202.391 87.429C202.37 87.408 202.342 87.3892 202.323 87.3612C202.323 87.3612 202.269 87.305 202.241 87.2863C202.208 87.2512 202.173 87.2255 202.14 87.1974C202.119 87.1764 202.101 87.1647 202.08 87.1436C202.059 87.1225 202.04 87.1085 202.019 87.0945C201.998 87.0734 201.979 87.0617 201.951 87.0407C201.93 87.0196 201.904 87.0079 201.883 86.9939C201.862 86.9798 201.843 86.9588 201.822 86.9447C201.801 86.9307 201.783 86.9167 201.761 86.905H201.754C201.733 86.8909 201.715 86.8769 201.694 86.8652H201.687C201.666 86.8512 201.647 86.8371 201.626 86.8301C201.619 86.8301 201.605 86.8161 201.598 86.8091C201.584 86.8091 201.577 86.795 201.565 86.788H201.558C201.558 86.788 201.544 86.781 201.53 86.774H201.516C201.516 86.774 201.502 86.767 201.495 86.7599H201.488C201.474 86.7529 201.453 86.7459 201.439 86.7319C201.425 86.7248 201.406 86.7178 201.392 86.7108C201.378 86.7108 201.364 86.6968 201.352 86.6968H201.345C201.331 86.6968 201.317 86.6827 201.305 86.6827C201.294 86.6827 201.284 86.6757 201.273 86.6687H201.266C201.251 86.6687 201.244 86.6617 201.23 86.6547C201.223 86.6547 201.209 86.6547 201.202 86.6476H201.195C201.195 86.6476 201.174 86.6476 201.167 86.6406H200.95C200.95 86.6406 200.936 86.6406 200.929 86.6476C200.929 86.6476 200.915 86.6476 200.915 86.6547C200.915 86.6547 200.901 86.6617 200.894 86.6687C200.894 86.6687 200.887 86.6757 200.88 86.6827L198.889 88.6736H198.896L198.882 88.6338H198.877Z" fill="#5533E5"></path><path d="M232.472 95.1795C232.255 95.1795 232.037 95.0976 231.866 94.9268C231.703 94.7631 231.614 94.5455 231.614 94.3209C231.614 94.0963 231.696 93.8858 231.866 93.715C232.507 93.074 232.276 90.7088 229.508 86.1539C226.897 81.8657 222.759 76.7985 217.862 71.9044C212.966 67.0079 207.901 62.8694 203.613 60.2586C199.058 57.491 196.693 57.2524 196.052 57.9004C195.717 58.235 195.179 58.235 194.845 57.9004C194.51 57.5659 194.51 57.0278 194.845 56.6933C197.135 54.41 201.526 54.2182 206.907 56.1693C212.306 58.125 218 61.9173 222.923 66.8465C227.852 71.7757 231.644 77.4629 233.6 82.8623C235.549 88.2501 235.359 92.6482 233.066 94.9315C232.903 95.0953 232.685 95.1842 232.461 95.1842H232.475L232.472 95.1795ZM219.067 70.7019C224.06 75.6919 228.287 80.8691 230.966 85.2719C231.995 86.9563 232.746 88.4489 233.23 89.745C233.263 87.9646 232.856 85.803 232.002 83.4378C230.128 78.263 226.479 72.8004 221.727 68.0419C216.973 63.2905 211.506 59.634 206.331 57.7671C203.959 56.9085 201.805 56.4991 200.024 56.5319C201.32 57.0161 202.813 57.7718 204.497 58.7964C208.902 61.4751 214.077 65.7025 219.067 70.6949V70.7019Z" fill="#5533E5"></path><path fill-rule="evenodd" clip-rule="evenodd" d="M89.6864 114.502C89.8174 114.348 90.0116 114.261 90.2128 114.266L95.3408 114.341C95.6216 114.345 95.8719 114.521 95.9702 114.783L97.6803 119.34L103.374 122.751L109.502 125.048L108.905 123.996L104.465 121.71C104.266 121.609 104.13 121.415 104.102 121.195C104.072 120.975 104.151 120.753 104.315 120.601L106.79 118.311C106.937 118.175 107.136 118.11 107.335 118.135L110.187 118.484C110.222 118.489 110.255 118.496 110.29 118.505L112.002 118.989C112.194 119.043 112.356 119.181 112.438 119.363L114.899 124.786L115.753 124.358L115.647 121.689C115.633 121.34 115.886 121.036 116.23 120.987L117.554 120.795C117.839 120.755 118.122 120.898 118.256 121.155L119.517 123.57L120.829 124.517L122.418 123.89C122.605 123.815 122.815 123.829 122.993 123.925C123.171 124.021 123.295 124.192 123.335 124.389L124.242 128.834C124.282 129.028 124.235 129.231 124.114 129.388L120.139 134.509L120.504 138.708L122.322 139.953L126.5 140.624C126.811 140.673 127.047 140.933 127.071 141.247L127.237 143.518L130.362 144.803L130.309 139.799L129.197 138.385C129.134 138.304 129.09 138.21 129.069 138.109L127.897 132.757C127.878 132.668 127.876 132.579 127.892 132.49L128.042 131.657C128.098 131.344 128.367 131.11 128.685 131.096L131.794 130.974C131.918 130.969 132.04 130.998 132.147 131.058L134.765 132.488L139.102 131.968C139.201 131.957 139.299 131.966 139.393 131.996L144.813 133.749C144.867 133.765 144.918 133.788 144.965 133.819L150.669 137.394L155.191 138.97C155.303 139.008 155.401 139.078 155.481 139.165L157.254 141.195C157.385 141.345 157.444 141.546 157.416 141.743C157.388 141.939 157.273 142.115 157.105 142.22L154.786 143.687C154.578 143.82 154.311 143.827 154.096 143.71L151.988 142.557C151.944 142.533 151.904 142.505 151.867 142.47L148.851 139.827L148.268 141.062C148.212 141.179 148.126 141.279 148.016 141.347L142.439 144.868L142.181 145.809L143.62 144.992C143.667 144.966 143.716 144.945 143.765 144.931L145.756 144.351C146.027 144.272 146.322 144.37 146.49 144.597L147.155 145.481L149.525 144.622C149.717 144.555 149.927 144.573 150.103 144.676C150.278 144.779 150.397 144.955 150.43 145.153L150.676 146.653C150.708 146.852 150.65 147.053 150.521 147.208L147.153 151.142C147.096 151.208 147.029 151.262 146.951 151.304L145.522 152.053L144.455 156.596C144.434 156.68 144.401 156.757 144.352 156.827L142.298 159.803L143.306 166.499C143.342 166.735 143.25 166.971 143.068 167.126L137.523 171.727L138.059 174.684L139.643 176.392C139.701 176.455 139.746 176.528 139.776 176.607L141.358 180.664C141.489 181.001 141.334 181.382 141.004 181.532L139.79 182.084C139.538 182.199 139.238 182.149 139.037 181.958L134.335 177.485L132.341 177.459L130.311 179.656C130.227 179.747 130.119 179.812 130.002 179.847L127.833 180.481C127.674 180.528 127.504 180.514 127.354 180.446L125.742 179.698L121.044 180.727L119.956 185.902L122.097 189.563L125.351 191.746L127.642 190.929L127.796 189.341C127.819 189.1 127.971 188.887 128.191 188.786L130.62 187.682C130.854 187.575 131.127 187.61 131.329 187.771L133.123 189.21C133.252 189.313 133.338 189.46 133.369 189.624L133.935 192.841L134.587 193.786L137.734 192.866C137.82 192.841 137.909 192.834 137.998 192.843L141.442 193.21C141.779 193.245 142.038 193.524 142.05 193.863L142.242 198.804L147.216 200.222L150.103 197.957L153.233 194.712C153.317 194.626 153.42 194.565 153.532 194.53L155.504 193.957L158.639 192.85L164.011 189.916C164.095 189.87 164.186 189.844 164.282 189.835L169.775 189.39L175.319 187.766C175.394 187.743 175.474 187.736 175.551 187.741L183.351 188.211C183.351 188.211 183.369 188.211 183.379 188.211L189.613 188.847L198.595 183.331C198.765 183.226 198.976 183.202 199.165 183.265L201.996 184.206C202.328 184.316 202.522 184.66 202.448 185.001L200.19 195.15L200.452 196.338C200.49 196.514 200.457 196.698 200.361 196.851C192.479 209.222 181.189 219.475 167.351 226.066C167.031 226.218 166.649 226.101 166.469 225.794L165.782 224.622C165.753 224.573 165.73 224.521 165.714 224.468L165.049 222.184L162.644 221.892C162.555 221.88 162.469 221.852 162.389 221.808L155.212 217.725L150.896 217.276C150.704 217.258 150.531 217.157 150.416 217.003L147.805 213.444C147.688 213.285 147.646 213.084 147.688 212.892L148.622 208.693C148.631 208.651 148.645 208.611 148.661 208.571L148.664 208.562L148.675 208.531C148.687 208.506 148.704 208.464 148.725 208.412C148.767 208.309 148.83 208.159 148.902 207.977C149.05 207.612 149.242 207.116 149.424 206.594C149.609 206.07 149.78 205.535 149.887 205.083C149.941 204.856 149.976 204.667 149.993 204.517C150.004 204.391 150 204.332 149.997 204.316C149.997 204.311 149.997 204.311 149.997 204.316C149.855 203.834 149.698 203.116 149.576 202.538C149.555 202.439 149.536 202.344 149.518 202.252L146.329 203.342C146.264 203.366 146.191 203.378 146.121 203.38L141.826 203.462C141.762 203.462 141.697 203.455 141.636 203.438L137.797 202.402C137.713 202.379 137.636 202.341 137.568 202.29L134.594 200.067L131.111 198.303L121.129 198.519C121.044 198.519 120.96 198.507 120.881 198.479L113.408 195.751C113.355 195.732 113.305 195.707 113.259 195.674L108.601 192.516C108.47 192.427 108.374 192.296 108.329 192.144L106.982 187.54L103.548 182.381L99.4793 177.089L99.0699 177.314L100.743 180.322L102.726 181.986C102.776 182.028 102.82 182.077 102.855 182.131L104.607 184.763C104.736 184.957 104.757 185.202 104.664 185.418C104.57 185.631 104.371 185.78 104.142 185.815L101.318 186.246C101.075 186.283 100.834 186.187 100.682 185.996L96.6392 180.896C96.6135 180.865 96.5924 180.832 96.5737 180.797L92.7207 173.671C92.6879 173.613 92.6669 173.55 92.6528 173.484L89.8782 159.957C89.8572 159.859 89.8595 159.759 89.8829 159.663L92.3113 149.51L90.2736 143.839C90.2432 143.752 90.2292 143.661 90.2338 143.57L90.5754 137.494L88.8278 131.524L84.7081 128.99L77.9284 129.835C77.6406 129.87 77.3646 129.72 77.2335 129.463L76.2931 127.582C76.2042 127.406 76.1972 127.201 76.272 127.018C76.3469 126.836 76.4966 126.695 76.6838 126.632L80.3052 125.402L80.1555 122.632C80.1391 122.342 80.3099 122.073 80.579 121.965L80.5883 121.96L80.6164 121.949C80.6398 121.939 80.6749 121.925 80.7217 121.906C80.8129 121.869 80.9439 121.813 81.1053 121.745C81.4282 121.609 81.8633 121.42 82.3242 121.214C82.7851 121.006 83.267 120.781 83.6787 120.573C84.1045 120.355 84.4063 120.18 84.549 120.07C84.9093 119.787 85.452 119.256 85.9293 118.772C86.1632 118.533 86.3714 118.315 86.5211 118.156C86.596 118.077 86.6568 118.014 86.6989 117.969L86.7457 117.918L86.7528 117.911L89.6771 114.511L89.6864 114.502ZM87.2721 118.355L87.7727 118.818L87.754 118.837L87.7049 118.891C87.6628 118.938 87.5996 119.003 87.5224 119.085C87.368 119.249 87.1528 119.473 86.9142 119.717C86.4439 120.196 85.8427 120.788 85.4052 121.132C85.1479 121.336 84.7338 121.565 84.3104 121.778C83.8706 122 83.3699 122.236 82.8973 122.447C82.4248 122.66 81.9779 122.852 81.6504 122.99C81.6177 123.004 81.5873 123.015 81.5568 123.029L81.7089 125.834C81.7253 126.138 81.5358 126.417 81.248 126.517L77.8769 127.664L78.2512 128.415L84.79 127.601C84.9444 127.582 85.0988 127.615 85.2321 127.697L89.78 130.492C89.925 130.581 90.0303 130.719 90.0771 130.881L91.9323 137.216C91.9533 137.291 91.9627 137.368 91.958 137.445L91.6188 143.497L93.6775 149.229C93.722 149.353 93.7313 149.488 93.6986 149.619L91.2585 159.822L93.9816 173.103L97.7575 180.086L101.519 184.828L102.893 184.62L101.786 182.961L99.7811 181.279C99.718 181.225 99.6641 181.162 99.6244 181.09L97.5586 177.375C97.4697 177.216 97.4487 177.031 97.4978 176.855C97.5493 176.68 97.6663 176.535 97.8253 176.446L99.346 175.608C99.6407 175.445 100.01 175.522 100.216 175.789L104.654 181.565C104.664 181.576 104.673 181.59 104.68 181.602L108.184 186.866C108.222 186.924 108.252 186.985 108.271 187.053L109.579 191.521L113.963 194.495L121.236 197.15L131.261 196.935C131.373 196.932 131.483 196.958 131.584 197.007L135.273 198.876C135.308 198.895 135.341 198.914 135.373 198.937L138.291 201.115L141.91 202.093L146.002 202.014L147.157 201.618L141.393 199.974C141.11 199.892 140.911 199.639 140.899 199.344L140.712 194.499L137.989 194.207L134.498 195.227C134.215 195.309 133.914 195.201 133.745 194.96L132.73 193.486C132.674 193.405 132.636 193.313 132.62 193.217L132.072 190.108L130.807 189.093L129.12 189.86L128.961 191.486C128.935 191.748 128.76 191.973 128.512 192.062L125.492 193.14C125.288 193.213 125.061 193.185 124.883 193.063L121.215 190.602C121.129 190.546 121.058 190.469 121.007 190.38L118.653 186.356C118.569 186.208 118.541 186.038 118.574 185.872L119.809 180.007C119.865 179.745 120.069 179.539 120.331 179.48L125.683 178.308C125.828 178.275 125.981 178.292 126.116 178.357L127.705 179.094L129.445 178.584L131.553 176.301C131.684 176.158 131.871 176.081 132.063 176.083L134.627 176.116C134.798 176.118 134.964 176.186 135.088 176.303L139.65 180.643L139.858 180.549L138.557 177.213L136.927 175.454C136.838 175.358 136.779 175.239 136.756 175.112L136.115 171.566C136.071 171.325 136.162 171.077 136.351 170.92L141.905 166.311L140.913 159.731C140.887 159.56 140.927 159.384 141.026 159.242L143.161 156.149L144.27 151.426C144.315 151.234 144.443 151.07 144.619 150.976L146.207 150.144L149.284 146.55L149.223 146.173L147.153 146.924C146.872 147.025 146.556 146.931 146.376 146.693L145.69 145.78L144.228 146.206L141.433 147.79C141.192 147.926 140.895 147.905 140.677 147.736C140.459 147.568 140.366 147.285 140.438 147.018L141.196 144.243C141.241 144.08 141.346 143.937 141.491 143.846L147.124 140.29L148.009 138.418C148.1 138.224 148.278 138.086 148.486 138.042C148.697 137.999 148.914 138.056 149.076 138.196L152.716 141.385L154.405 142.309L155.71 141.483L154.578 140.187L150.152 138.645C150.103 138.629 150.058 138.605 150.014 138.58L144.317 135.012L139.119 133.332L134.714 133.861C134.573 133.877 134.431 133.852 134.304 133.781L131.661 132.338L129.286 132.432L129.258 132.591L130.369 137.658L131.527 139.129C131.621 139.249 131.672 139.394 131.672 139.543L131.74 145.809C131.743 146.038 131.63 146.253 131.441 146.379C131.251 146.508 131.01 146.534 130.8 146.445L126.334 144.611C126.095 144.512 125.931 144.288 125.913 144.031L125.754 141.876L121.957 141.265C121.858 141.249 121.763 141.212 121.678 141.155L119.47 139.642C119.301 139.527 119.194 139.342 119.175 139.139L118.759 134.352C118.745 134.181 118.794 134.011 118.899 133.875L122.846 128.789L122.163 125.446L120.981 125.912C120.766 125.998 120.52 125.965 120.331 125.83L118.586 124.569C118.499 124.506 118.429 124.426 118.38 124.332L117.266 122.204L117.03 122.239L117.128 124.735C117.137 125.004 116.99 125.252 116.751 125.371L114.871 126.312C114.704 126.393 114.513 126.405 114.337 126.344C114.162 126.284 114.019 126.153 113.944 125.984L111.319 120.203L109.962 119.82L107.478 119.518L105.948 120.933L109.705 122.868C109.822 122.929 109.92 123.022 109.986 123.137L111.609 126C111.752 126.251 111.722 126.562 111.534 126.779C111.347 126.997 111.046 127.077 110.777 126.976L102.832 123.996C102.794 123.982 102.757 123.963 102.722 123.942L96.7679 120.376C96.6369 120.297 96.534 120.175 96.4802 120.033L94.8496 115.688L90.5052 115.625L87.7821 118.793C87.7821 118.793 87.7727 118.804 87.7657 118.811L87.2651 118.348L87.2721 118.355ZM148.011 201.333L149.829 200.711C150.016 200.647 150.222 200.666 150.393 200.767C150.563 200.867 150.683 201.036 150.72 201.23L150.725 201.251L150.737 201.31C150.746 201.361 150.76 201.436 150.779 201.529C150.814 201.717 150.865 201.974 150.926 202.259C151.048 202.837 151.195 203.506 151.319 203.93C151.389 204.171 151.382 204.437 151.361 204.653C151.338 204.884 151.289 205.139 151.228 205.399C151.104 205.916 150.917 206.503 150.725 207.046C150.533 207.591 150.332 208.106 150.182 208.482C150.105 208.672 150.042 208.826 149.997 208.936C149.979 208.983 149.962 209.02 149.951 209.048L149.097 212.885L151.347 215.952L155.507 216.385C155.6 216.394 155.691 216.425 155.773 216.471L162.955 220.556L165.669 220.886C165.941 220.919 166.165 221.111 166.242 221.373L167.01 224.004L167.337 224.564C180.593 218.123 191.436 208.244 199.069 196.357L198.836 195.297C198.814 195.201 198.814 195.101 198.836 195.002L200.993 185.308L199.048 184.662L190.24 190.073C190.102 190.19 189.918 190.251 189.73 190.232L183.267 189.573L175.598 189.109L170.1 190.719C170.056 190.731 170.011 190.74 169.964 190.745L164.544 191.182L159.25 194.071C159.217 194.09 159.184 194.104 159.149 194.116L155.944 195.248C155.932 195.253 155.921 195.257 155.909 195.26L154.091 195.788L151.052 198.937C151.031 198.961 151.008 198.982 150.982 199L148.011 201.331V201.333Z" fill="#EE2E20"></path><path fill-rule="evenodd" clip-rule="evenodd" d="M110.321 76.9005C134.328 69.8798 158.984 74.6172 178.127 87.7321C178.235 87.8046 178.319 87.9075 178.368 88.0269L179.898 91.6156L182.771 93.7632C182.89 93.8521 182.977 93.9761 183.017 94.1164L183.548 95.9225C183.616 96.1564 183.555 96.4067 183.389 96.5845L181.749 98.3181C181.891 98.3134 182.034 98.3508 182.156 98.4327C182.308 98.5356 182.413 98.6947 182.446 98.8749L182.794 100.737C182.829 100.922 182.785 101.114 182.673 101.266C182.56 101.418 182.392 101.516 182.205 101.539L179.704 101.839L181.58 106.076L185.164 109.215C185.164 109.215 185.178 109.229 185.185 109.236L188.177 112.093C188.311 112.219 188.386 112.395 188.388 112.577C188.388 112.642 188.381 112.706 188.362 112.766L188.053 114.942V114.952L187.506 118.449C187.457 118.753 187.211 118.989 186.907 119.022L183.676 119.378C183.403 119.408 183.138 119.27 183.005 119.029L182.184 117.539L180.165 114.629C180.092 114.526 180.05 114.404 180.043 114.278L179.903 111.814L179.589 110.216L175.025 108.834C174.805 108.768 174.632 108.593 174.569 108.373L172.922 102.733L168.421 101.118C168.283 101.069 168.164 100.976 168.082 100.854L164.996 96.1962L162.432 94.5001C162.338 94.4369 162.259 94.3527 162.205 94.2521L160.179 90.4529L156.062 89.5522L154.377 90.1558L156.487 91.8355C156.658 91.9712 156.754 92.1817 156.742 92.3993C156.738 92.4858 156.719 92.5677 156.686 92.6426L156.813 92.6215C156.932 92.6028 157.056 92.6145 157.168 92.659L162.93 94.9025C163.173 94.9984 163.342 95.223 163.363 95.485C163.384 95.747 163.253 95.995 163.026 96.1284L161.955 96.753L161.634 98.5169C161.585 98.793 161.37 99.0106 161.096 99.0644L157.011 99.8691C156.822 99.9066 156.625 99.8621 156.471 99.7475L152.817 97.0103L145.384 95.3306C145.293 95.3095 145.209 95.2721 145.134 95.216L140.893 92.1349C140.708 92.0016 140.603 91.7817 140.612 91.5547C140.621 91.3255 140.743 91.1196 140.939 91.0003L145.55 88.2047L145.459 87.6502L143.903 87.4209L143.613 88.7006C143.553 88.9743 143.328 89.1825 143.052 89.2247L140.228 89.6528C139.891 89.7042 139.566 89.4984 139.473 89.1708L138.778 86.7846L136.48 85.919L130.662 84.3001C130.629 84.3282 130.592 84.3586 130.555 84.3914C130.316 84.5926 129.988 84.8639 129.633 85.1447C129.277 85.4231 128.884 85.7178 128.517 85.9635C128.168 86.1951 127.778 86.4267 127.441 86.5249C126.84 86.7004 126.166 86.6442 125.7 86.5717C125.457 86.5343 125.246 86.4852 125.094 86.4477C125.066 86.4407 125.041 86.4337 125.017 86.4267L121.131 87.2034L118.609 89.9826C118.525 90.0762 118.418 90.1441 118.296 90.1791L114.499 91.2904C114.352 91.3348 114.193 91.3255 114.047 91.267L110.807 89.9335H110.803C110.725 89.9288 110.616 89.9241 110.482 89.9171C110.215 89.9054 109.853 89.8914 109.476 89.8797C109.097 89.8703 108.709 89.8657 108.386 89.8727C108.225 89.8774 108.084 89.882 107.974 89.8914C107.92 89.8961 107.878 89.9008 107.846 89.9054C107.836 89.9054 107.827 89.9078 107.82 89.9101C107.808 89.9171 107.775 89.9358 107.717 89.9733C107.626 90.0341 107.509 90.1207 107.368 90.233C107.095 90.4529 106.767 90.7359 106.451 91.0213C106.138 91.3068 105.838 91.5875 105.616 91.798C105.506 91.9033 105.415 91.9899 105.352 92.0507C105.321 92.0811 105.296 92.1045 105.279 92.1209L105.261 92.1396L105.256 92.1443C105.183 92.2145 105.097 92.2683 105.001 92.301L101.765 93.4193L102.06 96.1096C102.093 96.4114 101.922 96.7015 101.641 96.8138L96.876 98.7626L96.3262 100.971C96.2724 101.189 96.1133 101.366 95.9028 101.446L91.4321 103.105L91.6871 105.636C91.6964 105.746 91.6824 105.856 91.6403 105.956L88.3534 114.187C88.2762 114.381 88.1124 114.528 87.9112 114.587L84.8372 115.487C84.6196 115.55 84.3833 115.504 84.2079 115.356C84.0324 115.209 83.9435 114.987 83.9669 114.76L84.2383 112.212L81.941 112.6C81.6134 112.657 81.2953 112.469 81.1853 112.156L80.053 108.951C79.9922 108.778 80.0016 108.591 80.0834 108.427L81.3116 105.903C81.3584 105.807 81.4286 105.72 81.5152 105.657L82.4556 104.95L81.4824 100.384C81.4193 100.087 81.5596 99.7849 81.8263 99.6422L84.8325 98.028L86.0607 94.9282L81.6953 93.4216C81.4614 93.3397 81.2929 93.1432 81.2461 92.8999C81.2017 92.659 81.2906 92.411 81.4801 92.2542C89.6845 85.4043 99.4026 80.0868 110.316 76.8981L110.321 76.9005ZM104.418 91.0681C104.481 91.0073 104.573 90.9208 104.68 90.8178C104.907 90.6026 105.214 90.3125 105.541 90.0177C105.866 89.723 106.215 89.4165 106.524 89.1732C106.676 89.0515 106.828 88.9369 106.966 88.8457C107.085 88.7661 107.256 88.6609 107.434 88.6094C107.67 88.5415 108.04 88.5228 108.36 88.5158C108.714 88.5088 109.128 88.5135 109.516 88.5228C109.904 88.5322 110.276 88.5486 110.55 88.5603C110.688 88.5673 110.8 88.5719 110.878 88.5766L110.969 88.5813H111.002C111.002 88.5813 111.002 88.5813 110.964 89.2644L111.002 88.5836C111.079 88.5883 111.151 88.6047 111.221 88.6351L114.349 89.9218L117.732 88.9322L120.275 86.1296C120.373 86.022 120.504 85.9471 120.647 85.919L124.917 85.0675C125.029 85.0441 125.146 85.0511 125.256 85.0862H125.263C125.263 85.0862 125.281 85.0932 125.296 85.0979C125.326 85.1072 125.375 85.1189 125.434 85.1353C125.553 85.1657 125.724 85.2031 125.918 85.2336C126.327 85.2991 126.755 85.3154 127.062 85.2242C127.181 85.1891 127.42 85.0651 127.766 84.8359C128.091 84.6206 128.454 84.3493 128.795 84.0802C129.137 83.8135 129.45 83.5515 129.68 83.3573C129.794 83.2614 129.888 83.1819 129.951 83.1257C129.984 83.0977 130.007 83.0766 130.024 83.0626L130.042 83.0462L130.047 83.0415C130.22 82.8894 130.459 82.8333 130.681 82.8965L136.878 84.6206C136.897 84.6253 136.916 84.6323 136.934 84.6393L139.58 85.6336C139.781 85.7108 139.936 85.8746 139.994 86.0804L140.619 88.221L142.392 87.952L142.72 86.5109C142.799 86.1623 143.131 85.9354 143.485 85.9869L146.156 86.3822C146.451 86.4267 146.683 86.6536 146.73 86.946L146.975 88.4456C147.02 88.7193 146.893 88.9954 146.655 89.1381L142.528 91.6413L145.824 94.0392L153.264 95.719C153.357 95.74 153.446 95.7798 153.523 95.8383L157.051 98.4795L160.383 97.8221L160.675 96.2079C160.71 96.0114 160.829 95.8406 161.002 95.74L161.126 95.6675L156.852 94.0041L154.036 94.458C153.717 94.5095 153.409 94.3317 153.292 94.0322C153.175 93.7328 153.285 93.3912 153.551 93.2157L154.908 92.3221L152.576 90.4669C152.382 90.3125 152.288 90.0669 152.328 89.8212C152.368 89.5779 152.538 89.3744 152.77 89.2902L155.79 88.2047C155.912 88.1625 156.041 88.1532 156.167 88.1813L160.783 89.1896C160.977 89.2317 161.145 89.358 161.239 89.5358L163.333 93.4614L165.869 95.1388C165.946 95.1902 166.011 95.2557 166.06 95.3306L169.099 99.9136L173.713 101.57C173.919 101.642 174.075 101.811 174.136 102.021L175.778 107.638L180.382 109.033C180.623 109.105 180.806 109.306 180.855 109.554L181.257 111.599C181.264 111.63 181.267 111.66 181.269 111.693L181.4 114.009L183.33 116.79C183.344 116.809 183.356 116.83 183.368 116.849L183.988 117.972L186.25 117.724L186.713 114.75V114.741L186.987 112.83L184.264 110.231L180.579 107.002C180.504 106.937 180.446 106.855 180.406 106.766L178.094 101.551C178.006 101.352 178.017 101.125 178.125 100.938C178.232 100.751 178.422 100.625 178.637 100.599L181.33 100.276L181.243 99.8153L179.519 100.178C179.215 100.241 178.906 100.091 178.768 99.813C178.63 99.5346 178.698 99.1977 178.934 98.9942L180.633 97.5297L182.139 95.9365L181.781 94.7247L178.944 92.6028C178.848 92.5303 178.771 92.4344 178.724 92.3244L177.198 88.7497C158.401 75.9413 134.239 71.3326 110.709 78.2152C100.394 81.2308 91.1654 86.1787 83.3025 92.5396L87.1883 93.8801C87.3638 93.941 87.5088 94.0696 87.586 94.2404C87.6632 94.4089 87.6703 94.603 87.6001 94.7762L86.0186 98.7719C85.9601 98.9217 85.8478 99.0456 85.7075 99.1228L82.9329 100.613L83.8897 105.102C83.9459 105.362 83.8453 105.631 83.6324 105.79L82.4743 106.661L81.445 108.778L82.2895 111.171L84.9097 110.729C85.1203 110.694 85.3355 110.759 85.4899 110.904C85.6443 111.052 85.7238 111.262 85.7004 111.473L85.4408 113.903L87.2187 113.384L90.3208 105.617L90.0307 102.728C90.0003 102.419 90.1805 102.129 90.4729 102.021L95.1003 100.307L95.6478 98.1122C95.7016 97.9017 95.8513 97.7285 96.0501 97.6467L100.661 95.7611L100.362 93.0403C100.327 92.7221 100.516 92.425 100.818 92.3221L104.425 91.0752L104.418 91.0681Z" fill="#EE2E20"></path><path fill-rule="evenodd" clip-rule="evenodd" d="M119.204 118.882C119.354 118.683 119.597 118.583 119.842 118.615L128.031 119.755C128.166 119.774 128.295 119.834 128.395 119.926L131.17 122.45L134.569 122.745C134.824 122.766 135.044 122.929 135.142 123.166L136.506 126.499C136.565 126.642 136.572 126.799 136.53 126.946L135.847 129.304C135.795 129.48 135.676 129.63 135.514 129.716L133.135 130.998C133.016 131.061 132.883 131.089 132.747 131.078L126.685 130.491C126.407 130.465 126.175 130.271 126.096 130.004L125.885 129.281C125.808 129.017 125.897 128.729 126.115 128.558L128.344 126.778L126.657 124.101L121.588 123.744C121.457 123.734 121.333 123.687 121.227 123.61L118.207 121.346C118.062 121.236 117.966 121.074 117.941 120.896C117.915 120.716 117.962 120.536 118.069 120.391L119.201 118.885L119.204 118.882ZM120.053 120.024L119.571 120.662L121.885 122.396L127.097 122.763C127.315 122.78 127.511 122.897 127.626 123.081L129.82 126.565C130.005 126.86 129.94 127.246 129.668 127.461L127.492 129.199L132.67 129.7L134.614 128.652L135.149 126.797L134.034 124.066L130.821 123.788C130.672 123.776 130.531 123.713 130.421 123.613L127.63 121.074L120.048 120.019L120.053 120.024Z" fill="#EE2E20" stroke="#EE2E20" stroke-linejoin="round"></path><path fill-rule="evenodd" clip-rule="evenodd" d="M184.09 93.4211C184.188 93.1544 184.443 92.9766 184.728 92.9766H184.735C184.93 92.9766 185.11 93.0584 185.238 93.1965C196.512 102.936 205.21 115.927 209.704 131.294C210.654 134.527 211.382 137.779 211.91 141.024C211.941 141.202 211.896 141.384 211.791 141.532L211.443 142.016L211.071 145.876C211.038 146.218 210.757 146.482 210.411 146.491L205.931 146.62C205.723 146.625 205.521 146.536 205.388 146.377L201.161 141.324C201.144 141.302 201.128 141.284 201.114 141.263L196.538 134.35C196.5 134.291 196.47 134.23 196.451 134.165L193.679 124.681L190.961 123.326C190.848 123.27 190.755 123.186 190.687 123.081L187.756 118.437C187.66 118.285 187.627 118.102 187.667 117.927L188.642 113.461L186.366 103.682C186.315 103.467 186.373 103.24 186.52 103.074C186.668 102.908 186.885 102.823 187.105 102.849L188.523 103.008L187.94 101.013L186.216 100.9C185.982 100.884 185.772 100.751 185.659 100.542L184.377 98.1701C184.321 98.0672 184.293 97.9502 184.296 97.8333L184.354 94.7826L184.104 93.9357C184.031 93.7743 184.022 93.5872 184.085 93.4164L184.09 93.4211ZM185.711 95.4353L185.666 97.6859L186.684 99.5691L188.511 99.6884C188.799 99.7071 189.042 99.9013 189.122 100.177L190.123 103.614C190.186 103.832 190.137 104.068 189.99 104.243C189.842 104.419 189.618 104.508 189.391 104.482L187.915 104.316L190.006 113.304C190.03 113.402 190.03 113.505 190.009 113.603L189.059 117.945L191.74 122.192L194.556 123.593C194.727 123.677 194.853 123.829 194.907 124.012L197.736 133.683L202.232 140.479L206.223 145.249L209.772 145.146L210.102 141.703C210.114 141.583 210.158 141.466 210.228 141.37L210.521 140.966C210.004 137.866 209.302 134.761 208.397 131.678C204.16 117.194 196.131 104.861 185.711 95.433V95.4353Z" fill="#EE2E20"></path><path fill-rule="evenodd" clip-rule="evenodd" d="M150.688 184.6C150.836 184.773 150.887 185.009 150.822 185.229L150.139 187.587C150.066 187.835 149.86 188.023 149.605 188.069L146.059 188.71C145.888 188.741 145.71 188.706 145.565 188.61L142.821 186.825L137.117 186.785C136.876 186.785 136.656 186.656 136.535 186.448C136.413 186.242 136.411 185.985 136.525 185.777L137.038 184.843C137.162 184.614 137.407 184.478 137.667 184.49L145.776 184.848L150.092 184.364C150.319 184.338 150.543 184.427 150.688 184.602V184.6ZM149.229 185.831L145.874 186.207C145.839 186.212 145.804 186.212 145.766 186.212L144.281 186.146L146.084 187.321L148.948 186.804L149.229 185.833V185.831Z" fill="#EE2E20"></path><path fill-rule="evenodd" clip-rule="evenodd" d="M154.384 183.32C154.651 183.152 154.997 183.189 155.222 183.407L155.989 184.151L157.15 183.664C157.391 183.563 157.669 183.608 157.865 183.781C158.062 183.954 158.142 184.223 158.071 184.476L157.594 186.195C157.531 186.422 157.353 186.6 157.129 186.668L152.424 188.039C152.153 188.118 151.858 188.02 151.689 187.793L150.721 186.504C150.606 186.352 150.562 186.16 150.594 185.971C150.63 185.783 150.74 185.617 150.901 185.517L154.384 183.322V183.32ZM152.253 186.275L152.494 186.595L155.793 185.634C155.636 185.622 155.484 185.557 155.365 185.444L154.658 184.761L152.253 186.275Z" fill="#EE2E20"></path><path fill-rule="evenodd" clip-rule="evenodd" d="M110.312 76.8409C117.766 74.6605 125.364 73.582 132.923 73.582H132.93C146.204 73.582 159.347 76.9181 171.318 83.4709C190.097 93.7574 203.757 110.739 209.767 131.291C215.777 151.846 213.416 173.518 203.137 192.297C192.85 211.076 175.868 224.736 155.314 230.746C134.759 236.756 113.087 234.398 94.308 224.116C75.5293 213.829 61.8693 196.847 55.8592 176.293C43.4532 133.862 67.8793 89.2446 110.31 76.8385L110.312 76.8409ZM132.923 74.9459C125.495 74.9459 118.025 76.008 110.696 78.151C68.9882 90.3465 44.9761 134.204 57.1717 175.914C63.0811 196.12 76.5048 212.809 94.9677 222.923C113.431 233.029 134.729 235.348 154.935 229.44C175.14 223.531 191.83 210.107 201.943 191.644C212.05 173.182 214.368 151.883 208.459 131.677C202.549 111.469 189.126 94.7821 170.663 84.6687C158.891 78.2258 145.975 74.9483 132.93 74.9483H132.923V74.9459Z" fill="#EE2E20"></path><path d="M242.465 91.9264C253.163 110.534 259.283 132.109 259.283 155.112C259.283 225.226 202.444 282.065 132.331 282.065C62.218 282.065 5.37891 225.226 5.37891 155.112C5.37891 84.9993 62.2157 28.1602 132.329 28.1602C157.167 28.1602 180.339 35.2931 199.908 47.622" stroke="#BAB7EA" stroke-width="2" stroke-miterlimit="10"></path><path d="M9.11692 189.886C11.8663 189.886 14.0952 187.657 14.0952 184.908C14.0952 182.159 11.8663 179.93 9.11692 179.93C6.36751 179.93 4.13867 182.159 4.13867 184.908C4.13867 187.657 6.36751 189.886 9.11692 189.886Z" fill="#EE2E20" stroke="#EE2E20" stroke-width="2.66665" stroke-miterlimit="10"></path><path d="M257.613 135.956C261.05 135.956 263.836 133.355 263.836 130.148C263.836 126.94 261.05 124.34 257.613 124.34C254.177 124.34 251.391 126.94 251.391 130.148C251.391 133.355 254.177 135.956 257.613 135.956Z" fill="#5533E5" stroke="#5533E5" stroke-width="1.33332"></path></svg>