<svg xmlns="http://www.w3.org/2000/svg" width="225" height="277" viewBox="0 0 225 277" fill="none"><path d="M210.14 197.965H11.8436C8.38866 197.965 5.58789 200.755 5.58789 204.196V268.592C5.58789 272.033 8.38866 274.823 11.8436 274.823H210.14C213.595 274.823 216.396 272.033 216.396 268.592V204.196C216.396 200.755 213.595 197.965 210.14 197.965Z" stroke="#BAB7EA" stroke-width="2" stroke-miterlimit="10"></path><path d="M82.2581 2.17578H7.2728C4.8774 2.17578 2.93555 4.11006 2.93555 6.49612V90.9005C2.93555 93.2865 4.8774 95.2208 7.2728 95.2208H82.2581C84.6535 95.2208 86.5954 93.2865 86.5954 90.9005V6.49612C86.5954 4.11006 84.6535 2.17578 82.2581 2.17578Z" stroke="#BAB7EA" stroke-width="2" stroke-miterlimit="10"></path><path d="M217.268 2.17578H103.05C100.125 2.17578 97.7539 4.53785 97.7539 7.4516V89.945C97.7539 92.8588 100.125 95.2208 103.05 95.2208H217.268C220.193 95.2208 222.564 92.8588 222.564 89.945V7.4516C222.564 4.53785 220.193 2.17578 217.268 2.17578Z" stroke="#BAB7EA" stroke-width="2" stroke-miterlimit="10"></path><path d="M212 9H107C105.895 9 105 9.89543 105 11V20C105 21.1046 105.895 22 107 22H212C213.105 22 214 21.1046 214 20V11C214 9.89543 213.105 9 212 9Z" stroke="#F2CFCE" stroke-width="2" stroke-miterlimit="10"></path><mask id="mask0_1738_439" style="mask-type:alpha" maskUnits="userSpaceOnUse" x="202" y="11" width="9" height="9"><rect x="202" y="11" width="9" height="9" fill="#D9D9D9"></rect></mask><g mask="url(#mask0_1738_439)"><path d="M209.35 18.875L206.988 16.5125C206.8 16.6625 206.584 16.7812 206.341 16.8688C206.097 16.9563 205.838 17 205.562 17C204.881 17 204.305 16.7641 203.833 16.2922C203.361 15.8203 203.125 15.2438 203.125 14.5625C203.125 13.8813 203.361 13.3047 203.833 12.8328C204.305 12.3609 204.881 12.125 205.562 12.125C206.244 12.125 206.82 12.3609 207.292 12.8328C207.764 13.3047 208 13.8813 208 14.5625C208 14.8375 207.956 15.0969 207.869 15.3406C207.781 15.5844 207.662 15.8 207.512 15.9875L209.875 18.35L209.35 18.875ZM205.562 16.25C206.031 16.25 206.43 16.0859 206.758 15.7578C207.086 15.4297 207.25 15.0312 207.25 14.5625C207.25 14.0938 207.086 13.6953 206.758 13.3672C206.43 13.0391 206.031 12.875 205.562 12.875C205.094 12.875 204.695 13.0391 204.367 13.3672C204.039 13.6953 203.875 14.0938 203.875 14.5625C203.875 15.0312 204.039 15.4297 204.367 15.7578C204.695 16.0859 205.094 16.25 205.562 16.25Z" fill="#F2CFCE"></path></g><path d="M41.4427 112.07H11.7811C8.32616 112.07 5.52539 114.86 5.52539 118.302V147.847C5.52539 151.289 8.32616 154.079 11.7811 154.079H41.4427C44.8976 154.079 47.6984 151.289 47.6984 147.847V118.302C47.6984 114.86 44.8976 112.07 41.4427 112.07Z" stroke="#BAB7EA" stroke-width="2" stroke-miterlimit="10"></path><path d="M127.829 112.07H98.1678C94.7129 112.07 91.9121 114.86 91.9121 118.302V147.847C91.9121 151.289 94.7129 154.079 98.1678 154.079H127.829C131.284 154.079 134.085 151.289 134.085 147.847V118.302C134.085 114.86 131.284 112.07 127.829 112.07Z" stroke="#BAB7EA" stroke-width="2" stroke-miterlimit="10"></path><path d="M209.939 112.07H180.277C176.822 112.07 174.021 114.86 174.021 118.302V147.847C174.021 151.289 176.822 154.079 180.277 154.079H209.939C213.394 154.079 216.194 151.289 216.194 147.847V118.302C216.194 114.86 213.394 112.07 209.939 112.07Z" stroke="#BAB7EA" stroke-width="2" stroke-miterlimit="10"></path><path d="M194.996 120.332C188.546 120.332 183.334 125.553 183.334 131.994C183.334 136.937 186.405 141.16 190.744 142.859C190.638 141.938 190.552 140.517 190.782 139.509C190.993 138.597 192.145 133.712 192.145 133.712C192.145 133.712 191.8 133.011 191.8 131.984C191.8 130.362 192.74 129.153 193.911 129.153C194.909 129.153 195.389 129.901 195.389 130.794C195.389 131.792 194.756 133.29 194.42 134.681C194.142 135.843 195.005 136.793 196.148 136.793C198.221 136.793 199.814 134.605 199.814 131.456C199.814 128.663 197.808 126.715 194.938 126.715C191.617 126.715 189.669 129.201 189.669 131.773C189.669 132.771 190.053 133.846 190.533 134.432C190.629 134.547 190.638 134.653 190.609 134.768C190.523 135.133 190.322 135.929 190.283 136.092C190.235 136.304 190.11 136.352 189.89 136.246C188.45 135.555 187.548 133.424 187.548 131.716C187.548 128.039 190.216 124.661 195.255 124.661C199.296 124.661 202.444 127.54 202.444 131.399C202.444 135.42 199.91 138.655 196.397 138.655C195.217 138.655 194.103 138.041 193.729 137.311C193.729 137.311 193.143 139.538 192.999 140.085C192.74 141.103 192.03 142.37 191.55 143.147C192.644 143.483 193.796 143.665 195.005 143.665C201.446 143.665 206.667 138.444 206.667 132.004C206.658 125.553 201.436 120.332 194.996 120.332Z" fill="#5533E5"></path><path d="M25.8496 155V158.419C25.8496 166.884 32.7368 173.744 41.2343 173.744H96.3098C104.807 173.744 111.694 180.604 111.694 189.069V196.623" stroke="#BAB7EA" stroke-width="2" stroke-miterlimit="10"></path><path d="M197.778 154V158.419C197.778 166.883 190.891 173.743 182.394 173.743H127.318C118.821 173.743 111.934 180.604 111.934 189.068L112 198" stroke="#BAB7EA" stroke-width="2" stroke-miterlimit="10"></path><path d="M111.682 154.441V187.265" stroke="#BAB7EA" stroke-width="2" stroke-miterlimit="10"></path><path d="M113.2 122.112C116.838 122.112 117.268 122.125 118.704 122.191C120.032 122.251 120.753 122.471 121.234 122.658C121.87 122.904 122.324 123.198 122.8 123.673C123.277 124.147 123.572 124.6 123.819 125.233C124.004 125.712 124.227 126.43 124.288 127.754C124.354 129.184 124.367 129.615 124.367 133.236C124.367 136.858 124.354 137.289 124.288 138.719C124.227 140.042 124.007 140.76 123.819 141.239C123.572 141.873 123.277 142.325 122.8 142.8C122.324 143.274 121.87 143.568 121.234 143.814C120.753 143.999 120.032 144.221 118.704 144.282C117.268 144.347 116.838 144.36 113.2 144.36C109.561 144.36 109.131 144.347 107.695 144.282C106.367 144.221 105.646 144.001 105.165 143.814C104.529 143.568 104.075 143.274 103.599 142.8C103.122 142.325 102.827 141.873 102.58 141.239C102.395 140.76 102.172 140.042 102.111 138.719C102.045 137.289 102.032 136.858 102.032 133.236C102.032 129.615 102.045 129.184 102.111 127.754C102.172 126.43 102.392 125.712 102.58 125.233C102.827 124.6 103.122 124.147 103.599 123.673C104.075 123.198 104.529 122.904 105.165 122.658C105.646 122.473 106.367 122.251 107.695 122.191C109.131 122.125 109.564 122.112 113.2 122.112ZM113.2 119.668C109.5 119.668 109.037 119.683 107.584 119.751C106.133 119.816 105.143 120.047 104.278 120.382C103.382 120.728 102.622 121.192 101.866 121.947C101.108 122.702 100.642 123.457 100.295 124.35C99.9583 125.214 99.7289 126.2 99.6612 127.643C99.5956 129.09 99.5781 129.551 99.5781 133.236C99.5781 136.921 99.5934 137.382 99.6612 138.83C99.7267 140.275 99.9583 141.261 100.295 142.123C100.642 143.015 101.108 143.773 101.866 144.526C102.624 145.281 103.382 145.745 104.278 146.091C105.146 146.426 106.135 146.654 107.584 146.722C109.037 146.787 109.5 146.804 113.2 146.804C116.899 146.804 117.362 146.789 118.815 146.722C120.266 146.656 121.256 146.426 122.121 146.091C123.017 145.745 123.777 145.281 124.533 144.526C125.291 143.77 125.757 143.015 126.104 142.123C126.441 141.259 126.67 140.273 126.738 138.83C126.803 137.382 126.821 136.921 126.821 133.236C126.821 129.551 126.806 129.09 126.738 127.643C126.672 126.197 126.441 125.211 126.104 124.35C125.757 123.457 125.291 122.7 124.533 121.947C123.775 121.192 123.017 120.728 122.121 120.382C121.253 120.047 120.264 119.818 118.815 119.751C117.362 119.685 116.899 119.668 113.2 119.668Z" fill="#5533E5"></path><path d="M113.199 126.27C109.336 126.27 106.205 129.388 106.205 133.236C106.205 137.085 109.336 140.203 113.199 140.203C117.062 140.203 120.194 137.085 120.194 133.236C120.194 129.388 117.062 126.27 113.199 126.27ZM113.199 137.759C110.691 137.759 108.659 135.735 108.659 133.236C108.659 130.738 110.691 128.714 113.199 128.714C115.708 128.714 117.74 130.738 117.74 133.236C117.74 135.735 115.708 137.759 113.199 137.759Z" fill="#5533E5"></path><path d="M120.47 127.619C121.373 127.619 122.105 126.89 122.105 125.991C122.105 125.092 121.373 124.363 120.47 124.363C119.568 124.363 118.836 125.092 118.836 125.991C118.836 126.89 119.568 127.619 120.47 127.619Z" fill="#5533E5"></path><mask id="path-17-inside-1_1738_439" fill="white"><path d="M23.2222 144.166C33.0919 144.166 38.4867 136.022 38.4867 128.961C38.4867 128.731 38.4824 128.5 38.4714 128.271C39.5181 127.516 40.4292 126.576 41.1481 125.505C40.1867 125.93 39.1531 126.217 38.0672 126.347C39.175 125.686 40.025 124.639 40.427 123.392C39.3891 124.003 38.242 124.45 37.0206 124.689C36.0417 123.651 34.6477 123 33.105 123C30.1422 123 27.7386 125.394 27.7386 128.343C27.7386 128.763 27.7867 129.17 27.8785 129.562C23.4189 129.338 19.4662 127.212 16.8201 123.979C16.3591 124.769 16.0925 125.686 16.0925 126.665C16.0925 128.52 17.0408 130.156 18.4807 131.114C17.6002 131.088 16.7742 130.846 16.051 130.446C16.051 130.468 16.051 130.491 16.051 130.513C16.051 133.101 17.9017 135.262 20.3555 135.752C19.9054 135.874 19.4312 135.939 18.9418 135.939C18.5965 135.939 18.2601 135.904 17.9323 135.843C18.6162 137.968 20.5958 139.511 22.9447 139.554C21.1071 140.989 18.7954 141.842 16.2804 141.842C15.8478 141.842 15.4195 141.818 15 141.768C17.3751 143.283 20.1938 144.169 23.2244 144.169"></path></mask><path d="M38.4714 128.271L37.3011 126.65L36.4219 127.284L36.4737 128.367L38.4714 128.271ZM41.1481 125.505L42.8086 126.62L46.6573 120.887L40.3404 123.675L41.1481 125.505ZM38.0672 126.347L37.0417 124.63L38.306 128.333L38.0672 126.347ZM40.427 123.392L42.3306 124.005L43.945 118.997L39.4117 121.669L40.427 123.392ZM37.0206 124.689L35.5654 126.061L36.3224 126.864L37.4053 126.652L37.0206 124.689ZM27.8785 129.562L27.7781 131.56L30.4318 131.693L29.8258 129.106L27.8785 129.562ZM16.8201 123.979L18.3677 122.712L16.5438 120.485L15.0927 122.971L16.8201 123.979ZM18.4807 131.114L18.4214 133.113L25.4098 133.32L19.5883 129.449L18.4807 131.114ZM16.051 130.446L17.0198 128.696L14.051 127.052V130.446H16.051ZM20.3555 135.752L20.8782 137.683L20.7469 133.791L20.3555 135.752ZM17.9323 135.843L18.2979 133.877L15.0008 133.264L16.0285 136.456L17.9323 135.843ZM22.9447 139.554L24.1753 141.131L28.6232 137.659L22.9818 137.555L22.9447 139.554ZM15 141.768L15.237 139.782L13.9245 143.454L15 141.768ZM23.2222 146.166C34.4196 146.166 40.4867 136.889 40.4867 128.961H36.4867C36.4867 135.155 31.7643 142.166 23.2222 142.166V146.166ZM40.4867 128.961C40.4867 128.706 40.4819 128.443 40.4692 128.176L36.4737 128.367C36.4828 128.557 36.4867 128.755 36.4867 128.961H40.4867ZM39.6418 129.893C40.8791 129 41.9567 127.889 42.8086 126.62L39.4875 124.39C38.9017 125.263 38.157 126.032 37.3011 126.65L39.6418 129.893ZM40.3404 123.675C39.5592 124.02 38.7174 124.255 37.8284 124.362L38.306 128.333C39.5889 128.179 40.8141 127.839 41.9558 127.335L40.3404 123.675ZM39.0927 128.064C40.6081 127.159 41.7762 125.725 42.3306 124.005L38.5235 122.778C38.2738 123.553 37.7419 124.212 37.0417 124.63L39.0927 128.064ZM39.4117 121.669C38.5628 122.169 37.6281 122.532 36.6359 122.726L37.4053 126.652C38.8559 126.367 40.2155 125.838 41.4424 125.115L39.4117 121.669ZM38.4757 123.317C37.1344 121.894 35.2206 121 33.105 121V125C34.0748 125 34.949 125.407 35.5654 126.061L38.4757 123.317ZM33.105 121C29.0455 121 25.7386 124.282 25.7386 128.343H29.7386C29.7386 126.507 31.2388 125 33.105 125V121ZM25.7386 128.343C25.7386 128.917 25.8044 129.477 25.9312 130.018L29.8258 129.106C29.769 128.864 29.7386 128.61 29.7386 128.343H25.7386ZM27.9789 127.565C24.1032 127.37 20.669 125.524 18.3677 122.712L15.2726 125.246C18.2633 128.9 22.7345 131.306 27.7781 131.56L27.9789 127.565ZM15.0927 122.971C14.4604 124.055 14.0925 125.317 14.0925 126.665H18.0925C18.0925 126.054 18.2577 125.484 18.5475 124.987L15.0927 122.971ZM14.0925 126.665C14.0925 129.218 15.4001 131.467 17.3732 132.779L19.5883 129.449C18.6815 128.846 18.0925 127.821 18.0925 126.665H14.0925ZM18.54 129.115C17.9913 129.099 17.4758 128.949 17.0198 128.696L15.0822 132.195C16.0727 132.744 17.2091 133.077 18.4214 133.113L18.54 129.115ZM14.051 130.446C14.051 130.446 14.051 130.446 14.051 130.446C14.051 130.446 14.051 130.446 14.051 130.446C14.051 130.446 14.051 130.446 14.051 130.446C14.051 130.446 14.051 130.446 14.051 130.446C14.051 130.446 14.051 130.446 14.051 130.446C14.051 130.446 14.051 130.447 14.051 130.447C14.051 130.447 14.051 130.447 14.051 130.447C14.051 130.447 14.051 130.447 14.051 130.447C14.051 130.447 14.051 130.447 14.051 130.447C14.051 130.447 14.051 130.447 14.051 130.447C14.051 130.447 14.051 130.447 14.051 130.447C14.051 130.447 14.051 130.447 14.051 130.447C14.051 130.447 14.051 130.447 14.051 130.447C14.051 130.447 14.051 130.448 14.051 130.448C14.051 130.448 14.051 130.448 14.051 130.448C14.051 130.448 14.051 130.448 14.051 130.448C14.051 130.448 14.051 130.448 14.051 130.448C14.051 130.448 14.051 130.448 14.051 130.448C14.051 130.448 14.051 130.448 14.051 130.448C14.051 130.448 14.051 130.448 14.051 130.448C14.051 130.448 14.051 130.448 14.051 130.448C14.051 130.449 14.051 130.449 14.051 130.449C14.051 130.449 14.051 130.449 14.051 130.449C14.051 130.449 14.051 130.449 14.051 130.449C14.051 130.449 14.051 130.449 14.051 130.449C14.051 130.449 14.051 130.449 14.051 130.449C14.051 130.449 14.051 130.449 14.051 130.449C14.051 130.449 14.051 130.449 14.051 130.449C14.051 130.449 14.051 130.449 14.051 130.45C14.051 130.45 14.051 130.45 14.051 130.45C14.051 130.45 14.051 130.45 14.051 130.45C14.051 130.45 14.051 130.45 14.051 130.45C14.051 130.45 14.051 130.45 14.051 130.45C14.051 130.45 14.051 130.45 14.051 130.45C14.051 130.45 14.051 130.45 14.051 130.45C14.051 130.45 14.051 130.45 14.051 130.45C14.051 130.45 14.051 130.45 14.051 130.451C14.051 130.451 14.051 130.451 14.051 130.451C14.051 130.451 14.051 130.451 14.051 130.451C14.051 130.451 14.051 130.451 14.051 130.451C14.051 130.451 14.051 130.451 14.051 130.451C14.051 130.451 14.051 130.451 14.051 130.451C14.051 130.451 14.051 130.451 14.051 130.451C14.051 130.451 14.051 130.451 14.051 130.451C14.051 130.451 14.051 130.452 14.051 130.452C14.051 130.452 14.051 130.452 14.051 130.452C14.051 130.452 14.051 130.452 14.051 130.452C14.051 130.452 14.051 130.452 14.051 130.452C14.051 130.452 14.051 130.452 14.051 130.452C14.051 130.452 14.051 130.452 14.051 130.452C14.051 130.452 14.051 130.452 14.051 130.452C14.051 130.452 14.051 130.452 14.051 130.452C14.051 130.453 14.051 130.453 14.051 130.453C14.051 130.453 14.051 130.453 14.051 130.453C14.051 130.453 14.051 130.453 14.051 130.453C14.051 130.453 14.051 130.453 14.051 130.453C14.051 130.453 14.051 130.453 14.051 130.453C14.051 130.453 14.051 130.453 14.051 130.453C14.051 130.453 14.051 130.453 14.051 130.453C14.051 130.453 14.051 130.453 14.051 130.454C14.051 130.454 14.051 130.454 14.051 130.454C14.051 130.454 14.051 130.454 14.051 130.454C14.051 130.454 14.051 130.454 14.051 130.454C14.051 130.454 14.051 130.454 14.051 130.454C14.051 130.454 14.051 130.454 14.051 130.454C14.051 130.454 14.051 130.454 14.051 130.454C14.051 130.454 14.051 130.454 14.051 130.454C14.051 130.454 14.051 130.455 14.051 130.455C14.051 130.455 14.051 130.455 14.051 130.455C14.051 130.455 14.051 130.455 14.051 130.455C14.051 130.455 14.051 130.455 14.051 130.455C14.051 130.455 14.051 130.455 14.051 130.455C14.051 130.455 14.051 130.455 14.051 130.455C14.051 130.455 14.051 130.455 14.051 130.455C14.051 130.455 14.051 130.455 14.051 130.455C14.051 130.456 14.051 130.456 14.051 130.456C14.051 130.456 14.051 130.456 14.051 130.456C14.051 130.456 14.051 130.456 14.051 130.456C14.051 130.456 14.051 130.456 14.051 130.456C14.051 130.456 14.051 130.456 14.051 130.456C14.051 130.456 14.051 130.456 14.051 130.456C14.051 130.456 14.051 130.456 14.051 130.456C14.051 130.456 14.051 130.456 14.051 130.457C14.051 130.457 14.051 130.457 14.051 130.457C14.051 130.457 14.051 130.457 14.051 130.457C14.051 130.457 14.051 130.457 14.051 130.457C14.051 130.457 14.051 130.457 14.051 130.457C14.051 130.457 14.051 130.457 14.051 130.457C14.051 130.457 14.051 130.457 14.051 130.457C14.051 130.457 14.051 130.457 14.051 130.457C14.051 130.457 14.051 130.458 14.051 130.458C14.051 130.458 14.051 130.458 14.051 130.458C14.051 130.458 14.051 130.458 14.051 130.458C14.051 130.458 14.051 130.458 14.051 130.458C14.051 130.458 14.051 130.458 14.051 130.458C14.051 130.458 14.051 130.458 14.051 130.458C14.051 130.458 14.051 130.458 14.051 130.458C14.051 130.458 14.051 130.458 14.051 130.458C14.051 130.459 14.051 130.459 14.051 130.459C14.051 130.459 14.051 130.459 14.051 130.459C14.051 130.459 14.051 130.459 14.051 130.459C14.051 130.459 14.051 130.459 14.051 130.459C14.051 130.459 14.051 130.459 14.051 130.459C14.051 130.459 14.051 130.459 14.051 130.459C14.051 130.459 14.051 130.459 14.051 130.459C14.051 130.459 14.051 130.459 14.051 130.46C14.051 130.46 14.051 130.46 14.051 130.46C14.051 130.46 14.051 130.46 14.051 130.46C14.051 130.46 14.051 130.46 14.051 130.46C14.051 130.46 14.051 130.46 14.051 130.46C14.051 130.46 14.051 130.46 14.051 130.46C14.051 130.46 14.051 130.46 14.051 130.46C14.051 130.46 14.051 130.46 14.051 130.46C14.051 130.461 14.051 130.461 14.051 130.461C14.051 130.461 14.051 130.461 14.051 130.461C14.051 130.461 14.051 130.461 14.051 130.461C14.051 130.461 14.051 130.461 14.051 130.461C14.051 130.461 14.051 130.461 14.051 130.461C14.051 130.461 14.051 130.461 14.051 130.461C14.051 130.461 14.051 130.461 14.051 130.461C14.051 130.461 14.051 130.461 14.051 130.462C14.051 130.462 14.051 130.462 14.051 130.462C14.051 130.462 14.051 130.462 14.051 130.462C14.051 130.462 14.051 130.462 14.051 130.462C14.051 130.462 14.051 130.462 14.051 130.462C14.051 130.462 14.051 130.462 14.051 130.462C14.051 130.462 14.051 130.462 14.051 130.462C14.051 130.462 14.051 130.462 14.051 130.462C14.051 130.462 14.051 130.463 14.051 130.463C14.051 130.463 14.051 130.463 14.051 130.463C14.051 130.463 14.051 130.463 14.051 130.463C14.051 130.463 14.051 130.463 14.051 130.463C14.051 130.463 14.051 130.463 14.051 130.463C14.051 130.463 14.051 130.463 14.051 130.463C14.051 130.463 14.051 130.463 14.051 130.463C14.051 130.463 14.051 130.463 14.051 130.464C14.051 130.464 14.051 130.464 14.051 130.464C14.051 130.464 14.051 130.464 14.051 130.464C14.051 130.464 14.051 130.464 14.051 130.464C14.051 130.464 14.051 130.464 14.051 130.464C14.051 130.464 14.051 130.464 14.051 130.464C14.051 130.464 14.051 130.464 14.051 130.464C14.051 130.464 14.051 130.464 14.051 130.464C14.051 130.464 14.051 130.465 14.051 130.465C14.051 130.465 14.051 130.465 14.051 130.465C14.051 130.465 14.051 130.465 14.051 130.465C14.051 130.465 14.051 130.465 14.051 130.465C14.051 130.465 14.051 130.465 14.051 130.465C14.051 130.465 14.051 130.465 14.051 130.465C14.051 130.465 14.051 130.465 14.051 130.465C14.051 130.465 14.051 130.465 14.051 130.465C14.051 130.466 14.051 130.466 14.051 130.466C14.051 130.466 14.051 130.466 14.051 130.466C14.051 130.466 14.051 130.466 14.051 130.466C14.051 130.466 14.051 130.466 14.051 130.466C14.051 130.466 14.051 130.466 14.051 130.466C14.051 130.466 14.051 130.466 14.051 130.466C14.051 130.466 14.051 130.466 14.051 130.466C14.051 130.466 14.051 130.467 14.051 130.467C14.051 130.467 14.051 130.467 14.051 130.467C14.051 130.467 14.051 130.467 14.051 130.467C14.051 130.467 14.051 130.467 14.051 130.467C14.051 130.467 14.051 130.467 14.051 130.467C14.051 130.467 14.051 130.467 14.051 130.467C14.051 130.467 14.051 130.467 14.051 130.467C14.051 130.467 14.051 130.467 14.051 130.467C14.051 130.468 14.051 130.468 14.051 130.468C14.051 130.468 14.051 130.468 14.051 130.468C14.051 130.468 14.051 130.468 14.051 130.468C14.051 130.468 14.051 130.468 14.051 130.468C14.051 130.468 14.051 130.468 14.051 130.468C14.051 130.468 14.051 130.468 14.051 130.468C14.051 130.468 14.051 130.468 14.051 130.468C14.051 130.468 14.051 130.469 14.051 130.469C14.051 130.469 14.051 130.469 14.051 130.469C14.051 130.469 14.051 130.469 14.051 130.469C14.051 130.469 14.051 130.469 14.051 130.469C14.051 130.469 14.051 130.469 14.051 130.469C14.051 130.469 14.051 130.469 14.051 130.469C14.051 130.469 14.051 130.469 14.051 130.469C14.051 130.469 14.051 130.469 14.051 130.469C14.051 130.47 14.051 130.47 14.051 130.47C14.051 130.47 14.051 130.47 14.051 130.47C14.051 130.47 14.051 130.47 14.051 130.47C14.051 130.47 14.051 130.47 14.051 130.47C14.051 130.47 14.051 130.47 14.051 130.47C14.051 130.47 14.051 130.47 14.051 130.47C14.051 130.47 14.051 130.47 14.051 130.47C14.051 130.47 14.051 130.471 14.051 130.471C14.051 130.471 14.051 130.471 14.051 130.471C14.051 130.471 14.051 130.471 14.051 130.471C14.051 130.471 14.051 130.471 14.051 130.471C14.051 130.471 14.051 130.471 14.051 130.471C14.051 130.471 14.051 130.471 14.051 130.471C14.051 130.471 14.051 130.471 14.051 130.471C14.051 130.471 14.051 130.471 14.051 130.471C14.051 130.472 14.051 130.472 14.051 130.472C14.051 130.472 14.051 130.472 14.051 130.472C14.051 130.472 14.051 130.472 14.051 130.472C14.051 130.472 14.051 130.472 14.051 130.472C14.051 130.472 14.051 130.472 14.051 130.472C14.051 130.472 14.051 130.472 14.051 130.472C14.051 130.472 14.051 130.472 14.051 130.472C14.051 130.472 14.051 130.473 14.051 130.473C14.051 130.473 14.051 130.473 14.051 130.473C14.051 130.473 14.051 130.473 14.051 130.473C14.051 130.473 14.051 130.473 14.051 130.473C14.051 130.473 14.051 130.473 14.051 130.473C14.051 130.473 14.051 130.473 14.051 130.473C14.051 130.473 14.051 130.473 14.051 130.473C14.051 130.473 14.051 130.473 14.051 130.473C14.051 130.474 14.051 130.474 14.051 130.474C14.051 130.474 14.051 130.474 14.051 130.474C14.051 130.474 14.051 130.474 14.051 130.474C14.051 130.474 14.051 130.474 14.051 130.474C14.051 130.474 14.051 130.474 14.051 130.474C14.051 130.474 14.051 130.474 14.051 130.474C14.051 130.474 14.051 130.474 14.051 130.474C14.051 130.474 14.051 130.475 14.051 130.475C14.051 130.475 14.051 130.475 14.051 130.475C14.051 130.475 14.051 130.475 14.051 130.475C14.051 130.475 14.051 130.475 14.051 130.475C14.051 130.475 14.051 130.475 14.051 130.475C14.051 130.475 14.051 130.475 14.051 130.475C14.051 130.475 14.051 130.475 14.051 130.475C14.051 130.475 14.051 130.475 14.051 130.476C14.051 130.476 14.051 130.476 14.051 130.476C14.051 130.476 14.051 130.476 14.051 130.476C14.051 130.476 14.051 130.476 14.051 130.476C14.051 130.476 14.051 130.476 14.051 130.476C14.051 130.476 14.051 130.476 14.051 130.476C14.051 130.476 14.051 130.476 14.051 130.476C14.051 130.476 14.051 130.476 14.051 130.476C14.051 130.476 14.051 130.477 14.051 130.477C14.051 130.477 14.051 130.477 14.051 130.477C14.051 130.477 14.051 130.477 14.051 130.477C14.051 130.477 14.051 130.477 14.051 130.477C14.051 130.477 14.051 130.477 14.051 130.477C14.051 130.477 14.051 130.477 14.051 130.477C14.051 130.477 14.051 130.477 14.051 130.477C14.051 130.477 14.051 130.477 14.051 130.478C14.051 130.478 14.051 130.478 14.051 130.478C14.051 130.478 14.051 130.478 14.051 130.478C14.051 130.478 14.051 130.478 14.051 130.478C14.051 130.478 14.051 130.478 14.051 130.478C14.051 130.478 14.051 130.478 14.051 130.478C14.051 130.478 14.051 130.478 14.051 130.478C14.051 130.478 14.051 130.478 14.051 130.478C14.051 130.478 14.051 130.479 14.051 130.479C14.051 130.479 14.051 130.479 14.051 130.479C14.051 130.479 14.051 130.479 14.051 130.479C14.051 130.479 14.051 130.479 14.051 130.479C14.051 130.479 14.051 130.479 14.051 130.479C14.051 130.479 14.051 130.479 14.051 130.479C14.051 130.479 14.051 130.479 14.051 130.479C14.051 130.479 14.051 130.479 14.051 130.48C14.051 130.48 14.051 130.48 14.051 130.48C14.051 130.48 14.051 130.48 14.051 130.48C14.051 130.48 14.051 130.48 14.051 130.48C14.051 130.48 14.051 130.48 14.051 130.48C14.051 130.48 14.051 130.48 14.051 130.48C14.051 130.48 14.051 130.48 14.051 130.48C14.051 130.48 14.051 130.48 14.051 130.48C14.051 130.481 14.051 130.481 14.051 130.481C14.051 130.481 14.051 130.481 14.051 130.481C14.051 130.481 14.051 130.481 14.051 130.481C14.051 130.481 14.051 130.481 14.051 130.481C14.051 130.481 14.051 130.481 14.051 130.481C14.051 130.481 14.051 130.481 14.051 130.481C14.051 130.481 14.051 130.481 14.051 130.481C14.051 130.481 14.051 130.481 14.051 130.482C14.051 130.482 14.051 130.482 14.051 130.482C14.051 130.482 14.051 130.482 14.051 130.482C14.051 130.482 14.051 130.482 14.051 130.482C14.051 130.482 14.051 130.482 14.051 130.482C14.051 130.482 14.051 130.482 14.051 130.482C14.051 130.482 14.051 130.482 14.051 130.482C14.051 130.482 14.051 130.482 14.051 130.482C14.051 130.483 14.051 130.483 14.051 130.483C14.051 130.483 14.051 130.483 14.051 130.483C14.051 130.483 14.051 130.483 14.051 130.483C14.051 130.483 14.051 130.483 14.051 130.483C14.051 130.483 14.051 130.483 14.051 130.483C14.051 130.483 14.051 130.483 14.051 130.483C14.051 130.483 14.051 130.483 14.051 130.483C14.051 130.483 14.051 130.483 14.051 130.484C14.051 130.484 14.051 130.484 14.051 130.484C14.051 130.484 14.051 130.484 14.051 130.484C14.051 130.484 14.051 130.484 14.051 130.484C14.051 130.484 14.051 130.484 14.051 130.484C14.051 130.484 14.051 130.484 14.051 130.484C14.051 130.484 14.051 130.484 14.051 130.484C14.051 130.484 14.051 130.484 14.051 130.484C14.051 130.485 14.051 130.485 14.051 130.485C14.051 130.485 14.051 130.485 14.051 130.485C14.051 130.485 14.051 130.485 14.051 130.485C14.051 130.485 14.051 130.485 14.051 130.485C14.051 130.485 14.051 130.485 14.051 130.485C14.051 130.485 14.051 130.485 14.051 130.485C14.051 130.485 14.051 130.485 14.051 130.485C14.051 130.485 14.051 130.485 14.051 130.486C14.051 130.486 14.051 130.486 14.051 130.486C14.051 130.486 14.051 130.486 14.051 130.486C14.051 130.486 14.051 130.486 14.051 130.486C14.051 130.486 14.051 130.486 14.051 130.486C14.051 130.486 14.051 130.486 14.051 130.486C14.051 130.486 14.051 130.486 14.051 130.486C14.051 130.486 14.051 130.486 14.051 130.486C14.051 130.487 14.051 130.487 14.051 130.487C14.051 130.487 14.051 130.487 14.051 130.487C14.051 130.487 14.051 130.487 14.051 130.487C14.051 130.487 14.051 130.487 14.051 130.487C14.051 130.487 14.051 130.487 14.051 130.487C14.051 130.487 14.051 130.487 14.051 130.487C14.051 130.487 14.051 130.487 14.051 130.487C14.051 130.487 14.051 130.488 14.051 130.488C14.051 130.488 14.051 130.488 14.051 130.488C14.051 130.488 14.051 130.488 14.051 130.488C14.051 130.488 14.051 130.488 14.051 130.488C14.051 130.488 14.051 130.488 14.051 130.488C14.051 130.488 14.051 130.488 14.051 130.488C14.051 130.488 14.051 130.488 14.051 130.488C14.051 130.488 14.051 130.488 14.051 130.488C14.051 130.489 14.051 130.489 14.051 130.489C14.051 130.489 14.051 130.489 14.051 130.489C14.051 130.489 14.051 130.489 14.051 130.489C14.051 130.489 14.051 130.489 14.051 130.489C14.051 130.489 14.051 130.489 14.051 130.489C14.051 130.489 14.051 130.489 14.051 130.489C14.051 130.489 14.051 130.489 14.051 130.489C14.051 130.489 14.051 130.49 14.051 130.49C14.051 130.49 14.051 130.49 14.051 130.49C14.051 130.49 14.051 130.49 14.051 130.49C14.051 130.49 14.051 130.49 14.051 130.49C14.051 130.49 14.051 130.49 14.051 130.49C14.051 130.49 14.051 130.49 14.051 130.49C14.051 130.49 14.051 130.49 14.051 130.49C14.051 130.49 14.051 130.49 14.051 130.49C14.051 130.491 14.051 130.491 14.051 130.491C14.051 130.491 14.051 130.491 14.051 130.491C14.051 130.491 14.051 130.491 14.051 130.491C14.051 130.491 14.051 130.491 14.051 130.491C14.051 130.491 14.051 130.491 14.051 130.491C14.051 130.491 14.051 130.491 14.051 130.491C14.051 130.491 14.051 130.491 14.051 130.491C14.051 130.491 14.051 130.492 14.051 130.492C14.051 130.492 14.051 130.492 14.051 130.492C14.051 130.492 14.051 130.492 14.051 130.492C14.051 130.492 14.051 130.492 14.051 130.492C14.051 130.492 14.051 130.492 14.051 130.492C14.051 130.492 14.051 130.492 14.051 130.492C14.051 130.492 14.051 130.492 14.051 130.492C14.051 130.492 14.051 130.492 14.051 130.492C14.051 130.493 14.051 130.493 14.051 130.493C14.051 130.493 14.051 130.493 14.051 130.493C14.051 130.493 14.051 130.493 14.051 130.493C14.051 130.493 14.051 130.493 14.051 130.493C14.051 130.493 14.051 130.493 14.051 130.493C14.051 130.493 14.051 130.493 14.051 130.493C14.051 130.493 14.051 130.493 14.051 130.493C14.051 130.493 14.051 130.493 14.051 130.494C14.051 130.494 14.051 130.494 14.051 130.494C14.051 130.494 14.051 130.494 14.051 130.494C14.051 130.494 14.051 130.494 14.051 130.494C14.051 130.494 14.051 130.494 14.051 130.494C14.051 130.494 14.051 130.494 14.051 130.494C14.051 130.494 14.051 130.494 14.051 130.494C14.051 130.494 14.051 130.494 14.051 130.494C14.051 130.495 14.051 130.495 14.051 130.495C14.051 130.495 14.051 130.495 14.051 130.495C14.051 130.495 14.051 130.495 14.051 130.495C14.051 130.495 14.051 130.495 14.051 130.495C14.051 130.495 14.051 130.495 14.051 130.495C14.051 130.495 14.051 130.495 14.051 130.495C14.051 130.495 14.051 130.495 14.051 130.495C14.051 130.495 14.051 130.495 14.051 130.496C14.051 130.496 14.051 130.496 14.051 130.496C14.051 130.496 14.051 130.496 14.051 130.496C14.051 130.496 14.051 130.496 14.051 130.496C14.051 130.496 14.051 130.496 14.051 130.496C14.051 130.496 14.051 130.496 14.051 130.496C14.051 130.496 14.051 130.496 14.051 130.496C14.051 130.496 14.051 130.496 14.051 130.496C14.051 130.497 14.051 130.497 14.051 130.497C14.051 130.497 14.051 130.497 14.051 130.497C14.051 130.497 14.051 130.497 14.051 130.497C14.051 130.497 14.051 130.497 14.051 130.497C14.051 130.497 14.051 130.497 14.051 130.497C14.051 130.497 14.051 130.497 14.051 130.497C14.051 130.497 14.051 130.497 14.051 130.497C14.051 130.497 14.051 130.497 14.051 130.498C14.051 130.498 14.051 130.498 14.051 130.498C14.051 130.498 14.051 130.498 14.051 130.498C14.051 130.498 14.051 130.498 14.051 130.498C14.051 130.498 14.051 130.498 14.051 130.498C14.051 130.498 14.051 130.498 14.051 130.498C14.051 130.498 14.051 130.498 14.051 130.498C14.051 130.498 14.051 130.498 14.051 130.498C14.051 130.498 14.051 130.499 14.051 130.499C14.051 130.499 14.051 130.499 14.051 130.499C14.051 130.499 14.051 130.499 14.051 130.499C14.051 130.499 14.051 130.499 14.051 130.499C14.051 130.499 14.051 130.499 14.051 130.499C14.051 130.499 14.051 130.499 14.051 130.499C14.051 130.499 14.051 130.499 14.051 130.499C14.051 130.499 14.051 130.499 14.051 130.499C14.051 130.5 14.051 130.5 14.051 130.5C14.051 130.5 14.051 130.5 14.051 130.5C14.051 130.5 14.051 130.5 14.051 130.5C14.051 130.5 14.051 130.5 14.051 130.5C14.051 130.5 14.051 130.5 14.051 130.5C14.051 130.5 14.051 130.5 14.051 130.5C14.051 130.5 14.051 130.5 14.051 130.5C14.051 130.5 14.051 130.501 14.051 130.501C14.051 130.501 14.051 130.501 14.051 130.501C14.051 130.501 14.051 130.501 14.051 130.501C14.051 130.501 14.051 130.501 14.051 130.501C14.051 130.501 14.051 130.501 14.051 130.501C14.051 130.501 14.051 130.501 14.051 130.501C14.051 130.501 14.051 130.501 14.051 130.501C14.051 130.501 14.051 130.501 14.051 130.501C14.051 130.502 14.051 130.502 14.051 130.502C14.051 130.502 14.051 130.502 14.051 130.502C14.051 130.502 14.051 130.502 14.051 130.502C14.051 130.502 14.051 130.502 14.051 130.502C14.051 130.502 14.051 130.502 14.051 130.502C14.051 130.502 14.051 130.502 14.051 130.502C14.051 130.502 14.051 130.502 14.051 130.502C14.051 130.502 14.051 130.502 14.051 130.503C14.051 130.503 14.051 130.503 14.051 130.503C14.051 130.503 14.051 130.503 14.051 130.503C14.051 130.503 14.051 130.503 14.051 130.503C14.051 130.503 14.051 130.503 14.051 130.503C14.051 130.503 14.051 130.503 14.051 130.503C14.051 130.503 14.051 130.503 14.051 130.503C14.051 130.503 14.051 130.503 14.051 130.503C14.051 130.503 14.051 130.504 14.051 130.504C14.051 130.504 14.051 130.504 14.051 130.504C14.051 130.504 14.051 130.504 14.051 130.504C14.051 130.504 14.051 130.504 14.051 130.504C14.051 130.504 14.051 130.504 14.051 130.504C14.051 130.504 14.051 130.504 14.051 130.504C14.051 130.504 14.051 130.504 14.051 130.504C14.051 130.504 14.051 130.504 14.051 130.504C14.051 130.505 14.051 130.505 14.051 130.505C14.051 130.505 14.051 130.505 14.051 130.505C14.051 130.505 14.051 130.505 14.051 130.505C14.051 130.505 14.051 130.505 14.051 130.505C14.051 130.505 14.051 130.505 14.051 130.505C14.051 130.505 14.051 130.505 14.051 130.505C14.051 130.505 14.051 130.505 14.051 130.505C14.051 130.505 14.051 130.505 14.051 130.506C14.051 130.506 14.051 130.506 14.051 130.506C14.051 130.506 14.051 130.506 14.051 130.506C14.051 130.506 14.051 130.506 14.051 130.506C14.051 130.506 14.051 130.506 14.051 130.506C14.051 130.506 14.051 130.506 14.051 130.506C14.051 130.506 14.051 130.506 14.051 130.506C14.051 130.506 14.051 130.506 14.051 130.506C14.051 130.506 14.051 130.507 14.051 130.507C14.051 130.507 14.051 130.507 14.051 130.507C14.051 130.507 14.051 130.507 14.051 130.507C14.051 130.507 14.051 130.507 14.051 130.507C14.051 130.507 14.051 130.507 14.051 130.507C14.051 130.507 14.051 130.507 14.051 130.507C14.051 130.507 14.051 130.507 14.051 130.507C14.051 130.507 14.051 130.507 14.051 130.507C14.051 130.508 14.051 130.508 14.051 130.508C14.051 130.508 14.051 130.508 14.051 130.508C14.051 130.508 14.051 130.508 14.051 130.508C14.051 130.508 14.051 130.508 14.051 130.508C14.051 130.508 14.051 130.508 14.051 130.508C14.051 130.508 14.051 130.508 14.051 130.508C14.051 130.508 14.051 130.508 14.051 130.508C14.051 130.508 14.051 130.508 14.051 130.509C14.051 130.509 14.051 130.509 14.051 130.509C14.051 130.509 14.051 130.509 14.051 130.509C14.051 130.509 14.051 130.509 14.051 130.509C14.051 130.509 14.051 130.509 14.051 130.509C14.051 130.509 14.051 130.509 14.051 130.509C14.051 130.509 14.051 130.509 14.051 130.509C14.051 130.509 14.051 130.509 14.051 130.509C14.051 130.509 14.051 130.509 14.051 130.51C14.051 130.51 14.051 130.51 14.051 130.51C14.051 130.51 14.051 130.51 14.051 130.51C14.051 130.51 14.051 130.51 14.051 130.51C14.051 130.51 14.051 130.51 14.051 130.51C14.051 130.51 14.051 130.51 14.051 130.51C14.051 130.51 14.051 130.51 14.051 130.51C14.051 130.51 14.051 130.51 14.051 130.51C14.051 130.51 14.051 130.511 14.051 130.511C14.051 130.511 14.051 130.511 14.051 130.511C14.051 130.511 14.051 130.511 14.051 130.511C14.051 130.511 14.051 130.511 14.051 130.511C14.051 130.511 14.051 130.511 14.051 130.511C14.051 130.511 14.051 130.511 14.051 130.511C14.051 130.511 14.051 130.511 14.051 130.511C14.051 130.511 14.051 130.511 14.051 130.511C14.051 130.512 14.051 130.512 14.051 130.512C14.051 130.512 14.051 130.512 14.051 130.512C14.051 130.512 14.051 130.512 14.051 130.512C14.051 130.512 14.051 130.512 14.051 130.512C14.051 130.512 14.051 130.512 14.051 130.512C14.051 130.512 14.051 130.512 14.051 130.512C14.051 130.512 14.051 130.512 14.051 130.512C14.051 130.512 14.051 130.512 14.051 130.512C14.051 130.513 14.051 130.513 14.051 130.513C14.051 130.513 14.051 130.513 14.051 130.513C14.051 130.513 14.051 130.513 14.051 130.513C14.051 130.513 14.051 130.513 14.051 130.513C14.051 130.513 14.051 130.513 14.051 130.513C14.051 130.513 14.051 130.513 14.051 130.513H18.051C18.051 130.513 18.051 130.513 18.051 130.513C18.051 130.513 18.051 130.513 18.051 130.513C18.051 130.513 18.051 130.513 18.051 130.513C18.051 130.513 18.051 130.513 18.051 130.513C18.051 130.513 18.051 130.513 18.051 130.513C18.051 130.513 18.051 130.513 18.051 130.512C18.051 130.512 18.051 130.512 18.051 130.512C18.051 130.512 18.051 130.512 18.051 130.512C18.051 130.512 18.051 130.512 18.051 130.512C18.051 130.512 18.051 130.512 18.051 130.512C18.051 130.512 18.051 130.512 18.051 130.512C18.051 130.512 18.051 130.512 18.051 130.512C18.051 130.512 18.051 130.512 18.051 130.512C18.051 130.512 18.051 130.512 18.051 130.511C18.051 130.511 18.051 130.511 18.051 130.511C18.051 130.511 18.051 130.511 18.051 130.511C18.051 130.511 18.051 130.511 18.051 130.511C18.051 130.511 18.051 130.511 18.051 130.511C18.051 130.511 18.051 130.511 18.051 130.511C18.051 130.511 18.051 130.511 18.051 130.511C18.051 130.511 18.051 130.511 18.051 130.511C18.051 130.511 18.051 130.51 18.051 130.51C18.051 130.51 18.051 130.51 18.051 130.51C18.051 130.51 18.051 130.51 18.051 130.51C18.051 130.51 18.051 130.51 18.051 130.51C18.051 130.51 18.051 130.51 18.051 130.51C18.051 130.51 18.051 130.51 18.051 130.51C18.051 130.51 18.051 130.51 18.051 130.51C18.051 130.51 18.051 130.51 18.051 130.51C18.051 130.509 18.051 130.509 18.051 130.509C18.051 130.509 18.051 130.509 18.051 130.509C18.051 130.509 18.051 130.509 18.051 130.509C18.051 130.509 18.051 130.509 18.051 130.509C18.051 130.509 18.051 130.509 18.051 130.509C18.051 130.509 18.051 130.509 18.051 130.509C18.051 130.509 18.051 130.509 18.051 130.509C18.051 130.509 18.051 130.509 18.051 130.509C18.051 130.508 18.051 130.508 18.051 130.508C18.051 130.508 18.051 130.508 18.051 130.508C18.051 130.508 18.051 130.508 18.051 130.508C18.051 130.508 18.051 130.508 18.051 130.508C18.051 130.508 18.051 130.508 18.051 130.508C18.051 130.508 18.051 130.508 18.051 130.508C18.051 130.508 18.051 130.508 18.051 130.508C18.051 130.508 18.051 130.508 18.051 130.507C18.051 130.507 18.051 130.507 18.051 130.507C18.051 130.507 18.051 130.507 18.051 130.507C18.051 130.507 18.051 130.507 18.051 130.507C18.051 130.507 18.051 130.507 18.051 130.507C18.051 130.507 18.051 130.507 18.051 130.507C18.051 130.507 18.051 130.507 18.051 130.507C18.051 130.507 18.051 130.507 18.051 130.507C18.051 130.507 18.051 130.506 18.051 130.506C18.051 130.506 18.051 130.506 18.051 130.506C18.051 130.506 18.051 130.506 18.051 130.506C18.051 130.506 18.051 130.506 18.051 130.506C18.051 130.506 18.051 130.506 18.051 130.506C18.051 130.506 18.051 130.506 18.051 130.506C18.051 130.506 18.051 130.506 18.051 130.506C18.051 130.506 18.051 130.506 18.051 130.506C18.051 130.505 18.051 130.505 18.051 130.505C18.051 130.505 18.051 130.505 18.051 130.505C18.051 130.505 18.051 130.505 18.051 130.505C18.051 130.505 18.051 130.505 18.051 130.505C18.051 130.505 18.051 130.505 18.051 130.505C18.051 130.505 18.051 130.505 18.051 130.505C18.051 130.505 18.051 130.505 18.051 130.505C18.051 130.505 18.051 130.505 18.051 130.504C18.051 130.504 18.051 130.504 18.051 130.504C18.051 130.504 18.051 130.504 18.051 130.504C18.051 130.504 18.051 130.504 18.051 130.504C18.051 130.504 18.051 130.504 18.051 130.504C18.051 130.504 18.051 130.504 18.051 130.504C18.051 130.504 18.051 130.504 18.051 130.504C18.051 130.504 18.051 130.504 18.051 130.504C18.051 130.504 18.051 130.503 18.051 130.503C18.051 130.503 18.051 130.503 18.051 130.503C18.051 130.503 18.051 130.503 18.051 130.503C18.051 130.503 18.051 130.503 18.051 130.503C18.051 130.503 18.051 130.503 18.051 130.503C18.051 130.503 18.051 130.503 18.051 130.503C18.051 130.503 18.051 130.503 18.051 130.503C18.051 130.503 18.051 130.503 18.051 130.503C18.051 130.502 18.051 130.502 18.051 130.502C18.051 130.502 18.051 130.502 18.051 130.502C18.051 130.502 18.051 130.502 18.051 130.502C18.051 130.502 18.051 130.502 18.051 130.502C18.051 130.502 18.051 130.502 18.051 130.502C18.051 130.502 18.051 130.502 18.051 130.502C18.051 130.502 18.051 130.502 18.051 130.502C18.051 130.502 18.051 130.502 18.051 130.501C18.051 130.501 18.051 130.501 18.051 130.501C18.051 130.501 18.051 130.501 18.051 130.501C18.051 130.501 18.051 130.501 18.051 130.501C18.051 130.501 18.051 130.501 18.051 130.501C18.051 130.501 18.051 130.501 18.051 130.501C18.051 130.501 18.051 130.501 18.051 130.501C18.051 130.501 18.051 130.501 18.051 130.501C18.051 130.501 18.051 130.5 18.051 130.5C18.051 130.5 18.051 130.5 18.051 130.5C18.051 130.5 18.051 130.5 18.051 130.5C18.051 130.5 18.051 130.5 18.051 130.5C18.051 130.5 18.051 130.5 18.051 130.5C18.051 130.5 18.051 130.5 18.051 130.5C18.051 130.5 18.051 130.5 18.051 130.5C18.051 130.5 18.051 130.5 18.051 130.499C18.051 130.499 18.051 130.499 18.051 130.499C18.051 130.499 18.051 130.499 18.051 130.499C18.051 130.499 18.051 130.499 18.051 130.499C18.051 130.499 18.051 130.499 18.051 130.499C18.051 130.499 18.051 130.499 18.051 130.499C18.051 130.499 18.051 130.499 18.051 130.499C18.051 130.499 18.051 130.499 18.051 130.499C18.051 130.499 18.051 130.498 18.051 130.498C18.051 130.498 18.051 130.498 18.051 130.498C18.051 130.498 18.051 130.498 18.051 130.498C18.051 130.498 18.051 130.498 18.051 130.498C18.051 130.498 18.051 130.498 18.051 130.498C18.051 130.498 18.051 130.498 18.051 130.498C18.051 130.498 18.051 130.498 18.051 130.498C18.051 130.498 18.051 130.498 18.051 130.498C18.051 130.497 18.051 130.497 18.051 130.497C18.051 130.497 18.051 130.497 18.051 130.497C18.051 130.497 18.051 130.497 18.051 130.497C18.051 130.497 18.051 130.497 18.051 130.497C18.051 130.497 18.051 130.497 18.051 130.497C18.051 130.497 18.051 130.497 18.051 130.497C18.051 130.497 18.051 130.497 18.051 130.497C18.051 130.497 18.051 130.497 18.051 130.496C18.051 130.496 18.051 130.496 18.051 130.496C18.051 130.496 18.051 130.496 18.051 130.496C18.051 130.496 18.051 130.496 18.051 130.496C18.051 130.496 18.051 130.496 18.051 130.496C18.051 130.496 18.051 130.496 18.051 130.496C18.051 130.496 18.051 130.496 18.051 130.496C18.051 130.496 18.051 130.496 18.051 130.496C18.051 130.495 18.051 130.495 18.051 130.495C18.051 130.495 18.051 130.495 18.051 130.495C18.051 130.495 18.051 130.495 18.051 130.495C18.051 130.495 18.051 130.495 18.051 130.495C18.051 130.495 18.051 130.495 18.051 130.495C18.051 130.495 18.051 130.495 18.051 130.495C18.051 130.495 18.051 130.495 18.051 130.495C18.051 130.495 18.051 130.495 18.051 130.494C18.051 130.494 18.051 130.494 18.051 130.494C18.051 130.494 18.051 130.494 18.051 130.494C18.051 130.494 18.051 130.494 18.051 130.494C18.051 130.494 18.051 130.494 18.051 130.494C18.051 130.494 18.051 130.494 18.051 130.494C18.051 130.494 18.051 130.494 18.051 130.494C18.051 130.494 18.051 130.494 18.051 130.494C18.051 130.493 18.051 130.493 18.051 130.493C18.051 130.493 18.051 130.493 18.051 130.493C18.051 130.493 18.051 130.493 18.051 130.493C18.051 130.493 18.051 130.493 18.051 130.493C18.051 130.493 18.051 130.493 18.051 130.493C18.051 130.493 18.051 130.493 18.051 130.493C18.051 130.493 18.051 130.493 18.051 130.493C18.051 130.493 18.051 130.493 18.051 130.492C18.051 130.492 18.051 130.492 18.051 130.492C18.051 130.492 18.051 130.492 18.051 130.492C18.051 130.492 18.051 130.492 18.051 130.492C18.051 130.492 18.051 130.492 18.051 130.492C18.051 130.492 18.051 130.492 18.051 130.492C18.051 130.492 18.051 130.492 18.051 130.492C18.051 130.492 18.051 130.492 18.051 130.492C18.051 130.492 18.051 130.491 18.051 130.491C18.051 130.491 18.051 130.491 18.051 130.491C18.051 130.491 18.051 130.491 18.051 130.491C18.051 130.491 18.051 130.491 18.051 130.491C18.051 130.491 18.051 130.491 18.051 130.491C18.051 130.491 18.051 130.491 18.051 130.491C18.051 130.491 18.051 130.491 18.051 130.491C18.051 130.491 18.051 130.491 18.051 130.49C18.051 130.49 18.051 130.49 18.051 130.49C18.051 130.49 18.051 130.49 18.051 130.49C18.051 130.49 18.051 130.49 18.051 130.49C18.051 130.49 18.051 130.49 18.051 130.49C18.051 130.49 18.051 130.49 18.051 130.49C18.051 130.49 18.051 130.49 18.051 130.49C18.051 130.49 18.051 130.49 18.051 130.49C18.051 130.49 18.051 130.489 18.051 130.489C18.051 130.489 18.051 130.489 18.051 130.489C18.051 130.489 18.051 130.489 18.051 130.489C18.051 130.489 18.051 130.489 18.051 130.489C18.051 130.489 18.051 130.489 18.051 130.489C18.051 130.489 18.051 130.489 18.051 130.489C18.051 130.489 18.051 130.489 18.051 130.489C18.051 130.489 18.051 130.489 18.051 130.488C18.051 130.488 18.051 130.488 18.051 130.488C18.051 130.488 18.051 130.488 18.051 130.488C18.051 130.488 18.051 130.488 18.051 130.488C18.051 130.488 18.051 130.488 18.051 130.488C18.051 130.488 18.051 130.488 18.051 130.488C18.051 130.488 18.051 130.488 18.051 130.488C18.051 130.488 18.051 130.488 18.051 130.488C18.051 130.488 18.051 130.487 18.051 130.487C18.051 130.487 18.051 130.487 18.051 130.487C18.051 130.487 18.051 130.487 18.051 130.487C18.051 130.487 18.051 130.487 18.051 130.487C18.051 130.487 18.051 130.487 18.051 130.487C18.051 130.487 18.051 130.487 18.051 130.487C18.051 130.487 18.051 130.487 18.051 130.487C18.051 130.487 18.051 130.487 18.051 130.486C18.051 130.486 18.051 130.486 18.051 130.486C18.051 130.486 18.051 130.486 18.051 130.486C18.051 130.486 18.051 130.486 18.051 130.486C18.051 130.486 18.051 130.486 18.051 130.486C18.051 130.486 18.051 130.486 18.051 130.486C18.051 130.486 18.051 130.486 18.051 130.486C18.051 130.486 18.051 130.486 18.051 130.486C18.051 130.485 18.051 130.485 18.051 130.485C18.051 130.485 18.051 130.485 18.051 130.485C18.051 130.485 18.051 130.485 18.051 130.485C18.051 130.485 18.051 130.485 18.051 130.485C18.051 130.485 18.051 130.485 18.051 130.485C18.051 130.485 18.051 130.485 18.051 130.485C18.051 130.485 18.051 130.485 18.051 130.485C18.051 130.485 18.051 130.485 18.051 130.484C18.051 130.484 18.051 130.484 18.051 130.484C18.051 130.484 18.051 130.484 18.051 130.484C18.051 130.484 18.051 130.484 18.051 130.484C18.051 130.484 18.051 130.484 18.051 130.484C18.051 130.484 18.051 130.484 18.051 130.484C18.051 130.484 18.051 130.484 18.051 130.484C18.051 130.484 18.051 130.484 18.051 130.484C18.051 130.483 18.051 130.483 18.051 130.483C18.051 130.483 18.051 130.483 18.051 130.483C18.051 130.483 18.051 130.483 18.051 130.483C18.051 130.483 18.051 130.483 18.051 130.483C18.051 130.483 18.051 130.483 18.051 130.483C18.051 130.483 18.051 130.483 18.051 130.483C18.051 130.483 18.051 130.483 18.051 130.483C18.051 130.483 18.051 130.483 18.051 130.482C18.051 130.482 18.051 130.482 18.051 130.482C18.051 130.482 18.051 130.482 18.051 130.482C18.051 130.482 18.051 130.482 18.051 130.482C18.051 130.482 18.051 130.482 18.051 130.482C18.051 130.482 18.051 130.482 18.051 130.482C18.051 130.482 18.051 130.482 18.051 130.482C18.051 130.482 18.051 130.482 18.051 130.482C18.051 130.481 18.051 130.481 18.051 130.481C18.051 130.481 18.051 130.481 18.051 130.481C18.051 130.481 18.051 130.481 18.051 130.481C18.051 130.481 18.051 130.481 18.051 130.481C18.051 130.481 18.051 130.481 18.051 130.481C18.051 130.481 18.051 130.481 18.051 130.481C18.051 130.481 18.051 130.481 18.051 130.481C18.051 130.481 18.051 130.481 18.051 130.48C18.051 130.48 18.051 130.48 18.051 130.48C18.051 130.48 18.051 130.48 18.051 130.48C18.051 130.48 18.051 130.48 18.051 130.48C18.051 130.48 18.051 130.48 18.051 130.48C18.051 130.48 18.051 130.48 18.051 130.48C18.051 130.48 18.051 130.48 18.051 130.48C18.051 130.48 18.051 130.48 18.051 130.48C18.051 130.479 18.051 130.479 18.051 130.479C18.051 130.479 18.051 130.479 18.051 130.479C18.051 130.479 18.051 130.479 18.051 130.479C18.051 130.479 18.051 130.479 18.051 130.479C18.051 130.479 18.051 130.479 18.051 130.479C18.051 130.479 18.051 130.479 18.051 130.479C18.051 130.479 18.051 130.479 18.051 130.479C18.051 130.479 18.051 130.478 18.051 130.478C18.051 130.478 18.051 130.478 18.051 130.478C18.051 130.478 18.051 130.478 18.051 130.478C18.051 130.478 18.051 130.478 18.051 130.478C18.051 130.478 18.051 130.478 18.051 130.478C18.051 130.478 18.051 130.478 18.051 130.478C18.051 130.478 18.051 130.478 18.051 130.478C18.051 130.478 18.051 130.478 18.051 130.478C18.051 130.477 18.051 130.477 18.051 130.477C18.051 130.477 18.051 130.477 18.051 130.477C18.051 130.477 18.051 130.477 18.051 130.477C18.051 130.477 18.051 130.477 18.051 130.477C18.051 130.477 18.051 130.477 18.051 130.477C18.051 130.477 18.051 130.477 18.051 130.477C18.051 130.477 18.051 130.477 18.051 130.477C18.051 130.477 18.051 130.476 18.051 130.476C18.051 130.476 18.051 130.476 18.051 130.476C18.051 130.476 18.051 130.476 18.051 130.476C18.051 130.476 18.051 130.476 18.051 130.476C18.051 130.476 18.051 130.476 18.051 130.476C18.051 130.476 18.051 130.476 18.051 130.476C18.051 130.476 18.051 130.476 18.051 130.476C18.051 130.476 18.051 130.476 18.051 130.476C18.051 130.475 18.051 130.475 18.051 130.475C18.051 130.475 18.051 130.475 18.051 130.475C18.051 130.475 18.051 130.475 18.051 130.475C18.051 130.475 18.051 130.475 18.051 130.475C18.051 130.475 18.051 130.475 18.051 130.475C18.051 130.475 18.051 130.475 18.051 130.475C18.051 130.475 18.051 130.475 18.051 130.475C18.051 130.475 18.051 130.474 18.051 130.474C18.051 130.474 18.051 130.474 18.051 130.474C18.051 130.474 18.051 130.474 18.051 130.474C18.051 130.474 18.051 130.474 18.051 130.474C18.051 130.474 18.051 130.474 18.051 130.474C18.051 130.474 18.051 130.474 18.051 130.474C18.051 130.474 18.051 130.474 18.051 130.474C18.051 130.474 18.051 130.474 18.051 130.473C18.051 130.473 18.051 130.473 18.051 130.473C18.051 130.473 18.051 130.473 18.051 130.473C18.051 130.473 18.051 130.473 18.051 130.473C18.051 130.473 18.051 130.473 18.051 130.473C18.051 130.473 18.051 130.473 18.051 130.473C18.051 130.473 18.051 130.473 18.051 130.473C18.051 130.473 18.051 130.473 18.051 130.473C18.051 130.473 18.051 130.472 18.051 130.472C18.051 130.472 18.051 130.472 18.051 130.472C18.051 130.472 18.051 130.472 18.051 130.472C18.051 130.472 18.051 130.472 18.051 130.472C18.051 130.472 18.051 130.472 18.051 130.472C18.051 130.472 18.051 130.472 18.051 130.472C18.051 130.472 18.051 130.472 18.051 130.472C18.051 130.472 18.051 130.472 18.051 130.471C18.051 130.471 18.051 130.471 18.051 130.471C18.051 130.471 18.051 130.471 18.051 130.471C18.051 130.471 18.051 130.471 18.051 130.471C18.051 130.471 18.051 130.471 18.051 130.471C18.051 130.471 18.051 130.471 18.051 130.471C18.051 130.471 18.051 130.471 18.051 130.471C18.051 130.471 18.051 130.471 18.051 130.471C18.051 130.471 18.051 130.47 18.051 130.47C18.051 130.47 18.051 130.47 18.051 130.47C18.051 130.47 18.051 130.47 18.051 130.47C18.051 130.47 18.051 130.47 18.051 130.47C18.051 130.47 18.051 130.47 18.051 130.47C18.051 130.47 18.051 130.47 18.051 130.47C18.051 130.47 18.051 130.47 18.051 130.47C18.051 130.47 18.051 130.47 18.051 130.469C18.051 130.469 18.051 130.469 18.051 130.469C18.051 130.469 18.051 130.469 18.051 130.469C18.051 130.469 18.051 130.469 18.051 130.469C18.051 130.469 18.051 130.469 18.051 130.469C18.051 130.469 18.051 130.469 18.051 130.469C18.051 130.469 18.051 130.469 18.051 130.469C18.051 130.469 18.051 130.469 18.051 130.469C18.051 130.469 18.051 130.468 18.051 130.468C18.051 130.468 18.051 130.468 18.051 130.468C18.051 130.468 18.051 130.468 18.051 130.468C18.051 130.468 18.051 130.468 18.051 130.468C18.051 130.468 18.051 130.468 18.051 130.468C18.051 130.468 18.051 130.468 18.051 130.468C18.051 130.468 18.051 130.468 18.051 130.468C18.051 130.468 18.051 130.468 18.051 130.467C18.051 130.467 18.051 130.467 18.051 130.467C18.051 130.467 18.051 130.467 18.051 130.467C18.051 130.467 18.051 130.467 18.051 130.467C18.051 130.467 18.051 130.467 18.051 130.467C18.051 130.467 18.051 130.467 18.051 130.467C18.051 130.467 18.051 130.467 18.051 130.467C18.051 130.467 18.051 130.467 18.051 130.467C18.051 130.467 18.051 130.466 18.051 130.466C18.051 130.466 18.051 130.466 18.051 130.466C18.051 130.466 18.051 130.466 18.051 130.466C18.051 130.466 18.051 130.466 18.051 130.466C18.051 130.466 18.051 130.466 18.051 130.466C18.051 130.466 18.051 130.466 18.051 130.466C18.051 130.466 18.051 130.466 18.051 130.466C18.051 130.466 18.051 130.466 18.051 130.465C18.051 130.465 18.051 130.465 18.051 130.465C18.051 130.465 18.051 130.465 18.051 130.465C18.051 130.465 18.051 130.465 18.051 130.465C18.051 130.465 18.051 130.465 18.051 130.465C18.051 130.465 18.051 130.465 18.051 130.465C18.051 130.465 18.051 130.465 18.051 130.465C18.051 130.465 18.051 130.465 18.051 130.465C18.051 130.465 18.051 130.464 18.051 130.464C18.051 130.464 18.051 130.464 18.051 130.464C18.051 130.464 18.051 130.464 18.051 130.464C18.051 130.464 18.051 130.464 18.051 130.464C18.051 130.464 18.051 130.464 18.051 130.464C18.051 130.464 18.051 130.464 18.051 130.464C18.051 130.464 18.051 130.464 18.051 130.464C18.051 130.464 18.051 130.464 18.051 130.464C18.051 130.463 18.051 130.463 18.051 130.463C18.051 130.463 18.051 130.463 18.051 130.463C18.051 130.463 18.051 130.463 18.051 130.463C18.051 130.463 18.051 130.463 18.051 130.463C18.051 130.463 18.051 130.463 18.051 130.463C18.051 130.463 18.051 130.463 18.051 130.463C18.051 130.463 18.051 130.463 18.051 130.463C18.051 130.463 18.051 130.462 18.051 130.462C18.051 130.462 18.051 130.462 18.051 130.462C18.051 130.462 18.051 130.462 18.051 130.462C18.051 130.462 18.051 130.462 18.051 130.462C18.051 130.462 18.051 130.462 18.051 130.462C18.051 130.462 18.051 130.462 18.051 130.462C18.051 130.462 18.051 130.462 18.051 130.462C18.051 130.462 18.051 130.462 18.051 130.462C18.051 130.461 18.051 130.461 18.051 130.461C18.051 130.461 18.051 130.461 18.051 130.461C18.051 130.461 18.051 130.461 18.051 130.461C18.051 130.461 18.051 130.461 18.051 130.461C18.051 130.461 18.051 130.461 18.051 130.461C18.051 130.461 18.051 130.461 18.051 130.461C18.051 130.461 18.051 130.461 18.051 130.461C18.051 130.461 18.051 130.461 18.051 130.46C18.051 130.46 18.051 130.46 18.051 130.46C18.051 130.46 18.051 130.46 18.051 130.46C18.051 130.46 18.051 130.46 18.051 130.46C18.051 130.46 18.051 130.46 18.051 130.46C18.051 130.46 18.051 130.46 18.051 130.46C18.051 130.46 18.051 130.46 18.051 130.46C18.051 130.46 18.051 130.46 18.051 130.46C18.051 130.459 18.051 130.459 18.051 130.459C18.051 130.459 18.051 130.459 18.051 130.459C18.051 130.459 18.051 130.459 18.051 130.459C18.051 130.459 18.051 130.459 18.051 130.459C18.051 130.459 18.051 130.459 18.051 130.459C18.051 130.459 18.051 130.459 18.051 130.459C18.051 130.459 18.051 130.459 18.051 130.459C18.051 130.459 18.051 130.459 18.051 130.458C18.051 130.458 18.051 130.458 18.051 130.458C18.051 130.458 18.051 130.458 18.051 130.458C18.051 130.458 18.051 130.458 18.051 130.458C18.051 130.458 18.051 130.458 18.051 130.458C18.051 130.458 18.051 130.458 18.051 130.458C18.051 130.458 18.051 130.458 18.051 130.458C18.051 130.458 18.051 130.458 18.051 130.458C18.051 130.458 18.051 130.457 18.051 130.457C18.051 130.457 18.051 130.457 18.051 130.457C18.051 130.457 18.051 130.457 18.051 130.457C18.051 130.457 18.051 130.457 18.051 130.457C18.051 130.457 18.051 130.457 18.051 130.457C18.051 130.457 18.051 130.457 18.051 130.457C18.051 130.457 18.051 130.457 18.051 130.457C18.051 130.457 18.051 130.457 18.051 130.457C18.051 130.456 18.051 130.456 18.051 130.456C18.051 130.456 18.051 130.456 18.051 130.456C18.051 130.456 18.051 130.456 18.051 130.456C18.051 130.456 18.051 130.456 18.051 130.456C18.051 130.456 18.051 130.456 18.051 130.456C18.051 130.456 18.051 130.456 18.051 130.456C18.051 130.456 18.051 130.456 18.051 130.456C18.051 130.456 18.051 130.456 18.051 130.455C18.051 130.455 18.051 130.455 18.051 130.455C18.051 130.455 18.051 130.455 18.051 130.455C18.051 130.455 18.051 130.455 18.051 130.455C18.051 130.455 18.051 130.455 18.051 130.455C18.051 130.455 18.051 130.455 18.051 130.455C18.051 130.455 18.051 130.455 18.051 130.455C18.051 130.455 18.051 130.455 18.051 130.455C18.051 130.455 18.051 130.454 18.051 130.454C18.051 130.454 18.051 130.454 18.051 130.454C18.051 130.454 18.051 130.454 18.051 130.454C18.051 130.454 18.051 130.454 18.051 130.454C18.051 130.454 18.051 130.454 18.051 130.454C18.051 130.454 18.051 130.454 18.051 130.454C18.051 130.454 18.051 130.454 18.051 130.454C18.051 130.454 18.051 130.454 18.051 130.454C18.051 130.453 18.051 130.453 18.051 130.453C18.051 130.453 18.051 130.453 18.051 130.453C18.051 130.453 18.051 130.453 18.051 130.453C18.051 130.453 18.051 130.453 18.051 130.453C18.051 130.453 18.051 130.453 18.051 130.453C18.051 130.453 18.051 130.453 18.051 130.453C18.051 130.453 18.051 130.453 18.051 130.453C18.051 130.453 18.051 130.453 18.051 130.452C18.051 130.452 18.051 130.452 18.051 130.452C18.051 130.452 18.051 130.452 18.051 130.452C18.051 130.452 18.051 130.452 18.051 130.452C18.051 130.452 18.051 130.452 18.051 130.452C18.051 130.452 18.051 130.452 18.051 130.452C18.051 130.452 18.051 130.452 18.051 130.452C18.051 130.452 18.051 130.452 18.051 130.452C18.051 130.452 18.051 130.451 18.051 130.451C18.051 130.451 18.051 130.451 18.051 130.451C18.051 130.451 18.051 130.451 18.051 130.451C18.051 130.451 18.051 130.451 18.051 130.451C18.051 130.451 18.051 130.451 18.051 130.451C18.051 130.451 18.051 130.451 18.051 130.451C18.051 130.451 18.051 130.451 18.051 130.451C18.051 130.451 18.051 130.451 18.051 130.451C18.051 130.45 18.051 130.45 18.051 130.45C18.051 130.45 18.051 130.45 18.051 130.45C18.051 130.45 18.051 130.45 18.051 130.45C18.051 130.45 18.051 130.45 18.051 130.45C18.051 130.45 18.051 130.45 18.051 130.45C18.051 130.45 18.051 130.45 18.051 130.45C18.051 130.45 18.051 130.45 18.051 130.45C18.051 130.45 18.051 130.45 18.051 130.45C18.051 130.449 18.051 130.449 18.051 130.449C18.051 130.449 18.051 130.449 18.051 130.449C18.051 130.449 18.051 130.449 18.051 130.449C18.051 130.449 18.051 130.449 18.051 130.449C18.051 130.449 18.051 130.449 18.051 130.449C18.051 130.449 18.051 130.449 18.051 130.449C18.051 130.449 18.051 130.449 18.051 130.449C18.051 130.449 18.051 130.449 18.051 130.448C18.051 130.448 18.051 130.448 18.051 130.448C18.051 130.448 18.051 130.448 18.051 130.448C18.051 130.448 18.051 130.448 18.051 130.448C18.051 130.448 18.051 130.448 18.051 130.448C18.051 130.448 18.051 130.448 18.051 130.448C18.051 130.448 18.051 130.448 18.051 130.448C18.051 130.448 18.051 130.448 18.051 130.448C18.051 130.448 18.051 130.447 18.051 130.447C18.051 130.447 18.051 130.447 18.051 130.447C18.051 130.447 18.051 130.447 18.051 130.447C18.051 130.447 18.051 130.447 18.051 130.447C18.051 130.447 18.051 130.447 18.051 130.447C18.051 130.447 18.051 130.447 18.051 130.447C18.051 130.447 18.051 130.447 18.051 130.447C18.051 130.447 18.051 130.447 18.051 130.447C18.051 130.447 18.051 130.446 18.051 130.446C18.051 130.446 18.051 130.446 18.051 130.446C18.051 130.446 18.051 130.446 18.051 130.446C18.051 130.446 18.051 130.446 18.051 130.446C18.051 130.446 18.051 130.446 18.051 130.446C18.051 130.446 18.051 130.446 18.051 130.446H14.051ZM14.051 130.513C14.051 134.079 16.5985 137.042 19.964 137.713L20.7469 133.791C19.2049 133.483 18.051 132.124 18.051 130.513H14.051ZM19.8327 133.822C19.5511 133.898 19.2527 133.939 18.9418 133.939V137.939C19.6097 137.939 20.2596 137.85 20.8782 137.683L19.8327 133.822ZM18.9418 133.939C18.7317 133.939 18.5181 133.918 18.2979 133.877L17.5667 137.81C18.002 137.891 18.4614 137.939 18.9418 137.939V133.939ZM16.0285 136.456C16.9689 139.377 19.6862 141.494 22.9077 141.554L22.9818 137.555C21.5055 137.527 20.2636 136.558 19.8361 135.231L16.0285 136.456ZM21.7141 137.978C20.2164 139.147 18.3349 139.842 16.2804 139.842V143.842C19.2559 143.842 21.9978 142.831 24.1753 141.131L21.7141 137.978ZM16.2804 139.842C15.9212 139.842 15.5723 139.822 15.237 139.782L14.763 143.754C15.2668 143.814 15.7744 143.842 16.2804 143.842V139.842ZM13.9245 143.454C16.6082 145.166 19.7979 146.169 23.2244 146.169V142.169C20.5897 142.169 18.142 141.4 16.0755 140.082L13.9245 143.454Z" fill="#5533E5" mask="url(#path-17-inside-1_1738_439)"></path><path d="M25.3613 134.789L20.8613 133.789H20.3613V136.789L25.3613 134.789Z" fill="#5533E5"></path><path d="M85.5377 239.806C85.5384 239.806 85.539 239.805 85.5397 239.804C85.539 239.805 85.5384 239.806 85.5377 239.806ZM85.5377 239.806C85.5377 239.806 85.5376 239.806 85.5376 239.806L85.8316 240.128L85.5377 239.806ZM84.9961 224.421L85.8795 226.077L86.7612 224.42C87.4089 223.203 88.809 222.312 90.4909 222.312H90.4931C92.118 222.312 93.2902 223.087 94.0232 224.246C94.7753 225.436 95.067 227.048 94.7895 228.619C94.4962 230.279 93.5957 231.844 92.4494 233.241C90.2911 235.869 88.2853 237.516 86.8228 238.717C86.4568 239.018 86.1249 239.291 85.833 239.544C85.5484 239.297 85.2239 239.027 84.8645 238.728C83.4035 237.514 81.364 235.82 79.0688 233.212L79.0686 233.212C77.4216 231.343 76.3223 228.41 76.8443 226.094L76.8445 226.094C77.3058 224.042 79.2527 222.312 81.2658 222.312C82.945 222.312 84.346 223.202 84.9961 224.421Z" stroke="#EE2E20" stroke-width="2"></path><path d="M126.485 237.369V236.369H125.485H125.291C123.788 236.369 122.576 235.156 122.576 233.669V224.802C122.576 223.314 123.788 222.102 125.291 222.102H136.513H136.515C138.018 222.102 139.23 223.314 139.23 224.802V233.669C139.23 235.156 138.018 236.369 136.515 236.369H132.759H132.505L132.281 236.49L126.485 239.645V237.369Z" stroke="#EE2E20" stroke-width="2"></path><path d="M43.1201 226.801L43.4865 225.525C43.9534 223.898 44.0005 222.766 43.8494 221.92C43.7009 221.089 43.3462 220.452 42.8574 219.831L42.8569 219.83C42.5573 219.448 42.1874 219.358 41.8128 219.372C41.7874 219.373 41.7623 219.375 41.7375 219.377V221.409C41.7375 222.17 41.5588 222.925 41.2073 223.609L41.2072 223.609C39.5829 226.767 37.8167 228.418 36.9819 229.077L37.0643 237.058L38.4693 237.977H48.621C48.7682 237.977 48.9324 237.896 49.1203 237.642C49.2073 237.525 49.2744 237.402 49.32 237.305C49.3231 237.298 49.3261 237.292 49.3289 237.286L49.3697 236.297C49.3698 236.297 49.3698 236.296 49.3698 236.295C49.3861 235.877 49.5613 235.434 49.9337 235.118L49.9366 235.115C50.0621 235.01 50.2084 234.793 50.3371 234.522C50.3898 234.411 50.4311 234.309 50.4603 234.232L50.4421 233.34C50.4421 233.339 50.4421 233.339 50.4421 233.338L50.4421 233.337L51.4419 233.316C51.4375 233.131 51.5402 232.97 51.6866 232.855C51.9116 232.676 52.0515 232.295 52.0515 232.295L43.1201 226.801ZM43.1201 226.801H44.4476H49.7095C49.7159 226.802 49.7227 226.804 49.7297 226.806C49.8081 226.827 49.9231 226.86 50.0586 226.908C50.3376 227.008 50.6644 227.156 50.9371 227.359C51.2087 227.562 51.3723 227.776 51.4388 228.001C51.5002 228.208 51.5213 228.564 51.2358 229.149L52.1345 229.588M43.1201 226.801L51.0456 232.081M51.0456 232.081C51.0419 232.087 51.0389 232.091 51.0368 232.094L51.0456 232.081ZM51.0456 232.081L50.9972 230.201L50.9971 230.197C50.9888 229.807 51.089 229.449 51.2365 229.148L52.1345 229.588M52.1345 229.588C53.6138 226.556 49.825 225.801 49.825 225.801L51.9969 230.176C51.9925 229.971 52.0449 229.771 52.1345 229.588ZM51.1154 231.944C51.1158 231.943 51.1157 231.943 51.1153 231.944L51.1154 231.944ZM41.1367 219.513C41.1367 219.513 41.1373 219.513 41.1386 219.513L41.1373 219.513C41.1369 219.513 41.1367 219.513 41.1367 219.513Z" stroke="#EE2E20" stroke-width="2"></path><path d="M29.9316 237.979V227.91H33.805V237.979H29.9316Z" stroke="#EE2E20" stroke-width="2"></path><path d="M167.288 238.008C167.45 232.684 169.327 229.905 171.14 228.429C172.232 227.541 173.358 227.075 174.212 226.833C174.639 226.712 174.993 226.647 175.235 226.614C175.356 226.597 175.448 226.587 175.506 226.583C175.535 226.58 175.556 226.579 175.567 226.578L175.577 226.578L175.577 226.578L175.577 226.578L176.539 226.545V225.578V222.783L187.144 229.986L176.539 237.189V234.354V233.354H175.539C172.33 233.354 169.791 235.284 168.13 237.047C167.824 237.371 167.543 237.695 167.288 238.008Z" stroke="#EE2E20" stroke-width="2"></path><path d="M24.7969 250.548V247.832H29.2412V257.378H26.1865V250.548H24.7969Z" fill="#EE2E20"></path><path d="M31.28 248.918C31.9224 248.056 32.9122 247.625 34.2494 247.625C35.5867 247.625 36.5655 248.058 37.2123 248.924C37.8591 249.791 38.1825 250.972 38.1825 252.47C38.1825 253.967 37.8591 255.162 37.2123 256.028C36.5655 256.895 35.5779 257.328 34.2494 257.328C32.9209 257.328 31.9224 256.895 31.28 256.028C30.6376 255.162 30.3164 253.976 30.3164 252.47C30.3164 250.964 30.6376 249.78 31.28 248.918ZM35.1016 250.896C34.9617 250.544 34.6777 250.367 34.2494 250.367C33.8212 250.367 33.524 250.544 33.3842 250.896C33.2443 251.249 33.1744 251.773 33.1744 252.47C33.1744 253.166 33.2443 253.704 33.3842 254.057C33.524 254.409 33.8124 254.585 34.2494 254.585C34.6864 254.585 34.9617 254.409 35.1016 254.057C35.2414 253.704 35.3113 253.175 35.3113 252.47C35.3113 251.765 35.2414 251.249 35.1016 250.896Z" fill="#EE2E20"></path><path d="M40.0766 248.448C40.6578 247.899 41.4815 247.625 42.5478 247.625C43.2383 247.625 43.8282 247.743 44.3177 247.978C44.8071 248.213 45.1764 248.53 45.4255 248.931C45.6746 249.331 45.7991 249.784 45.7991 250.289C45.7991 250.898 45.6549 251.375 45.3665 251.719C45.0781 252.063 44.7547 252.296 44.3964 252.418V252.47C45.4452 252.862 45.9696 253.589 45.9696 254.651C45.9696 255.208 45.8385 255.7 45.5763 256.126C45.3141 256.553 44.9404 256.884 44.4553 257.119C43.9703 257.354 43.3956 257.471 42.7314 257.471C41.5952 257.471 40.7037 257.202 40.0569 256.662C39.4101 256.122 39.078 255.278 39.0605 254.128H41.8923C41.8748 254.442 41.9207 254.679 42.03 254.84C42.1392 255.001 42.3293 255.082 42.6003 255.082C42.7576 255.082 42.8887 255.023 42.9936 254.905C43.0985 254.788 43.1509 254.633 43.1509 254.442C43.1509 254.198 43.07 254.013 42.9084 253.887C42.7467 253.761 42.4735 253.697 42.089 253.697H41.6039V251.36H42.0759C42.6702 251.395 42.9674 251.16 42.9674 250.655C42.9674 250.437 42.9215 250.276 42.8297 250.172C42.7379 250.067 42.6221 250.015 42.4823 250.015C42.1589 250.015 41.9972 250.285 41.9972 250.824H39.1654C39.1916 249.788 39.4954 248.996 40.0766 248.448Z" fill="#EE2E20"></path><path d="M47.3203 255.943V253.527L51.2271 247.977H54.3604V253.435H55.3044V255.943H54.3604V257.379H51.4238V255.943H47.3203ZM51.6598 251.28L50.2439 253.435H51.6598V251.28Z" fill="#EE2E20"></path><path d="M75.8852 248.448C76.4664 247.899 77.2901 247.625 78.3564 247.625C79.0469 247.625 79.6368 247.743 80.1263 247.978C80.6157 248.213 80.985 248.53 81.2341 248.931C81.4832 249.331 81.6077 249.784 81.6077 250.289C81.6077 250.898 81.4635 251.375 81.1751 251.719C80.8867 252.063 80.5633 252.296 80.2049 252.418V252.47C81.2538 252.862 81.7782 253.589 81.7782 254.651C81.7782 255.208 81.6471 255.7 81.3849 256.126C81.1227 256.553 80.749 256.884 80.2639 257.119C79.7789 257.354 79.2042 257.471 78.54 257.471C77.4038 257.471 76.5123 257.202 75.8655 256.662C75.2187 256.122 74.8866 255.278 74.8691 254.128H77.7009C77.6834 254.442 77.7293 254.679 77.8386 254.84C77.9478 255.001 78.1379 255.082 78.4089 255.082C78.5662 255.082 78.6973 255.023 78.8022 254.905C78.907 254.788 78.9595 254.633 78.9595 254.442C78.9595 254.198 78.8786 254.013 78.717 253.887C78.5553 253.761 78.2821 253.697 77.8976 253.697H77.4125V251.36H77.8845C78.4788 251.395 78.7759 251.16 78.7759 250.655C78.7759 250.437 78.7301 250.276 78.6383 250.172C78.5465 250.067 78.4307 250.015 78.2909 250.015C77.9675 250.015 77.8058 250.285 77.8058 250.824H74.974C75.0002 249.788 75.304 248.996 75.8852 248.448Z" fill="#EE2E20"></path><path d="M82.5781 250.548V247.832H87.0224V257.378H83.9678V250.548H82.5781Z" fill="#EE2E20"></path><path d="M90.8245 252.698C91.5063 251.989 91.8471 251.325 91.8471 250.707C91.8471 250.498 91.8012 250.337 91.7095 250.224C91.6177 250.111 91.4975 250.054 91.3489 250.054C91.1741 250.054 91.0365 250.143 90.936 250.322C90.8355 250.5 90.7983 250.772 90.8245 251.138H88.0059C88.0321 250.328 88.2091 249.662 88.5368 249.14C88.8646 248.617 89.2906 248.234 89.8151 247.991C90.3395 247.747 90.9163 247.625 91.5456 247.625C92.6643 247.625 93.4837 247.893 94.0037 248.428C94.5238 248.964 94.7838 249.649 94.7838 250.485C94.7838 251.364 94.5019 252.189 93.9382 252.96C93.3744 253.73 92.6687 254.381 91.8209 254.912H94.8231V257.249H88.0452V255.069C89.2164 254.198 90.1428 253.408 90.8245 252.698Z" fill="#EE2E20"></path><path d="M120.855 255.943V253.527L124.762 247.977H127.896V253.435H128.84V255.943H127.896V257.379H124.959V255.943H120.855ZM125.195 251.28L123.779 253.435H125.195V251.28Z" fill="#EE2E20"></path><path d="M137.06 250.379H133.258V251.475C133.424 251.327 133.64 251.21 133.907 251.123C134.173 251.036 134.473 250.992 134.805 250.992C135.399 250.992 135.902 251.132 136.312 251.41C136.723 251.689 137.029 252.061 137.23 252.527C137.431 252.992 137.532 253.508 137.532 254.074C137.532 255.119 137.237 255.931 136.647 256.51C136.057 257.089 135.246 257.378 134.215 257.378C133.463 257.378 132.814 257.248 132.268 256.986C131.722 256.725 131.307 256.364 131.022 255.902C130.738 255.441 130.605 254.914 130.623 254.322H133.454C133.454 254.462 133.502 254.592 133.599 254.714C133.695 254.836 133.852 254.897 134.071 254.897C134.289 254.897 134.451 254.819 134.556 254.662C134.661 254.505 134.713 254.292 134.713 254.022C134.713 253.769 134.654 253.578 134.536 253.447C134.418 253.317 134.25 253.251 134.031 253.251C133.848 253.251 133.708 253.295 133.612 253.382C133.516 253.469 133.468 253.569 133.468 253.682H130.636V247.832H137.06V250.379Z" fill="#EE2E20"></path><path d="M170.512 250.548V247.832H174.956V257.378H171.901V250.548H170.512Z" fill="#EE2E20"></path><path d="M183.269 250.379H179.467V251.475C179.633 251.327 179.849 251.21 180.116 251.123C180.382 251.036 180.682 250.992 181.014 250.992C181.608 250.992 182.111 251.132 182.521 251.41C182.932 251.689 183.238 252.061 183.439 252.527C183.64 252.992 183.741 253.508 183.741 254.074C183.741 255.119 183.446 255.931 182.856 256.51C182.266 257.089 181.455 257.378 180.424 257.378C179.672 257.378 179.023 257.248 178.477 256.986C177.931 256.725 177.516 256.364 177.231 255.902C176.947 255.441 176.814 254.914 176.832 254.322H179.663C179.663 254.462 179.711 254.592 179.808 254.714C179.904 254.836 180.061 254.897 180.28 254.897C180.498 254.897 180.66 254.819 180.765 254.662C180.87 254.505 180.922 254.292 180.922 254.022C180.922 253.769 180.863 253.578 180.745 253.447C180.627 253.317 180.459 253.251 180.24 253.251C180.057 253.251 179.917 253.295 179.821 253.382C179.725 253.469 179.676 253.569 179.676 253.682H176.845V247.832H183.269V250.379Z" fill="#EE2E20"></path><path d="M78 9H11C9.89543 9 9 9.89543 9 11V20C9 21.1046 9.89543 22 11 22H78C79.1046 22 80 21.1046 80 20V11C80 9.89543 79.1046 9 78 9Z" stroke="#F2CFCE" stroke-width="2" stroke-miterlimit="10"></path><mask id="mask1_1738_439" style="mask-type:alpha" maskUnits="userSpaceOnUse" x="69" y="11" width="9" height="9"><rect x="69" y="11" width="9" height="9" fill="#D9D9D9"></rect></mask><g mask="url(#mask1_1738_439)"><path d="M76.35 18.875L73.9875 16.5125C73.8 16.6625 73.5844 16.7812 73.3406 16.8688C73.0969 16.9563 72.8375 17 72.5625 17C71.8813 17 71.3047 16.7641 70.8328 16.2922C70.3609 15.8203 70.125 15.2438 70.125 14.5625C70.125 13.8813 70.3609 13.3047 70.8328 12.8328C71.3047 12.3609 71.8813 12.125 72.5625 12.125C73.2438 12.125 73.8203 12.3609 74.2922 12.8328C74.7641 13.3047 75 13.8813 75 14.5625C75 14.8375 74.9563 15.0969 74.8688 15.3406C74.7812 15.5844 74.6625 15.8 74.5125 15.9875L76.875 18.35L76.35 18.875ZM72.5625 16.25C73.0312 16.25 73.4297 16.0859 73.7578 15.7578C74.0859 15.4297 74.25 15.0312 74.25 14.5625C74.25 14.0938 74.0859 13.6953 73.7578 13.3672C73.4297 13.0391 73.0312 12.875 72.5625 12.875C72.0938 12.875 71.6953 13.0391 71.3672 13.3672C71.0391 13.6953 70.875 14.0938 70.875 14.5625C70.875 15.0312 71.0391 15.4297 71.3672 15.7578C71.6953 16.0859 72.0938 16.25 72.5625 16.25Z" fill="#F2CFCE"></path></g><path d="M81 32H8" stroke="#BAB7EA" stroke-width="2" stroke-miterlimit="10"></path><path d="M81 40H8" stroke="#BAB7EA" stroke-width="2" stroke-miterlimit="10"></path><path d="M81 48H8" stroke="#BAB7EA" stroke-width="2" stroke-miterlimit="10"></path><path d="M81 56H8" stroke="#BAB7EA" stroke-width="2" stroke-miterlimit="10"></path><path d="M81 64H8" stroke="#BAB7EA" stroke-width="2" stroke-miterlimit="10"></path><path d="M214 35H105" stroke="#BAB7EA" stroke-width="2" stroke-miterlimit="10"></path><path d="M214 43H105" stroke="#BAB7EA" stroke-width="2" stroke-miterlimit="10"></path><path d="M214 35H105" stroke="#BAB7EA" stroke-width="2" stroke-miterlimit="10"></path><path d="M214 43H105" stroke="#BAB7EA" stroke-width="2" stroke-miterlimit="10"></path><path d="M214 51H105" stroke="#BAB7EA" stroke-width="2" stroke-miterlimit="10"></path><path d="M214 59H105" stroke="#BAB7EA" stroke-width="2" stroke-miterlimit="10"></path><path d="M27.1602 112.2V95.5039" stroke="#BAB7EA" stroke-width="2" stroke-miterlimit="10"></path><path d="M112.352 111.605V95.2969" stroke="#BAB7EA" stroke-width="2" stroke-miterlimit="10"></path><path d="M198.352 112.086V95.2422" stroke="#BAB7EA" stroke-width="2" stroke-miterlimit="10"></path><path d="M86.0234 29.1484H97.4074" stroke="#BAB7EA" stroke-width="2" stroke-miterlimit="10"></path><path d="M86.0234 48.4258H97.4074" stroke="#BAB7EA" stroke-width="2" stroke-miterlimit="10"></path><path d="M209.155 70.9219H154.42C152.59 70.9219 151.107 72.3991 151.107 74.2214V83.4606C151.107 85.2829 152.59 86.7602 154.42 86.7602H209.155C210.984 86.7602 212.467 85.2829 212.467 83.4606V74.2214C212.467 72.3991 210.984 70.9219 209.155 70.9219Z" stroke="#EE2E20" stroke-width="2" stroke-miterlimit="10"></path><path d="M76.4376 75.3633H12.8405C11.1294 75.3633 9.74219 76.745 9.74219 78.4495V84.4567C9.74219 86.1612 11.1294 87.5429 12.8405 87.5429H76.4376C78.1487 87.5429 79.5359 86.1612 79.5359 84.4567V78.4495C79.5359 76.745 78.1487 75.3633 76.4376 75.3633Z" stroke="#5533E5" stroke-width="2" stroke-miterlimit="10"></path><path d="M44 178C46.2091 178 48 176.209 48 174C48 171.791 46.2091 170 44 170C41.7909 170 40 171.791 40 174C40 176.209 41.7909 178 44 178Z" fill="#EE2E20" stroke="#EE2E20" stroke-width="2.66665" stroke-miterlimit="10"></path><path d="M112 192C114.209 192 116 190.209 116 188C116 185.791 114.209 184 112 184C109.791 184 108 185.791 108 188C108 190.209 109.791 192 112 192Z" fill="#5533E5" stroke="#5533E5" stroke-width="2.66665" stroke-miterlimit="10"></path><path d="M196 170C198.209 170 200 168.209 200 166C200 163.791 198.209 162 196 162C193.791 162 192 163.791 192 166C192 168.209 193.791 170 196 170Z" fill="#EE2E20" stroke="#EE2E20" stroke-width="2.66665" stroke-miterlimit="10"></path></svg>