<svg xmlns="http://www.w3.org/2000/svg" width="35" height="35" viewBox="0 0 35 35" fill="none"><mask id="mask0_1605_1985" style="mask-type:alpha" maskUnits="userSpaceOnUse" x="0" y="0" width="35" height="35"><rect x="0.712891" y="0.0898438" width="34" height="34" fill="#D9D9D9"></rect></mask><g mask="url(#mask0_1605_1985)"><path d="M29.9674 13.3723L27.9841 11.3889L29.0466 10.291L24.5133 5.75767L23.4154 6.82017L21.3966 4.80142L22.4591 3.7035C23.0022 3.16045 23.6751 2.89482 24.4779 2.90663C25.2806 2.91843 25.9536 3.19586 26.4966 3.73892L31.0654 8.30767C31.6084 8.85072 31.8799 9.51774 31.8799 10.3087C31.8799 11.0997 31.6084 11.7667 31.0654 12.3098L29.9674 13.3723ZM12.9674 30.4077C12.4244 30.9507 11.7574 31.2223 10.9664 31.2223C10.1754 31.2223 9.50842 30.9507 8.96536 30.4077L4.39661 25.8389C3.85356 25.2959 3.58203 24.6288 3.58203 23.8379C3.58203 23.0469 3.85356 22.3799 4.39661 21.8368L5.45911 20.7743L7.47786 22.7931L6.37995 23.8556L10.9487 28.4243L12.0112 27.3264L14.0299 29.3452L12.9674 30.4077ZM27.0279 18.5077L29.0466 16.4889L18.3154 5.75767L16.2966 7.77642L27.0279 18.5077ZM17.1112 28.4243L19.1299 26.3702L8.43411 15.6743L6.37995 17.6931L17.1112 28.4243ZM16.8987 20.1368L20.7945 16.2764L18.5279 14.0098L14.6674 17.9056L16.8987 20.1368ZM19.1299 30.4077C18.5869 30.9507 17.914 31.2223 17.1112 31.2223C16.3084 31.2223 15.6355 30.9507 15.0924 30.4077L4.39661 19.7118C3.85356 19.1688 3.58203 18.4959 3.58203 17.6931C3.58203 16.8903 3.85356 16.2174 4.39661 15.6743L6.41536 13.6556C6.95842 13.1125 7.62543 12.841 8.41641 12.841C9.20738 12.841 9.87439 13.1125 10.4174 13.6556L12.6487 15.8868L16.5445 11.991L14.3133 9.79517C13.7702 9.25211 13.4987 8.5792 13.4987 7.77642C13.4987 6.97364 13.7702 6.30072 14.3133 5.75767L16.332 3.73892C16.8751 3.19586 17.5421 2.92434 18.3331 2.92434C19.124 2.92434 19.7911 3.19586 20.3341 3.73892L31.0654 14.4702C31.6084 15.0132 31.8799 15.6802 31.8799 16.4712C31.8799 17.2622 31.6084 17.9292 31.0654 18.4723L29.0466 20.491C28.5036 21.0341 27.8306 21.3056 27.0279 21.3056C26.2251 21.3056 25.5522 21.0341 25.0091 20.491L22.8133 18.2598L18.9174 22.1556L21.1487 24.3868C21.6918 24.9299 21.9633 25.5969 21.9633 26.3879C21.9633 27.1788 21.6918 27.8459 21.1487 28.3889L19.1299 30.4077Z" fill="#5533E5"></path></g></svg>