<svg xmlns="http://www.w3.org/2000/svg" width="1284" height="2885" viewBox="0 0 1284 2885" fill="none"><path d="M25 0V245C25 300.228 69.7715 345 125 345H249" stroke="black" stroke-width="2"></path><path d="M1276 721L1276 476C1276 420.772 1231.23 376 1176 376L1052 376" stroke="black" stroke-width="2"></path><circle cx="38" cy="294" r="8" fill="#1E1413"></circle><circle cx="1271" cy="447" r="8" fill="#EE2E20"></circle><path d="M1276 705L1276 1009C1276 1064.23 1231.23 1109 1176 1109L1052 1109" stroke="black" stroke-width="2"></path><path d="M12 1465L12 1190C12.0001 1134.77 56.7716 1090 112 1090L236 1090" stroke="black" stroke-width="2"></path><circle cx="1276" cy="944" r="8" fill="#EE2E20"></circle><circle cx="12" cy="1215" r="8" fill="#5533E5"></circle><path d="M1266 2209L1266 1918C1266 1862.77 1221.23 1818 1166 1818L1042 1818" stroke="black" stroke-width="2"></path><path d="M12 1442L12 1701C12 1756.23 56.7715 1801 112 1801L236 1801" stroke="black" stroke-width="2"></path><circle cx="12" cy="1644" r="8" fill="#5533E5"></circle><circle cx="1265" cy="1901" r="7" fill="#EE2E20"></circle><path d="M1266 2160L1266 2464C1266 2519.23 1221.23 2564 1166 2564L1042 2564" stroke="black" stroke-width="2"></path><path d="M229.097 2527H105C49.7715 2527 5 2571.77 5 2627L5 2728.73C5 2783.96 49.7715 2828.73 105 2828.73H1104.73C1135.81 2828.73 1161 2853.92 1161 2885V2885" stroke="black" stroke-width="2"></path><circle cx="1266" cy="2386" r="7" fill="#EE2E20"></circle><circle cx="7" cy="2608" r="7" fill="#5533E5"></circle><circle cx="452" cy="2829" r="7" fill="#5533E5"></circle></svg>