<svg xmlns="http://www.w3.org/2000/svg" width="245" height="522" viewBox="0 0 245 522" fill="none"><path d="M128 60.418H231.212C237.17 60.418 242 55.588 242 49.6298V49.6298C242 43.6717 237.17 38.8417 231.212 38.8417H164.396C144.332 38.8417 129.103 20.7738 132.5 1V1" stroke="white" stroke-width="2" stroke-linecap="round"></path><path d="M105 391.418L105 212.493V212.493C105 200.577 114.66 190.917 126.576 190.917L219 190.917" stroke="white" stroke-width="2" stroke-linecap="round"></path><path d="M128 82.418H14C7.92487 82.418 3 77.4931 3 71.418V71.418C3 65.3428 7.92486 60.418 14 60.418H125.012H128" stroke="white" stroke-width="2" stroke-linecap="round"></path><path d="M128 125.418H14C7.92487 125.418 3 120.493 3 114.418V114.418C3 108.343 7.92486 103.418 14 103.418H125.012H128" stroke="white" stroke-width="2" stroke-linecap="round"></path><path d="M128 168.918H14C7.92487 168.918 3 163.993 3 157.918V157.918C3 151.843 7.92486 146.918 14 146.918H125.012H128" stroke="white" stroke-width="2" stroke-linecap="round"></path><path d="M116 82.418H230.5C236.299 82.418 241 87.119 241 92.918V92.918C241 98.717 236.299 103.418 230.5 103.418H118.988H116" stroke="white" stroke-width="2" stroke-linecap="round"></path><path d="M116 125.418L229.978 124.962C236.058 124.938 241 129.86 241 135.94V135.94C241 142.003 236.085 146.918 230.022 146.918H118.988H116" stroke="white" stroke-width="2" stroke-linecap="round"></path><path d="M147.5 190.918H230C236.075 190.918 241 185.993 241 179.918V179.918C241 173.843 236.075 168.918 230 168.918H116" stroke="white" stroke-width="2" stroke-linecap="round"></path><circle cx="3.5" cy="156.918" r="3.5" fill="white"></circle><circle cx="145.5" cy="125.418" r="3.5" fill="white"></circle><circle cx="73.5" cy="82.418" r="3.5" fill="white"></circle><circle cx="241.5" cy="50.418" r="3.5" fill="white"></circle><circle cx="105" cy="234.918" r="8" fill="white"></circle><circle cx="105" cy="319.918" r="18" fill="white"></circle><path d="M104.539 521.695C104.377 521.695 104.217 521.695 104.054 521.695C85.7517 521.57 68.5911 514.339 55.7397 501.333C42.8857 488.327 35.8785 471.104 36.0016 452.838C36.13 434.57 43.3756 417.446 56.4051 404.618C69.4373 391.792 86.6842 384.797 104.997 384.92C123.3 385.045 140.461 392.276 153.312 405.282C166.163 418.288 173.176 435.508 173.05 453.777L165.192 453.722L173.05 453.777C172.924 472.042 165.679 489.168 152.647 501.994C139.73 514.707 122.661 521.692 104.539 521.692V521.695ZM104.515 400.605C90.548 400.605 77.3954 405.988 67.4412 415.786C57.3979 425.671 51.8157 438.867 51.7188 452.945C51.6218 467.023 57.0233 480.293 66.9277 490.316C76.8322 500.339 90.0556 505.91 104.162 506.007C104.285 506.007 104.411 506.007 104.534 506.007C118.501 506.007 131.654 500.624 141.608 490.826C151.651 480.941 157.233 467.745 157.33 453.667C157.529 424.607 134.003 400.804 104.887 400.605C104.764 400.605 104.638 400.605 104.515 400.605Z" fill="#EE2E20"></path><path fill-rule="evenodd" clip-rule="evenodd" d="M57.3828 453.305L104.525 406.258L151.667 453.305L104.525 500.353L57.3828 453.305ZM104.525 475.659L126.924 453.305L104.525 430.951L82.1258 453.305L104.525 475.659Z" fill="#5533E5"></path></svg>