<svg xmlns="http://www.w3.org/2000/svg" width="39" height="39" viewBox="0 0 39 39" fill="none"><mask id="mask0_1605_2013" style="mask-type:alpha" maskUnits="userSpaceOnUse" x="0" y="0" width="39" height="39"><rect x="0.623047" y="0.191406" width="38.2588" height="38.2588" fill="#D9D9D9"></rect></mask><g mask="url(#mask0_1605_2013)"><path d="M0.623047 28.8872V26.3765C0.623047 25.234 1.20756 24.3041 2.37657 23.5868C3.54559 22.8694 5.08657 22.5107 6.99951 22.5107C7.3449 22.5107 7.67701 22.5174 7.99583 22.5307C8.31466 22.544 8.6202 22.5772 8.91245 22.6303C8.54049 23.1882 8.26152 23.7728 8.07554 24.3838C7.88956 24.9949 7.79657 25.6326 7.79657 26.2968V28.8872H0.623047ZM10.1877 28.8872V26.2968C10.1877 25.4466 10.4202 24.6694 10.8852 23.9654C11.3501 23.2613 12.0077 22.6436 12.8579 22.1122C13.7081 21.5808 14.7243 21.1823 15.9066 20.9166C17.0889 20.6509 18.3709 20.5181 19.7524 20.5181C21.1606 20.5181 22.4558 20.6509 23.6381 20.9166C24.8204 21.1823 25.8367 21.5808 26.6868 22.1122C27.537 22.6436 28.188 23.2613 28.6396 23.9654C29.0913 24.6694 29.3171 25.4466 29.3171 26.2968V28.8872H10.1877ZM31.7083 28.8872V26.2968C31.7083 25.606 31.622 24.9551 31.4493 24.344C31.2766 23.7329 31.0175 23.1617 30.6721 22.6303C30.9644 22.5772 31.2633 22.544 31.5688 22.5307C31.8744 22.5174 32.1865 22.5107 32.5054 22.5107C34.4183 22.5107 35.9593 22.8628 37.1283 23.5668C38.2973 24.2709 38.8818 25.2075 38.8818 26.3765V28.8872H31.7083ZM13.5752 25.699H25.9695C25.7038 25.1676 24.9665 24.7027 23.7577 24.3041C22.5488 23.9056 21.2137 23.7063 19.7524 23.7063C18.2912 23.7063 16.9561 23.9056 15.7472 24.3041C14.5384 24.7027 13.8144 25.1676 13.5752 25.699ZM6.99951 20.9166C6.12275 20.9166 5.37218 20.6044 4.74782 19.9801C4.12346 19.3557 3.81128 18.6052 3.81128 17.7284C3.81128 16.8251 4.12346 16.0679 4.74782 15.4568C5.37218 14.8457 6.12275 14.5402 6.99951 14.5402C7.90284 14.5402 8.66005 14.8457 9.27113 15.4568C9.88221 16.0679 10.1877 16.8251 10.1877 17.7284C10.1877 18.6052 9.88221 19.3557 9.27113 19.9801C8.66005 20.6044 7.90284 20.9166 6.99951 20.9166ZM32.5054 20.9166C31.6286 20.9166 30.878 20.6044 30.2537 19.9801C29.6293 19.3557 29.3171 18.6052 29.3171 17.7284C29.3171 16.8251 29.6293 16.0679 30.2537 15.4568C30.878 14.8457 31.6286 14.5402 32.5054 14.5402C33.4087 14.5402 34.1659 14.8457 34.777 15.4568C35.3881 16.0679 35.6936 16.8251 35.6936 17.7284C35.6936 18.6052 35.3881 19.3557 34.777 19.9801C34.1659 20.6044 33.4087 20.9166 32.5054 20.9166ZM19.7524 19.3225C18.424 19.3225 17.2948 18.8576 16.3649 17.9277C15.435 16.9978 14.9701 15.8686 14.9701 14.5402C14.9701 13.1852 15.435 12.0494 16.3649 11.1327C17.2948 10.2161 18.424 9.75781 19.7524 9.75781C21.1074 9.75781 22.2432 10.2161 23.1599 11.1327C24.0765 12.0494 24.5348 13.1852 24.5348 14.5402C24.5348 15.8686 24.0765 16.9978 23.1599 17.9277C22.2432 18.8576 21.1074 19.3225 19.7524 19.3225ZM19.7524 16.1343C20.2041 16.1343 20.5827 15.9815 20.8883 15.676C21.1938 15.3704 21.3466 14.9918 21.3466 14.5402C21.3466 14.0885 21.1938 13.7099 20.8883 13.4044C20.5827 13.0988 20.2041 12.946 19.7524 12.946C19.3008 12.946 18.9222 13.0988 18.6166 13.4044C18.3111 13.7099 18.1583 14.0885 18.1583 14.5402C18.1583 14.9918 18.3111 15.3704 18.6166 15.676C18.9222 15.9815 19.3008 16.1343 19.7524 16.1343Z" fill="#5533E5"></path></g></svg>