<svg xmlns="http://www.w3.org/2000/svg" width="32" height="31" viewBox="0 0 32 31" fill="none"><path d="M12.3971 0.859375C15.4509 0.859375 18.3796 2.03335 20.5389 4.12304C22.6983 6.21273 23.9114 9.04696 23.9114 12.0022C23.9114 14.7622 22.8662 17.2994 21.148 19.2537L21.6262 19.7165H23.0257L31.8828 28.2879L29.2257 30.8594L20.3685 22.2879V20.9337L19.8902 20.4708C17.8708 22.1337 15.2491 23.1451 12.3971 23.1451C9.34332 23.1451 6.41462 21.9711 4.25527 19.8814C2.09592 17.7917 0.882813 14.9575 0.882812 12.0022C0.882813 9.04696 2.09592 6.21273 4.25527 4.12304C6.41462 2.03335 9.34332 0.859375 12.3971 0.859375ZM12.3971 4.28795C7.96853 4.28795 4.42567 7.71652 4.42567 12.0022C4.42567 16.2879 7.96853 19.7165 12.3971 19.7165C16.8257 19.7165 20.3685 16.2879 20.3685 12.0022C20.3685 7.71652 16.8257 4.28795 12.3971 4.28795Z" fill="#401DD5"></path><mask id="mask0_1605_1533" style="mask-type:alpha" maskUnits="userSpaceOnUse" x="5" y="5" width="14" height="14"><rect x="5.88281" y="5.85938" width="13" height="13" fill="#D9D9D9"></rect></mask><g mask="url(#mask0_1605_1533)"><path d="M10.8936 17.7747L10.677 16.0414C10.5596 15.9963 10.4491 15.9421 10.3455 15.8789C10.2415 15.8157 10.1398 15.748 10.0405 15.6758L8.42904 16.3529L6.93945 13.7799L8.33424 12.7237C8.32522 12.6605 8.3207 12.5995 8.3207 12.5406V12.175C8.3207 12.1165 8.32522 12.0556 8.33424 11.9924L6.93945 10.9362L8.42904 8.36328L10.0405 9.04036C10.1398 8.96814 10.2436 8.90043 10.352 8.83724C10.4603 8.77404 10.5686 8.71988 10.677 8.67474L10.8936 6.94141H13.8728L14.0895 8.67474C14.2068 8.71988 14.3175 8.77404 14.4215 8.83724C14.5251 8.90043 14.6266 8.96814 14.7259 9.04036L16.3374 8.36328L17.827 10.9362L16.4322 11.9924C16.4412 12.0556 16.4457 12.1165 16.4457 12.175V12.5406C16.4457 12.5995 16.4367 12.6605 16.4186 12.7237L17.8134 13.7799L16.3238 16.3529L14.7259 15.6758C14.6266 15.748 14.5228 15.8157 14.4145 15.8789C14.3061 15.9421 14.1978 15.9963 14.0895 16.0414L13.8728 17.7747H10.8936ZM12.4103 14.2539C12.9339 14.2539 13.3808 14.0688 13.7509 13.6987C14.121 13.3286 14.3061 12.8817 14.3061 12.3581C14.3061 11.8345 14.121 11.3876 13.7509 11.0174C13.3808 10.6473 12.9339 10.4622 12.4103 10.4622C11.8776 10.4622 11.4284 10.6473 11.0626 11.0174C10.6972 11.3876 10.5145 11.8345 10.5145 12.3581C10.5145 12.8817 10.6972 13.3286 11.0626 13.6987C11.4284 14.0688 11.8776 14.2539 12.4103 14.2539ZM12.4103 13.1706C12.1846 13.1706 11.9928 13.0915 11.835 12.9333C11.6769 12.7755 11.5978 12.5838 11.5978 12.3581C11.5978 12.1324 11.6769 11.9406 11.835 11.7828C11.9928 11.6247 12.1846 11.5456 12.4103 11.5456C12.636 11.5456 12.8279 11.6247 12.9861 11.7828C13.1439 11.9406 13.2228 12.1324 13.2228 12.3581C13.2228 12.5838 13.1439 12.7755 12.9861 12.9333C12.8279 13.0915 12.636 13.1706 12.4103 13.1706ZM11.8415 16.6914H12.9113L13.1009 15.256C13.3808 15.1838 13.6404 15.0776 13.8798 14.9375C14.1189 14.7977 14.3377 14.6286 14.5363 14.4299L15.877 14.9852L16.4051 14.0643L15.2405 13.1841C15.2856 13.0577 15.3172 12.9245 15.3353 12.7844C15.3533 12.6446 15.3624 12.5025 15.3624 12.3581C15.3624 12.2136 15.3533 12.0714 15.3353 11.9312C15.3172 11.7915 15.2856 11.6584 15.2405 11.532L16.4051 10.6518L15.877 9.73099L14.5363 10.2997C14.3377 10.0921 14.1189 9.91823 13.8798 9.77811C13.6404 9.63836 13.3808 9.53238 13.1009 9.46016L12.9249 8.02474H11.8551L11.6655 9.46016C11.3856 9.53238 11.1262 9.63836 10.8871 9.77811C10.6477 9.91823 10.4287 10.0876 10.2301 10.2862L8.88945 9.73099L8.36133 10.6518L9.52591 11.5185C9.48077 11.6539 9.44918 11.7893 9.43112 11.9247C9.41306 12.0602 9.40404 12.2046 9.40404 12.3581C9.40404 12.5025 9.41306 12.6424 9.43112 12.7779C9.44918 12.9133 9.48077 13.0487 9.52591 13.1841L8.36133 14.0643L8.88945 14.9852L10.2301 14.4164C10.4287 14.624 10.6477 14.7977 10.8871 14.9375C11.1262 15.0776 11.3856 15.1838 11.6655 15.256L11.8415 16.6914Z" fill="#401DD5"></path></g></svg>