<svg xmlns="http://www.w3.org/2000/svg" width="35" height="35" viewBox="0 0 35 35" fill="none"><mask id="mask0_1605_1969" style="mask-type:alpha" maskUnits="userSpaceOnUse" x="0" y="0" width="35" height="35"><rect x="0.882812" y="0.0898438" width="34" height="34" fill="#D9D9D9"></rect></mask><g mask="url(#mask0_1605_1969)"><path d="M11.6855 9.15521L15.6522 4.01979C15.9355 3.64201 16.272 3.36458 16.6616 3.1875C17.0512 3.01042 17.4585 2.92188 17.8835 2.92188C18.3085 2.92188 18.7158 3.01042 19.1053 3.1875C19.4949 3.36458 19.8314 3.64201 20.1147 4.01979L24.0814 9.15521L30.1022 11.174C30.7161 11.3628 31.2001 11.7111 31.5543 12.2188C31.9085 12.7264 32.0855 13.2872 32.0855 13.901C32.0855 14.1844 32.0442 14.4677 31.9616 14.751C31.8789 15.0344 31.7432 15.3059 31.5543 15.5656L27.6585 21.0906L27.8001 26.899C27.8237 27.7253 27.5522 28.4219 26.9855 28.9885C26.4189 29.5552 25.7578 29.8385 25.0022 29.8385C24.955 29.8385 24.6953 29.8031 24.223 29.7323L17.8835 27.9615L11.5439 29.7323C11.4258 29.7795 11.296 29.809 11.1543 29.8208C11.0126 29.8326 10.8828 29.8385 10.7647 29.8385C10.0092 29.8385 9.34805 29.5552 8.78138 28.9885C8.21471 28.4219 7.94319 27.7253 7.9668 26.899L8.10846 21.0552L4.24805 15.5656C4.05916 15.3059 3.92339 15.0344 3.84076 14.751C3.75812 14.4677 3.7168 14.1844 3.7168 13.901C3.7168 13.3108 3.88798 12.7618 4.23034 12.2542C4.5727 11.7465 5.05082 11.3865 5.66471 11.174L11.6855 9.15521ZM13.421 11.599L6.55013 13.8656L10.9418 20.2052L10.8001 26.9698L17.8835 25.0219L24.9668 27.0052L24.8251 20.2052L29.2168 13.9365L22.346 11.599L17.8835 5.75521L13.421 11.599Z" fill="#EE2E20"></path></g></svg>