<svg xmlns="http://www.w3.org/2000/svg" width="151" height="93" viewBox="0 0 151 93" fill="none"><path d="M6.12236 42.1902C3.54141 41.6401 1.50203 40.8925 0 39.9474L2.54147 27.7925C4.42712 29.0521 6.51727 29.9958 8.8091 30.6249C11.0995 31.254 13.2658 31.5686 15.308 31.5686C16.6168 31.5686 17.5406 31.4205 18.0808 31.1257C18.6195 30.8308 18.8889 30.3682 18.8889 29.7391C18.8889 29.1495 18.542 28.6092 17.8495 28.1169C17.1556 27.626 15.7509 26.8686 13.6325 25.8445C10.8217 24.4283 8.76114 22.9147 7.45233 21.301C6.14211 19.6888 5.48911 17.8 5.48911 15.6362C5.48911 14.89 5.58502 13.9844 5.77824 12.9222C6.31699 10.3663 7.42413 8.1136 9.09963 6.1656C10.7751 4.21902 12.9499 2.70406 15.6268 1.62216C18.3022 0.540249 21.3542 0 24.7828 0C27.4004 0 29.6824 0.217229 31.6273 0.648864C33.5707 1.08191 35.3901 1.75052 37.0854 2.6547L34.6017 14.3963C31.5977 12.43 28.382 11.4454 24.9549 11.4454C22.2583 11.4454 20.7576 12.0561 20.4488 13.2749C20.3331 13.8645 20.5348 14.337 21.0552 14.6911C21.5757 15.0451 22.6052 15.5967 24.1453 16.3429C24.6079 16.5009 25.2807 16.7957 26.1664 17.2287C29.1309 18.6449 31.2211 20.0414 32.434 21.4181C33.6469 22.7948 34.2534 24.5073 34.2534 26.5512C34.2534 27.5738 34.0996 28.8137 33.7908 30.268C32.9431 34.3601 30.9799 37.5057 27.8983 39.709C24.8167 41.9123 20.1766 43.0125 13.9781 43.0125C11.3209 43.0125 8.70191 42.7375 6.12236 42.1859V42.1902Z" fill="white"></path><path d="M42.8016 0.885742H56.492L50.3696 30.3878H65.4464L63.0205 42.1294H34.2549L42.8031 0.885742H42.8016Z" fill="white"></path><path d="M87.4521 0.885742H100.391L108.015 42.1294H94.2669L93.1119 34.9313H81.097L77.0535 42.1294H62.7285L87.4507 0.885742H87.4521ZM92.2459 24.6651L91.2643 15.165L86.2392 24.6651H92.2459Z" fill="white"></path><path d="M22.8702 91.2087C20.2892 90.6586 18.2498 89.911 16.7478 88.9659L19.2893 76.811C21.1749 78.0707 23.2651 79.0143 25.5569 79.6435C27.8473 80.2726 30.0136 80.5871 32.0558 80.5871C33.3646 80.5871 34.2884 80.439 34.8286 80.1442C35.3673 79.8494 35.6367 79.3867 35.6367 78.7576C35.6367 78.168 35.2898 77.6278 34.5973 77.1355C33.9034 76.6446 32.4987 75.8871 30.3803 74.863C27.5695 73.4468 25.5089 71.9333 24.2001 70.3196C22.8899 68.7073 22.2369 66.8185 22.2369 64.6547C22.2369 63.9085 22.3328 63.003 22.526 61.9408C23.0648 59.3848 24.1719 57.1322 25.8474 55.1842C27.5229 53.2376 29.6977 51.7226 32.3746 50.6407C35.05 49.5588 38.102 49.0186 41.5306 49.0186C44.1482 49.0186 46.4302 49.2358 48.3751 49.6674C50.3186 50.1005 52.1379 50.7691 53.8332 51.6733L51.3495 63.4148C48.3455 61.4485 45.1298 60.4639 41.7027 60.4639C39.0061 60.4639 37.5054 61.0747 37.1966 62.2934C37.0809 62.8831 37.2826 63.3556 37.803 63.7096C38.3235 64.0637 39.353 64.6152 40.8931 65.3614C41.3557 65.5194 42.0285 65.8142 42.9142 66.2473C45.8787 67.6635 47.9689 69.0599 49.1818 70.4367C50.3947 71.8134 51.0012 73.5258 51.0012 75.5697C51.0012 76.5924 50.8474 77.8323 50.5386 79.2866C49.6909 83.3787 47.7277 86.5242 44.6461 88.7275C41.5645 90.9309 36.9244 92.0311 30.7259 92.0311C28.0687 92.0311 25.4497 91.756 22.8702 91.2045V91.2087Z" fill="white"></path><path d="M59.5493 49.9062H73.2397L70.3513 63.7129H81.4423L84.3307 49.9062H98.0211L89.4715 91.1499H75.7812L78.7852 76.6944H67.6942L64.6901 91.1499H50.9998L59.5479 49.9062H59.5493Z" fill="white"></path><path d="M102.062 49.9062H121.47C125.667 49.9062 128.978 50.9289 131.404 52.9742C133.83 55.0196 135.043 57.8125 135.043 61.353C135.043 62.5732 134.908 63.7524 134.638 64.8936C133.982 67.9616 132.837 70.5683 131.201 72.7109C129.564 74.855 127.533 76.5364 125.107 77.7551L128.688 91.1499H114.883L111.879 79.8795H109.28L106.97 91.1499H93.5107L102.059 49.9062H102.062ZM114.539 69.437C118.043 69.437 120.103 67.9235 120.719 64.8936C120.835 64.421 120.893 63.9894 120.893 63.5958C120.893 61.4334 119.391 60.3501 116.387 60.3501H113.325L111.476 69.437H114.538H114.539Z" fill="white"></path><path d="M115.835 42.0913C115.698 41.8934 115.69 41.6543 115.805 41.3767L132.089 1.42355C132.282 0.946698 132.632 0.708984 133.136 0.708984H149.25C149.559 0.708984 149.782 0.798662 149.919 0.976592C150.054 1.15452 150.064 1.40362 149.949 1.72105L133.722 41.6742C133.568 42.1511 133.218 42.3888 132.676 42.3888H116.504C116.193 42.3888 115.97 42.2906 115.835 42.0913Z" fill="white"></path></svg>