<svg xmlns="http://www.w3.org/2000/svg" width="60" height="54" viewBox="0 0 60 54" fill="none"><path d="M26.212 51.735L26.4891 50.7742L26.212 51.735ZM1.10778 2.93899C0.577017 3.09168 0.270531 3.64572 0.42322 4.17648L2.91142 12.8257C3.06411 13.3565 3.61815 13.6629 4.14891 13.5103C4.67967 13.3576 4.98615 12.8035 4.83346 12.2728L2.62174 4.58457L10.3099 2.37284C10.8407 2.22016 11.1472 1.66611 10.9945 1.13535C10.8418 0.604594 10.2877 0.298107 9.75699 0.450795L1.10778 2.93899ZM59.6206 34.973C49.9936 29.6476 42.2556 27.7138 36.2241 27.961C30.1666 28.2092 25.866 30.6599 23.2078 33.9949C20.5693 37.3052 19.5903 41.4365 20.0656 44.9953C20.539 48.5401 22.5044 51.7065 25.9349 52.6958L26.4891 50.7742C24.0654 50.0751 22.4546 47.7757 22.048 44.7306C21.6432 41.6994 22.4802 38.1166 24.7718 35.2415C27.0436 32.3912 30.7873 30.1855 36.306 29.9593C41.8508 29.732 49.221 31.5058 58.6525 36.7231L59.6206 34.973ZM25.9349 52.6958C28.6088 53.467 30.8114 53.5595 32.4896 52.8984C34.2443 52.2071 35.2413 50.7685 35.608 48.9507C35.9649 47.1817 35.7405 45.0211 35.1073 42.6666C34.4698 40.2961 33.3957 37.6487 31.9697 34.8684C26.2833 23.7818 14.7808 10.168 1.8683 3.02498L0.900189 4.77505C13.3987 11.689 24.647 24.9739 30.1901 35.7812C31.5714 38.4743 32.5847 40.9876 33.1759 43.1861C33.7715 45.4006 33.9174 47.2173 33.6475 48.5552C33.3875 49.8442 32.7608 50.6419 31.7565 51.0376C30.6755 51.4635 28.9836 51.4936 26.4891 50.7742L25.9349 52.6958Z" fill="black"></path></svg>