<svg xmlns="http://www.w3.org/2000/svg" width="39" height="49" viewBox="0 0 39 49" fill="none"><path d="M37.8394 15.9541L36.8872 16.2594L37.8394 15.9541ZM7.29289 48.6212C7.68342 49.0117 8.31658 49.0117 8.70711 48.6212L15.0711 42.2572C15.4616 41.8667 15.4616 41.2335 15.0711 40.843C14.6805 40.4525 14.0474 40.4525 13.6569 40.843L8 46.4998L2.34315 40.843C1.95262 40.4525 1.31946 40.4525 0.928932 40.843C0.538408 41.2335 0.538408 41.8667 0.928932 42.2572L7.29289 48.6212ZM7.00041 0.914067C7.00045 8.84454 9.08359 14.4411 12.2838 18.1896C15.4831 21.9372 19.7138 23.7372 23.8176 24.2319C27.9037 24.7244 31.9251 23.9316 34.7885 22.4196C36.2185 21.6645 37.4191 20.6981 38.1706 19.5601C38.9375 18.3988 39.239 17.0437 38.7916 15.6487L36.8872 16.2594C37.118 16.9794 36.9957 17.71 36.5017 18.458C35.9922 19.2294 35.0948 19.9962 33.8546 20.651C31.3775 21.959 27.7696 22.6937 24.0569 22.2462C20.3619 21.8009 16.6241 20.1934 13.8048 16.891C10.9863 13.5895 9.00045 8.49358 9.00041 0.914058L7.00041 0.914067ZM38.7916 15.6487C38.1427 13.6248 37.1049 12.161 35.6889 11.3284C34.2695 10.4938 32.6222 10.3828 30.9366 10.7623C27.6215 11.5087 23.8714 14.2077 20.3961 17.8912C13.4268 25.2781 7 37.2358 7 47.9141H9C9 37.9123 15.098 26.4211 21.8509 19.2637C25.2367 15.675 28.6472 13.3278 31.3759 12.7134C32.7123 12.4125 33.8079 12.5424 34.6752 13.0524C35.5459 13.5644 36.3387 14.5489 36.8872 16.2594L38.7916 15.6487Z" fill="#EE2E20"></path></svg>