<svg xmlns="http://www.w3.org/2000/svg" width="594" height="713" viewBox="0 0 594 713" fill="none"><g clip-path="url(#clip0_1662_1461)"><path d="M413.434 97.5089L112.629 271.179C68.1354 296.867 52.9239 353.818 78.6528 398.381L209.891 625.692C235.62 670.256 292.546 685.558 337.039 659.87L637.844 486.2C682.338 460.511 697.549 403.561 671.82 358.997L540.582 131.686C514.853 87.1224 457.927 71.8206 413.434 97.5089Z" fill="white"></path><path d="M640.267 490.393L339.456 664.066C328.064 670.644 315.686 674.785 302.67 676.369C290.113 677.9 277.508 676.999 265.204 673.694C252.903 670.388 241.538 664.845 231.425 657.219C220.944 649.316 212.286 639.523 205.699 628.113L74.4609 400.802C67.8733 389.392 63.718 376.999 62.1172 363.969C60.5704 351.401 61.4535 338.787 64.7388 326.478C68.0258 314.172 73.5481 302.805 81.1547 292.694C89.0367 282.216 98.8106 273.565 110.203 266.988L411.013 93.3147C422.405 86.7375 434.783 82.5959 447.8 81.0118C460.356 79.481 472.962 80.3821 485.262 83.6886C497.563 86.995 508.929 92.5373 519.042 100.164C529.522 108.066 538.18 117.86 544.768 129.27L676.007 356.584C682.595 367.994 686.75 380.387 688.351 393.416C689.898 405.985 689.015 418.599 685.729 430.908C682.442 443.214 676.92 454.581 669.316 464.69C661.434 475.168 651.66 483.819 640.268 490.396L640.267 490.393ZM115.045 275.376C94.7345 287.102 80.1879 306.144 74.0861 328.988C67.9844 351.833 71.0915 375.619 82.8365 395.963L214.076 623.276C225.821 643.619 244.868 658.203 267.702 664.341C290.537 670.479 314.301 667.402 334.612 655.676L635.422 482.003C655.733 470.276 670.28 451.235 676.382 428.39C682.483 405.546 679.376 381.759 667.631 361.416L536.393 134.105C524.648 113.762 505.602 99.1778 482.767 93.0398C459.932 86.9019 436.168 89.9788 415.857 101.705L115.047 275.378L115.045 275.376Z" fill="#1E1413"></path><path d="M387.973 53.419L87.1678 227.089C42.6744 252.777 27.4629 309.728 53.1919 354.292L184.43 581.602C210.159 626.166 267.085 641.468 311.579 615.78L612.384 442.11C656.877 416.422 672.088 359.471 646.359 314.907L515.122 87.5965C489.393 43.0326 432.466 27.7308 387.973 53.419Z" fill="white"></path><path d="M614.81 446.304L313.999 619.977C302.607 626.554 290.229 630.695 277.213 632.28C264.656 633.81 252.051 632.909 239.747 629.604C227.446 626.298 216.081 620.756 205.968 613.129C195.487 605.226 186.829 595.433 180.242 584.023L49.0023 356.709C42.4146 345.299 38.2593 332.906 36.6586 319.877C35.1117 307.308 35.9949 294.694 39.2802 282.385C42.5671 270.079 48.0895 258.712 55.6961 248.602C63.5808 238.122 73.3536 229.475 84.7456 222.898L385.556 49.2249C396.948 42.6477 409.326 38.5061 422.343 36.9219C434.899 35.3911 447.505 36.2923 459.805 39.5987C472.106 42.9052 483.472 48.4475 493.585 56.074C504.065 63.9766 512.723 73.7702 519.311 85.1803L650.55 312.494C657.138 323.904 661.293 336.297 662.894 349.326C664.441 361.895 663.558 374.509 660.272 386.818C656.985 399.124 651.463 410.491 643.859 420.6C635.977 431.078 626.203 439.729 614.811 446.306L614.81 446.304ZM89.5883 231.286C69.2774 243.012 54.7309 262.054 48.6291 284.898C42.529 307.746 45.6344 331.53 57.3795 351.873L188.619 579.186C200.364 599.529 219.411 614.113 242.245 620.251C265.08 626.389 288.844 623.313 309.155 611.586L609.965 437.913C630.276 426.186 644.823 407.145 650.925 384.3C657.026 361.456 653.919 337.669 642.174 317.326L510.935 90.0125C499.19 69.6694 480.143 55.0852 457.308 48.9472C434.474 42.8092 410.71 45.8862 390.399 57.6126L89.5883 231.286Z" fill="#1E1413"></path><path d="M212.989 412.27C207.251 414.129 202.359 414.978 198.305 414.821L189.425 387.824C194.599 388.166 199.816 387.648 205.072 386.276C210.325 384.906 214.973 383.054 219.015 380.72C221.605 379.225 223.264 377.875 223.996 376.674C224.725 375.474 224.729 374.249 224.009 373.002C223.334 371.833 222.029 371.159 220.095 370.974C218.16 370.794 214.513 370.898 209.148 371.289C201.964 371.694 196.154 371.049 191.716 369.346C187.278 367.647 183.824 364.65 181.348 360.361C180.494 358.882 179.648 356.977 178.814 354.651C176.956 348.969 176.569 343.239 177.656 337.463C178.745 331.69 181.316 326.202 185.376 320.999C189.433 315.797 194.856 311.238 201.642 307.32C206.823 304.329 211.588 302.152 215.931 300.785C220.274 299.423 224.64 298.669 229.03 298.524L237.551 324.635C229.355 324.17 221.864 325.894 215.08 329.81C209.743 332.891 207.472 335.817 208.255 338.585C208.701 339.886 209.641 340.592 211.076 340.7C212.511 340.807 215.18 340.723 219.082 340.442C220.179 340.227 221.848 340.042 224.096 339.889C231.585 339.308 237.32 339.688 241.296 341.03C245.272 342.373 248.432 345.074 250.771 349.126C251.941 351.153 253.056 353.786 254.109 357.021C257.114 366.101 256.828 374.579 253.25 382.468C249.672 390.357 241.747 397.84 229.479 404.923C224.22 407.96 218.721 410.407 212.984 412.262L212.989 412.27Z" fill="#1E1413"></path><path d="M238.319 288.487L265.416 272.843L287.059 338.316L316.9 321.087L325.536 347.132L268.601 380.004L238.322 288.486L238.319 288.487Z" fill="#1E1413"></path><path d="M326.696 237.462L352.306 222.677L414.595 295.714L387.383 311.425L376.86 298.477L353.079 312.207L353.313 331.095L324.96 347.465L326.694 237.464L326.696 237.462ZM363.397 279.118L350.583 261.409L351.508 285.982L363.397 279.118Z" fill="#1E1413"></path><path d="M302.235 490.294C296.497 492.153 291.605 493.001 287.551 492.844L278.671 465.848C283.845 466.19 289.062 465.672 294.318 464.3C299.571 462.929 304.219 461.077 308.261 458.744C310.852 457.248 312.51 455.899 313.242 454.697C313.971 453.497 313.975 452.272 313.255 451.025C312.58 449.857 311.275 449.182 309.341 448.998C307.406 448.818 303.759 448.922 298.394 449.312C291.21 449.717 285.4 449.072 280.963 447.369C276.524 445.671 273.07 442.673 270.594 438.384C269.74 436.905 268.894 435.001 268.061 432.674C266.202 426.993 265.815 421.262 266.902 415.487C267.991 409.714 270.562 404.226 274.622 399.022C278.679 393.82 284.102 389.262 290.888 385.344C296.069 382.353 300.834 380.176 305.178 378.809C309.52 377.446 313.886 376.692 318.276 376.547L326.797 402.659C318.601 402.194 311.11 403.917 304.326 407.833C298.989 410.915 296.718 413.84 297.501 416.609C297.947 417.91 298.887 418.616 300.322 418.723C301.757 418.83 304.426 418.747 308.329 418.466C309.425 418.25 311.094 418.066 313.343 417.912C320.831 417.332 326.566 417.711 330.542 419.054C334.518 420.397 337.678 423.098 340.017 427.149C341.188 429.176 342.302 431.809 343.355 435.045C346.36 444.124 346.074 452.603 342.496 460.492C338.918 468.38 330.993 475.863 318.725 482.947C313.466 485.983 307.967 488.431 302.23 490.285L302.235 490.294Z" fill="#1E1413"></path><path d="M327.567 366.511L354.663 350.867L364.747 381.534L386.699 368.86L376.616 338.193L403.713 322.548L433.989 414.068L406.892 429.712L396.295 397.627L374.343 410.301L384.94 442.387L357.843 458.031L327.564 366.513L327.567 366.511Z" fill="#1E1413"></path><path d="M411.71 317.932L450.124 295.753C458.431 290.957 466.156 289.2 473.298 290.482C480.44 291.764 486.037 295.914 490.088 302.932C491.485 305.35 492.566 307.842 493.339 310.412C495.552 317.242 496.268 323.718 495.482 329.835C494.695 335.955 492.599 341.609 489.192 346.797L511.609 369.255L484.286 385.03L465.442 366.123L460.297 369.093L468.623 394.073L441.983 409.453L411.704 317.935L411.71 317.932ZM458.757 342.385C465.691 338.382 468.037 333.027 465.79 326.317C465.478 325.249 465.098 324.327 464.648 323.547C462.173 319.261 457.961 318.83 452.015 322.263L445.954 325.762L452.694 345.886L458.754 342.387L458.757 342.385Z" fill="#1E1413"></path><path d="M430.051 286.299C429.558 286.065 429.27 285.605 429.182 284.929L415.886 187.971C415.725 186.815 416.142 185.952 417.133 185.38L448.811 167.09C449.42 166.739 449.96 166.662 450.429 166.857C450.896 167.053 451.198 167.531 451.332 168.285L464.742 265.178C464.978 266.29 464.561 267.153 463.495 267.769L431.703 286.124C431.091 286.477 430.542 286.537 430.051 286.299Z" fill="#1E1413"></path></g><defs><clipPath id="clip0_1662_1461"><rect width="543.06" height="509.419" fill="white" transform="translate(0 271.828) rotate(-30)"></rect></clipPath></defs></svg>