<svg xmlns="http://www.w3.org/2000/svg" width="412" height="96" viewBox="0 0 412 96" fill="none"><g filter="url(#filter0_d_1662_1418)"><path d="M24 20.8807H64.7801V39.5963H63.4855C61.5436 30.3486 58.5228 25.5046 57.6598 24.4037C56.5809 22.8624 54.8548 22.2018 53.1286 22.422H48.3817V65.1376H59.8174V66.8991H29.61V65.1376H41.0456V22.2018H36.5145C34.3568 22.2018 33.4938 22.2018 32.1992 23.5229C29.3942 26.3853 26.805 32.9908 25.5104 39.156H24.2158L24 20.8807ZM73.8423 20.8807H100.813C112.465 20.8807 117.859 25.9449 117.859 31.8899C117.859 33.211 117.212 41.578 102.539 43.3395C107.502 45.1009 111.17 49.2844 112.681 54.3486C114.838 60.2936 114.622 66.0183 117.427 66.0183C120.232 66.0183 121.959 62.2752 121.959 56.7706V54.5688H123.253V56.7706C123.253 62.4954 121.527 68 115.054 68C110.307 68 106.855 64.4771 106.855 57.4312V55.0092C106.855 48.6238 106.423 43.7798 97.5768 43.7798H92.6141V65.1376H102.324V66.8991H74.4896V65.1376H85.0622V22.6422H73.8423V20.8807ZM92.3983 22.2018V42.4587H98.2241C105.56 42.4587 110.091 39.8165 110.091 31.4495C110.091 22.2018 104.266 22.2018 98.4398 22.2018H92.3983ZM154.324 20.4404H155.834L169.643 61.1743C170.938 64.6973 171.801 65.1376 174.39 65.1376H178.058V66.8991H155.402V65.1376H161.444C162.954 65.1376 163.602 64.6972 163.602 63.5963C163.602 63.156 163.602 62.7156 163.386 62.2752L159.718 52.367H144.398C143.104 55.2294 142.241 58.0917 141.593 61.1743C141.593 64.0367 143.751 65.3578 149.361 65.3578H150.224V67.1193H130.805V65.3578H131.668C136.846 65.3578 139.436 62.055 142.025 55.0092L154.324 20.4404ZM152.166 30.3486L144.83 50.6055H159.286L152.166 30.3486ZM184.1 20.8807H211.934C225.527 20.8807 233.295 34.0917 233.295 43.3395C233.079 49.2844 230.921 55.0092 226.822 59.4128C222.722 64.2569 216.896 67.1193 210.639 66.8991H184.315V65.1376H194.241V22.6422H184.1V20.8807ZM201.577 22.2018V65.3578H209.992C217.975 65.3578 224.664 62.4954 224.664 43.1193C224.664 27.2661 220.996 22.2018 210.639 22.2018H201.577ZM238.257 20.8807H280.116V37.1743H278.822C277.311 28.5871 273.643 22.422 267.817 22.422H255.95V42.4587H260.697C264.797 42.4587 266.739 40.6972 267.817 30.3486H269.112V56.7706H267.817C266.739 45.5413 264.797 43.7798 260.05 43.7798H255.95V65.3578H267.17C271.27 65.3578 272.996 64.6972 274.938 62.7156C278.174 58.5321 279.9 53.2477 280.332 47.9633H281.627L281.411 66.8991H238.473V65.1376H248.614V22.6422H238.041V20.8807H238.257ZM298.025 47.9633C301.046 58.3119 307.519 66.6789 315.718 66.6789C320.896 66.6789 325.859 63.156 325.859 57.8716C325.859 55.8899 324.996 53.6881 323.701 52.367C318.523 46.8624 305.793 47.9633 299.967 41.7982C297.378 39.3761 296.083 35.8532 296.299 32.1101C296.083 25.5046 301.261 20.2202 307.519 20C307.734 20 307.95 20 308.166 20C311.834 20.2202 315.502 21.7615 318.091 24.844C318.954 25.9449 319.602 26.6055 320.033 26.6055C321.328 26.6055 323.054 20.4404 323.054 20.2202H324.349V37.3945H323.054C320.465 26.6055 313.56 21.5413 308.382 21.5413C302.772 21.5413 298.888 25.5046 298.888 29.4679C298.888 31.0092 299.535 32.7706 300.614 33.8716C305.577 39.156 319.602 38.4954 325.643 44.8807C327.801 47.5229 329.095 50.8257 328.88 54.1284C328.88 63.156 323.054 68 315.502 68C311.403 67.7798 307.303 65.7982 304.498 62.7156C302.988 61.1743 302.34 59.8532 301.477 59.8532C300.183 59.8532 298.672 64.9174 298.025 68H296.73V47.9633H298.025ZM336.647 20.8807H360.598V22.6422H354.124C352.83 22.6422 352.398 22.8624 352.398 23.3028C352.398 23.5229 352.398 23.7431 352.614 23.7431L365.344 46.422L374.622 29.6881C375.27 28.8073 375.486 27.7064 375.701 26.3853C375.701 23.5229 372.465 22.422 370.091 22.422H367.502V20.6605H388V22.422H385.842C381.958 22.6422 378.506 25.0642 376.996 28.5871L366.207 47.9633V64.9174H375.701V66.6789H349.378V64.9174H358.871V49.5046L344.631 24.6239C343.552 22.8624 343.12 22.6422 342.042 22.6422H336.647V20.8807Z" fill="white"></path></g><defs><filter id="filter0_d_1662_1418" x="0" y="0" width="412" height="96" filterUnits="userSpaceOnUse" color-interpolation-filters="sRGB"><feGaussianBlur stdDeviation="12"></feGaussianBlur></filter></defs></svg>