<svg xmlns="http://www.w3.org/2000/svg" width="616" height="102" viewBox="0 0 616 102" fill="none"><g filter="url(#filter0_d_1662_1417)"><path d="M575.528 39.1909C576.096 38.5784 576.948 38.0681 577.705 38.0681C580.545 38.0681 581.965 43.2741 581.965 48.5822C581.208 48.7864 578.557 49.1947 572.499 49.5009C572.783 45.724 573.54 41.5387 575.528 39.1909ZM591.811 62.1588C589.823 64.0983 587.172 65.6295 583.575 65.6295C576.569 65.6295 572.499 60.4234 572.499 50.5217H591.432C591.621 50.1134 591.621 49.3989 591.621 48.0718C591.621 41.7429 586.983 36.4348 578.368 36.4348C569.28 36.4348 561.707 44.4991 561.707 56.1361C561.707 65.7316 567.576 73.6938 576.759 73.6938C584.237 73.6938 589.065 69.1002 592 62.363L591.811 62.1588ZM565.493 38.2722V38.0681H552.997V38.2722L554.607 39.3951C556.216 40.3138 557.257 41.3346 557.257 42.2533C557.257 43.5803 555.648 49.2968 554.607 52.5633L551.956 60.4235H551.767L545.708 42.6616C545.329 41.7429 545.329 40.7221 545.329 40.518C545.329 39.9055 545.708 39.5992 547.317 39.1909L549.116 38.7826V38.1701H528.573V38.7826L529.804 39.1909C531.603 39.5992 531.981 39.8034 533.023 42.4575L545.519 73.0813H548.548L559.624 45.3157C561.044 41.845 561.801 41.1304 563.6 39.5993L565.493 38.2722ZM524.881 70.0189V43.07C524.881 42.4575 524.881 39.0888 525.071 36.3327L524.881 36.1285L510.397 41.3346V41.5388L512.385 44.1928C512.953 45.1115 512.953 45.724 512.953 47.051V70.2231C512.953 71.346 512.764 71.5501 511.155 71.9584L510.113 72.1626V72.7751H527.816V72.1626L526.775 71.9584C524.881 71.3459 524.881 71.1418 524.881 70.0189ZM518.917 33.6786C522.704 33.6786 525.544 30.6163 525.544 27.1456C525.544 23.6749 522.893 20.8166 519.485 20.8166C515.509 20.8166 512.48 24.0832 512.48 27.3497C512.48 30.8204 515.509 33.6786 518.917 33.6786ZM503.771 66.5482C502.351 66.5482 500.931 66.344 500.173 65.4253C499.416 64.5066 498.943 63.2817 498.943 61.2401V43.6824H508.031L508.788 37.966H498.943L499.132 28.7788H498.943C494.967 32.7599 489.097 37.966 483.039 42.7637V43.6824H487.015V63.1796C487.015 66.8544 487.583 69.3044 489.381 71.2439C490.991 72.9792 493.357 73.8979 496.86 73.8979C503.108 73.8979 507.084 69.9168 509.545 64.9149L509.356 64.7108C507.652 65.8336 505.664 66.5482 503.771 66.5482ZM468.081 38.2722C468.649 38.2722 468.839 38.4764 469.312 39.3951L473.761 48.1739C474.803 50.1134 475.371 50.3176 476.412 50.3176C478.779 50.3176 481.808 48.1739 481.808 44.397C481.808 39.8034 476.98 36.741 470.353 36.741C459.277 36.741 452.461 45.9282 452.461 56.2382C452.461 65.6295 458.047 73.7959 467.703 73.7959C473.951 73.7959 478.779 70.3252 481.524 63.9962L481.335 63.7921C479.536 65.7316 477.359 66.8544 474.329 66.8544C467.513 66.8544 463.064 60.5255 463.064 51.3384C462.78 42.8658 465.809 38.2722 468.081 38.2722ZM432.676 39.1909C433.244 38.5784 434.096 38.0681 434.853 38.0681C437.693 38.0681 439.113 43.2741 439.113 48.5822C438.356 48.7864 435.705 49.1947 429.647 49.5009C429.836 45.724 430.688 41.5387 432.676 39.1909ZM448.959 62.1588C446.971 64.0983 444.32 65.6295 440.723 65.6295C433.717 65.6295 429.647 60.4234 429.647 50.5217H448.58C448.769 50.1134 448.769 49.3989 448.769 48.0718C448.769 41.7429 444.131 36.4348 435.516 36.4348C426.428 36.4348 418.855 44.4991 418.855 56.1361C418.855 65.7316 424.724 73.6938 433.907 73.6938C441.385 73.6938 446.213 69.1002 449.148 62.363L448.959 62.1588ZM414.784 70.0189V26.7372C414.784 26.1248 414.784 22.7561 414.973 20H414.784L400.3 25.0019V25.2061L402.288 27.8601C402.856 28.7788 402.856 29.3913 402.856 30.7183V70.0189C402.856 71.1418 402.667 71.346 401.057 71.7543L400.016 71.9584V72.5709H417.719V71.9584L416.677 71.7543C414.973 71.346 414.784 71.1418 414.784 70.0189ZM395.093 70.0189V26.7372C395.093 26.1248 395.093 22.7561 395.283 20L380.799 25.0019V25.2061L382.787 27.8601C383.355 28.7788 383.355 29.3913 383.355 30.7183V70.0189C383.355 71.1418 383.165 71.346 381.556 71.7543L380.515 71.9584V72.5709H398.217V71.9584L397.176 71.7543C395.472 71.346 395.093 71.1418 395.093 70.0189ZM365.747 70.0189C365.368 71.1418 364.516 72.4688 362.907 72.4688C359.309 72.4688 357.321 63.4858 357.321 54.0945C357.321 49.5009 357.511 43.9886 359.12 40.7221C359.499 39.5992 360.351 38.2722 361.96 38.2722C365.557 38.2722 367.545 47.2552 367.545 56.6465C367.545 61.2401 367.167 66.7524 365.747 70.0189ZM362.717 36.741C357.321 36.741 353.061 38.6805 349.653 42.4575C347.003 45.3157 344.825 50.1134 344.825 55.6257C344.825 65.017 351.073 73.7959 361.865 73.7959C367.261 73.7959 371.521 71.8563 374.929 68.0794C377.58 65.2212 379.757 60.4235 379.757 54.9112C379.757 45.724 373.604 36.741 362.717 36.741ZM331.193 68.2835C328.543 71.1418 326.365 72.4688 323.999 72.4688C316.804 72.4688 312.165 61.138 312.165 46.6427C312.165 30.2079 317.372 22.9603 323.431 22.9603C326.081 22.9603 327.88 23.879 330.436 26.6352C333.276 29.6975 335.832 34.2911 339.24 40.8242H339.808C339.619 35.8223 339.051 26.8393 338.577 21.7354H338.199L337.631 22.6541C337.252 23.2665 337.063 23.5728 336.4 23.5728C335.169 23.5728 328.732 21.6333 323.904 21.6333C307.432 21.6333 298.344 33.4745 298.344 48.3781C298.344 64.8128 308.568 74 323.241 74C327.028 74 333.276 72.673 339.335 69.6106C339.713 68.6919 341.133 57.9735 341.323 52.7675L340.944 52.5633C337.157 59.913 333.939 65.2212 331.193 68.2835ZM269.849 39.1909C270.417 38.5784 271.269 38.0681 272.027 38.0681C274.867 38.0681 276.287 43.2741 276.287 48.5822C275.529 48.7864 272.879 49.1947 266.82 49.5009C267.009 45.724 267.861 41.5387 269.849 39.1909ZM286.132 62.1588C284.144 64.0983 281.493 65.6295 277.896 65.6295C270.891 65.6295 266.82 60.4234 266.82 50.5217H285.753C285.943 50.1134 285.943 49.3989 285.943 48.0718C285.943 41.7429 281.304 36.4348 272.689 36.4348C263.601 36.4348 256.028 44.4991 256.028 56.1361C256.028 65.7316 261.897 73.6938 271.08 73.6938C278.559 73.6938 283.387 69.1002 286.321 62.363L286.132 62.1588ZM245.52 47.2552C246.94 47.2552 249.78 48.1739 252.715 49.9093C254.513 47.7656 255.744 44.9074 255.744 41.6408C255.744 38.7826 254.324 36.4348 251.295 36.4348C247.697 36.4348 243.816 41.0284 242.017 48.276L241.639 48.0718L241.828 41.9471C241.828 40.62 242.017 39.0889 242.207 36.0265L242.017 35.8223L227.344 41.0284V41.2325L229.332 43.8866C229.9 44.4991 229.9 45.4178 229.9 46.7448V69.9168C229.9 71.0397 229.711 71.2439 228.101 71.6522L227.06 71.8563V72.4688H246.183V71.8563L244.005 71.6522C242.207 71.448 242.017 71.2439 242.017 69.9168V50.6238C242.68 48.7864 243.721 47.2552 245.52 47.2552ZM222.989 70.0189V43.07C222.989 42.4575 222.989 39.0888 223.179 36.3327H222.989L208.505 41.3346V41.5388L210.493 44.1928C211.061 45.1115 211.061 45.724 211.061 47.051V70.2231C211.061 71.346 210.872 71.5501 209.263 71.9584L208.221 72.1626V72.7751H225.924V72.1626L224.883 71.9584C223.273 71.3459 222.989 71.1418 222.989 70.0189ZM217.025 33.6786C220.812 33.6786 223.652 30.6163 223.652 27.1456C223.652 23.6749 221.001 20.8166 217.593 20.8166C213.617 20.8166 210.588 24.0832 210.588 27.3497C210.588 30.8204 213.617 33.6786 217.025 33.6786ZM191.465 67.569C190.897 67.9773 190.424 68.1815 189.477 68.1815C187.679 68.1815 186.069 66.242 186.069 62.6692C186.069 60.7297 186.448 59.4026 187.489 58.2798C188.531 57.1569 189.288 56.7486 191.276 55.4216V67.4669H191.465V67.569ZM207.937 68.0794C206.896 68.6919 206.328 68.9981 205.76 68.9981C205.192 68.9981 204.529 68.7939 203.961 68.3856C203.393 67.7732 202.92 66.8544 202.92 64.4045V47.3573C202.92 43.8866 202.541 41.2325 200.743 39.293C199.133 37.5577 196.483 36.6389 193.075 36.6389C187.489 36.6389 181.052 41.2325 177.833 44.7032C176.035 46.6427 175.183 48.1739 175.183 49.5009C175.183 51.2363 176.413 52.3592 179.159 52.3592C181.336 52.3592 184.555 51.4405 185.975 50.6238L183.987 42.9679C184.744 42.0492 185.596 41.845 186.827 41.845C188.057 41.845 189.193 42.0492 189.856 42.9679C190.897 43.8866 191.276 46.2344 191.276 51.0321V54.707L185.691 56.6465C179.821 58.7902 177.833 59.7089 176.413 61.4442C175.372 62.5671 174.804 64.0983 174.804 65.6295C174.804 69.6106 177.455 73.2855 181.999 73.2855C185.217 73.2855 187.205 71.9584 190.235 69.1002L191.276 68.1815H191.465C192.696 71.448 195.252 73.3875 198.944 73.3875C203.583 73.3875 206.991 69.9168 208.221 67.8752H207.937V68.0794ZM170.165 70.0189V43.07C170.165 42.4575 170.165 39.0888 170.355 36.3327L170.165 36.1285L155.681 41.1304V41.3346L157.669 43.9887C158.237 44.9074 158.237 45.5198 158.237 46.8469V70.0189C158.237 71.1418 158.048 71.346 156.439 71.7543L155.397 71.9584V72.5709H173.289V71.9584L172.248 71.7543C170.165 71.346 170.165 71.1418 170.165 70.0189ZM164.107 33.6786C167.893 33.6786 170.733 30.6163 170.733 27.1456C170.733 23.6749 168.083 20.8166 164.675 20.8166C160.699 20.8166 157.669 24.0832 157.669 27.3497C157.669 30.8204 160.699 33.6786 164.107 33.6786ZM149.055 66.5482C147.635 66.5482 146.215 66.344 145.457 65.4253C144.7 64.5066 144.227 63.2817 144.227 61.2401V43.6824H153.315L154.072 37.966H144.227L144.605 28.5747H144.416C140.44 32.5558 134.571 37.7618 128.512 42.5596V43.4783H132.488V62.9754C132.488 66.6503 133.056 69.1002 134.855 71.0397C136.464 72.7751 138.831 73.6938 142.333 73.6938C148.581 73.6938 152.557 69.7127 155.019 64.7108L154.829 64.5066C152.841 65.8337 150.853 66.5482 149.055 66.5482ZM116.111 48.7864C112.892 46.8469 110.904 45.1115 110.904 42.2533C110.904 40.3138 112.135 38.5785 114.501 38.5785C116.868 38.5785 118.951 39.9055 125.199 49.2968L125.577 49.0926C125.577 46.949 125.388 40.518 125.199 38.9868C123.021 38.0681 119.329 36.8431 114.975 36.8431C107.307 36.8431 102.1 41.6408 102.1 47.7656C102.1 54.5028 106.928 57.1569 111.945 60.4235C116.205 63.2817 118.383 65.2212 118.383 68.0794C118.383 70.2231 117.152 72.0605 114.785 72.0605C111.567 72.0605 108.159 68.3856 101.721 59.1985L101.343 59.4027C101.343 62.8734 101.911 68.5898 102.384 71.448C105.413 72.775 109.579 73.5917 113.46 73.5917C121.696 73.5917 127.281 69.2023 127.281 61.7505C127.187 55.6257 122.169 52.2571 116.111 48.7864ZM81.5573 39.1909C82.1253 38.5784 82.9773 38.0681 83.7347 38.0681C86.5747 38.0681 87.9947 43.2741 87.9947 48.5822C87.2373 48.7864 84.5867 49.1947 78.528 49.5009C78.7173 45.724 79.4747 41.5387 81.5573 39.1909ZM97.84 62.1588C95.852 64.0983 93.2013 65.6295 89.604 65.6295C82.5987 65.6295 78.528 60.4234 78.528 50.5217H97.4613C97.6507 50.1134 97.6507 49.3989 97.6507 48.0718C97.6507 41.7429 93.012 36.4348 84.3973 36.4348C75.3093 36.4348 67.736 44.4991 67.736 56.1361C67.736 65.7316 73.6053 73.6938 82.788 73.6938C90.2667 73.6938 95.0947 69.1002 98.0293 62.363L97.84 62.1588ZM73.132 24.2873L75.4987 23.1645V22.7562H57.4173V23.1645L60.2573 24.4915C63.0973 25.8185 63.6653 26.2268 63.6653 27.5539C63.6653 29.6975 61.6773 36.9452 61.2987 38.4764L55.24 58.7902L45.584 30.2079C45.016 28.2684 44.8267 26.9414 44.8267 26.2269C44.8267 25.3081 45.2053 24.4915 47.6667 24.0832L50.0333 23.6749V22.7562H24V23.3686L24.7573 23.5728C28.7333 24.4915 29.396 25.3081 33.5613 36.741L47.3827 73.6938H51.1693L64.9907 36.741C68.6827 27.758 69.44 26.2269 73.132 24.2873Z" fill="white"></path></g><defs><filter id="filter0_d_1662_1417" x="0" y="0" width="616" height="102" filterUnits="userSpaceOnUse" color-interpolation-filters="sRGB"><feGaussianBlur stdDeviation="12"></feGaussianBlur></filter></defs></svg>