<svg xmlns="http://www.w3.org/2000/svg" width="272" height="264" viewBox="0 0 272 264" fill="none"><path d="M136.026 264C135.704 264 135.386 264 135.064 264C98.7398 263.758 64.6821 249.801 39.1765 224.697C13.6657 199.594 -0.24118 166.352 0.00316593 131.096C0.25791 95.835 14.6379 62.7843 40.497 38.024C66.3613 13.2688 100.591 -0.234086 136.936 0.00307167C173.26 0.245275 207.318 14.2023 232.823 39.3057C258.329 64.4091 272.246 97.6465 271.997 132.907L256.4 132.801L271.997 132.907C271.747 168.163 257.367 201.219 231.503 225.974C205.867 250.512 171.992 263.995 136.026 263.995V264ZM135.979 30.2785C108.259 30.2785 82.1554 40.6681 62.3998 59.5801C42.4674 78.6587 31.3886 104.13 31.1963 131.303C31.0039 158.475 41.7239 184.088 61.3808 203.434C81.0377 222.78 107.281 233.533 135.277 233.719C135.522 233.719 135.771 233.719 136.016 233.719C163.736 233.719 189.839 223.33 209.595 204.418C229.527 185.339 240.606 159.868 240.798 132.695C241.194 76.605 194.503 30.662 136.717 30.2785C136.473 30.2785 136.223 30.2785 135.979 30.2785Z" fill="#EE2E20"></path><path fill-rule="evenodd" clip-rule="evenodd" d="M134.477 71.6476L67.199 136L134.477 200.352L201.754 136L134.477 71.6476ZM42.4766 136L134.477 224L226.477 136L134.477 48L42.4766 136Z" fill="#5533E5"></path><path fill-rule="evenodd" clip-rule="evenodd" d="M30.9062 136L134.48 36.9297L238.054 136L134.48 235.071L30.9062 136ZM67.2024 136L134.48 200.353L201.757 136L134.48 71.6478L67.2024 136ZM78.7761 136L134.48 189.282L190.184 136L134.48 82.7182L78.7761 136ZM42.4799 136L134.48 224L226.48 136L134.48 48.0002L42.4799 136Z" fill="#5533E5"></path></svg>