<svg xmlns="http://www.w3.org/2000/svg" width="311" height="312" viewBox="0 0 311 312" fill="none"><mask id="mask0_606_517" style="mask-type:alpha" maskUnits="userSpaceOnUse" x="0" y="0" width="311" height="312"><rect y="0.703125" width="310.324" height="310.324" fill="#EE2E20"></rect></mask><g mask="url(#mask0_606_517)"><path d="M329.439 61.0544L329.79 15.9748C329.79 15.9748 331.142 -24.9339 284.979 -28.8453L281.577 -28.651" fill="#1E1413"></path><path d="M331.395 61.0688L327.483 61.0388L327.834 15.9343V15.9095C327.837 15.813 328.075 5.92952 322.879 -4.22527C319.862 -10.1204 315.618 -14.9696 310.261 -18.6397C303.55 -23.2384 295.034 -26.0125 284.95 -26.8864L281.688 -26.6999L281.465 -30.6061L285.005 -30.8082L285.143 -30.7965C296.016 -29.8757 305.241 -26.8499 312.564 -21.8051C318.467 -17.7385 323.135 -12.3715 326.44 -5.85556C331.949 5.01395 331.766 15.2822 331.745 16.01L331.395 61.0675V61.0688Z" fill="white"></path><path d="M282.12 -29.0865C241.331 14.338 186.667 63.6669 139.323 76.1784C50.3451 99.6925 139.219 167.352 221.32 131.277C257.699 115.291 294.992 84.8972 327.663 57.6909" fill="#1E1413"></path><path d="M171.978 143.617C167.111 143.617 162.686 143.331 158.81 142.908C140.262 140.892 123.32 134.582 112.33 125.6C103.043 118.008 98.9228 109.24 100.727 100.909C101.928 95.3676 105.656 90.3111 111.808 85.8767C118.277 81.2154 127.366 77.3157 138.823 74.2886C160.037 68.683 184.648 54.9924 211.973 33.599C233.494 16.7495 256.614 -4.79124 280.693 -30.426L283.544 -27.7471C259.329 -1.96888 236.06 19.7075 214.383 36.6783C186.637 58.4003 161.551 72.327 139.82 78.0695C128.828 80.9741 120.172 84.669 114.093 89.0499C108.749 92.9013 105.538 97.1701 104.548 101.738C103.071 108.559 106.713 115.956 114.804 122.57C125.224 131.087 141.416 137.082 159.231 139.019C162.982 139.427 167.267 139.704 171.978 139.704C185.453 139.704 202.432 137.438 220.53 129.486C252.852 115.283 291.086 90.4468 328.187 59.552L330.691 62.5583C313.205 77.1201 295.425 90.392 277.848 102.006C258.154 115.019 239.399 125.469 222.105 133.068C203.425 141.277 185.892 143.615 171.977 143.615L171.978 143.617Z" fill="white"></path><path d="M233.942 285.375H86.6169C65.2998 285.375 54.1288 270.437 60.9041 254.298L85.0899 196.687C88.5532 188.437 101.882 182.23 114.99 182.23H205.57C218.678 182.23 232.007 188.435 235.47 196.687L259.656 254.298C266.431 270.437 255.26 285.375 233.943 285.375H233.942Z" fill="#EE2E20"></path><path d="M233.942 287.332H86.6165C75.0296 287.332 65.5263 283.03 60.5413 275.53C58.4771 272.424 57.2957 268.949 57.0297 265.2C56.7585 261.383 57.4548 257.46 59.1004 253.54L83.2862 195.93C85.1339 191.529 89.4996 187.505 95.5799 184.6C101.415 181.81 108.309 180.273 114.989 180.273H205.57C212.25 180.273 219.144 181.81 224.979 184.6C231.06 187.507 235.425 191.53 237.273 195.93L261.459 253.54C263.105 257.46 263.801 261.383 263.53 265.2C263.264 268.949 262.082 272.423 260.018 275.53C255.034 283.03 245.53 287.332 233.944 287.332H233.942ZM114.989 184.186C108.88 184.186 102.586 185.587 97.2672 188.129C92.0527 190.621 88.369 193.929 86.893 197.444L62.7072 255.055C59.9428 261.64 60.33 268.143 63.7999 273.362C68.0469 279.753 76.3622 283.418 86.6165 283.418H233.942C244.196 283.418 252.511 279.753 256.758 273.362C260.228 268.141 260.615 261.64 257.851 255.055L233.665 197.444C232.189 193.929 228.505 190.621 223.291 188.129C217.971 185.586 211.678 184.186 205.569 184.186H114.989Z" fill="white"></path><path d="M222.651 246.67H97.9076C79.8582 246.67 70.0655 233.6 75.4834 219.369L95.1836 167.624C98.0523 160.089 109.536 154.4 120.925 154.4H199.632C211.021 154.4 222.505 160.088 225.373 167.624L245.074 219.369C250.491 233.6 240.699 246.67 222.649 246.67H222.651Z" fill="#EE2E20"></path><path d="M222.651 248.626H97.9075C88.1422 248.626 79.9846 244.914 75.5238 238.441C73.6161 235.674 72.4777 232.56 72.1413 229.189C71.7971 225.754 72.3069 222.215 73.6552 218.673L93.3554 166.927C94.9045 162.857 98.6755 159.133 103.974 156.441C109.049 153.863 115.069 152.442 120.925 152.442H199.632C205.488 152.442 211.508 153.863 216.583 156.441C221.88 159.132 225.651 162.857 227.201 166.927L246.902 218.673C248.25 222.215 248.76 225.754 248.415 229.189C248.078 232.56 246.939 235.674 245.033 238.441C240.573 244.913 232.415 248.626 222.649 248.626H222.651ZM120.926 156.356C115.674 156.356 110.283 157.625 105.747 159.93C101.319 162.18 98.2165 165.16 97.013 168.319L77.3128 220.064C75.0869 225.911 75.5968 231.649 78.7471 236.22C82.466 241.617 89.45 244.712 97.9088 244.712H222.651C231.109 244.712 238.093 241.617 241.812 236.22C244.963 231.649 245.472 225.91 243.247 220.064L223.546 168.319C222.343 165.159 219.242 162.18 214.812 159.93C210.276 157.625 204.885 156.356 199.633 156.356H120.926Z" fill="white"></path><path d="M144.268 106.287C139.064 106.287 133.964 105.428 129.035 103.717C116.989 99.5359 110.227 91.7692 109.945 91.4405L112.912 88.8894C112.976 88.9625 119.381 96.2753 130.489 100.078C136.963 102.296 143.767 102.909 150.714 101.902C159.464 100.633 168.493 96.7736 177.546 90.4311C190.716 81.2049 191.604 76.327 190.961 74.2403C190.148 71.5992 185.979 69.4289 179.222 68.1299C173.616 67.0526 168.215 66.9678 168.16 66.9678L168.211 63.0551C168.443 63.0577 173.968 63.1412 179.908 64.2772C188.423 65.9062 193.399 68.8694 194.699 73.086C196.422 78.6786 191.546 85.3993 179.789 93.6343C170.184 100.363 160.547 104.453 151.143 105.791C148.835 106.12 146.541 106.284 144.267 106.284L144.268 106.287Z" fill="white"></path><path d="M113.663 193.424C111.987 193.098 110.703 192.657 109.81 192.103L112.909 185.188C114 185.886 115.265 186.411 116.701 186.763C118.141 187.117 119.533 187.293 120.875 187.293C121.736 187.293 122.356 187.209 122.737 187.044C123.116 186.878 123.334 186.62 123.389 186.268C123.44 185.939 123.261 185.639 122.852 185.367C122.444 185.095 121.597 184.678 120.317 184.116C118.632 183.342 117.451 182.522 116.771 181.655C116.096 180.794 115.872 179.794 116.091 178.658C116.166 178.269 116.318 177.798 116.545 177.249C117.134 175.938 118.041 174.796 119.265 173.818C120.476 172.848 121.948 172.1 123.682 171.568C125.408 171.039 127.315 170.775 129.409 170.775C131.009 170.775 132.392 170.88 133.556 171.09C134.722 171.302 135.8 171.629 136.794 172.074L134.599 178.011C132.826 176.995 130.87 176.489 128.72 176.489C127.028 176.489 126.04 176.802 125.75 177.429C125.632 177.734 125.722 177.979 126.022 178.163C126.323 178.347 126.932 178.635 127.852 179.025C128.134 179.107 128.54 179.263 129.072 179.49C130.861 180.237 132.102 180.979 132.792 181.715C133.486 182.455 133.77 183.383 133.643 184.501C133.579 185.064 133.401 185.75 133.107 186.561C132.282 188.871 130.76 190.679 128.538 191.961C126.292 193.257 123.066 193.909 118.876 193.909C117.08 193.909 115.341 193.745 113.661 193.419L113.663 193.424Z" fill="white"></path><path d="M140.389 171.209H148.773L143.967 186.632H153.848L152.033 193.389H132.637L140.387 171.209H140.389Z" fill="white"></path><path d="M167.736 171.209H175.662L182.376 193.389H173.106L172.115 189.201H164.154L161.5 193.389H151.84L167.738 171.209H167.736ZM171.264 183.473L170.399 178.412L167.379 183.473H171.264Z" fill="white"></path><path d="M120.171 226.408C118.258 225.988 116.786 225.42 115.756 224.705L119.068 215.824C120.324 216.718 121.771 217.391 123.407 217.842C125.049 218.295 126.631 218.522 128.151 218.522C129.125 218.522 129.826 218.415 130.251 218.202C130.674 217.989 130.912 217.658 130.961 217.208C131.007 216.787 130.793 216.403 130.321 216.054C129.849 215.707 128.878 215.174 127.411 214.455C125.479 213.468 124.119 212.422 123.324 211.314C122.535 210.217 122.25 208.946 122.462 207.502C122.535 207.008 122.69 206.412 122.929 205.715C123.551 204.055 124.535 202.61 125.877 201.373C127.206 200.15 128.832 199.206 130.76 198.535C132.677 197.869 134.807 197.538 137.158 197.538C138.953 197.538 140.508 197.671 141.823 197.935C143.14 198.202 144.366 198.614 145.5 199.174L143.292 206.683C141.251 205.394 139.028 204.754 136.609 204.754C134.705 204.754 133.604 205.15 133.303 205.946C133.181 206.333 133.291 206.644 133.637 206.877C133.984 207.111 134.681 207.476 135.734 207.972C136.055 208.077 136.517 208.273 137.126 208.562C139.174 209.513 140.605 210.457 141.414 211.394C142.228 212.338 142.59 213.522 142.495 214.951C142.447 215.67 142.274 216.548 141.976 217.586C141.139 220.55 139.489 222.874 137.019 224.525C134.519 226.197 130.877 227.039 126.114 227.039C124.074 227.039 122.09 226.828 120.172 226.407L120.171 226.408Z" fill="white"></path><path d="M149.493 198.081H158.904L156.806 206.879H164.701L166.527 198.081H175.936L171.204 226.364H160.715L162.903 215.741H154.734L152.219 226.364H141.729L149.493 198.081Z" fill="white"></path><path d="M178.716 198.081H192.057C194.941 198.081 197.313 198.713 199.186 199.983C201.077 201.268 202.219 203.043 202.602 205.33C202.735 206.129 202.769 206.905 202.704 207.66C202.574 209.713 202.035 211.484 201.08 212.958C200.114 214.45 198.799 215.631 197.133 216.493L201.257 226.364H190.679L187.518 218.012H185.587L184.615 226.364H174.304L178.716 198.081ZM188.686 210.712C191.217 210.712 192.577 209.687 192.763 207.66C192.806 207.347 192.809 207.061 192.777 206.8C192.596 205.381 191.446 204.678 189.325 204.678H187.165L186.475 210.712H188.686Z" fill="white"></path><path d="M187.7 193.278C187.596 193.162 187.574 193.022 187.632 192.859L195.128 171.579C195.208 171.349 195.403 171.232 195.709 171.232H205.514C205.703 171.232 205.846 171.276 205.948 171.363C206.048 171.449 206.08 171.57 206.04 171.724L199.634 193.034C199.575 193.313 199.364 193.453 199.002 193.453H188.167C187.958 193.453 187.803 193.395 187.699 193.278H187.7Z" fill="white"></path></g></svg>