<svg xmlns="http://www.w3.org/2000/svg" width="382" height="382" viewBox="0 0 382 382" fill="none"><path d="M191 382C85.6846 382 0 296.315 0 191C0 85.6846 85.6846 0 191 0C296.315 0 382 85.6846 382 191C382 296.315 296.315 382 191 382ZM191 7.53868C89.846 7.53868 7.53868 89.846 7.53868 191C7.53868 292.154 89.846 374.461 191 374.461C292.154 374.461 374.461 292.154 374.461 191C374.461 89.846 292.169 7.53868 191 7.53868Z" fill="#5533E5"></path><path d="M50.5 188.5C50.5 265.695 113.305 328.5 190.5 328.5C267.695 328.5 330.5 265.695 330.5 188.5C330.5 111.305 267.695 48.5 190.5 48.5C113.305 48.5 50.5 111.305 50.5 188.5ZM57.006 188.5C57.006 114.897 116.897 55.006 190.5 55.006C264.114 55.006 323.994 114.897 323.994 188.5C323.994 262.103 264.103 321.994 190.5 321.994C116.897 321.994 57.006 262.103 57.006 188.5Z" fill="#5533E5" stroke="#5533E5"></path><path d="M184.095 341.677C185.54 342.098 186.714 342.595 187.587 343.167L187.06 349.668C185.931 348.901 184.727 348.299 183.448 347.847C182.169 347.396 180.965 347.14 179.851 347.05C179.219 347.004 178.768 347.02 178.482 347.125C178.196 347.23 178.045 347.411 178.015 347.697C177.985 348.073 178.166 348.404 178.572 348.705C178.978 349.006 179.836 349.518 181.145 350.24C183.087 351.294 184.471 352.392 185.299 353.551C186.127 354.71 186.473 356.064 186.353 357.615C186.247 358.954 185.766 360.128 184.938 361.106C184.11 362.084 182.981 362.822 181.582 363.288C180.182 363.77 178.602 363.935 176.856 363.8C175.427 363.68 174.162 363.469 173.064 363.138C171.965 362.822 170.942 362.37 169.963 361.813L170.475 355.538C172.281 356.742 174.117 357.419 175.968 357.569C177.458 357.69 178.241 357.419 178.286 356.772C178.316 356.456 178.166 356.185 177.834 355.944C177.503 355.703 176.901 355.372 176.028 354.936L174.9 354.364C173.455 353.611 172.356 352.889 171.619 352.212C170.866 351.519 170.355 350.767 170.084 349.954C169.813 349.142 169.723 348.133 169.828 346.929C170.009 344.807 170.912 343.197 172.567 342.113C174.223 341.03 176.615 340.623 179.746 340.879C181.191 341 182.65 341.27 184.095 341.677Z" fill="#5533E5"></path><path d="M165.087 362.069L157.728 360.625L160.768 345.093L152.656 343.513L153.86 337.328L169.331 340.353L165.087 362.069V362.069Z" fill="#5533E5"></path><path d="M139.157 355.929L132.445 353.656L131.136 329.863L138.42 332.331L138.525 336.44L144.756 338.546L147.344 335.341L154.628 337.809L139.142 355.929H139.157ZM138.33 342.189L138.254 347.546L141.445 343.242L138.33 342.189V342.189Z" fill="#5533E5"></path><path d="M129.074 328.448C130.263 329.366 131.166 330.254 131.783 331.127L128.893 336.966C128.125 335.838 127.238 334.829 126.199 333.941C125.161 333.054 124.152 332.361 123.144 331.865C122.572 331.579 122.136 331.443 121.835 331.428C121.534 331.428 121.323 331.534 121.203 331.789C121.037 332.136 121.082 332.512 121.338 332.933C121.594 333.355 122.211 334.137 123.174 335.296C124.604 336.982 125.477 338.517 125.823 339.901C126.169 341.286 125.988 342.67 125.296 344.07C124.694 345.274 123.836 346.192 122.693 346.794C121.564 347.396 120.254 347.667 118.765 347.592C117.29 347.516 115.755 347.095 114.189 346.327C112.91 345.695 111.812 345.018 110.909 344.326C110.006 343.618 109.208 342.836 108.516 341.948L111.3 336.304C112.534 338.095 113.994 339.389 115.649 340.217C116.989 340.879 117.816 340.909 118.102 340.338C118.238 340.052 118.208 339.736 117.982 339.405C117.756 339.058 117.32 338.532 116.673 337.809L115.83 336.861C114.761 335.627 114.009 334.558 113.572 333.656C113.136 332.737 112.925 331.85 112.97 330.992C113.016 330.134 113.301 329.171 113.843 328.087C114.791 326.176 116.221 325.017 118.163 324.626C120.104 324.234 122.482 324.731 125.296 326.116C126.605 326.763 127.855 327.545 129.043 328.463L129.074 328.448Z" fill="#5533E5"></path><path d="M103.534 340.398L97.3035 336.214L101.427 330.058L96.3855 326.672L92.2618 332.828L86.0312 328.644L98.357 310.268L104.588 314.452L100.268 320.893L105.31 324.279L109.629 317.838L115.86 322.022L103.534 340.398V340.398Z" fill="#5533E5"></path><path d="M82.4489 325.785L74.5328 318.681C72.486 316.845 71.3272 314.888 71.0563 312.797C70.7854 310.705 71.5078 308.688 73.2686 306.732C74.3672 305.512 75.5411 304.685 76.8053 304.263C78.0544 303.842 79.3487 303.797 80.6881 304.113L82.9004 296.438L88.529 301.494L86.6629 307.936L87.7163 308.884L91.7497 304.384L97.2428 309.305L82.464 325.769L82.4489 325.785ZM82.7048 311.939C81.2751 310.66 80.0259 310.614 78.9273 311.833C77.8437 313.037 78.0093 314.287 79.439 315.566L80.6881 316.679L83.9389 313.052L82.6897 311.924L82.7048 311.939Z" fill="#5533E5"></path><path d="M74.157 286.324C74.8191 287.679 75.2405 288.883 75.391 289.921L70.2139 293.894C70.0333 292.54 69.6721 291.245 69.1303 289.996C68.6036 288.747 67.9866 287.679 67.3093 286.791C66.918 286.294 66.602 285.963 66.3311 285.827C66.0602 285.692 65.8194 285.707 65.6087 285.873C65.3077 286.098 65.1873 286.459 65.2325 286.956C65.2776 287.453 65.4733 288.431 65.8344 289.891C66.3612 292.043 66.4816 293.804 66.1806 295.188C65.8796 296.573 65.1121 297.747 63.8629 298.695C62.7944 299.508 61.6205 299.944 60.3262 299.989C59.047 300.034 57.7527 299.688 56.4585 298.966C55.1642 298.243 53.9752 297.19 52.9218 295.805C52.0489 294.662 51.3716 293.593 50.875 292.555C50.3784 291.531 50.0172 290.463 49.7764 289.364L54.7729 285.526C55.0889 287.679 55.8113 289.484 56.94 290.959C57.8581 292.148 58.5654 292.54 59.0922 292.148C59.348 291.953 59.4534 291.652 59.4082 291.245C59.3631 290.839 59.2126 290.177 58.9417 289.229L58.6106 288.01C58.2042 286.444 57.9935 285.15 58.0086 284.127C58.0086 283.118 58.2343 282.231 58.6557 281.478C59.0771 280.726 59.7694 279.988 60.7175 279.251C62.4031 277.956 64.2091 277.55 66.1204 278.062C68.0317 278.558 69.943 280.063 71.8543 282.547C72.7423 283.705 73.5098 284.955 74.1871 286.309L74.157 286.324Z" fill="#5533E5"></path><path d="M46.2243 285.903L37.8115 271.831L43.2144 268.595L47.7745 276.226L49.4299 275.232L46.1942 269.829L51.0553 266.925L54.291 272.328L55.9465 271.334L51.3864 263.704L56.7893 260.469L65.2021 274.54L46.2093 285.888L46.2243 285.903Z" fill="#5533E5"></path><path d="M32.635 260.86L29.8809 254.328L46.8118 237.563L49.8067 244.651L46.7968 247.465L49.3552 253.531L53.4638 253.35L56.4587 260.438L32.635 260.875V260.86ZM42.3722 251.123L38.3238 254.614L43.6514 254.148L42.3722 251.108V251.123Z" fill="#5533E5"></path><path d="M25.5014 242.379L23.5449 235.14L38.8204 231.016L36.6683 223.04L42.7484 221.399L46.857 236.615L25.5014 242.379Z" fill="#5533E5"></path><path d="M39.5873 206.951C38.7445 208.833 37.4954 210.368 35.8399 211.542C34.1844 212.716 32.228 213.378 29.9705 213.543C27.713 213.694 25.6813 213.318 23.8603 212.384C22.0393 211.451 20.5795 210.112 19.4808 208.366C18.3822 206.62 17.7652 204.604 17.5996 202.361C17.4491 200.134 17.7802 198.072 18.623 196.176C19.4658 194.295 20.7149 192.76 22.4005 191.586C24.0861 190.412 26.0425 189.75 28.2849 189.584C30.5273 189.419 32.5741 189.81 34.3801 190.743C36.1861 191.676 37.6459 193.015 38.7445 194.761C39.8431 196.522 40.4602 198.509 40.6257 200.736C40.7762 202.993 40.4451 205.055 39.6023 206.951H39.5873ZM32.1527 198.193C31.2949 197.425 30.1812 197.094 28.8117 197.184C27.4421 197.275 26.3887 197.771 25.6512 198.644C24.9138 199.517 24.5827 200.585 24.673 201.85C24.7633 203.129 25.2298 204.152 26.0877 204.92C26.9455 205.687 28.0592 206.018 29.4287 205.928C30.7982 205.838 31.8517 205.341 32.5892 204.453C33.3266 203.565 33.6577 202.497 33.5674 201.233C33.4771 199.968 33.0106 198.96 32.1527 198.193V198.193Z" fill="#5533E5"></path><path d="M17.5098 186.529L18.5331 170.17L24.8239 170.561L24.2671 179.441L26.1935 179.561L26.5848 173.27L32.2435 173.616L31.8522 179.907L40.0693 180.419L39.6028 187.899L17.5248 186.514L17.5098 186.529Z" fill="#5533E5"></path><path d="M22.5815 148.574L24.4025 141.726L48.0607 138.852L46.0741 146.286L41.9806 146.662L40.28 153.028L43.6511 155.406L41.6645 162.841L22.5664 148.589L22.5815 148.574ZM36.2466 146.843L30.904 147.129L35.4038 150.034L36.2466 146.858V146.843Z" fill="#5533E5"></path><path d="M28.2553 129.34L32.4843 119.588C33.5829 117.074 35.0728 115.359 36.9691 114.426C38.8654 113.493 41.0175 113.553 43.4104 114.606C45.8033 115.645 47.3233 117.18 47.9404 119.196C48.5574 121.213 48.3166 123.486 47.233 125.999L45.9839 128.873L51.5222 131.281L48.5273 138.159L28.2402 129.34H28.2553ZM41.4991 125.156C42.2666 123.395 41.9054 122.191 40.4155 121.544C38.9256 120.897 37.7968 121.454 37.0293 123.215L36.3821 124.69L40.8519 126.631L41.4991 125.156Z" fill="#5533E5"></path><path d="M37.4658 108.767L42.9289 99.6469C44.3436 97.2991 46.0442 95.7791 48.0458 95.1169C50.0474 94.4547 52.1694 94.7858 54.4118 96.1253C56.6543 97.4647 57.9485 99.1803 58.3097 101.257C58.6559 103.334 58.1291 105.561 56.7295 107.909L55.1192 110.603L60.3113 113.703L56.4586 120.145L37.4809 108.782L37.4658 108.767ZM51.131 106.329C52.1243 104.689 51.9136 103.439 50.514 102.612C49.1143 101.784 47.9254 102.175 46.9472 103.831L46.1194 105.215L50.3033 107.714L51.131 106.329Z" fill="#5533E5"></path><path d="M49.5653 89.127L56.1871 80.8045C57.9028 78.6524 59.784 77.3882 61.8609 76.9818C63.9378 76.5755 65.9845 77.1925 68.0313 78.833C69.3256 79.8563 70.2135 80.9851 70.6951 82.2192C71.1917 83.4532 71.3121 84.7325 71.0713 86.0869L78.8521 87.8478L74.1415 93.7623L67.5949 92.2724L66.7069 93.3861L71.4325 97.1485L66.8424 102.913L49.5352 89.127H49.5653ZM63.396 88.5702C64.5849 87.0652 64.5548 85.816 63.2906 84.7927C62.0264 83.7843 60.7924 84.0251 59.5884 85.5301L58.55 86.8394L62.3575 89.8795L63.396 88.5702V88.5702Z" fill="#5533E5"></path><path d="M82.404 82.9719C80.4174 83.5137 78.4308 83.5137 76.4744 82.9719C74.5179 82.4301 72.7571 81.3315 71.207 79.6911C69.6568 78.0507 68.6635 76.2296 68.2422 74.228C67.8208 72.2264 67.9261 70.2549 68.5883 68.2984C69.2505 66.3419 70.4093 64.5962 72.0497 63.0461C73.6751 61.511 75.4961 60.4725 77.4827 59.9308C79.4693 59.389 81.4558 59.389 83.4273 59.9308C85.3989 60.4876 87.1597 61.5862 88.6948 63.2267C90.2298 64.8671 91.2231 66.6881 91.6596 68.6747C92.081 70.6612 91.9606 72.6327 91.2984 74.6043C90.6362 76.5758 89.4924 78.3065 87.867 79.8416C86.2266 81.3917 84.4056 82.4301 82.404 82.987V82.9719ZM84.4808 71.6696C84.526 70.5258 84.0895 69.4422 83.1414 68.4489C82.2083 67.4556 81.1548 66.9439 80.0111 66.9289C78.8673 66.9138 77.8288 67.3352 76.9108 68.2081C75.9777 69.0961 75.4811 70.1044 75.4359 71.2482C75.3908 72.3919 75.8272 73.4755 76.7754 74.4688C77.7084 75.4621 78.7619 75.9738 79.9208 75.9888C81.0796 75.9888 82.118 75.5674 83.0361 74.7096C83.9541 73.8518 84.4507 72.8284 84.4959 71.6846L84.4808 71.6696Z" fill="#5533E5"></path><path d="M82.1635 54.2569L88.6048 49.7721L99.4256 57.3572L96.0845 44.5649L102.526 40.0801L107.884 63.3018L102.059 67.3502L82.1484 54.2419L82.1635 54.2569Z" fill="#5533E5"></path><path d="M109.253 36.754L115.559 33.5183L133.528 49.1701L126.681 52.6766L123.656 49.8924L117.801 52.8873L118.298 56.9658L111.45 60.4724L109.268 36.739L109.253 36.754ZM119.682 45.7387L115.89 41.9462L116.748 47.2286L119.682 45.7237V45.7387Z" fill="#5533E5"></path><path d="M127.162 28.2811L134.235 25.7979L139.473 40.7272L147.269 37.9882L149.345 43.9328L134.476 49.14L127.162 28.266V28.2811Z" fill="#5533E5"></path><path d="M167.059 40.4864C165.479 40.0349 164.049 39.3125 162.77 38.3193C161.476 37.326 160.422 36.122 159.58 34.7073C158.737 33.3077 158.21 31.7576 157.984 30.072C157.759 28.3864 157.879 26.761 158.346 25.1808C158.797 23.6006 159.52 22.1709 160.513 20.8766C161.491 19.5823 162.695 18.5138 164.11 17.686C165.524 16.8433 167.059 16.3165 168.745 16.1058C170.446 15.8801 172.071 16.0005 173.651 16.452C175.231 16.9035 176.661 17.6258 177.955 18.6191C179.25 19.6124 180.318 20.8164 181.161 22.216C182.004 23.6156 182.531 25.1658 182.756 26.8513C182.982 28.5369 182.862 30.1773 182.395 31.7425C181.944 33.3227 181.221 34.7525 180.228 36.0467C179.235 37.341 178.046 38.4096 176.631 39.2373C175.216 40.0801 173.666 40.6068 171.981 40.8175C170.295 41.0282 168.67 40.9229 167.09 40.4714L167.059 40.4864ZM175.472 37.2206C176.616 36.5434 177.594 35.6855 178.392 34.6471C179.19 33.6087 179.761 32.4498 180.123 31.1706C180.484 29.8914 180.574 28.552 180.394 27.1674C180.213 25.7828 179.776 24.5036 179.099 23.3598C178.422 22.216 177.564 21.2378 176.526 20.4401C175.487 19.6425 174.328 19.0556 173.049 18.7094C171.77 18.3482 170.431 18.2579 169.031 18.4385C167.646 18.6191 166.382 19.0405 165.238 19.7178C164.095 20.395 163.131 21.2528 162.334 22.2913C161.536 23.3297 160.964 24.4885 160.618 25.7678C160.272 27.047 160.182 28.3864 160.362 29.771C160.543 31.1556 160.964 32.4348 161.642 33.5786C162.319 34.7224 163.162 35.7006 164.2 36.4982C165.238 37.2959 166.382 37.8828 167.661 38.229C168.941 38.5901 170.265 38.6804 171.665 38.4998C173.064 38.3193 174.344 37.8979 175.487 37.2206H175.472ZM170.325 34.6772C170.084 34.4966 169.949 34.2257 169.919 33.8645L169.588 30.373L166.683 32.8712C166.488 33.0368 166.262 33.1271 166.006 33.1572C165.735 33.2023 165.464 33.1271 165.223 32.9465C164.983 32.7659 164.832 32.51 164.787 32.1639C164.727 31.7275 164.907 31.3813 165.299 31.0803L168.399 28.8229L164.817 27.4533C164.35 27.2727 164.095 26.9567 164.049 26.5202C164.004 26.1741 164.08 25.8882 164.275 25.6474C164.471 25.4216 164.697 25.2862 164.983 25.241C165.253 25.2109 165.494 25.241 165.72 25.3614L169.151 26.9717L168.564 23.3899C168.504 23.0287 168.564 22.7277 168.745 22.4869C168.926 22.2461 169.197 22.1107 169.558 22.0655C169.919 22.0204 170.205 22.0806 170.416 22.2612C170.626 22.4418 170.762 22.7277 170.792 23.104L171.138 26.7159L174.027 24.2778C174.208 24.1123 174.419 24.0069 174.69 23.9768C174.976 23.9317 175.247 24.0069 175.487 24.1875C175.728 24.3681 175.879 24.624 175.924 24.9701C175.984 25.4066 175.803 25.7678 175.412 26.0688L172.312 28.2961L175.894 29.6957C176.134 29.786 176.315 29.9064 176.435 30.0569C176.556 30.2074 176.631 30.388 176.661 30.6138C176.706 30.9599 176.631 31.2459 176.435 31.4867C176.24 31.7124 176.014 31.8479 175.728 31.893C175.472 31.9231 175.231 31.893 175.006 31.7877L171.574 30.1171L172.146 33.5786C172.206 33.9398 172.146 34.2408 171.996 34.4665C171.83 34.6923 171.574 34.8277 171.213 34.8729C170.852 34.918 170.551 34.8578 170.325 34.6772V34.6772Z" fill="#5533E5"></path><path d="M195.925 38.259C194.465 37.8677 193.291 37.4011 192.403 36.8292L192.81 30.3277C193.953 31.0802 195.157 31.6521 196.452 32.0735C197.746 32.4949 198.95 32.7357 200.064 32.7959C200.696 32.8411 201.147 32.7959 201.433 32.6906C201.719 32.5852 201.87 32.3896 201.885 32.1187C201.915 31.7424 201.719 31.4113 201.313 31.1103C200.906 30.8244 200.034 30.3277 198.709 29.6355C196.738 28.6271 195.338 27.5586 194.48 26.4148C193.622 25.271 193.261 23.9316 193.351 22.3664C193.442 21.012 193.878 19.8531 194.691 18.8448C195.504 17.8365 196.602 17.099 198.002 16.5873C199.401 16.0756 200.967 15.88 202.712 15.9853C204.142 16.0756 205.406 16.2713 206.52 16.5723C207.619 16.8733 208.657 17.2947 209.65 17.8365L209.259 24.1273C207.423 22.9534 205.587 22.3062 203.736 22.2009C202.246 22.1106 201.478 22.3815 201.433 23.0437C201.418 23.3597 201.569 23.6306 201.9 23.8564C202.231 24.0821 202.848 24.4132 203.721 24.8195L204.865 25.3613C206.324 26.0837 207.423 26.7911 208.191 27.4532C208.958 28.1154 209.485 28.8679 209.771 29.6806C210.057 30.4933 210.162 31.5016 210.087 32.6906C209.951 34.8126 209.078 36.4379 207.438 37.5516C205.798 38.6653 203.42 39.1319 200.289 38.9362C198.83 38.8459 197.385 38.6051 195.925 38.2289V38.259Z" fill="#5533E5"></path><path d="M214.48 17.4751L221.87 18.7694L219.146 34.3609L227.288 35.7756L226.204 41.9761L210.673 39.2671L214.48 17.4751V17.4751Z" fill="#5533E5"></path><path d="M240.562 23.104L247.319 25.2411L249.11 49.0046L241.781 46.687L241.585 42.5784L235.309 40.5918L232.796 43.8426L225.467 41.5249L240.577 23.104H240.562ZM241.675 36.8294L241.645 31.4717L238.545 35.8361L241.69 36.8294H241.675Z" fill="#5533E5"></path><path d="M251.202 50.374C249.983 49.4711 249.065 48.5982 248.448 47.7554L251.217 41.8559C252 42.9696 252.918 43.9628 253.971 44.8207C255.025 45.6785 256.048 46.3558 257.072 46.8223C257.644 47.0932 258.08 47.2286 258.381 47.2286C258.682 47.2286 258.893 47.1082 259.013 46.8524C259.179 46.5063 259.119 46.13 258.848 45.7086C258.577 45.2872 257.945 44.5197 256.966 43.3759C255.507 41.7204 254.589 40.2004 254.227 38.8158C253.851 37.4463 254.002 36.0467 254.664 34.632C255.236 33.413 256.078 32.4799 257.207 31.8628C258.336 31.2308 259.63 30.9448 261.12 30.99C262.61 31.0351 264.13 31.4264 265.725 32.1638C267.02 32.7658 268.133 33.413 269.051 34.1053C269.969 34.7976 270.782 35.5651 271.489 36.438L268.826 42.1418C267.546 40.381 266.072 39.1018 264.401 38.3192C263.047 37.6871 262.234 37.657 261.948 38.259C261.812 38.5449 261.858 38.861 262.083 39.1921C262.309 39.5232 262.761 40.0499 263.423 40.7573L264.281 41.6903C265.364 42.8943 266.147 43.9478 266.598 44.8658C267.065 45.7688 267.275 46.6568 267.245 47.5146C267.215 48.3724 266.944 49.3507 266.433 50.4342C265.53 52.3606 264.115 53.5495 262.189 53.986C260.262 54.4224 257.869 53.986 255.025 52.6466C253.701 52.0295 252.436 51.277 251.232 50.374H251.202Z" fill="#5533E5"></path><path d="M276.455 37.8828L282.761 41.9312L278.758 48.1618L283.875 51.4426L287.878 45.212L294.184 49.2604L282.234 67.877L275.929 63.8286L280.112 57.297L274.996 54.0161L270.812 60.5477L264.506 56.4994L276.455 37.8828V37.8828Z" fill="#5533E5"></path><path d="M297.826 52.0596L305.878 58.9975C307.955 60.7884 309.159 62.7298 309.475 64.8067C309.791 66.8836 309.099 68.9303 307.398 70.9019C306.329 72.151 305.171 72.9938 303.921 73.4453C302.672 73.8817 301.378 73.972 300.039 73.671L297.992 81.3915L292.258 76.4552L294.004 69.9838L292.92 69.0507L288.977 73.6259L283.394 68.8099L297.826 52.0596V52.0596ZM297.841 65.9053C299.301 67.1545 300.55 67.1695 301.619 65.9354C302.672 64.7014 302.477 63.4673 301.032 62.2031L299.768 61.1045L296.592 64.7917L297.856 65.8903L297.841 65.9053Z" fill="#5533E5"></path><path d="M306.931 91.3545C306.239 90.015 305.803 88.8261 305.622 87.7877L310.709 83.7092C310.92 85.0486 311.311 86.3429 311.868 87.592C312.425 88.8261 313.057 89.8946 313.749 90.7675C314.14 91.2642 314.471 91.5802 314.742 91.7157C315.013 91.8511 315.254 91.8361 315.465 91.6555C315.766 91.4147 315.886 91.0535 315.826 90.5568C315.766 90.0602 315.555 89.082 315.179 87.6372C314.607 85.5001 314.456 83.7393 314.727 82.3397C314.998 80.94 315.751 79.7662 316.97 78.7879C318.023 77.9451 319.197 77.4936 320.476 77.4184C321.755 77.3582 323.05 77.6592 324.374 78.3515C325.683 79.0438 326.887 80.0822 327.986 81.4367C328.889 82.5504 329.581 83.6339 330.108 84.6423C330.62 85.6657 331.011 86.7191 331.267 87.8178L326.346 91.7458C325.984 89.6087 325.217 87.8027 324.058 86.3579C323.125 85.1841 322.403 84.8078 321.891 85.2142C321.65 85.4098 321.545 85.7108 321.605 86.1171C321.665 86.5235 321.831 87.1857 322.117 88.1188L322.478 89.3227C322.914 90.8879 323.14 92.1822 323.155 93.1905C323.155 94.1989 322.974 95.0868 322.568 95.8543C322.162 96.6068 321.485 97.3744 320.551 98.1118C318.881 99.4362 317.09 99.8726 315.179 99.4211C313.252 98.9546 311.311 97.4948 309.354 95.0417C308.451 93.8979 307.639 92.6638 306.946 91.3244L306.931 91.3545Z" fill="#5533E5"></path><path d="M334.849 91.2039L343.548 105.095L338.205 108.436L333.495 100.896L331.854 101.919L335.195 107.262L330.394 110.272L327.053 104.929L325.413 105.953L330.123 113.493L324.781 116.834L316.082 102.943L334.834 91.2039H334.849Z" fill="#5533E5"></path><path d="M348.966 115.991L351.855 122.462L335.27 139.574L332.14 132.546L335.09 129.671L332.411 123.666L328.302 123.937L325.172 116.909L348.981 115.991H348.966ZM339.439 125.924L343.427 122.342L338.1 122.914L339.439 125.924Z" fill="#5533E5"></path><path d="M356.46 134.306L358.567 141.515L343.382 145.94L345.7 153.871L339.65 155.632L335.24 140.507L356.475 134.306H356.46Z" fill="#5533E5"></path><path d="M343.111 170.004C343.908 168.093 345.127 166.543 346.768 165.339C348.408 164.135 350.35 163.428 352.592 163.217C354.834 163.021 356.881 163.352 358.717 164.255C360.553 165.143 362.043 166.453 363.172 168.183C364.301 169.914 364.963 171.901 365.174 174.158C365.369 176.386 365.068 178.447 364.271 180.359C363.473 182.27 362.239 183.82 360.598 185.024C358.958 186.228 357.002 186.935 354.759 187.146C352.517 187.342 350.47 187.011 348.649 186.108C346.828 185.22 345.338 183.895 344.209 182.165C343.081 180.434 342.418 178.462 342.208 176.22C342.012 173.978 342.298 171.901 343.111 169.989V170.004ZM350.726 178.613C351.599 179.365 352.712 179.666 354.082 179.546C355.451 179.426 356.49 178.914 357.212 178.026C357.935 177.138 358.236 176.054 358.13 174.805C358.01 173.526 357.513 172.503 356.64 171.765C355.767 171.028 354.654 170.712 353.284 170.832C351.915 170.953 350.876 171.464 350.154 172.367C349.432 173.27 349.131 174.354 349.236 175.618C349.341 176.882 349.838 177.891 350.711 178.628L350.726 178.613Z" fill="#5533E5"></path><path d="M365.595 190.006L364.888 206.38L358.597 206.109L358.973 197.23L357.047 197.139L356.776 203.43L351.117 203.189L351.388 196.899L343.171 196.552L343.487 189.058L365.595 190.006Z" fill="#5533E5"></path><path d="M361.291 228.067L359.606 234.944L336.008 238.285L337.844 230.821L341.937 230.354L343.503 223.958L340.086 221.655L341.922 214.191L361.306 228.051L361.291 228.067ZM347.671 230.068L353.014 229.677L348.454 226.863L347.671 230.053V230.068Z" fill="#5533E5"></path><path d="M355.994 247.39L351.96 257.233C350.922 259.776 349.462 261.522 347.581 262.485C345.7 263.448 343.548 263.433 341.14 262.44C338.717 261.447 337.182 259.942 336.519 257.94C335.857 255.939 336.053 253.666 337.091 251.123L338.28 248.218L332.682 245.915L335.526 238.978L355.994 247.375V247.39ZM342.84 251.845C342.118 253.621 342.494 254.81 343.999 255.427C345.504 256.044 346.618 255.472 347.34 253.696L347.957 252.206L343.442 250.355L342.825 251.845H342.84Z" fill="#5533E5"></path><path d="M347.219 268.114L341.937 277.339C340.582 279.717 338.897 281.267 336.91 281.975C334.924 282.682 332.802 282.396 330.529 281.102C328.257 279.807 326.917 278.122 326.526 276.045C326.135 273.968 326.616 271.741 327.971 269.363L329.521 266.639L324.269 263.644L327.986 257.127L347.189 268.099L347.219 268.114ZM333.599 270.823C332.651 272.493 332.877 273.727 334.292 274.525C335.706 275.338 336.88 274.901 337.843 273.231L338.641 271.831L334.412 269.408L333.614 270.808L333.599 270.823Z" fill="#5533E5"></path><path d="M335.511 288.024L329.055 296.467C327.385 298.65 325.518 299.959 323.457 300.395C321.395 300.832 319.318 300.26 317.241 298.68C315.932 297.686 315.029 296.573 314.502 295.354C313.99 294.135 313.84 292.855 314.05 291.501L306.225 289.906L310.815 283.901L317.392 285.255L318.249 284.127L313.448 280.454L317.933 274.6L335.511 288.04V288.024ZM321.696 288.852C320.537 290.372 320.597 291.636 321.876 292.615C323.171 293.608 324.39 293.337 325.564 291.802L326.587 290.478L322.719 287.513L321.696 288.837V288.852Z" fill="#5533E5"></path><path d="M302.808 294.842C304.794 294.255 306.766 294.21 308.737 294.722C310.709 295.233 312.485 296.287 314.065 297.897C315.645 299.508 316.669 301.314 317.15 303.3C317.632 305.287 317.542 307.273 316.925 309.245C316.307 311.216 315.179 312.992 313.568 314.572C311.973 316.138 310.182 317.221 308.196 317.793C306.209 318.38 304.238 318.41 302.251 317.898C300.264 317.387 298.489 316.333 296.908 314.708C295.328 313.098 294.305 311.292 293.838 309.32C293.372 307.349 293.447 305.362 294.079 303.39C294.696 301.419 295.81 299.658 297.405 298.093C299.015 296.513 300.821 295.429 302.793 294.842H302.808ZM300.957 306.175C300.927 307.318 301.393 308.387 302.356 309.365C303.32 310.343 304.373 310.825 305.517 310.825C306.661 310.825 307.699 310.374 308.602 309.486C309.52 308.583 309.987 307.559 310.017 306.415C310.047 305.272 309.58 304.203 308.617 303.225C307.654 302.247 306.6 301.765 305.442 301.78C304.283 301.795 303.259 302.232 302.356 303.12C301.453 304.007 300.987 305.016 300.957 306.175V306.175Z" fill="#5533E5"></path><path d="M303.636 323.542L297.285 328.147L286.314 320.788L289.911 333.505L283.56 338.11L277.735 315.009L283.469 310.84L303.636 323.542Z" fill="#5533E5"></path><path d="M276.862 341.617L270.616 344.973L252.346 329.682L259.118 326.04L262.203 328.764L267.997 325.649L267.426 321.571L274.198 317.928L276.862 341.602V341.617ZM266.252 332.843L270.119 336.545L269.156 331.278L266.252 332.843Z" fill="#5533E5"></path><path d="M259.163 350.421L252.135 353.039L246.597 338.215L238.861 341.105L236.664 335.205L251.428 329.697L259.163 350.421V350.421Z" fill="#5533E5"></path><path d="M219.026 339.043C220.606 339.465 222.051 340.157 223.36 341.12C224.669 342.083 225.753 343.272 226.626 344.657C227.499 346.041 228.056 347.577 228.311 349.262C228.567 350.948 228.477 352.573 228.056 354.153C227.634 355.734 226.942 357.193 225.979 358.503C225.016 359.812 223.842 360.911 222.457 361.768C221.073 362.641 219.537 363.198 217.852 363.454C216.166 363.71 214.526 363.635 212.946 363.213C211.365 362.792 209.921 362.1 208.596 361.136C207.287 360.173 206.188 358.984 205.315 357.6C204.443 356.215 203.886 354.68 203.63 352.994C203.374 351.309 203.464 349.684 203.886 348.103C204.307 346.523 204.999 345.063 205.963 343.754C206.926 342.445 208.1 341.346 209.499 340.488C210.884 339.63 212.434 339.058 214.12 338.803C215.805 338.547 217.431 338.637 219.011 339.043H219.026ZM210.688 342.475C209.56 343.167 208.596 344.04 207.829 345.093C207.061 346.147 206.504 347.321 206.173 348.615C205.842 349.909 205.782 351.249 205.993 352.633C206.203 354.018 206.655 355.282 207.362 356.411C208.07 357.54 208.942 358.503 209.996 359.285C211.049 360.068 212.223 360.625 213.503 360.956C214.782 361.287 216.121 361.347 217.521 361.136C218.905 360.926 220.17 360.474 221.298 359.782C222.427 359.09 223.375 358.217 224.158 357.163C224.94 356.11 225.482 354.936 225.813 353.642C226.144 352.347 226.205 351.023 225.994 349.638C225.783 348.254 225.332 346.99 224.639 345.861C223.947 344.717 223.074 343.769 222.021 342.986C220.967 342.204 219.808 341.647 218.514 341.316C217.235 340.985 215.895 340.925 214.511 341.135C213.111 341.346 211.847 341.797 210.718 342.49L210.688 342.475ZM215.895 344.913C216.136 345.093 216.272 345.364 216.317 345.725L216.723 349.217L219.568 346.659C219.763 346.493 219.989 346.388 220.245 346.358C220.516 346.312 220.787 346.388 221.027 346.553C221.268 346.719 221.434 346.99 221.479 347.336C221.539 347.772 221.374 348.133 220.982 348.419L217.927 350.737L221.524 352.046C221.991 352.227 222.246 352.528 222.322 352.964C222.367 353.311 222.307 353.596 222.111 353.837C221.93 354.078 221.69 354.214 221.419 354.259C221.148 354.304 220.907 354.259 220.681 354.153L217.22 352.618L217.882 356.185C217.942 356.546 217.882 356.847 217.716 357.088C217.536 357.329 217.28 357.479 216.919 357.524C216.558 357.585 216.272 357.524 216.061 357.344C215.835 357.163 215.715 356.892 215.67 356.516L215.248 352.904L212.404 355.402C212.238 355.568 212.013 355.673 211.742 355.718C211.456 355.764 211.185 355.703 210.944 355.523C210.703 355.357 210.553 355.086 210.493 354.74C210.432 354.304 210.598 353.943 210.989 353.642L214.044 351.354L210.432 350.03C210.192 349.939 210.011 349.834 209.876 349.684C209.755 349.548 209.665 349.352 209.635 349.127C209.59 348.781 209.65 348.495 209.845 348.254C210.026 348.013 210.267 347.878 210.538 347.832C210.794 347.787 211.034 347.832 211.26 347.923L214.722 349.533L214.074 346.087C214.014 345.725 214.059 345.424 214.21 345.184C214.36 344.943 214.631 344.807 214.977 344.747C215.324 344.687 215.64 344.747 215.865 344.928L215.895 344.913Z" fill="#5533E5"></path></svg>