<svg xmlns="http://www.w3.org/2000/svg" width="232" height="224" viewBox="0 0 232 224" fill="none"><g clip-path="url(#clip0_468_200)"><path d="M193.279 59.686L74.791 27.9373C57.265 23.2413 39.2499 33.6441 34.5531 51.1728L10.5958 140.583C5.89898 158.111 16.2991 176.128 33.8251 180.824L152.313 212.573C169.839 217.269 187.854 206.866 192.551 189.337L216.508 99.9275C221.205 82.3988 210.805 64.3821 193.279 59.686Z" fill="#F9F3EF"></path><path d="M151.872 214.223L33.382 182.473C28.8946 181.271 24.769 179.216 21.1222 176.363C17.6036 173.612 14.6798 170.243 12.4315 166.349C10.1842 162.456 8.72853 158.239 8.10615 153.815C7.46079 149.23 7.7427 144.628 8.94527 140.14L32.9026 50.7306C34.1051 46.2426 36.1607 42.1163 39.013 38.4687C41.7639 34.9495 45.1331 32.0251 49.0262 29.7761C52.9189 27.5282 57.1357 26.0721 61.5594 25.4493C66.1436 24.8035 70.7445 25.0851 75.2319 26.2875L193.722 58.0368C198.209 59.2392 202.335 61.2946 205.982 64.1471C209.5 66.898 212.424 70.2675 214.671 74.1606C216.919 78.0537 218.374 82.2709 218.997 86.6952C219.642 91.2799 219.36 95.8815 218.157 100.369L194.2 189.78C192.997 194.268 190.942 198.395 188.089 202.042C185.339 205.562 181.969 208.486 178.076 210.735C174.184 212.983 169.967 214.439 165.544 215.062C160.96 215.708 156.359 215.426 151.872 214.224L151.872 214.223ZM74.3479 29.5867C66.3474 27.443 57.9608 28.561 50.7344 32.7339C43.5081 36.9067 38.3467 43.612 36.2027 51.6137L12.2451 141.025C10.101 149.026 11.2183 157.414 15.3901 164.641C19.5618 171.868 26.2658 177.029 34.2663 179.173L152.756 210.922C160.757 213.066 169.143 211.948 176.37 207.775C183.596 203.602 188.757 196.897 190.901 188.895L214.859 99.4856C217.003 91.4839 215.886 83.0963 211.714 75.8693C207.542 68.6423 200.838 63.4808 192.838 61.3371L74.3476 29.5878L74.3479 29.5867Z" fill="#1E1413"></path><path d="M197.926 42.3433L79.438 10.5946C61.912 5.89848 43.8968 16.3013 39.2001 33.83L15.2427 123.24C10.546 140.769 20.9461 158.785 38.4721 163.481L156.96 195.23C174.486 199.926 192.501 189.523 197.198 171.995L221.155 82.5847C225.852 65.0561 215.452 47.0394 197.926 42.3433Z" fill="#F9F3EF"></path><path d="M156.519 196.88L38.029 165.131C33.5416 163.928 29.416 161.873 25.7691 159.02C22.2506 156.269 19.3268 152.9 17.0784 149.007C14.8312 145.114 13.3755 140.896 12.7531 136.472C12.1078 131.887 12.3897 127.286 13.5922 122.798L37.5498 33.3867C38.7524 28.8987 40.8079 24.7724 43.6603 21.1248C46.4111 17.6056 49.7804 14.6812 53.6734 12.4322C57.5662 10.1844 61.783 8.72821 66.2067 8.10541C70.792 7.45992 75.3915 7.74233 79.8789 8.94471L198.369 40.694C202.856 41.8964 206.982 43.9519 210.629 46.8043C214.147 49.5553 217.071 52.9247 219.318 56.8178C221.566 60.7109 223.021 64.9282 223.644 69.3524C224.289 73.9372 224.007 78.5387 222.804 83.0267L198.847 172.438C197.644 176.926 195.589 181.052 192.736 184.7C189.986 188.219 186.616 191.143 182.723 193.392C178.831 195.64 174.614 197.096 170.191 197.719C165.607 198.365 161.006 198.083 156.519 196.881L156.519 196.88ZM78.9949 12.2439C70.9944 10.1002 62.6078 11.2182 55.3814 15.3911C48.1547 19.5651 42.9937 26.2692 40.8497 34.2709L16.8921 123.682C14.748 131.684 15.8652 140.071 20.037 147.298C24.2088 154.525 30.9128 159.687 38.9133 161.83L157.403 193.58C165.404 195.723 173.79 194.605 181.017 190.433C188.243 186.26 193.404 179.554 195.548 171.553L219.506 82.1417C221.65 74.14 220.533 65.7525 216.361 58.5255C212.189 51.2984 205.485 46.1369 197.485 43.9932L78.9949 12.2439Z" fill="#1E1413"></path><path d="M65.6466 114.533C64.4309 114.207 63.429 113.701 62.641 113.015C61.8661 112.322 61.3497 111.488 61.0918 110.513C60.8367 109.528 60.8638 108.459 61.173 107.305C61.4849 106.141 61.9962 105.201 62.7069 104.486C63.4175 103.771 64.2817 103.307 65.2996 103.093C66.3278 102.883 67.4497 102.941 68.6655 103.266C69.4588 103.479 70.1415 103.734 70.7135 104.031C71.2855 104.327 71.7891 104.694 72.2242 105.131L71.2966 108.593C70.9419 108.144 70.5005 107.772 69.9725 107.476C69.4548 107.183 68.825 106.937 68.0831 106.738C67.2795 106.523 66.5934 106.549 66.0248 106.816C65.4694 107.076 65.0936 107.571 64.8976 108.303C64.7016 109.034 64.7829 109.658 65.1417 110.174C65.5032 110.679 66.0806 111.038 66.8739 111.251C67.5952 111.444 68.265 111.541 68.8834 111.541C69.5045 111.53 70.1168 111.43 70.7204 111.238L69.7969 114.684C68.5961 115.003 67.2127 114.953 65.6466 114.533ZM75.4996 117.173C74.3971 116.878 73.4612 116.373 72.6918 115.659C71.9327 114.947 71.4088 114.1 71.12 113.117C70.834 112.124 70.8387 111.076 71.1341 109.974C71.4295 108.871 71.9493 107.962 72.6936 107.245C73.4379 106.527 74.3166 106.051 75.3297 105.814C76.3531 105.58 77.416 105.611 78.5184 105.907C79.6106 106.199 80.5362 106.701 81.2953 107.413C82.0646 108.127 82.5923 108.98 82.8784 109.974C83.1644 110.967 83.1597 112.015 82.8643 113.117C82.5689 114.219 82.049 115.129 81.3047 115.846C80.5632 116.553 79.6807 117.023 78.6574 117.257C77.6443 117.494 76.5917 117.466 75.4996 117.173ZM76.423 113.727C77.0412 113.892 77.6037 113.833 78.1104 113.549C78.6171 113.265 78.9602 112.789 79.1397 112.119C79.3191 111.449 79.2604 110.865 78.9635 110.366C78.6666 109.866 78.209 109.534 77.5908 109.368C76.9623 109.2 76.3947 109.258 75.888 109.542C75.3812 109.825 75.0382 110.302 74.8587 110.972C74.6793 111.642 74.738 112.226 75.0349 112.725C75.3421 113.227 75.8048 113.561 76.423 113.727ZM88.0944 108.721L91.5563 109.648L92.989 121.611L89.2335 120.605L89.0433 118.533L85.8287 117.671L84.628 119.371L80.8725 118.364L88.0944 108.721ZM88.9602 115.628L88.8232 112.925L87.3529 115.198L88.9602 115.628ZM98.5334 123.345C97.3176 123.019 96.3157 122.513 95.5278 121.827C94.7529 121.134 94.2365 120.3 93.9786 119.325C93.7235 118.34 93.7505 117.271 94.0597 116.117C94.3717 114.953 94.883 114.013 95.5936 113.298C96.3043 112.583 97.1685 112.118 98.1864 111.905C99.2145 111.695 100.336 111.753 101.552 112.078C102.346 112.291 103.028 112.546 103.6 112.843C104.172 113.139 104.676 113.506 105.111 113.943L104.183 117.405C103.829 116.956 103.387 116.584 102.859 116.288C102.342 115.995 101.712 115.749 100.97 115.55C100.166 115.335 99.4802 115.361 98.9116 115.628C98.3561 115.888 97.9804 116.383 97.7843 117.115C97.5883 117.846 97.6697 118.47 98.0284 118.986C98.3899 119.491 98.9674 119.85 99.7607 120.063C100.482 120.256 101.152 120.353 101.77 120.353C102.391 120.342 103.004 120.242 103.607 120.05L102.684 123.496C101.483 123.815 100.099 123.765 98.5334 123.345ZM106.172 113.565L109.835 114.546L108.866 118.163L111.833 118.958L112.802 115.341L116.465 116.323L113.57 127.126L109.907 126.144L110.922 122.358L107.954 121.563L106.94 125.349L103.277 124.368L106.172 113.565ZM117.552 116.614L121.214 117.595L118.32 128.398L114.657 127.417L117.552 116.614ZM122.291 117.884L125.521 118.749L127.389 124.633L128.735 119.611L132.244 120.551L129.349 131.353L126.119 130.488L124.254 124.588L122.904 129.627L119.396 128.687L122.291 117.884ZM136.038 133.394C134.823 133.069 133.821 132.563 133.033 131.877C132.258 131.183 131.742 130.349 131.484 129.375C131.229 128.39 131.256 127.32 131.565 126.166C131.877 125.002 132.388 124.062 133.099 123.347C133.809 122.632 134.674 122.168 135.691 121.955C136.72 121.744 137.842 121.802 139.057 122.128C139.861 122.343 140.544 122.598 141.105 122.892C141.667 123.186 142.171 123.553 142.616 123.992L141.697 127.423C141.342 126.975 140.901 126.603 140.373 126.307C139.855 126.013 139.225 125.767 138.483 125.569C137.69 125.356 137.002 125.387 136.421 125.662C135.852 125.929 135.47 126.429 135.274 127.16C135.061 127.953 135.091 128.607 135.361 129.122C135.635 129.626 136.199 129.992 137.054 130.221C137.363 130.304 137.642 130.335 137.891 130.313L138.164 129.293L136.974 128.974L137.538 126.872L141.942 128.052L140.456 133.601C139.231 133.924 137.759 133.855 136.038 133.394ZM149.427 136.982C148.17 136.645 147.24 136.098 146.637 135.34C146.045 134.585 145.881 133.713 146.146 132.724C146.322 132.064 146.605 131.544 146.995 131.162C147.397 130.773 147.945 130.461 148.637 130.227C148.416 129.815 148.272 129.406 148.203 129.001C148.148 128.589 148.185 128.141 148.315 127.656C148.461 127.11 148.737 126.66 149.141 126.304C149.546 125.949 150.058 125.727 150.678 125.639C151.3 125.541 151.993 125.594 152.755 125.798C153.487 125.994 154.082 126.286 154.541 126.674C155.011 127.065 155.327 127.514 155.489 128.022C155.662 128.532 155.676 129.054 155.533 129.59C155.372 130.188 155.12 130.656 154.775 130.994C154.444 131.325 153.971 131.607 153.356 131.84L154.334 133.443C154.531 133.165 154.717 132.696 154.894 132.036L157.784 132.811C157.56 133.645 157.318 134.303 157.056 134.786C156.794 135.268 156.445 135.726 156.008 136.161L157.665 138.941L153.4 137.798L152.953 137.115C152.097 137.427 150.921 137.382 149.427 136.982ZM151.668 129.731C151.937 129.637 152.141 129.532 152.283 129.415C152.438 129.291 152.537 129.147 152.582 128.982C152.639 128.765 152.627 128.585 152.544 128.442C152.474 128.29 152.336 128.187 152.13 128.132C151.924 128.077 151.748 128.096 151.601 128.189C151.468 128.275 151.372 128.426 151.314 128.642C151.242 128.91 151.361 129.273 151.668 129.731ZM150.265 134.722C150.708 134.84 151.091 134.811 151.415 134.632L150.4 132.919C149.954 132.976 149.676 133.211 149.565 133.623C149.496 133.881 149.529 134.11 149.663 134.312C149.796 134.513 149.997 134.65 150.265 134.722ZM56.3696 122.996L64.3752 125.141L63.5511 128.217L59.2083 127.053L58.9557 127.996L62.0312 128.82L61.29 131.586L58.2145 130.762L57.1378 134.781L53.475 133.799L56.3696 122.996ZM67.0511 137.685C65.9487 137.39 65.0128 136.885 64.2434 136.171C63.4843 135.46 62.9604 134.613 62.6716 133.63C62.3856 132.636 62.3903 131.589 62.6857 130.486C62.9811 129.384 63.5009 128.474 64.2452 127.757C64.9895 127.04 65.8682 126.563 66.8813 126.326C67.9047 126.093 68.9676 126.123 70.07 126.419C71.1621 126.711 72.0878 127.213 72.8468 127.925C73.6162 128.639 74.1439 129.493 74.4299 130.486C74.716 131.479 74.7113 132.527 74.4159 133.629C74.1205 134.732 73.6006 135.642 72.8563 136.359C72.1148 137.066 71.2323 137.536 70.209 137.77C69.1959 138.006 68.1433 137.978 67.0511 137.685ZM67.9746 134.239C68.5928 134.405 69.1553 134.346 69.662 134.062C70.1687 133.778 70.5118 133.301 70.6913 132.631C70.8707 131.962 70.812 131.377 70.5151 130.878C70.2181 130.379 69.7606 130.046 69.1424 129.881C68.5139 129.712 67.9463 129.77 67.4396 130.054C66.9328 130.338 66.5897 130.815 66.4103 131.484C66.2308 132.154 66.2896 132.738 66.5865 133.238C66.8937 133.74 67.3564 134.073 67.9746 134.239ZM76.639 128.427L81.8318 129.819C83.1712 130.178 84.1427 130.797 84.7463 131.676C85.3499 132.556 85.4805 133.635 85.1382 134.912C84.9229 135.716 84.5796 136.358 84.1083 136.839C83.6399 137.31 83.0692 137.626 82.3963 137.789L83.1563 141.752L79.4626 140.763L78.8317 137.43L78.1363 137.243L77.3453 140.195L73.7443 139.23L76.639 128.427ZM79.6883 134.727C80.6259 134.979 81.201 134.708 81.4136 133.914C81.6262 133.121 81.2637 132.599 80.3261 132.347L79.507 132.128L78.8692 134.508L79.6883 134.727ZM86.9623 131.194L90.1924 132.059L91.3957 138.51L95.6634 133.525L98.8934 134.391L95.9988 145.193L92.6142 144.287L93.6867 140.284L90.6205 143.752L89.4459 143.438L88.5248 138.901L87.4523 142.903L84.0677 141.996L86.9623 131.194ZM103.598 135.651L107.06 136.579L108.493 148.541L104.737 147.535L104.547 145.463L101.332 144.602L100.132 146.301L96.376 145.294L103.598 135.651ZM104.464 142.559L104.327 139.855L102.856 142.128L104.464 142.559ZM111.636 141.101L108.87 140.36L109.694 137.285L118.89 139.749L118.066 142.824L115.299 142.083L113.229 149.81L109.566 148.829L111.636 141.101ZM119.426 139.892L123.089 140.874L120.195 151.677L116.532 150.695L119.426 139.892ZM126.773 153.688C125.67 153.392 124.734 152.888 123.965 152.173C123.206 151.462 122.682 150.615 122.393 149.632C122.107 148.639 122.112 147.591 122.407 146.489C122.702 145.386 123.222 144.476 123.967 143.759C124.711 143.042 125.59 142.565 126.603 142.329C127.626 142.095 128.689 142.126 129.791 142.421C130.884 142.714 131.809 143.216 132.568 143.927C133.338 144.641 133.865 145.495 134.151 146.488C134.437 147.481 134.433 148.529 134.137 149.632C133.842 150.734 133.322 151.644 132.578 152.361C131.836 153.068 130.954 153.538 129.93 153.772C128.917 154.008 127.865 153.98 126.773 153.688ZM127.696 150.241C128.314 150.407 128.877 150.348 129.383 150.064C129.89 149.78 130.233 149.303 130.413 148.634C130.592 147.964 130.533 147.379 130.236 146.88C129.94 146.381 129.482 146.049 128.864 145.883C128.235 145.715 127.668 145.772 127.161 146.056C126.654 146.34 126.311 146.817 126.132 147.487C125.952 148.156 126.011 148.741 126.308 149.24C126.615 149.742 127.078 150.076 127.696 150.241ZM136.36 144.43L139.59 145.295L141.459 151.179L142.805 146.157L146.313 147.097L143.419 157.9L140.189 157.034L138.324 151.134L136.974 156.173L133.466 155.233L136.36 144.43ZM148.037 159.386C147.326 159.195 146.63 158.931 145.947 158.594C145.264 158.256 144.73 157.903 144.343 157.534L145.196 154.351C145.684 154.835 146.226 155.245 146.82 155.581C147.425 155.92 148.001 156.162 148.547 156.309C148.856 156.391 149.086 156.42 149.236 156.394C149.387 156.368 149.48 156.288 149.516 156.154C149.566 155.969 149.504 155.787 149.331 155.608C149.161 155.419 148.781 155.085 148.191 154.607C147.318 153.909 146.725 153.236 146.413 152.59C146.113 151.935 146.066 151.227 146.27 150.464C146.447 149.805 146.783 149.271 147.279 148.863C147.788 148.447 148.411 148.183 149.147 148.071C149.894 147.962 150.696 148.022 151.551 148.252C152.251 148.439 152.859 148.663 153.375 148.923C153.891 149.182 154.364 149.497 154.795 149.866L153.971 152.942C153.182 152.178 152.334 151.675 151.427 151.432C150.696 151.236 150.287 151.298 150.202 151.617C150.16 151.772 150.208 151.922 150.345 152.07C150.493 152.22 150.765 152.442 151.161 152.735L151.671 153.12C152.319 153.626 152.798 154.085 153.107 154.499C153.418 154.903 153.604 155.323 153.664 155.758C153.727 156.184 153.679 156.69 153.522 157.277C153.243 158.318 152.642 159.035 151.72 159.428C150.8 159.811 149.572 159.797 148.037 159.386Z" fill="#1E1413"></path></g><path fill-rule="evenodd" clip-rule="evenodd" d="M131.086 57.5551C122.731 55.3163 114.142 60.2748 111.903 68.6302C109.664 76.9857 114.623 85.5741 122.978 87.813C131.334 90.0518 139.922 85.0933 142.161 76.7378C144.4 68.3823 139.442 59.7939 131.086 57.5551ZM108.272 67.6573C111.049 57.2965 121.698 51.148 132.059 53.9242C142.42 56.7003 148.568 67.3499 145.792 77.7107C143.016 88.0715 132.366 94.2201 122.006 91.4439C111.645 88.6677 105.496 78.0181 108.272 67.6573Z" fill="#1E1413"></path><path fill-rule="evenodd" clip-rule="evenodd" d="M118.68 72.3422C119.657 71.9938 120.741 72.4937 121.105 73.4591L121.11 73.4718C121.116 73.488 121.129 73.5184 121.147 73.5613C121.185 73.6473 121.246 73.7822 121.334 73.9526C121.51 74.2955 121.785 74.7685 122.169 75.2693C122.945 76.2817 124.085 77.3078 125.678 77.7346C127.271 78.1615 128.772 77.8432 129.95 77.3543C130.533 77.1125 131.007 76.8403 131.332 76.6314C131.493 76.5277 131.613 76.4416 131.689 76.3858C131.726 76.358 131.752 76.3378 131.766 76.3271L131.777 76.3186C132.575 75.6645 133.763 75.7734 134.436 76.564C135.11 77.3571 135.01 78.5357 134.212 79.1966L132.991 77.7607C134.212 79.1966 134.211 79.1971 134.211 79.1976L134.21 79.1986L134.207 79.2008L134.2 79.2061L134.184 79.2198C134.171 79.2304 134.154 79.2436 134.134 79.2593C134.094 79.2908 134.04 79.3324 133.973 79.3822C133.838 79.4816 133.65 79.6149 133.414 79.7672C132.943 80.0703 132.269 80.457 131.436 80.8025C129.784 81.4884 127.387 82.059 124.712 81.3422C122.036 80.6254 120.246 78.9328 119.158 77.5124C118.609 76.7969 118.219 76.1249 117.963 75.627C117.834 75.3769 117.738 75.1675 117.671 75.0142C117.638 74.9375 117.612 74.8745 117.593 74.8272C117.584 74.8036 117.576 74.7838 117.57 74.7682L117.562 74.7479L117.559 74.7401L117.558 74.7368L117.557 74.7353C117.557 74.7346 117.557 74.7339 119.333 74.101L117.557 74.7339C117.196 73.7625 117.699 72.6917 118.68 72.3422Z" fill="#1E1413"></path><path fill-rule="evenodd" clip-rule="evenodd" d="M121.17 65.6988C121.49 64.5033 122.714 63.7926 123.904 64.1115L123.924 64.1169C125.114 64.4357 125.819 65.6633 125.499 66.8588C125.179 68.0543 123.954 68.7649 122.764 68.4461L122.744 68.4407C121.554 68.1219 120.849 66.8943 121.17 65.6988Z" fill="#1E1413"></path><path fill-rule="evenodd" clip-rule="evenodd" d="M131.272 68.4056C131.592 67.2101 132.816 66.4994 134.006 66.8183L134.026 66.8237C135.216 67.1425 135.921 68.3701 135.601 69.5656C135.28 70.7611 134.056 71.4717 132.866 71.1529L132.846 71.1475C131.656 70.8286 130.951 69.601 131.272 68.4056Z" fill="#1E1413"></path><defs><clipPath id="clip0_468_200"><rect width="191.789" height="179.65" fill="white" transform="translate(46.4968) rotate(15)"></rect></clipPath></defs></svg>