<svg xmlns="http://www.w3.org/2000/svg" width="232" height="224" viewBox="0 0 232 224" fill="none"><g clip-path="url(#clip0_468_133)"><path d="M193.398 59.686L74.9102 27.9373C57.3842 23.2413 39.369 33.6441 34.6722 51.1728L10.7149 140.583C6.01812 158.111 16.4183 176.128 33.9443 180.824L152.432 212.573C169.958 217.269 187.973 206.866 192.67 189.337L216.627 99.9275C221.324 82.3988 210.924 64.3821 193.398 59.686Z" fill="#F9F3EF"></path><path d="M151.991 214.223L33.5011 182.473C29.0138 181.271 24.8882 179.216 21.2413 176.363C17.7228 173.612 14.799 170.243 12.5506 166.349C10.3033 162.456 8.84768 158.239 8.22529 153.815C7.57994 149.23 7.86185 144.628 9.06441 140.14L33.0217 50.7306C34.2243 46.2426 36.2798 42.1163 39.1322 38.4687C41.883 34.9495 45.2523 32.0251 49.1453 29.7761C53.038 27.5282 57.2549 26.0721 61.6785 25.4493C66.2628 24.8035 70.8637 25.0851 75.351 26.2875L193.841 58.0368C198.328 59.2392 202.454 61.2946 206.101 64.1471C209.619 66.898 212.543 70.2675 214.79 74.1606C217.038 78.0537 218.493 82.2709 219.116 86.6951C219.761 91.2799 219.479 95.8815 218.277 100.369L194.319 189.78C193.116 194.268 191.061 198.395 188.209 202.042C185.458 205.562 182.088 208.486 178.195 210.735C174.303 212.983 170.086 214.439 165.663 215.062C161.079 215.708 156.478 215.426 151.991 214.224L151.991 214.223ZM74.467 29.5867C66.4665 27.443 58.08 28.561 50.8536 32.7339C43.6272 36.9067 38.4659 43.612 36.3218 51.6137L12.3642 141.025C10.2202 149.026 11.3374 157.414 15.5092 164.641C19.681 171.868 26.385 177.029 34.3854 179.173L152.875 210.922C160.876 213.066 169.262 211.948 176.489 207.775C183.715 203.602 188.877 196.897 191.021 188.895L214.978 99.4856C217.122 91.4839 216.005 83.0963 211.833 75.8693C207.661 68.6423 200.957 63.4808 192.957 61.3371L74.4667 29.5878L74.467 29.5867Z" fill="#1E1413"></path><path d="M198.045 42.3433L79.5572 10.5946C62.0311 5.89848 44.016 16.3013 39.3192 33.83L15.3619 123.24C10.6651 140.769 21.0652 158.785 38.5913 163.481L157.079 195.23C174.605 199.926 192.62 189.523 197.317 171.995L221.274 82.5847C225.971 65.0561 215.571 47.0393 198.045 42.3433Z" fill="#F9F3EF"></path><path d="M156.638 196.88L38.1481 165.131C33.6607 163.928 29.5351 161.873 25.8883 159.02C22.3698 156.269 19.446 152.9 17.1976 149.007C14.9503 145.114 13.4946 140.896 12.8723 136.472C12.2269 131.887 12.5088 127.286 13.7114 122.798L37.669 33.3867C38.8715 28.8987 40.9271 24.7724 43.7795 21.1248C46.5303 17.6056 49.8995 14.6812 53.7926 12.4322C57.6853 10.1844 61.9021 8.72821 66.3258 8.10541C70.9111 7.45992 75.5107 7.74233 79.998 8.94471L198.488 40.694C202.975 41.8964 207.101 43.9519 210.748 46.8043C214.266 49.5552 217.19 52.9247 219.437 56.8178C221.685 60.7109 223.14 64.9282 223.763 69.3524C224.408 73.9372 224.126 78.5387 222.924 83.0267L198.966 172.438C197.763 176.926 195.708 181.052 192.856 184.7C190.105 188.219 186.735 191.143 182.842 193.392C178.95 195.64 174.733 197.096 170.31 197.719C165.726 198.365 161.125 198.083 156.638 196.881L156.638 196.88ZM79.114 12.2439C71.1135 10.1002 62.7269 11.2182 55.5006 15.3911C48.2739 19.5651 43.1128 26.2692 40.9688 34.2709L17.0112 123.682C14.8672 131.684 15.9844 140.071 20.1562 147.298C24.328 154.525 31.0319 159.687 39.0324 161.83L157.522 193.58C165.523 195.723 173.909 194.605 181.136 190.433C188.362 186.26 193.524 179.554 195.668 171.553L219.625 82.1417C221.769 74.14 220.652 65.7525 216.48 58.5254C212.308 51.2984 205.604 46.1369 197.604 43.9932L79.114 12.2439Z" fill="#1E1413"></path><path d="M66.1726 99.0309L71.3654 100.422C72.7049 100.781 73.6764 101.4 74.28 102.28C74.8836 103.16 75.0142 104.238 74.6719 105.516C74.3295 106.793 73.6771 107.662 72.7146 108.122C71.7521 108.582 70.6012 108.632 69.2618 108.273L67.7317 107.863L66.9408 110.815L63.278 109.834L66.1726 99.0309ZM69.2529 105.339C70.1905 105.59 70.7656 105.319 70.9782 104.526C71.1907 103.733 70.8282 103.21 69.8906 102.959L69.1024 102.748L68.4647 105.128L69.2529 105.339ZM76.345 101.757L81.5378 103.148C82.8773 103.507 83.8488 104.126 84.4524 105.006C85.056 105.885 85.1866 106.964 84.8443 108.241C84.6289 109.045 84.2856 109.687 83.8144 110.168C83.3459 110.639 82.7752 110.956 82.1024 111.118L82.8624 115.081L79.1687 114.092L78.5378 110.759L77.8423 110.573L77.0514 113.524L73.4504 112.56L76.345 101.757ZM79.3944 108.057C80.332 108.308 80.9071 108.037 81.1197 107.243C81.3322 106.45 80.9697 105.928 80.0321 105.676L79.213 105.457L78.5753 107.837L79.3944 108.057ZM86.6684 104.523L94.674 106.668L93.8499 109.743L89.5071 108.58L89.2545 109.522L92.33 110.347L91.5887 113.113L88.5132 112.289L88.2606 113.232L92.6034 114.395L91.7793 117.471L83.7737 115.326L86.6684 104.523ZM96.0965 118.876C95.3855 118.686 94.6888 118.422 94.0062 118.084C93.3237 117.747 92.7888 117.393 92.4017 117.025L93.2548 113.841C93.7434 114.325 94.2851 114.735 94.8797 115.071C95.4846 115.41 96.0601 115.653 96.6062 115.799C96.9153 115.882 97.1451 115.91 97.2956 115.884C97.4461 115.859 97.5393 115.779 97.5752 115.645C97.6249 115.459 97.5633 115.277 97.3903 115.098C97.2202 114.909 96.8403 114.575 96.2506 114.097C95.3774 113.399 94.7846 112.727 94.4721 112.08C94.1726 111.426 94.125 110.717 94.3293 109.955C94.506 109.295 94.8422 108.761 95.3381 108.353C95.8471 107.937 96.4699 107.674 97.2066 107.562C97.9536 107.453 98.7547 107.513 99.6099 107.742C100.311 107.93 100.919 108.153 101.434 108.413C101.95 108.673 102.423 108.987 102.855 109.357L102.03 112.432C101.241 111.669 100.393 111.165 99.4865 110.922C98.755 110.726 98.3464 110.788 98.2609 111.107C98.2194 111.262 98.2674 111.413 98.4046 111.56C98.5522 111.71 98.824 111.932 99.2201 112.226L99.7298 112.611C100.379 113.116 100.857 113.576 101.166 113.99C101.477 114.393 101.663 114.813 101.723 115.249C101.786 115.674 101.738 116.18 101.581 116.768C101.302 117.808 100.701 118.525 99.7789 118.919C98.8591 119.302 97.6316 119.287 96.0965 118.876ZM105.426 112.845L102.66 112.104L103.484 109.028L112.68 111.492L111.855 114.568L109.089 113.827L107.018 121.554L103.356 120.573L105.426 112.845ZM115.303 112.195L118.765 113.123L120.197 125.085L116.442 124.079L116.251 122.007L113.037 121.146L111.836 122.845L108.081 121.839L115.303 112.195ZM116.168 119.103L116.031 116.399L114.561 118.672L116.168 119.103ZM123.341 117.646L120.575 116.904L121.399 113.829L130.594 116.293L129.77 119.368L127.004 118.627L124.933 126.354L121.271 125.373L123.341 117.646ZM131.131 116.437L134.794 117.418L131.899 128.221L128.236 127.239L131.131 116.437ZM138.477 130.232C137.375 129.936 136.439 129.432 135.669 128.718C134.91 128.006 134.386 127.159 134.098 126.176C133.812 125.183 133.816 124.135 134.112 123.033C134.407 121.93 134.927 121.02 135.671 120.303C136.416 119.586 137.294 119.109 138.307 118.873C139.331 118.639 140.394 118.67 141.496 118.965C142.588 119.258 143.514 119.76 144.273 120.471C145.042 121.185 145.57 122.039 145.856 123.032C146.142 124.026 146.137 125.073 145.842 126.176C145.547 127.278 145.027 128.188 144.282 128.905C143.541 129.612 142.658 130.082 141.635 130.316C140.622 130.553 139.569 130.525 138.477 130.232ZM139.401 126.785C140.019 126.951 140.581 126.892 141.088 126.608C141.595 126.324 141.938 125.848 142.117 125.178C142.297 124.508 142.238 123.924 141.941 123.424C141.644 122.925 141.187 122.593 140.568 122.427C139.94 122.259 139.372 122.317 138.866 122.6C138.359 122.884 138.016 123.361 137.836 124.031C137.657 124.7 137.716 125.285 138.013 125.784C138.32 126.286 138.782 126.62 139.401 126.785ZM148.065 120.974L151.295 121.839L153.164 127.724L154.51 122.701L158.018 123.641L155.123 134.444L151.893 133.578L150.029 127.679L148.679 132.717L145.17 131.777L148.065 120.974ZM159.742 135.93C159.031 135.739 158.334 135.475 157.652 135.138C156.969 134.8 156.434 134.447 156.047 134.078L156.9 130.895C157.389 131.379 157.931 131.789 158.525 132.125C159.13 132.464 159.706 132.707 160.252 132.853C160.561 132.936 160.791 132.964 160.941 132.938C161.092 132.912 161.185 132.832 161.221 132.698C161.27 132.513 161.209 132.331 161.036 132.152C160.866 131.963 160.486 131.629 159.896 131.151C159.023 130.453 158.43 129.781 158.118 129.134C157.818 128.479 157.77 127.771 157.975 127.008C158.151 126.349 158.488 125.815 158.984 125.407C159.493 124.991 160.115 124.727 160.852 124.616C161.599 124.507 162.4 124.567 163.255 124.796C163.956 124.983 164.564 125.207 165.08 125.467C165.596 125.726 166.069 126.041 166.5 126.411L165.676 129.486C164.887 128.722 164.039 128.219 163.132 127.976C162.4 127.78 161.992 127.842 161.906 128.161C161.865 128.316 161.913 128.467 162.05 128.614C162.198 128.764 162.469 128.986 162.866 129.28L163.375 129.665C164.024 130.17 164.503 130.629 164.811 131.043C165.123 131.447 165.309 131.867 165.368 132.302C165.431 132.728 165.384 133.234 165.226 133.821C164.948 134.862 164.347 135.579 163.424 135.972C162.505 136.355 161.277 136.341 159.742 135.93ZM63.3716 132.883C62.6607 132.693 61.964 132.429 61.2814 132.092C60.5988 131.754 60.064 131.401 59.6769 131.032L60.53 127.848C61.0186 128.333 61.5602 128.743 62.1549 129.079C62.7598 129.418 63.3353 129.66 63.8814 129.807C64.1904 129.889 64.4203 129.918 64.5708 129.892C64.7213 129.866 64.8145 129.786 64.8504 129.652C64.9 129.467 64.8384 129.284 64.6655 129.106C64.4953 128.916 64.1154 128.583 63.5258 128.105C62.6526 127.407 62.0597 126.734 61.7472 126.087C61.4477 125.433 61.4001 124.725 61.6044 123.962C61.7811 123.303 62.1174 122.769 62.6133 122.361C63.1222 121.945 63.7451 121.681 64.4818 121.569C65.2288 121.46 66.0299 121.52 66.885 121.749C67.5857 121.937 68.1938 122.161 68.7095 122.421C69.2252 122.68 69.6986 122.995 70.1297 123.364L69.3056 126.44C68.5163 125.676 67.6684 125.173 66.7617 124.93C66.0301 124.734 65.6216 124.796 65.536 125.115C65.4946 125.27 65.5425 125.42 65.6798 125.568C65.8273 125.718 66.0991 125.939 66.4952 126.233L67.005 126.618C67.6537 127.123 68.1324 127.583 68.4411 127.997C68.7525 128.401 68.9382 128.82 68.9982 129.256C69.0609 129.682 69.0135 130.188 68.8562 130.775C68.5773 131.816 67.9766 132.533 67.0541 132.926C66.1343 133.309 64.9068 133.295 63.3716 132.883ZM71.6924 123.286L76.8852 124.677C78.2246 125.036 79.1961 125.656 79.7997 126.535C80.4033 127.415 80.534 128.493 80.1916 129.771C79.8493 131.048 79.1969 131.917 78.2344 132.377C77.2719 132.837 76.121 132.887 74.7815 132.528L73.2515 132.119L72.4606 135.07L68.7978 134.089L71.6924 123.286ZM74.7727 129.594C75.7103 129.845 76.2854 129.574 76.4979 128.781C76.7105 127.988 76.348 127.465 75.4104 127.214L74.6222 127.003L73.9845 129.383L74.7727 129.594ZM86.2234 123.469L89.5771 124.368L87.3593 126.772L84.4229 125.985L86.2234 123.469ZM81.8648 126.012L89.8704 128.157L89.0463 131.232L84.7035 130.069L84.4509 131.011L87.5264 131.835L86.7852 134.602L83.7096 133.778L83.457 134.721L87.7998 135.884L86.9758 138.96L78.9702 136.815L81.8648 126.012ZM93.1375 140.859C91.9217 140.533 90.9198 140.028 90.1318 139.342C89.3569 138.648 88.8405 137.814 88.5827 136.839C88.3276 135.854 88.3546 134.785 88.6638 133.631C88.9758 132.467 89.4871 131.527 90.1977 130.812C90.9083 130.097 91.7726 129.633 92.7904 129.42C93.8186 129.209 94.9406 129.267 96.1563 129.593C96.9497 129.805 97.6324 130.06 98.2044 130.357C98.7764 130.654 99.2799 131.02 99.715 131.457L98.7874 134.919C98.4327 134.471 97.9913 134.098 97.4633 133.802C96.9456 133.509 96.3158 133.263 95.574 133.064C94.7703 132.849 94.0842 132.875 93.5157 133.142C92.9602 133.402 92.5844 133.898 92.3884 134.629C92.1924 135.361 92.2738 135.984 92.6325 136.5C92.994 137.005 93.5714 137.364 94.3648 137.577C95.086 137.77 95.7558 137.867 96.3742 137.867C96.9954 137.857 97.6077 137.756 98.2112 137.564L97.2877 141.011C96.087 141.329 94.7036 141.279 93.1375 140.859ZM100.776 131.079L104.439 132.06L101.544 142.863L97.8812 141.882L100.776 131.079ZM105.515 132.349L113.52 134.494L112.696 137.569L108.354 136.406L108.101 137.348L111.177 138.173L110.435 140.939L107.36 140.115L106.283 144.133L102.62 143.152L105.515 132.349ZM113.982 134.617L117.645 135.599L114.75 146.402L111.087 145.42L113.982 134.617ZM121.823 148.297C120.566 147.96 119.521 147.448 118.689 146.762C117.857 146.075 117.288 145.254 116.98 144.299C116.673 143.345 116.667 142.316 116.962 141.214C117.261 140.101 117.772 139.183 118.495 138.461C119.219 137.738 120.086 137.263 121.096 137.037C122.109 136.801 123.193 136.837 124.347 137.146C125.501 137.455 126.461 137.95 127.229 138.631C127.996 139.311 128.511 140.128 128.775 141.082C129.051 142.029 129.04 143.059 128.742 144.171C128.613 144.656 128.347 145.153 127.945 145.664C127.556 146.167 127.15 146.528 126.727 146.746L128.304 147.168L127.587 149.842L121.823 148.297ZM122.251 144.966C122.87 145.132 123.432 145.073 123.939 144.789C124.445 144.505 124.789 144.028 124.968 143.359C125.147 142.689 125.089 142.105 124.792 141.605C124.495 141.106 124.037 140.774 123.419 140.608C122.791 140.44 122.223 140.497 121.716 140.781C121.21 141.065 120.866 141.542 120.687 142.212C120.508 142.881 120.566 143.466 120.863 143.965C121.17 144.467 121.633 144.801 122.251 144.966ZM133.196 151.593C132.031 151.281 131.117 150.798 130.453 150.146C129.788 149.493 129.373 148.735 129.206 147.874C129.04 147.012 129.089 146.086 129.354 145.097L130.944 139.162L134.607 140.144L133.046 145.97C132.883 146.578 132.884 147.07 133.048 147.445C133.213 147.821 133.563 148.08 134.098 148.224C134.634 148.367 135.062 148.316 135.382 148.071C135.712 147.828 135.958 147.402 136.121 146.794L137.682 140.968L141.361 141.954L139.77 147.888C139.505 148.877 139.085 149.703 138.51 150.366C137.935 151.03 137.196 151.478 136.295 151.711C135.393 151.944 134.36 151.905 133.196 151.593ZM142.371 142.224L150.377 144.369L149.553 147.445L145.21 146.281L144.957 147.224L148.033 148.048L147.291 150.814L144.216 149.99L143.963 150.933L148.306 152.097L147.482 155.172L139.476 153.027L142.371 142.224ZM151.799 156.578C151.088 156.387 150.391 156.123 149.709 155.786C149.026 155.448 148.491 155.095 148.104 154.726L148.957 151.543C149.446 152.027 149.988 152.437 150.582 152.773C151.187 153.112 151.763 153.354 152.309 153.501C152.618 153.583 152.848 153.612 152.998 153.586C153.149 153.56 153.242 153.48 153.278 153.346C153.328 153.161 153.266 152.979 153.093 152.8C152.923 152.611 152.543 152.277 151.953 151.799C151.08 151.101 150.487 150.428 150.175 149.782C149.875 149.127 149.828 148.419 150.032 147.656C150.209 146.997 150.545 146.463 151.041 146.055C151.55 145.639 152.173 145.375 152.909 145.263C153.656 145.154 154.457 145.214 155.313 145.444C156.013 145.631 156.621 145.855 157.137 146.115C157.653 146.374 158.126 146.689 158.557 147.058L157.733 150.134C156.944 149.37 156.096 148.867 155.189 148.624C154.458 148.428 154.049 148.49 153.964 148.809C153.922 148.964 153.97 149.114 154.107 149.262C154.255 149.412 154.527 149.634 154.923 149.927L155.432 150.312C156.081 150.818 156.56 151.277 156.869 151.691C157.18 152.095 157.366 152.515 157.426 152.95C157.488 153.376 157.441 153.882 157.284 154.469C157.005 155.51 156.404 156.227 155.482 156.62C154.562 157.003 153.334 156.989 151.799 156.578Z" fill="#1E1413"></path><path d="M134.395 56.6878L121.144 53.1374C120.266 52.902 119.328 53.0315 118.537 53.4976C117.747 53.9637 117.168 54.7281 116.928 55.6226L109.698 82.6054C109.458 83.5 109.577 84.4514 110.029 85.2504C110.481 86.0494 111.228 86.6305 112.107 86.8659L131.983 92.1916C132.861 92.427 133.799 92.2974 134.59 91.8314C135.38 91.3653 135.959 90.6009 136.199 89.7064L141.622 69.4692L134.395 56.6878Z" stroke="#1E1413" stroke-width="4" stroke-linecap="round" stroke-linejoin="round"></path><path d="M134.395 56.6877L131.684 66.8063L141.621 69.4692" stroke="#1E1413" stroke-width="4" stroke-linecap="round" stroke-linejoin="round"></path><path d="M131.94 76.6882L118.69 73.1377" stroke="#1E1413" stroke-width="4" stroke-linecap="round" stroke-linejoin="round"></path><path d="M130.004 83.915L116.753 80.3645" stroke="#1E1413" stroke-width="4" stroke-linecap="round" stroke-linejoin="round"></path><path d="M124.241 66.8772L122.434 66.3931L120.627 65.9089" stroke="#1E1413" stroke-width="4" stroke-linecap="round" stroke-linejoin="round"></path></g><defs><clipPath id="clip0_468_133"><rect width="191.789" height="179.65" fill="white" transform="translate(46.616) rotate(15)"></rect></clipPath></defs></svg>