<svg xmlns="http://www.w3.org/2000/svg" width="1421" height="895" viewBox="0 0 1421 895" fill="none"><path fill-rule="evenodd" clip-rule="evenodd" d="M119.537 586.065C74.8101 612.79 52.2676 646.707 52.2676 679.482C52.2676 712.258 74.8101 746.175 119.537 772.9C163.515 799.177 225.28 815.928 294.301 815.928C363.321 815.928 425.087 799.177 469.064 772.9C513.791 746.175 536.334 712.258 536.334 679.482C536.334 646.707 513.791 612.79 469.064 586.065C425.087 559.788 363.321 543.036 294.301 543.036C225.28 543.036 163.515 559.788 119.537 586.065ZM106.222 556.1C155.104 526.893 221.622 509.327 294.301 509.327C366.979 509.327 433.498 526.893 482.38 556.1C530.512 584.859 565.404 627.592 565.404 679.482C565.404 731.373 530.512 774.106 482.38 802.865C433.498 832.072 366.979 849.638 294.301 849.638C221.622 849.638 155.104 832.072 106.222 802.865C58.0893 774.106 23.197 731.373 23.197 679.482C23.197 627.592 58.0893 584.859 106.222 556.1Z" fill="white"></path><path fill-rule="evenodd" clip-rule="evenodd" d="M1420.5 -10.5L2.82447 894.216L-11 864.562L1362 -10.5H1420.5Z" fill="white"></path></svg>