<svg xmlns="http://www.w3.org/2000/svg" width="200" height="200" viewBox="0 0 200 200" fill="none"><path d="M100.019 200C99.7821 200 99.5489 200 99.3119 200C72.6028 199.817 47.5604 189.243 28.8063 170.225C10.0483 151.208 -0.177338 126.024 0.00232789 99.315C0.189639 72.6022 10.7632 47.5638 29.7772 28.8061C48.7951 10.0521 73.9637 -0.177338 100.688 0.00232703C127.397 0.185815 152.44 10.7593 171.194 29.777C189.948 48.7947 200.181 73.9746 199.998 100.687L188.53 100.607L199.998 100.687C199.814 127.396 189.241 152.438 170.223 171.192C151.373 189.782 126.464 199.996 100.019 199.996V200ZM99.9847 22.9383C79.6021 22.9383 60.4084 30.8091 45.8822 45.1365C31.226 59.5899 23.0799 78.8867 22.9384 99.4717C22.797 120.057 30.6794 139.461 45.1329 154.117C59.5865 168.773 78.8834 176.919 99.4686 177.06C99.6483 177.06 99.8318 177.06 100.011 177.06C120.394 177.06 139.588 169.189 154.114 154.862C168.77 140.409 176.916 121.112 177.058 100.527C177.348 58.0341 143.017 23.2288 100.527 22.9383C100.348 22.9383 100.164 22.9383 99.9847 22.9383Z" fill="#EE2E20"></path></svg>