<svg xmlns="http://www.w3.org/2000/svg" width="232" height="224" viewBox="0 0 232 224" fill="none"><g clip-path="url(#clip0_468_247)"><path d="M156.96 27.9375L38.4722 59.6862C20.9462 64.3823 10.546 82.399 15.2428 99.9277L39.2001 189.338C43.8969 206.866 61.9121 217.269 79.4381 212.573L197.926 180.824C215.452 176.128 225.852 158.111 221.155 140.583L197.198 51.1729C192.501 33.6443 174.486 23.2414 156.96 27.9375Z" fill="#1E1413"></path><path d="M198.369 182.474L79.8789 214.223C75.3916 215.425 70.791 215.708 66.2064 215.061C61.7838 214.438 57.567 212.982 53.6732 210.734C49.7804 208.486 46.4112 205.562 43.6601 202.042C40.8088 198.394 38.7522 194.268 37.5496 189.78L13.5923 100.37C12.3897 95.882 12.1067 91.2807 12.7532 86.6957C13.3759 82.2725 14.8315 78.0553 17.0785 74.1611C19.3258 70.268 22.2496 66.8985 25.7692 64.1473C29.4164 61.2959 33.5417 59.2394 38.029 58.037L156.519 26.2877C161.006 25.0853 165.607 24.8026 170.191 25.4495C174.614 26.0726 178.831 27.5288 182.724 29.7766C186.616 32.0245 189.986 34.9489 192.737 38.4692C195.588 42.1171 197.645 46.2431 198.847 50.7311L222.805 140.142C224.007 144.63 224.29 149.231 223.644 153.816C223.021 158.24 221.566 162.457 219.319 166.351C217.071 170.244 214.148 173.614 210.629 176.364C206.982 179.216 202.857 181.272 198.369 182.475L198.369 182.474ZM38.913 61.3362C30.9126 63.4799 24.2086 68.6414 20.0368 75.8684C15.865 83.0954 14.7478 91.483 16.8918 99.4847L40.8494 188.896C42.9935 196.897 48.1548 203.603 55.3812 207.775C62.6076 211.948 70.9941 213.066 78.9946 210.923L197.485 179.173C205.485 177.03 212.189 171.868 216.361 164.641C220.533 157.414 221.65 149.027 219.506 141.025L195.548 51.615C193.404 43.6133 188.243 36.908 181.017 32.7352C173.79 28.5623 165.404 27.4443 157.403 29.588L38.9133 61.3373L38.913 61.3362Z" fill="white"></path><path d="M152.313 10.5945L33.825 42.3432C16.299 47.0393 5.89881 65.056 10.5956 82.5846L34.5529 171.995C39.2497 189.523 57.2648 199.926 74.7909 195.23L193.279 163.481C210.805 158.785 221.205 140.768 216.508 123.24L192.551 33.8299C187.854 16.3013 169.839 5.8984 152.313 10.5945Z" fill="#1E1413"></path><path d="M193.722 165.131L75.232 196.88C70.7446 198.082 66.144 198.365 61.5595 197.718C57.1369 197.095 52.9201 195.639 49.0262 193.391C45.1335 191.143 41.7642 188.219 39.0131 184.699C36.1618 181.051 34.1052 176.925 32.9026 172.437L8.94504 83.0259C7.74247 78.5379 7.45946 73.9366 8.10591 69.3515C8.72859 64.9284 10.1842 60.7112 12.4312 56.817C14.6785 52.9239 17.6023 49.5544 21.1219 46.8032C24.7702 43.9515 28.8947 41.8963 33.382 40.694L151.872 8.94468C156.359 7.7423 160.96 7.45959 165.544 8.10648C169.967 8.72957 174.184 10.1857 178.077 12.4336C181.969 14.6815 185.339 17.6059 188.09 21.1262C190.941 24.7741 192.998 28.9001 194.2 33.3881L218.158 122.799C219.36 127.287 219.643 131.888 218.997 136.473C218.374 140.897 216.919 145.114 214.672 149.008C212.424 152.901 209.501 156.271 205.982 159.021C202.335 161.873 198.21 163.929 193.722 165.132L193.722 165.131ZM34.2661 43.9932C26.2656 46.1369 19.5616 51.2984 15.3898 58.5254C11.2183 65.7535 10.1008 74.14 12.2449 82.1417L36.2024 171.553C38.3465 179.554 43.5078 186.26 50.7342 190.432C57.9606 194.605 66.3472 195.723 74.3476 193.58L192.838 161.83C200.838 159.687 207.542 154.525 211.714 147.298C215.886 140.071 217.003 131.684 214.859 123.682L190.901 34.2709C188.757 26.2692 183.596 19.5639 176.369 15.3911C169.143 11.2182 160.757 10.1002 152.756 12.2439L34.2661 43.9932Z" fill="white"></path><path d="M46.4743 130.977L49.9362 130.049L57.1581 139.692L53.4026 140.699L52.2019 139L48.9873 139.861L48.7971 141.933L45.0416 142.939L46.4743 130.977ZM50.6777 136.526L49.2074 134.253L49.0704 136.957L50.6777 136.526ZM62.8267 138.422C61.611 138.748 60.4904 138.811 59.465 138.611C58.4471 138.397 57.5829 137.933 56.8723 137.218C56.1589 136.493 55.6476 135.553 55.3384 134.399C55.0264 133.235 54.9994 132.165 55.2572 131.191C55.5151 130.216 56.0315 129.382 56.8064 128.689C57.5916 127.992 58.5921 127.481 59.8079 127.156C60.6012 126.943 61.3198 126.822 61.9636 126.793C62.6073 126.764 63.2268 126.83 63.8221 126.991L64.7497 130.453C64.2183 130.242 63.6499 130.14 63.0446 130.148C62.4496 130.153 61.7812 130.254 61.0393 130.453C60.2357 130.668 59.6545 131.034 59.2957 131.55C58.9446 132.052 58.867 132.67 59.063 133.401C59.259 134.133 59.6413 134.632 60.2098 134.899C60.7756 135.156 61.4552 135.179 62.2485 134.966C62.9698 134.773 63.5982 134.521 64.1337 134.212C64.6665 133.893 65.1463 133.499 65.5732 133.032L66.4966 136.478C65.6161 137.354 64.3928 138.002 62.8267 138.422ZM72.7879 135.753C71.5721 136.079 70.4515 136.142 69.4261 135.942C68.4082 135.728 67.544 135.264 66.8334 134.549C66.12 133.824 65.6087 132.884 65.2995 131.73C64.9875 130.566 64.9605 129.496 65.2183 128.522C65.4762 127.547 65.9926 126.713 66.7675 126.02C67.5527 125.323 68.5532 124.812 69.769 124.486C70.5623 124.274 71.2809 124.153 71.9247 124.124C72.5685 124.095 73.188 124.161 73.7832 124.322L74.7108 127.784C74.1794 127.573 73.611 127.471 73.0057 127.479C72.4107 127.483 71.7423 127.585 71.0004 127.784C70.1968 127.999 69.6156 128.365 69.2569 128.881C68.9057 129.383 68.8281 130.001 69.0241 130.732C69.2201 131.464 69.6024 131.963 70.1709 132.23C70.7367 132.487 71.4163 132.509 72.2096 132.297C72.9309 132.104 73.5593 131.852 74.0948 131.543C74.6276 131.224 75.1075 130.83 75.5343 130.362L76.4577 133.809C75.5772 134.685 74.3539 135.333 72.7879 135.753ZM82.6408 133.113C81.5383 133.408 80.4754 133.439 79.4521 133.205C78.439 132.969 77.5617 132.497 76.8201 131.79C76.0758 131.073 75.556 130.163 75.2606 129.061C74.9652 127.959 74.9605 126.911 75.2465 125.918C75.5325 124.924 76.0551 124.072 76.8142 123.361C77.5836 122.647 78.5195 122.142 79.6219 121.846C80.7141 121.554 81.7667 121.526 82.7797 121.762C83.8031 121.996 84.6869 122.471 85.4312 123.189C86.1755 123.906 86.6954 124.815 86.9908 125.918C87.2862 127.02 87.2909 128.068 87.0049 129.061C86.7161 130.044 86.187 130.893 85.4176 131.607C84.6585 132.318 83.7329 132.82 82.6408 133.113ZM81.7173 129.666C82.3355 129.501 82.7931 129.168 83.09 128.669C83.3869 128.17 83.4456 127.586 83.2662 126.916C83.0867 126.246 82.7436 125.769 82.2369 125.486C81.7302 125.202 81.1677 125.143 80.5495 125.308C79.921 125.477 79.4583 125.81 79.1614 126.31C78.8645 126.809 78.8057 127.393 78.9852 128.063C79.1646 128.733 79.5077 129.209 80.0145 129.493C80.5315 129.774 81.0991 129.832 81.7173 129.666ZM86.3151 120.301L89.5452 119.436L93.8129 124.421L95.0162 117.97L98.2462 117.104L101.141 127.907L97.7563 128.814L96.6837 124.811L95.7626 129.348L94.588 129.663L91.5218 126.195L92.5943 130.197L89.2097 131.104L86.3151 120.301ZM99.3249 116.815L104.518 115.424C105.857 115.065 107.008 115.116 107.971 115.575C108.933 116.035 109.586 116.904 109.928 118.182C110.27 119.459 110.14 120.538 109.536 121.417C108.932 122.297 107.961 122.916 106.621 123.275L105.091 123.685L105.882 126.637L102.22 127.618L99.3249 116.815ZM105.147 120.738C106.084 120.487 106.447 119.965 106.234 119.171C106.022 118.378 105.446 118.107 104.509 118.358L103.721 118.569L104.358 120.95L105.147 120.738ZM111.976 113.426L115.438 112.498L122.66 122.141L118.904 123.148L117.704 121.448L114.489 122.31L114.299 124.382L110.543 125.388L111.976 113.426ZM116.18 118.975L114.709 116.702L114.572 119.405L116.18 118.975ZM128.329 120.871C127.113 121.197 125.992 121.26 124.967 121.059C123.949 120.846 123.085 120.382 122.374 119.667C121.661 118.942 121.149 118.002 120.84 116.848C120.528 115.684 120.501 114.614 120.759 113.64C121.017 112.665 121.533 111.831 122.308 111.137C123.093 110.441 124.094 109.93 125.31 109.604C126.113 109.389 126.832 109.268 127.465 109.242C128.099 109.216 128.718 109.282 129.324 109.44L130.243 112.871C129.712 112.66 129.143 112.558 128.538 112.566C127.943 112.57 127.275 112.672 126.533 112.871C125.74 113.084 125.16 113.454 124.793 113.983C124.435 114.499 124.353 115.123 124.549 115.854C124.762 116.647 125.114 117.199 125.606 117.509C126.095 117.809 126.767 117.844 127.622 117.615C127.931 117.532 128.188 117.419 128.392 117.276L128.119 116.256L126.929 116.575L126.366 114.473L130.77 113.293L132.257 118.841C131.359 119.733 130.049 120.41 128.329 120.871ZM130.31 108.513L133.54 107.647L138.101 111.809L136.755 106.786L140.263 105.846L143.158 116.649L139.927 117.515L135.363 113.338L136.713 118.376L133.205 119.316L130.31 108.513ZM141.343 105.557L149.348 103.412L150.172 106.487L145.83 107.651L146.082 108.594L149.158 107.77L149.899 110.536L146.823 111.36L147.076 112.303L151.419 111.139L152.243 114.215L144.237 116.36L141.343 105.557ZM150.127 103.203L153.357 102.338L157.624 107.323L158.828 100.872L162.058 100.006L164.952 110.809L161.568 111.716L160.495 107.713L159.574 112.25L158.399 112.565L155.333 109.096L156.406 113.099L153.021 114.006L150.127 103.203ZM163.136 99.7172L171.142 97.5721L171.966 100.648L167.623 101.811L167.876 102.754L170.951 101.93L171.693 104.696L168.617 105.52L168.87 106.463L173.213 105.299L174.037 108.375L166.031 110.52L163.136 99.7172ZM171.92 97.3635L175.15 96.498L179.711 100.66L178.365 95.6367L181.873 94.6967L184.768 105.5L181.538 106.365L176.973 102.188L178.323 107.226L174.815 108.166L171.92 97.3635ZM186.003 96.8865L183.236 97.6278L182.412 94.5523L191.608 92.0883L192.432 95.1638L189.665 95.9051L191.736 103.632L188.073 104.614L186.003 96.8865ZM114.693 147.301C113.982 147.491 113.247 147.611 112.487 147.66C111.727 147.709 111.087 147.67 110.568 147.545L109.715 144.361C110.38 144.536 111.054 144.62 111.737 144.614C112.431 144.605 113.05 144.527 113.596 144.381C113.905 144.298 114.119 144.208 114.236 144.11C114.353 144.012 114.394 143.897 114.358 143.763C114.309 143.577 114.164 143.45 113.925 143.382C113.683 143.303 113.187 143.204 112.437 143.085C111.332 142.917 110.483 142.631 109.888 142.227C109.302 141.81 108.906 141.22 108.702 140.458C108.525 139.799 108.55 139.168 108.775 138.567C109.008 137.952 109.416 137.412 109.998 136.947C110.59 136.479 111.314 136.131 112.169 135.901C112.87 135.714 113.508 135.603 114.085 135.57C114.661 135.537 115.228 135.573 115.786 135.678L116.61 138.753C115.545 138.486 114.559 138.475 113.652 138.717C112.921 138.914 112.598 139.171 112.683 139.491C112.725 139.645 112.842 139.752 113.034 139.811C113.237 139.867 113.583 139.923 114.073 139.98L114.707 140.058C115.522 140.171 116.166 140.33 116.64 140.534C117.112 140.728 117.483 140.999 117.752 141.346C118.019 141.683 118.232 142.145 118.389 142.732C118.668 143.773 118.506 144.694 117.904 145.496C117.299 146.288 116.228 146.889 114.693 147.301ZM117.101 134.829L125.106 132.683L125.93 135.759L121.587 136.923L121.84 137.865L124.916 137.041L125.657 139.808L122.581 140.632L122.834 141.574L127.177 140.411L128.001 143.486L119.995 145.631L117.101 134.829ZM134.179 142.079C133.076 142.375 132.013 142.406 130.99 142.172C129.977 141.935 129.099 141.464 128.358 140.757C127.614 140.04 127.094 139.13 126.798 138.028C126.503 136.925 126.498 135.877 126.784 134.884C127.07 133.891 127.593 133.039 128.352 132.327C129.121 131.613 130.057 131.108 131.16 130.813C132.252 130.52 133.304 130.492 134.317 130.729C135.341 130.963 136.225 131.438 136.969 132.155C137.713 132.872 138.233 133.782 138.529 134.884C138.824 135.987 138.829 137.035 138.543 138.028C138.254 139.011 137.725 139.859 136.955 140.573C136.196 141.285 135.271 141.787 134.179 142.079ZM133.255 138.633C133.873 138.467 134.331 138.135 134.628 137.636C134.925 137.137 134.983 136.552 134.804 135.882C134.624 135.213 134.281 134.736 133.775 134.452C133.268 134.168 132.705 134.109 132.087 134.275C131.459 134.443 130.996 134.777 130.699 135.276C130.402 135.775 130.344 136.36 130.523 137.03C130.702 137.699 131.045 138.176 131.552 138.46C132.069 138.741 132.637 138.799 133.255 138.633Z" fill="white"></path></g><mask id="mask0_468_247" style="mask-type:alpha" maskUnits="userSpaceOnUse" x="78" y="44" width="56" height="56"><rect x="78.1553" y="56.1086" width="45.3172" height="45.3172" transform="rotate(-15 78.1553 56.1086)" fill="#D9D9D9"></rect></mask><g mask="url(#mask0_468_247)"><path d="M89.7531 92.0976L88.3848 86.9907C88.1078 85.9572 88.1195 84.9356 88.4198 83.9259C88.7192 82.9178 89.2485 82.0677 90.0079 81.3755C91.6401 79.9282 93.3657 78.708 95.1847 77.7149C97.0041 76.7231 98.9169 75.9583 100.923 75.4208C102.929 74.8832 104.968 74.589 107.04 74.5383C109.112 74.4888 111.216 74.6827 113.354 75.1201C114.357 75.3398 115.241 75.8114 116.004 76.5347C116.769 77.259 117.29 78.1379 117.567 79.1714L118.935 84.2783L89.7531 92.0976ZM122.583 83.3008L121.117 77.8292C120.758 76.4917 120.042 75.3068 118.968 74.2744C117.893 73.2437 116.553 72.4708 114.949 71.9557C116.548 71.7227 118.091 71.643 119.577 71.7167C121.063 71.7915 122.484 71.9893 123.841 72.31C125.098 72.6247 126.115 73.0768 126.892 73.6662C127.669 74.2568 128.176 74.9928 128.412 75.8744L129.878 81.346L122.583 83.3008ZM100.435 73.5969C98.4282 74.1345 96.5193 73.8803 94.7078 72.8344C92.8963 71.7885 91.7217 70.2625 91.1842 68.2562C90.6466 66.2499 90.9007 64.3411 91.9466 62.5295C92.9925 60.718 94.5186 59.5435 96.5249 59.0059C98.5311 58.4683 100.44 58.7225 102.252 59.7683C104.063 60.8142 105.238 62.3403 105.775 64.3466C106.313 66.3528 106.059 68.2617 105.013 70.0732C103.967 71.8848 102.441 73.0593 100.435 73.5969ZM116.718 61.4143C117.256 63.4206 117.002 65.3295 115.956 67.141C114.91 68.9525 113.384 70.1271 111.378 70.6647C111.043 70.7543 110.608 70.8306 110.071 70.8937C109.533 70.9555 109.085 70.9857 108.727 70.9841C109.287 69.7914 109.628 68.5434 109.751 67.2399C109.874 65.9361 109.765 64.6459 109.423 63.3691C109.081 62.0924 108.53 60.9204 107.771 59.8532C107.013 58.7856 106.094 57.8754 105.012 57.1226C105.397 56.8566 105.796 56.6435 106.209 56.4832C106.623 56.3242 107.043 56.1877 107.468 56.0736C109.474 55.5361 111.383 55.7902 113.195 56.8361C115.006 57.882 116.181 59.4081 116.718 61.4143ZM92.4235 87.4724L114.31 81.6079L113.919 80.1488C113.829 79.8144 113.665 79.5328 113.425 79.3038C113.184 79.0752 112.906 78.9216 112.592 78.8429C110.73 78.462 108.909 78.29 107.127 78.327C105.345 78.3652 103.603 78.6124 101.901 79.0685C100.198 79.5247 98.5662 80.1816 97.0041 81.0393C95.4423 81.8983 93.9506 82.9581 92.5291 84.2186C92.2962 84.4439 92.1331 84.7157 92.0399 85.0339C91.9454 85.3525 91.9429 85.6789 92.0325 86.0133L92.4235 87.4724ZM99.4571 69.9491C100.46 69.6804 101.223 69.0927 101.747 68.1862C102.269 67.2812 102.396 66.3271 102.127 65.324C101.859 64.3208 101.272 63.558 100.367 63.0355C99.4602 62.5121 98.5054 62.3848 97.5023 62.6536C96.4991 62.9224 95.7365 63.5099 95.2143 64.4161C94.6906 65.3214 94.5631 66.2757 94.8319 67.2788C95.1007 68.2819 95.6882 69.0446 96.5944 69.5668C97.4997 70.0905 98.454 70.2179 99.4571 69.9491Z" fill="white"></path></g><defs><clipPath id="clip0_468_247"><rect width="191.789" height="179.65" fill="white" transform="translate(0 49.6387) rotate(-15)"></rect></clipPath></defs></svg>