<svg xmlns="http://www.w3.org/2000/svg" width="232" height="224" viewBox="0 0 232 224" fill="none"><g clip-path="url(#clip0_468_216)"><path d="M156.96 27.9375L38.4722 59.6862C20.9462 64.3823 10.546 82.399 15.2428 99.9277L39.2001 189.338C43.8969 206.866 61.9121 217.269 79.4381 212.573L197.926 180.824C215.452 176.128 225.852 158.111 221.155 140.583L197.198 51.1729C192.501 33.6443 174.486 23.2414 156.96 27.9375Z" fill="#1E1413"></path><path d="M198.369 182.474L79.8789 214.223C75.3916 215.425 70.791 215.708 66.2064 215.061C61.7838 214.438 57.567 212.982 53.6732 210.734C49.7804 208.486 46.4112 205.562 43.6601 202.042C40.8088 198.394 38.7522 194.268 37.5496 189.78L13.5923 100.37C12.3897 95.882 12.1067 91.2807 12.7532 86.6957C13.3759 82.2725 14.8315 78.0553 17.0785 74.1611C19.3258 70.268 22.2496 66.8985 25.7692 64.1473C29.4164 61.2959 33.5417 59.2394 38.029 58.037L156.519 26.2877C161.006 25.0853 165.607 24.8026 170.191 25.4495C174.614 26.0726 178.831 27.5288 182.724 29.7766C186.616 32.0245 189.986 34.9489 192.737 38.4692C195.588 42.1171 197.645 46.2431 198.847 50.7311L222.805 140.142C224.007 144.63 224.29 149.231 223.644 153.816C223.021 158.24 221.566 162.457 219.319 166.351C217.071 170.244 214.148 173.614 210.629 176.364C206.982 179.216 202.857 181.272 198.369 182.475L198.369 182.474ZM38.913 61.3362C30.9126 63.4799 24.2086 68.6414 20.0368 75.8684C15.865 83.0954 14.7478 91.483 16.8918 99.4847L40.8494 188.896C42.9935 196.897 48.1548 203.603 55.3812 207.775C62.6076 211.948 70.9941 213.066 78.9946 210.923L197.485 179.173C205.485 177.03 212.189 171.868 216.361 164.641C220.533 157.414 221.65 149.027 219.506 141.025L195.548 51.615C193.404 43.6133 188.243 36.908 181.017 32.7352C173.79 28.5623 165.404 27.4443 157.403 29.588L38.9133 61.3373L38.913 61.3362Z" fill="white"></path><path d="M152.313 10.5945L33.825 42.3432C16.299 47.0393 5.89881 65.056 10.5956 82.5846L34.5529 171.995C39.2497 189.523 57.2648 199.926 74.7909 195.23L193.279 163.481C210.805 158.785 221.205 140.768 216.508 123.24L192.551 33.8299C187.854 16.3013 169.839 5.8984 152.313 10.5945Z" fill="#1E1413"></path><path d="M193.722 165.131L75.232 196.88C70.7446 198.082 66.144 198.365 61.5595 197.718C57.1369 197.095 52.9201 195.639 49.0262 193.391C45.1335 191.143 41.7642 188.219 39.0131 184.699C36.1618 181.051 34.1052 176.925 32.9026 172.437L8.94504 83.0259C7.74247 78.5379 7.45946 73.9366 8.10591 69.3515C8.72859 64.9284 10.1842 60.7112 12.4312 56.817C14.6785 52.9239 17.6023 49.5544 21.1219 46.8032C24.7702 43.9515 28.8947 41.8963 33.382 40.694L151.872 8.94468C156.359 7.7423 160.96 7.45959 165.544 8.10648C169.967 8.72957 174.184 10.1857 178.077 12.4336C181.969 14.6815 185.339 17.6059 188.09 21.1262C190.941 24.7741 192.998 28.9001 194.2 33.3881L218.158 122.799C219.36 127.287 219.643 131.888 218.997 136.473C218.374 140.897 216.919 145.114 214.672 149.008C212.424 152.901 209.501 156.271 205.982 159.021C202.335 161.873 198.21 163.929 193.722 165.132L193.722 165.131ZM34.2661 43.9932C26.2656 46.1369 19.5616 51.2984 15.3898 58.5254C11.2183 65.7535 10.1008 74.14 12.2449 82.1417L36.2024 171.553C38.3465 179.554 43.5078 186.26 50.7342 190.432C57.9606 194.605 66.3472 195.723 74.3476 193.58L192.838 161.83C200.838 159.687 207.542 154.525 211.714 147.298C215.886 140.071 217.003 131.684 214.859 123.682L190.901 34.2709C188.757 26.2692 183.596 19.5639 176.369 15.3911C169.143 11.2182 160.757 10.1002 152.756 12.2439L34.2661 43.9932Z" fill="white"></path><path d="M86.3185 120.065L89.7804 119.138L97.0023 128.781L93.2468 129.787L92.0461 128.088L88.8315 128.95L88.6413 131.021L84.8858 132.028L86.3185 120.065ZM90.5219 125.614L89.0516 123.342L88.9146 126.045L90.5219 125.614ZM101.964 127.7C100.8 128.012 99.7667 128.051 98.865 127.818C97.9632 127.585 97.2247 127.137 96.6495 126.474C96.0743 125.811 95.6542 124.985 95.3892 123.996L93.799 118.061L97.4618 117.079L99.023 122.906C99.1858 123.514 99.4323 123.939 99.7624 124.182C100.093 124.425 100.525 124.475 101.061 124.331C101.597 124.187 101.942 123.929 102.096 123.557C102.261 123.181 102.261 122.69 102.098 122.082L100.537 116.255L104.216 115.27L105.806 121.204C106.071 122.194 106.12 123.119 105.953 123.981C105.787 124.843 105.371 125.6 104.707 126.253C104.043 126.906 103.128 127.388 101.964 127.7ZM105.226 114.999L109.368 113.889C110.563 113.569 111.667 113.505 112.679 113.698C113.702 113.888 114.568 114.318 115.278 114.989C115.988 115.66 116.489 116.542 116.782 117.634C117.262 119.427 117.091 120.93 116.268 122.145C115.452 123.346 114.117 124.195 112.262 124.692L108.121 125.802L105.226 114.999ZM111.599 121.226C112.938 120.867 113.424 120.002 113.057 118.632C112.889 118.004 112.585 117.571 112.146 117.336C111.705 117.089 111.165 117.052 110.526 117.223L109.8 117.418L110.872 121.421L111.599 121.226ZM116.123 112.079L119.786 111.098L122.68 121.901L119.017 122.882L116.123 112.079ZM123.911 113.289L121.145 114.03L120.321 110.954L129.516 108.49L130.341 111.566L127.574 112.307L129.645 120.035L125.982 121.016L123.911 113.289ZM141.461 117.117C140.204 117.454 139.125 117.445 138.223 117.09C137.332 116.732 136.755 116.059 136.489 115.07C136.313 114.41 136.298 113.818 136.444 113.293C136.598 112.755 136.916 112.211 137.399 111.663C137.001 111.416 136.672 111.134 136.41 110.818C136.156 110.488 135.964 110.081 135.835 109.597C135.688 109.051 135.701 108.523 135.874 108.013C136.047 107.503 136.379 107.055 136.872 106.669C137.362 106.272 137.988 105.972 138.751 105.768C139.482 105.572 140.144 105.527 140.736 105.633C141.338 105.737 141.836 105.968 142.23 106.326C142.634 106.682 142.908 107.127 143.052 107.663C143.212 108.261 143.228 108.792 143.098 109.257C142.977 109.71 142.708 110.19 142.292 110.699L143.941 111.599C143.972 111.26 143.898 110.76 143.722 110.101L146.612 109.326C146.835 110.161 146.954 110.852 146.969 111.401C146.983 111.949 146.91 112.521 146.749 113.116L149.574 114.695L145.309 115.837L144.581 115.469C143.995 116.167 142.955 116.717 141.461 117.117ZM139.776 109.717C139.961 109.502 140.086 109.308 140.15 109.136C140.222 108.951 140.236 108.776 140.192 108.612C140.134 108.395 140.033 108.245 139.89 108.163C139.753 108.067 139.582 108.046 139.376 108.101C139.17 108.157 139.027 108.261 138.947 108.415C138.874 108.556 138.867 108.735 138.925 108.951C138.997 109.219 139.28 109.474 139.776 109.717ZM141.056 114.741C141.499 114.622 141.816 114.405 142.007 114.088L140.272 113.112C139.914 113.385 139.79 113.727 139.901 114.139C139.97 114.397 140.113 114.579 140.329 114.687C140.546 114.795 140.788 114.813 141.056 114.741ZM69.6076 147.319L73.0694 146.391L80.2914 156.035L76.5359 157.041L75.3352 155.342L72.1206 156.203L71.9304 158.275L68.1748 159.282L69.6076 147.319ZM73.811 152.868L72.3406 150.595L72.2037 153.299L73.811 152.868ZM78.1765 145.023L81.4066 144.158L85.967 148.319L84.6212 143.296L88.1294 142.356L91.0241 153.159L87.794 154.025L83.2294 149.848L84.5794 154.886L81.0712 155.826L78.1765 145.023ZM93.2275 140.99L96.6893 140.063L103.911 149.706L100.156 150.712L98.9551 149.013L95.7405 149.874L95.5503 151.946L91.7947 152.953L93.2275 140.99ZM97.4309 146.539L95.9605 144.266L95.8236 146.97L97.4309 146.539ZM101.796 138.694L105.459 137.713L107.53 145.44L111.563 144.359L112.388 147.435L104.691 149.497L101.796 138.694ZM113.269 142.776L107.57 137.147L111.48 136.099L114.234 139.022L115.313 135.072L119.207 134.029L116.931 141.795L118.037 145.921L114.374 146.902L113.269 142.776ZM125.53 144.162C124.819 144.352 124.083 144.472 123.323 144.521C122.563 144.57 121.924 144.532 121.404 144.406L120.551 141.222C121.216 141.397 121.891 141.482 122.573 141.475C123.267 141.466 123.886 141.389 124.432 141.242C124.742 141.159 124.955 141.069 125.072 140.971C125.19 140.874 125.23 140.758 125.194 140.624C125.145 140.439 125 140.312 124.761 140.243C124.519 140.164 124.023 140.065 123.274 139.946C122.168 139.778 121.319 139.493 120.725 139.089C120.138 138.671 119.743 138.082 119.538 137.319C119.362 136.66 119.386 136.029 119.611 135.428C119.844 134.813 120.252 134.274 120.834 133.808C121.426 133.34 122.15 132.992 123.005 132.763C123.706 132.575 124.344 132.465 124.921 132.432C125.497 132.399 126.064 132.434 126.623 132.539L127.447 135.614C126.381 135.348 125.395 135.336 124.489 135.579C123.757 135.775 123.434 136.033 123.52 136.352C123.561 136.506 123.678 136.613 123.87 136.672C124.073 136.728 124.42 136.784 124.91 136.841L125.544 136.919C126.358 137.033 127.002 137.191 127.477 137.395C127.948 137.589 128.319 137.86 128.589 138.207C128.856 138.544 129.068 139.006 129.225 139.594C129.504 140.634 129.342 141.556 128.74 142.357C128.135 143.149 127.065 143.75 125.53 144.162ZM127.937 131.69L135.942 129.545L136.766 132.62L132.424 133.784L132.676 134.727L135.752 133.903L136.493 136.669L133.418 137.493L133.67 138.436L138.013 137.272L138.837 140.348L130.831 142.493L127.937 131.69ZM143.278 139.406C142.567 139.597 141.832 139.716 141.072 139.765C140.312 139.814 139.673 139.776 139.153 139.65L138.3 136.466C138.965 136.641 139.639 136.726 140.322 136.72C141.016 136.71 141.635 136.633 142.181 136.486C142.49 136.404 142.704 136.313 142.821 136.216C142.938 136.118 142.979 136.002 142.943 135.868C142.894 135.683 142.749 135.556 142.51 135.487C142.268 135.409 141.772 135.31 141.022 135.19C139.917 135.023 139.068 134.737 138.474 134.333C137.887 133.916 137.492 133.326 137.287 132.563C137.111 131.904 137.135 131.274 137.36 130.672C137.593 130.058 138.001 129.518 138.583 129.053C139.175 128.585 139.899 128.236 140.754 128.007C141.455 127.819 142.093 127.709 142.67 127.676C143.246 127.643 143.813 127.679 144.371 127.783L145.195 130.859C144.13 130.592 143.144 130.58 142.237 130.823C141.506 131.019 141.183 131.277 141.269 131.596C141.31 131.751 141.427 131.857 141.619 131.916C141.822 131.972 142.168 132.029 142.658 132.085L143.292 132.164C144.107 132.277 144.751 132.435 145.225 132.64C145.697 132.833 146.068 133.104 146.337 133.451C146.604 133.788 146.817 134.251 146.974 134.838C147.253 135.879 147.091 136.8 146.489 137.602C145.884 138.393 144.814 138.995 143.278 139.406ZM156.877 135.762C156.166 135.953 155.431 136.073 154.671 136.122C153.911 136.171 153.271 136.132 152.751 136.006L151.898 132.823C152.564 132.998 153.238 133.082 153.921 133.076C154.614 133.067 155.234 132.989 155.78 132.843C156.089 132.76 156.302 132.67 156.42 132.572C156.537 132.474 156.578 132.358 156.542 132.225C156.492 132.039 156.348 131.912 156.108 131.844C155.866 131.765 155.371 131.666 154.621 131.547C153.516 131.379 152.666 131.093 152.072 130.689C151.485 130.272 151.09 129.682 150.886 128.92C150.709 128.26 150.733 127.63 150.959 127.028C151.192 126.414 151.599 125.874 152.181 125.409C152.774 124.941 153.497 124.592 154.353 124.363C155.053 124.176 155.692 124.065 156.268 124.032C156.845 123.999 157.412 124.035 157.97 124.139L158.794 127.215C157.729 126.948 156.743 126.936 155.836 127.179C155.104 127.375 154.781 127.633 154.867 127.952C154.908 128.107 155.025 128.214 155.218 128.273C155.421 128.329 155.767 128.385 156.257 128.441L156.891 128.52C157.705 128.633 158.35 128.792 158.824 128.996C159.295 129.19 159.666 129.46 159.936 129.808C160.203 130.145 160.415 130.607 160.572 131.194C160.851 132.235 160.69 133.156 160.087 133.958C159.482 134.75 158.412 135.351 156.877 135.762ZM159.284 123.29L167.29 121.145L168.114 124.221L163.771 125.384L164.024 126.327L167.099 125.503L167.84 128.269L164.765 129.094L165.017 130.036L169.36 128.873L170.184 131.948L162.179 134.093L159.284 123.29ZM176.362 130.541C175.26 130.837 174.197 130.868 173.173 130.634C172.16 130.397 171.283 129.926 170.541 129.219C169.797 128.502 169.277 127.592 168.982 126.489C168.686 125.387 168.682 124.339 168.968 123.346C169.254 122.353 169.776 121.5 170.535 120.789C171.305 120.075 172.241 119.57 173.343 119.275C174.435 118.982 175.488 118.954 176.501 119.191C177.524 119.424 178.408 119.9 179.153 120.617C179.897 121.334 180.417 122.244 180.712 123.346C181.007 124.449 181.012 125.497 180.726 126.49C180.437 127.473 179.908 128.321 179.139 129.035C178.38 129.747 177.454 130.249 176.362 130.541ZM175.439 127.095C176.057 126.929 176.514 126.597 176.811 126.098C177.108 125.598 177.167 125.014 176.987 124.344C176.808 123.675 176.465 123.198 175.958 122.914C175.451 122.63 174.889 122.571 174.271 122.737C173.642 122.905 173.18 123.239 172.883 123.738C172.586 124.237 172.527 124.822 172.707 125.491C172.886 126.161 173.229 126.638 173.736 126.922C174.253 127.203 174.82 127.261 175.439 127.095Z" fill="white"></path></g><mask id="mask0_468_216" style="mask-type:alpha" maskUnits="userSpaceOnUse" x="80" y="43" width="57" height="57"><rect x="80.5002" y="55.4802" width="45.3172" height="45.3172" transform="rotate(-15 80.5002 55.4802)" fill="#D9D9D9"></rect></mask><g mask="url(#mask0_468_216)"><path d="M93.4335 89.1564L92.4561 85.5087L110.695 80.6216L111.672 84.2694L93.4335 89.1564ZM90.99 80.0371L90.0126 76.3893L99.1319 73.9458L100.109 77.5935L90.99 80.0371ZM88.5464 70.9177L87.569 67.2699L96.6884 64.8264L97.6658 68.4741L88.5464 70.9177ZM127.358 80.0665L118.454 74.9261C117.863 75.6383 117.169 76.2393 116.373 76.7291C115.575 77.2204 114.735 77.5841 113.854 77.8203C111.331 78.4964 108.942 78.1831 106.688 76.8806C104.433 75.5795 102.967 73.6675 102.291 71.1445C101.615 68.6215 101.928 66.2322 103.23 63.9766C104.532 61.7226 106.444 60.2576 108.967 59.5816C111.49 58.9055 113.879 59.218 116.134 60.519C118.389 61.8216 119.854 63.7344 120.53 66.2574C120.766 67.139 120.871 68.0477 120.846 68.9838C120.819 69.9189 120.645 70.8205 120.323 71.6885L129.227 76.8289L127.358 80.0665ZM112.877 74.1726C114.396 73.7653 115.546 72.8872 116.325 71.5382C117.103 70.1892 117.289 68.7547 116.882 67.2348C116.475 65.7149 115.597 64.5656 114.248 63.7867C112.899 63.0079 111.464 62.8221 109.944 63.2293C108.424 63.6366 107.275 64.5147 106.496 65.8637C105.717 67.2127 105.531 68.6472 105.939 70.1671C106.346 71.687 107.224 72.8363 108.573 73.6152C109.922 74.394 111.357 74.5798 112.877 74.1726Z" fill="white"></path></g><defs><clipPath id="clip0_468_216"><rect width="191.789" height="179.65" fill="white" transform="translate(0 49.6387) rotate(-15)"></rect></clipPath></defs></svg>